<svg width="48" height="48" viewBox="0 0 48 48" fill="none" xmlns="http://www.w3.org/2000/svg">
<rect width="48" height="48" fill="white"/>
<path d="M40 24C40 32.8366 32.8366 40 24 40C15.1634 40 8 32.8366 8 24C8 15.1634 15.1634 8 24 8C32.8366 8 40 15.1634 40 24Z" fill="#CFCFCF"/>
<path d="M37 24C37 31.1797 31.1797 37 24 37C16.8203 37 11 31.1797 11 24C11 16.8203 16.8203 11 24 11C31.1797 11 37 16.8203 37 24Z" fill="#878787"/>
<path d="M34 24C34 29.5228 29.5228 34 24 34C18.4772 34 14 29.5228 14 24C14 18.4772 18.4772 14 24 14C29.5228 14 34 18.4772 34 24Z" fill="#545454"/>
<path d="M15 17.4C15 16.6268 15.6268 16 16.4 16H31.6C32.3732 16 33 16.6268 33 17.4V30.6C33 31.3732 32.3732 32 31.6 32H16.4C15.6268 32 15 31.3732 15 30.6V17.4Z" fill="white"/>
<path d="M15 17.4C15 16.6268 15.6268 16 16.4 16H31.6C32.3732 16 33 16.6268 33 17.4V30.6C33 31.3732 32.3732 32 31.6 32H16.4C15.6268 32 15 31.3732 15 30.6V17.4Z" fill="#FFA201" fill-opacity="0.6"/>
<path fill-rule="evenodd" clip-rule="evenodd" d="M31 26H25V24H31V26Z" fill="white"/>
<path fill-rule="evenodd" clip-rule="evenodd" d="M31 26H25V24H31V26Z" fill="#963700" fill-opacity="0.8"/>
<path fill-rule="evenodd" clip-rule="evenodd" d="M31 29H25V27H31V29Z" fill="white"/>
<path fill-rule="evenodd" clip-rule="evenodd" d="M31 29H25V27H31V29Z" fill="#963700" fill-opacity="0.8"/>
<path d="M21 21V16H27V21L24 19L21 21Z" fill="white"/>
<path d="M21 21V16H27V21L24 19L21 21Z" fill="#963700" fill-opacity="0.8"/>
<path d="M20 37H29V41.5C29 42.3284 28.3284 43 27.5 43H21.5C20.6716 43 20 42.3284 20 41.5V37Z" fill="#CFCFCF"/>
<path d="M30.5685 36.9324L36.9324 30.5685L39.8493 33.4853C40.435 34.0711 40.435 35.0208 39.8493 35.6066L35.6066 39.8492C35.0208 40.435 34.0711 40.435 33.4853 39.8492L30.5685 36.9324Z" fill="#CFCFCF"/>
<path d="M11 20L11 28L6.5 28C5.67157 28 5 27.3284 5 26.5L5 21.5C5 20.6716 5.67157 20 6.5 20L11 20Z" fill="#CFCFCF"/>
<path d="M11.0676 30.5685L17.4315 36.9324L14.5147 39.8492C13.9289 40.435 12.9792 40.435 12.3934 39.8492L8.15075 35.6066C7.56496 35.0208 7.56496 34.0711 8.15075 33.4853L11.0676 30.5685Z" fill="#CFCFCF"/>
<path d="M20 6.5C20 5.67157 20.6716 5 21.5 5H27.5C28.3284 5 29 5.67157 29 6.5V11H20V6.5Z" fill="#CFCFCF"/>
<path d="M8.15075 14.5147C7.56496 13.9289 7.56496 12.9792 8.15075 12.3934L12.3934 8.15074C12.9792 7.56495 13.9289 7.56495 14.5147 8.15074L17.4315 11.0676L11.0676 17.4315L8.15075 14.5147Z" fill="#CFCFCF"/>
<path d="M41.5 20C42.3284 20 43 20.6716 43 21.5L43 26.5C43 27.3284 42.3284 28 41.5 28L37 28L37 20L41.5 20Z" fill="#CFCFCF"/>
<path d="M33.4853 8.15075C34.0711 7.56496 35.0208 7.56496 35.6066 8.15075L39.8493 12.3934C40.435 12.9792 40.435 13.9289 39.8493 14.5147L36.9324 17.4315L30.5685 11.0676L33.4853 8.15075Z" fill="#CFCFCF"/>
</svg>
