<svg width="48" height="48" viewBox="0 0 48 48" fill="none" xmlns="http://www.w3.org/2000/svg">
<rect width="48" height="48" fill="white"/>
<path d="M38.4558 18C39.8648 18 41.1437 19.1704 41.7738 20.39L44.5638 25.79C45.8005 28.1837 44.289 31 41.5236 31H10.2318C9.49468 31 8.78332 30.7292 8.2384 30.2328C6.921 29.0328 4.43894 26.7323 3.50727 25.6C3.22871 25.2765 3 24.5483 3 24.1273V14.8C3 13.8059 3.66365 13 4.6909 13H6.11531C6.66732 13 7.19081 13.2373 7.5442 13.6477L11.6457 18H38.4558Z" fill="#0073AB"/>
<path fill-rule="evenodd" clip-rule="evenodd" d="M43.1223 23L44.5638 25.79C44.5998 25.8597 44.6335 25.9297 44.6648 26H35V23H43.1223Z" fill="#B5E0F5"/>
<path fill-rule="evenodd" clip-rule="evenodd" d="M20.0068 8.16609C19.9129 7.00005 20.8024 6 21.9335 6H22.333C22.9415 6 23.5146 6.29639 23.8797 6.8L32 18H20.799L20.0068 8.16609Z" fill="#EDEDED"/>
<path d="M33 31L24.2345 44.0815C23.8509 44.654 23.1903 45 22.4809 45H22.0848C20.8749 45 19.9192 44.0152 20.0054 42.8575L20.8882 31H33Z" fill="#EDEDED"/>
<path d="M20 23H26V26H20V23Z" fill="#B5E0F5"/>
<path d="M12 23H18V26H12V23Z" fill="#B5E0F5"/>
</svg>
