<svg width="48" height="48" viewBox="0 0 48 48" fill="none" xmlns="http://www.w3.org/2000/svg">
<rect width="48" height="48" fill="white"/>
<path d="M44 19C44 26.732 37.732 33 30 33C22.268 33 16 26.732 16 19C16 11.268 22.268 5 30 5C37.732 5 44 11.268 44 19Z" fill="#CFCFCF"/>
<path d="M41 19C41 25.0751 36.0751 30 30 30C23.9249 30 19 25.0751 19 19C19 12.9249 23.9249 8 30 8C36.0751 8 41 12.9249 41 19Z" fill="#878787"/>
<path d="M36 19C36 22.3137 33.3137 25 30 25C26.6863 25 24 22.3137 24 19C24 15.6863 26.6863 13 30 13C33.3137 13 36 15.6863 36 19Z" fill="#545454"/>
<path d="M34 19C34 21.2091 32.2091 23 30 23C27.7909 23 26 21.2091 26 19C26 16.7909 27.7909 15 30 15C32.2091 15 34 16.7909 34 19Z" fill="#F7F7F7"/>
<path d="M26 3.5C26 2.67157 26.6716 2 27.5 2H32.5C33.3284 2 34 2.67157 34 3.5V7H26V3.5Z" fill="#CFCFCF"/>
<path d="M16.2114 10.8683C15.6256 10.2825 15.6256 9.33274 16.2114 8.74696L19.747 5.21142C20.3327 4.62564 21.2825 4.62564 21.8683 5.21142L24.3431 7.6863L18.6863 13.3432L16.2114 10.8683Z" fill="#CFCFCF"/>
<path d="M38.1317 5.21142C38.7175 4.62563 39.6673 4.62563 40.253 5.21142L43.7886 8.74695C44.3744 9.33274 44.3744 10.2825 43.7886 10.8683L41.3137 13.3431L35.6568 7.68629L38.1317 5.21142Z" fill="#CFCFCF"/>
<path d="M45.5 15C46.3284 15 47 15.6716 47 16.5L47 21.5C47 22.3284 46.3284 23 45.5 23L42 23L42 15L45.5 15Z" fill="#CFCFCF"/>
<path d="M34 34.5C34 35.3284 33.3284 36 32.5 36L27.5 36C26.6716 36 26 35.3284 26 34.5L26 31L34 31L34 34.5Z" fill="#CFCFCF"/>
<path d="M43.7886 27.1317C44.3744 27.7175 44.3744 28.6673 43.7886 29.253L40.253 32.7886C39.6673 33.3744 38.7175 33.3744 38.1317 32.7886L35.6569 30.3137L41.3137 24.6568L43.7886 27.1317Z" fill="#CFCFCF"/>
<path d="M21.8683 32.7886C21.2825 33.3744 20.3327 33.3744 19.747 32.7886L16.2114 29.253C15.6256 28.6673 15.6256 27.7175 16.2114 27.1317L18.6863 24.6569L24.3432 30.3137L21.8683 32.7886Z" fill="#CFCFCF"/>
<path d="M14.5 23C13.6716 23 13 22.3284 13 21.5L13 16.5C13 15.6716 13.6716 15 14.5 15L18 15L18 23L14.5 23Z" fill="#CFCFCF"/>
<path d="M41 38V46H2V37C2 33.6863 4.68629 31 8 31H11V28C11 24.6863 13.6863 22 17 22H23C26.3137 22 29 24.6863 29 28V34H37C39.2091 34 41 35.7909 41 38Z" fill="white"/>
<path d="M41 38V46H2V37C2 33.6863 4.68629 31 8 31H11V28C11 24.6863 13.6863 22 17 22H23C26.3137 22 29 24.6863 29 28V34H37C39.2091 34 41 35.7909 41 38Z" fill="#B5E0F5" fill-opacity="0.6"/>
</svg>
