<svg width="504" height="336" viewBox="0 0 504 336" fill="none" xmlns="http://www.w3.org/2000/svg">
<g clip-path="url(#clip0_3011_2364)">
<path d="M0 0H504V336H0V0Z" fill="white"/>
<path d="M0 0H504V336H0V0Z" fill="#B5E0F5" fill-opacity="0.3"/>
<path d="M230.727 260.892V158.745C230.727 152.835 235.495 148.067 241.405 148.067H379.279C385.189 148.067 389.957 152.835 389.957 158.745V260.959C389.957 266.869 385.189 271.637 379.279 271.637H241.405C235.495 271.57 230.727 266.802 230.727 260.892Z" fill="white"/>
<path d="M230.727 260.892V158.745C230.727 152.835 235.495 148.067 241.405 148.067H379.279C385.189 148.067 389.957 152.835 389.957 158.745V260.959C389.957 266.869 385.189 271.637 379.279 271.637H241.405C235.495 271.57 230.727 266.802 230.727 260.892Z" fill="#B5E0F5" fill-opacity="0.6"/>
<path d="M231 163.984V158.678C231 152.768 235.768 148 241.678 148H379.553C385.463 148 390.231 152.768 390.231 158.678V163.984" fill="#00243D"/>
<path d="M242.076 159.148C243.782 159.148 245.165 157.765 245.165 156.059C245.165 154.353 243.782 152.97 242.076 152.97C240.369 152.97 238.986 154.353 238.986 156.059C238.986 157.765 240.369 159.148 242.076 159.148Z" fill="white"/>
<path d="M242.076 159.148C243.782 159.148 245.165 157.765 245.165 156.059C245.165 154.353 243.782 152.97 242.076 152.97C240.369 152.97 238.986 154.353 238.986 156.059C238.986 157.765 240.369 159.148 242.076 159.148Z" fill="#B5E0F5" fill-opacity="0.6"/>
<path d="M251.68 159.148C253.386 159.148 254.769 157.765 254.769 156.059C254.769 154.353 253.386 152.97 251.68 152.97C249.974 152.97 248.591 154.353 248.591 156.059C248.591 157.765 249.974 159.148 251.68 159.148Z" fill="white"/>
<path d="M251.68 159.148C253.386 159.148 254.769 157.765 254.769 156.059C254.769 154.353 253.386 152.97 251.68 152.97C249.974 152.97 248.591 154.353 248.591 156.059C248.591 157.765 249.974 159.148 251.68 159.148Z" fill="#B5E0F5" fill-opacity="0.6"/>
<path d="M261.284 159.148C262.99 159.148 264.373 157.765 264.373 156.059C264.373 154.353 262.99 152.97 261.284 152.97C259.577 152.97 258.194 154.353 258.194 156.059C258.194 157.765 259.577 159.148 261.284 159.148Z" fill="white"/>
<path d="M261.284 159.148C262.99 159.148 264.373 157.765 264.373 156.059C264.373 154.353 262.99 152.97 261.284 152.97C259.577 152.97 258.194 154.353 258.194 156.059C258.194 157.765 259.577 159.148 261.284 159.148Z" fill="#B5E0F5" fill-opacity="0.6"/>
<path d="M346.724 213.426C351.576 206.148 349.612 196.271 342.334 191.419C335.056 186.567 325.179 188.53 320.327 195.809C315.475 203.087 317.438 212.964 324.717 217.816C331.995 222.668 341.872 220.704 346.724 213.426ZM340.544 194.018C334.71 190.148 326.796 191.707 322.926 197.541C319.056 203.375 320.615 211.289 326.449 215.159C332.284 219.029 340.197 217.47 344.067 211.636C347.937 205.802 346.378 197.946 340.544 194.018Z" fill="white"/>
<path d="M346.724 213.426C351.576 206.148 349.612 196.271 342.334 191.419C335.056 186.567 325.179 188.53 320.327 195.809C315.475 203.087 317.438 212.964 324.717 217.816C331.995 222.668 341.872 220.704 346.724 213.426ZM340.544 194.018C334.71 190.148 326.796 191.707 322.926 197.541C319.056 203.375 320.615 211.289 326.449 215.159C332.284 219.029 340.197 217.47 344.067 211.636C347.937 205.802 346.378 197.946 340.544 194.018Z" fill="#B5E0F5" fill-opacity="0.6"/>
<path d="M300.109 207.823L307.099 205.166C307.676 204.935 308.081 204.357 308.138 203.722C308.254 201.007 308.774 198.292 309.698 195.751C309.929 195.173 309.756 194.48 309.294 194.018L303.864 188.935L307.676 183.216L314.492 186.278C315.07 186.567 315.763 186.451 316.225 185.989C318.189 184.14 320.5 182.639 322.983 181.483C323.272 181.368 323.503 181.137 323.619 180.906C323.792 180.617 323.908 180.328 323.908 179.982L323.677 172.53L330.377 171.202L333.034 178.191C333.265 178.769 333.843 179.173 334.478 179.231C337.193 179.346 339.908 179.866 342.45 180.79C343.027 181.021 343.72 180.848 344.182 180.386L349.266 174.956L354.984 178.769L351.923 185.585C351.634 186.162 351.749 186.855 352.211 187.317C354.06 189.281 355.562 191.592 356.717 194.076C357.006 194.653 357.583 195 358.219 195L365.67 194.769L366.999 201.469L360.009 204.126C359.432 204.357 359.027 204.935 358.97 205.57C358.854 208.285 358.334 211 357.41 213.542C357.179 214.119 357.352 214.813 357.814 215.275L363.244 220.358L359.432 226.076L352.616 223.015C352.038 222.726 351.345 222.842 350.883 223.304C348.919 225.152 346.608 226.654 344.125 227.809C343.547 228.098 343.2 228.676 343.2 229.311L343.431 236.762L336.731 238.091L334.074 231.102C333.843 230.524 333.265 230.12 332.63 230.062C329.915 229.946 327.2 229.427 324.659 228.502C324.081 228.271 323.388 228.445 322.926 228.907L317.843 234.336L312.124 230.524L315.185 223.708C315.474 223.13 315.359 222.437 314.897 221.975C313.048 220.011 311.546 217.701 310.391 215.217C310.102 214.639 309.525 214.293 308.889 214.293L301.438 214.524L300.109 207.823ZM340.543 194.018C334.709 190.148 326.796 191.707 322.926 197.541C319.056 203.375 320.615 211.289 326.449 215.159C332.283 219.029 340.197 217.47 344.067 211.636C347.937 205.802 346.377 197.946 340.543 194.018Z" fill="#00243D"/>
<path d="M284.571 240.748C287.979 235.665 286.593 228.733 281.51 225.325C276.427 221.917 269.495 223.304 266.087 228.387C262.679 233.47 264.066 240.401 269.149 243.809C274.232 247.217 281.163 245.831 284.571 240.748ZM279.719 227.982C276.08 225.556 271.113 226.538 268.687 230.177C266.261 233.817 267.242 238.784 270.882 241.21C274.521 243.636 279.488 242.654 281.914 239.015C284.34 235.318 283.358 230.409 279.719 227.982Z" fill="white"/>
<path d="M281.914 239.015C279.488 242.654 274.521 243.636 270.882 241.21C267.243 238.784 266.261 233.816 268.687 230.177C271.113 226.538 276.08 225.556 279.719 227.982C283.358 230.408 284.34 235.318 281.914 239.015Z" fill="white"/>
<path d="M281.914 239.015C279.488 242.654 274.521 243.636 270.882 241.21C267.243 238.784 266.261 233.816 268.687 230.177C271.113 226.538 276.08 225.556 279.719 227.982C283.358 230.408 284.34 235.318 281.914 239.015Z" fill="#B5E0F5" fill-opacity="0.6"/>
<path d="M292.139 242.134C291.676 241.672 291.561 241.037 291.734 240.459C292.312 238.842 292.658 237.109 292.774 235.318C292.832 234.683 293.178 234.163 293.756 233.932L299.07 231.679L298.319 227.982H292.543C291.907 227.982 291.388 227.636 291.099 227.058C290.348 225.441 289.366 223.997 288.211 222.726C287.806 222.264 287.691 221.629 287.922 221.051L290.117 215.737L286.998 213.657L282.896 217.701C282.434 218.163 281.799 218.278 281.221 218.105C279.604 217.527 277.871 217.181 276.08 217.065C275.503 217.065 274.925 216.661 274.694 216.083L272.441 210.769L268.745 211.52V217.296C268.745 217.585 268.629 217.932 268.456 218.163C268.282 218.394 268.051 218.567 267.82 218.74C266.203 219.491 264.759 220.473 263.488 221.629C263.026 222.033 262.391 222.148 261.813 221.917L256.499 219.722L254.419 222.842L258.463 226.943C258.925 227.405 259.04 228.04 258.867 228.618C258.29 230.235 257.943 231.968 257.827 233.759C257.827 234.336 257.423 234.914 256.845 235.145L251.531 237.398L252.282 241.095H258.058C258.694 241.095 259.214 241.441 259.503 242.019C260.253 243.636 261.235 245.08 262.391 246.351C262.795 246.813 262.911 247.449 262.679 248.026L260.484 253.34L263.604 255.42L267.705 251.376C268.167 250.914 268.802 250.799 269.38 251.03C271.055 251.607 272.788 251.954 274.521 252.012C275.156 252.07 275.676 252.416 275.907 252.994L278.16 258.308L281.857 257.557V251.781C281.857 251.145 282.203 250.625 282.781 250.337C284.398 249.586 285.842 248.604 287.113 247.449C287.575 247.044 288.211 246.929 288.788 247.16L294.102 249.355L296.182 246.236L292.139 242.134ZM270.882 241.21C267.243 238.784 266.261 233.816 268.687 230.177C271.113 226.538 276.08 225.556 279.72 227.982C283.359 230.408 284.341 235.376 281.915 239.015C279.488 242.654 274.521 243.636 270.882 241.21Z" fill="#00243D"/>
<path d="M72 32L72 169.212H166.43V32H72Z" fill="#B5E0F5"/>
<path d="M86.9248 47.8711L86.9248 185.083H181.355V47.8711H86.9248Z" fill="#F7F7F7"/>
<path d="M93.528 63.647L174.8 63.6419L174.8 59.9829L93.5278 59.988L93.528 63.647Z" fill="white"/>
<path d="M93.528 63.647L174.8 63.6419L174.8 59.9829L93.5278 59.988L93.528 63.647Z" fill="#0073AB" fill-opacity="0.4"/>
<path d="M93.528 75.1304L174.8 75.1254L174.8 71.4664L93.5278 71.4715L93.528 75.1304Z" fill="white"/>
<path d="M93.528 75.1304L174.8 75.1254L174.8 71.4664L93.5278 71.4715L93.528 75.1304Z" fill="#0073AB" fill-opacity="0.4"/>
<path d="M93.528 86.6139L174.8 86.6088L174.8 82.9498L93.5278 82.9549L93.528 86.6139Z" fill="white"/>
<path d="M93.528 86.6139L174.8 86.6088L174.8 82.9498L93.5278 82.9549L93.528 86.6139Z" fill="#0073AB" fill-opacity="0.4"/>
<path d="M93.528 98.0973L174.8 98.0922L174.8 94.4332L93.5278 94.4383L93.528 98.0973Z" fill="white"/>
<path d="M93.528 98.0973L174.8 98.0922L174.8 94.4332L93.5278 94.4383L93.528 98.0973Z" fill="#0073AB" fill-opacity="0.4"/>
<path d="M93.528 109.581L174.8 109.576L174.8 105.917L93.5278 105.922L93.528 109.581Z" fill="#7FD8EC"/>
<path d="M93.528 121.064L174.8 121.059L174.8 117.4L93.5278 117.405L93.528 121.064Z" fill="#7FD8EC"/>
<path d="M93.528 132.477L174.8 132.472L174.8 128.813L93.5278 128.818L93.528 132.477Z" fill="#7FD8EC"/>
<path d="M93.5127 143.962L146.92 143.958L146.92 140.299L93.5125 140.303L93.5127 143.962Z" fill="#7FD8EC"/>
<path d="M105.778 66.719L105.778 203.931H200.208V66.719H105.778Z" fill="white"/>
<path d="M112.373 82.4983L193.645 82.4932L193.644 78.8343L112.373 78.8393L112.373 82.4983Z" fill="#42B0D5"/>
<path d="M112.373 93.9818L193.645 93.9767L193.644 90.3177L112.373 90.3228L112.373 93.9818Z" fill="#42B0D5"/>
<path d="M112.373 105.465L193.645 105.46L193.644 101.801L112.373 101.806L112.373 105.465Z" fill="#42B0D5"/>
<path d="M112.373 116.949L193.645 116.944L193.644 113.285L112.373 113.29L112.373 116.949Z" fill="#42B0D5"/>
<path d="M112.373 128.432L193.645 128.427L193.644 124.768L112.373 124.773L112.373 128.432Z" fill="#42B0D5"/>
<path d="M112.373 139.915L193.645 139.91L193.644 136.251L112.373 136.256L112.373 139.915Z" fill="#42B0D5"/>
<path d="M112.373 151.329L193.645 151.323L193.644 147.664L112.373 147.67L112.373 151.329Z" fill="#42B0D5"/>
<path d="M112.357 162.813L165.765 162.81L165.764 159.151L112.357 159.154L112.357 162.813Z" fill="#42B0D5"/>
<path d="M117.842 128.387C116.443 120.213 112.553 108.628 103.416 110.289L80.4661 115.404L72.9908 143.644L76.6629 157.458L76.3131 160.999L72.7285 204.32L125.012 220.451L104.597 188.189L105.034 175.906C117.012 173.807 123.788 171.534 122.039 151.381L129.033 148.409C125.755 143.819 119.023 134.77 119.023 134.77C119.023 134.77 117.974 129.087 117.842 128.387Z" fill="#FFCCB4"/>
<path d="M50.1277 141.24C46.6305 120.694 53.6249 103.208 76.1381 99.0984C98.7825 94.9454 109.012 98.4864 111.241 111.557C114.345 129.786 79.067 113.655 84.2691 144.343L76.007 145.873L77.0561 152.125C77.9741 157.414 81.2091 158.769 86.8483 157.764C88.3783 166.769 82.0396 169.698 75.4387 170.922C65.4717 172.714 53.4938 160.911 50.1277 141.24Z" fill="#00243F"/>
<path d="M113.078 141.414L111.242 141.764C110.543 141.895 109.844 141.414 109.712 140.671L109.406 138.748C109.275 138.005 109.756 137.305 110.456 137.174L112.292 136.824C112.991 136.693 113.69 137.174 113.822 137.917L114.128 139.841C114.259 140.584 113.778 141.283 113.078 141.414Z" fill="#00243F"/>
<path d="M117.842 128.387C116.443 120.213 112.553 108.628 103.416 110.289L80.4661 115.404L72.9908 143.644L76.6629 157.458L76.3131 160.999L72.7285 204.32L125.012 220.451L104.597 188.189L105.034 175.906C117.012 173.807 123.788 171.534 122.039 151.381L129.033 148.409C125.755 143.819 119.023 134.77 119.023 134.77C119.023 134.77 117.974 129.087 117.842 128.387Z" fill="#DCA48C"/>
<path d="M50.1277 141.24C46.6305 120.694 53.6249 103.208 76.1381 99.0984C98.7825 94.9454 109.012 98.4864 111.241 111.557C114.345 129.786 79.067 113.655 84.2691 144.343L76.007 145.873L77.0561 152.125C77.9741 157.414 81.2091 158.769 86.8483 157.764C88.3783 166.769 82.0396 169.698 75.4387 170.922C65.4717 172.714 53.4938 160.911 50.1277 141.24Z" fill="black"/>
<path d="M113.078 141.414L111.242 141.764C110.543 141.895 109.844 141.414 109.712 140.671L109.406 138.748C109.275 138.005 109.756 137.305 110.456 137.174L112.292 136.824C112.991 136.693 113.69 137.174 113.822 137.917L114.128 139.841C114.259 140.584 113.778 141.283 113.078 141.414Z" fill="#00243F"/>
<path d="M53.4061 228.232L56.8596 349.935L117.23 360.907L130.126 271.51L134.629 264.778C140.355 256.254 140.486 245.019 135.022 236.363L125.011 220.539L74.3455 184.911L59.089 208.211C55.1547 214.069 53.1875 221.063 53.4061 228.232Z" fill="#FF6A66"/>
<path d="M85.4928 395.224L71.6352 360.47C69.9303 356.142 71.8975 351.203 76.0504 349.41L131.35 325.629C135.503 323.837 140.268 325.892 141.973 330.219L155.83 364.973C157.535 369.301 155.568 374.24 151.415 376.033" fill="#00243F"/>
<path d="M86.6729 193.566L98.2136 214.943C101.929 221.806 109.711 225.129 116.967 222.899L124.967 220.495L86.6729 193.566Z" fill="white"/>
<path d="M121.82 355.793L97.8639 366.109L86.6729 338.088L111.416 328.995L121.82 355.793Z" fill="#FF6A66"/>
<path d="M369.187 97.7286C378.155 93.2876 378.453 98.54 378.453 98.54L404.117 116.09L414.195 134.111L413.725 150.978L417.056 167.888L384.944 198.633L378.539 175.019C354.839 171.518 350.74 174.037 353.943 150.722L346 146.879L356.377 127.705C357.999 116.389 360.22 102.212 369.187 97.7286Z" fill="#6B4A3E"/>
<path d="M393.996 92.6471C414.578 95.7216 427.218 103.536 424.4 123.948C421.581 144.359 419.105 148.629 414.237 152.942C405.483 150.551 405.44 144.573 405.91 141.028C405.952 140.729 406.806 134.58 406.849 134.239C407.447 129.542 406.251 127.15 400.828 126.211C393.825 125.015 393.056 130.054 392.416 134.025L384.345 132.83L386.694 115.834C387.633 108.874 383.021 105.372 378.196 104.646C372.559 103.792 362.695 102.383 362.695 102.383C366.538 93.2022 373.115 89.5726 393.996 92.6471Z" fill="black"/>
<path d="M357.701 115.066L358.598 115.194L357.744 121.257L395.834 126.894C394.04 127.62 393.528 129.627 393.528 129.627L357.317 124.247L355.907 134.623L355.139 134.495C352.961 134.153 353.26 131.677 353.26 131.677L355.224 117.414C355.267 117.414 355.779 114.767 357.701 115.066Z" fill="#00243F"/>
<path d="M362.952 131.335L364.745 131.591C365.429 131.677 366.069 131.207 366.197 130.481L366.453 128.602C366.539 127.876 366.069 127.193 365.386 127.108L363.592 126.851C362.909 126.766 362.269 127.236 362.141 127.962L361.884 129.84C361.756 130.566 362.226 131.207 362.952 131.335Z" fill="#00243F"/>
<path d="M418.508 161.867L376.617 198.548C375.08 199.914 373.97 201.75 373.457 203.843L368.333 225.322L421.283 170.279L418.508 161.867Z" fill="#66ACD0"/>
<path d="M362.867 406.378V247.527C362.867 232.966 368.76 219.087 379.094 209.223L421.241 169.126L441.268 182.278C448.186 186.805 453.224 193.808 455.488 201.964L474.533 270.714L474.191 365.085" fill="#00243D"/>
<path d="M440.541 365.085L439.815 279.553L453.608 265.59V406.378" fill="#00243D"/>
<path d="M440.543 365.085V287.325L424.786 245.819L440.543 365.085Z" fill="#667C8C"/>
</g>
<defs>
<clipPath id="clip0_3011_2364">
<rect width="504" height="336" fill="white"/>
</clipPath>
</defs>
</svg>
