<svg width="48" height="48" viewBox="0 0 48 48" fill="none" xmlns="http://www.w3.org/2000/svg">
<rect width="48" height="48" fill="white"/>
<path d="M2 36H46V38C46 39.6569 44.6569 41 43 41H5C3.34315 41 2 39.6569 2 38V36Z" fill="#CFCFCF"/>
<path d="M19 36H29V36.5C29 37.3284 28.3284 38 27.5 38H20.5C19.6716 38 19 37.3284 19 36.5V36Z" fill="#878787"/>
<path d="M5 12H43V36H5V12Z" fill="#545454"/>
<path d="M34 24C34 29.5228 29.5228 34 24 34C18.4772 34 14 29.5228 14 24C14 18.4772 18.4772 14 24 14C29.5228 14 34 18.4772 34 24Z" fill="#42B0D5"/>
<path fill-rule="evenodd" clip-rule="evenodd" d="M30.324 20.5665L24.973 28.3498C24.6932 28.7568 24.2309 29 23.737 29H20.7676C20.2661 29 19.7977 28.7493 19.5195 28.3321L17.6679 25.5547L19.332 24.4453L21.0352 27H23.474L28.6759 19.4335L30.324 20.5665Z" fill="white"/>
<path d="M5 11C5 9.34315 6.34315 8 8 8H40C41.6569 8 43 9.34315 43 11V12H5V11Z" fill="#EDEDED"/>
</svg>
