<svg width="504" height="336" viewBox="0 0 504 336" fill="none" xmlns="http://www.w3.org/2000/svg">
<g clip-path="url(#clip0_3196_2818)">
<rect width="504" height="336" fill="white"/>
<rect width="504" height="336" fill="#B5E0F5" fill-opacity="0.6"/>
<g opacity="0.95">
<path opacity="0.75" d="M16.3459 108.507H0.367188V112.415H11.0196L20.6068 122.007H29.4839L16.3459 108.507Z" fill="white"/>
<path opacity="0.75" d="M12.0848 154.337L-10.2853 131.599V117.033H-24.4886H-34.786V100.335L-21.2929 87.1904H4.62807L13.15 96.0722L16.3458 92.8747V77.2428L40.4913 53.4396L55.0496 38.1629H67.8326V23.5968H52.209L59.6657 16.4913H85.9417V-1.27223L71.0283 -15.8384L59.3106 -4.82495V-36.0888L49.7234 -45.6812V-32.1809L34.4549 -16.5489V7.25429L19.5415 -7.66713H10.3094L-4.60404 -22.9438L19.8966 -47.8128V-54.9182H44.3972V-72.6818H28.4185V-84.761L13.15 -69.4844H-8.86502L-26.6191 -86.8927L-44.0181 -104.301H-69.939L-96.215 -130.591H-125.687L-148.057 -108.564H-159.064V-97.5508L-149.122 -86.8927L-165.456 -71.2607V-52.0761L-184.985 -32.5361L-178.949 -26.8518L-164.391 -42.1285H-150.898L-138.47 -54.9182H-112.904L-88.4032 -30.0492V11.8728L-106.867 29.2811V66.2294L-80.5915 92.1642L-72.0695 100.335V114.546H-50.7646L0.722176 165.705L14.5704 151.85L12.0848 154.337Z" fill="white"/>
<path opacity="0.75" d="M103.342 189.864L84.5228 171.035L59.3121 145.455H20.9633L14.5718 151.85L0.723633 165.706L1.78887 166.416H14.5718V179.916L4.27445 190.219L39.7826 226.457V276.195L28.7751 287.564V324.512L62.8629 358.618V335.17L51.1452 323.446L68.1891 306.038V284.011L99.7913 252.747H113.995V223.26L128.553 208.693V189.864H103.342Z" fill="white"/>
<path opacity="0.95" d="M361.131 210.47L348.348 223.259V236.405L341.246 243.155L348.703 250.26L356.515 242.799L361.841 237.115V226.457L369.298 218.996V210.47H361.131Z" fill="white"/>
<path opacity="0.75" d="M312.13 87.5457H292.6H267.39L254.962 75.1112H234.012H206.671L176.844 105.309V135.863L203.12 162.153H230.816L253.541 184.89V230.01L269.165 245.997V262.695V279.748H293.666L323.492 249.905V225.746L338.406 210.47V188.798L364.682 162.508V147.231H348.348L340.181 138.705L316.036 115.257V106.02H312.13V87.5457Z" fill="white"/>
<path opacity="0.95" d="M202.261 4.60253L194.979 11.8877L200.252 17.1632L207.533 9.87799L202.261 4.60253Z" fill="white"/>
<path opacity="0.95" d="M249.989 56.2817H242.532V66.2293H249.989V56.2817Z" fill="white"/>
<path opacity="0.75" d="M219.286 -0.37178V-7.12194L213.249 -12.8063L212.184 -11.0299L205.438 -4.27977L216.8 7.08891L208.988 14.1943L211.829 16.6812L206.503 22.0103L210.409 25.9183L217.51 19.1681H222.836L230.648 11.7074L219.286 -0.37178Z" fill="white"/>
<path opacity="0.75" d="M333.079 27.5047H340.535L351.543 16.4913V-1.62753H339.47V-15.8384L350.122 -26.1413V-42.839L357.224 -50.655V-58.1157H340.18L316.745 -34.6678L309.998 -42.1285L320.296 -52.4314L303.962 -68.4186H278.396L238.272 -27.5624V-12.2857H247.859L256.026 -3.75917L268.099 -15.4831L260.642 -22.9438L274.845 -37.1547H282.657V-20.1017L293.309 -9.44351L273.425 10.0964H246.794L230.46 26.7942H219.452L202.764 43.8472V58.0581H223.003L235.786 44.5578H249.279L262.062 58.0581V68.7162L270.939 59.8344L258.866 48.1105V41.3603L285.853 68.361L295.085 59.1239V45.6236H308.933H333.079V33.5443V27.5047Z" fill="white"/>
<path opacity="0.75" d="M653.363 -121.354L635.253 -139.118H585.542L572.049 -125.617H557.135L553.23 -122.065L545.773 -128.815H523.403L508.134 -113.893H497.127L486.474 -124.907H452.742L443.509 -146.934H422.205L406.226 -131.657V-112.472L385.276 -90.8007H367.877V-58.1157H357.225V-50.655L350.123 -42.8391V-26.1413L339.471 -15.8384V-1.62756H351.543V16.4913L340.536 27.5047H333.079V33.5443V45.6235H335.565L323.847 57.7028H312.129H303.607L298.281 63.3871V75.4663H312.129H324.202L312.129 87.5456V106.02H316.035L348.348 137.639H369.653L392.378 115.257L382.436 105.309H408.711L424.69 121.652V139.06L432.857 147.942L442.799 157.179L451.676 148.297V133.731L468.72 115.967L485.409 133.376L490.38 128.402L497.837 136.218V152.205L504.228 157.534V163.929L510.975 169.969L516.656 164.284L504.228 151.85V148.297V137.994L512.75 146.165H519.497H521.982L527.309 140.836V134.086L519.142 125.204V120.231V109.928H538.671L553.585 94.651V69.4267L537.251 53.4395L543.642 47.0446L555.36 58.4133H566.368V42.7814L584.477 23.952V-6.60137L569.208 -22.9438V-48.5234H585.542V-53.1419H594.064V-60.6026L599.745 -66.287H607.202V-74.4582L612.883 -69.4844V-57.0499L608.977 -52.7867V-34.6678L614.304 -28.6282V-19.7464L622.826 -11.2199H629.927V-31.8256V-45.326L621.405 -53.4972V-65.5764H634.898V-80.4978L646.616 -91.8665L639.514 -98.9719L653.363 -113.183V-121.354Z" fill="white"/>
</g>
<path d="M394.008 206.567L375.082 224.283L374.168 232.107L372.127 248.978L370.073 232.107L369.229 224.508L352.892 206.637L353.651 206.257H393.403L394.008 206.567Z" fill="#FF5E4B"/>
<path d="M332.444 135.731C331.755 146.524 338.608 153.897 342.027 155.952C343.617 156.866 346.671 133.297 346.671 133.297L395.541 136.266C395.541 136.266 396.455 154.502 396.526 158.161C396.526 158.161 409.753 144.779 406.334 132.692C412.567 126.613 409.063 119.619 404.969 116.115C408.458 108.207 395.921 86.3262 369.931 89.5063C355.184 91.3356 355.184 99.0045 347.135 98.5543C330.868 97.724 326.689 130.778 332.458 135.717" fill="#00243D"/>
<path d="M341.789 119.76C341.789 128.498 341.564 146.665 341.564 146.665H339.819C337.314 146.665 335.26 148.635 335.26 154.038C335.26 161.566 336.779 162.242 341.268 162.242V168.546C341.268 179.114 348.571 184.433 348.571 184.433V192.495L348.951 205.413L371.226 235.442L392.502 212.871L392.432 193.635V185.122C392.432 185.122 399.426 179.114 399.426 170.305C399.426 168.025 399.271 167.04 399.271 164.296C404.294 164.296 404.815 161.792 404.815 154.714C404.815 147.636 402.31 146.651 400.791 146.651H399.271V129.315C389.168 135.999 377.305 134.254 369.242 127.865C364.078 123.841 356.775 119.732 341.803 119.732" fill="#FFCEB8"/>
<path d="M358.814 152.673H356.69C355.859 152.673 355.17 151.984 355.17 151.153V149.029C355.17 148.198 355.859 147.509 356.69 147.509H358.814C359.645 147.509 360.334 148.198 360.334 149.029V151.153C360.334 151.984 359.645 152.673 358.814 152.673Z" fill="black"/>
<path d="M384.354 152.673H382.23C381.399 152.673 380.71 151.984 380.71 151.153V149.029C380.71 148.198 381.399 147.509 382.23 147.509H384.354C385.185 147.509 385.874 148.198 385.874 149.029V151.153C385.874 151.984 385.185 152.673 384.354 152.673Z" fill="black"/>
<path d="M392.489 185.206L392.418 193.72C392.418 193.72 393.108 211.886 392.489 211.956C362.84 215.601 348.628 193.79 348.628 193.79C375.237 198.729 392.714 187.936 392.489 185.206" fill="#E8BAA5"/>
<path d="M343.084 118.705V163.48C343.084 168.349 346.658 168.884 351.823 168.884H387.466C392.109 168.884 396.964 166.295 396.964 160.905L397.189 125.023H400.538V168.349C400.538 181.731 400.538 198.293 371.804 198.293C340.72 198.293 340.256 186.051 340.256 169.109V118.719L343.084 118.705ZM379.403 177.552H362.447C362.447 182.111 379.403 182.42 379.403 177.552Z" fill="#00243D"/>
<path d="M295.957 237.735C299.151 234.091 303.021 231.052 307.51 228.842L350.231 206.567L349.021 205.427L342.717 209.832L302.514 230.348C300.924 231.108 299.475 231.938 298.026 232.853C297.266 234.907 296.506 236.497 295.971 237.721L295.957 237.735Z" fill="#FF5E4B"/>
<path d="M279.916 350.068L305.906 376.818L316.699 366.63L416.874 369.29L417.859 374.229L453.122 356.822C462.775 350.518 466.954 348.239 465.814 340.865L453.431 252.088C452.742 247.839 451.222 243.8 449.027 240.226C447.578 237.341 445.833 234.598 443.778 232.093C439.979 227.604 435.195 223.96 429.637 221.525L401.972 209.367L391.334 206.638L374.913 224.494L373.998 232.023L371.944 248.894L369.889 232.023L368.975 224.199L342.52 209.761L306.793 227.097C302.304 229.307 299.574 230.292 296.38 233.936C292.046 238.875 288.472 248.683 287.107 255.212L275.244 335.026C274.33 340.499 276.004 346.128 279.888 350.082L279.916 350.068Z" fill="#00243D"/>
<path d="M342.633 209.832L364.528 277.473C369.017 278.613 373.801 279.598 378.74 280.442L402 209.367L393.107 204.724L372.352 227.069L349.021 205.413L342.633 209.818V209.832Z" fill="white"/>
<path d="M363.305 242.97L367.864 251.413L363.685 275.123L364.444 277.403C366.034 288.421 367.864 317.31 372.803 318.14L380.627 274.279L376.447 251.329L381.006 242.745C381.992 240.916 381.696 238.636 380.247 237.116C378.727 235.526 376.898 233.627 375.378 232.022C373.549 230.123 372.184 228.673 372.184 228.673L369.074 232.093L364.05 237.341C362.601 238.861 362.306 241.141 363.291 242.97H363.305Z" fill="#42B0D5"/>
<path d="M430.949 339.43H315.717C310.398 339.43 306.064 335.096 306.064 329.777V250.273C306.064 244.954 310.398 240.62 315.717 240.62H430.949C436.268 240.62 440.602 244.954 440.602 250.273V329.777C440.531 335.096 436.268 339.43 430.949 339.43Z" fill="white"/>
<path d="M430.949 339.43H315.717C310.398 339.43 306.064 335.096 306.064 329.777V250.273C306.064 244.954 310.398 240.62 315.717 240.62H430.949C436.268 240.62 440.602 244.954 440.602 250.273V329.777C440.531 335.096 436.268 339.43 430.949 339.43Z" fill="#00243D" fill-opacity="0.3"/>
<path d="M82 132.541C82 128.123 85.5817 124.541 90 124.541H269.741C274.159 124.541 277.741 128.123 277.741 132.541V234.111C277.741 238.529 274.159 242.111 269.741 242.111H90C85.5817 242.111 82 238.529 82 234.111V132.541Z" fill="white"/>
<rect x="176" y="145" width="82" height="17" rx="3" fill="white"/>
<rect x="176" y="145" width="82" height="17" rx="3" fill="#B5E0F5" fill-opacity="0.6"/>
<rect x="176" y="170" width="82" height="8" rx="1.5" fill="white"/>
<rect x="176" y="170" width="82" height="8" rx="1.5" fill="#B5E0F5" fill-opacity="0.3"/>
<rect x="176" y="191" width="12" height="31" rx="1.5" fill="#0073AB"/>
<rect x="194" y="201" width="11" height="21" rx="1.5" fill="#B5E0F5"/>
<rect x="211" y="209" width="12" height="13" rx="1.5" fill="white"/>
<rect x="211" y="209" width="12" height="13" rx="1.5" fill="#B5E0F5" fill-opacity="0.6"/>
<rect x="229" y="201" width="12" height="21" rx="1.5" fill="#0073AB"/>
<rect x="247" y="206" width="11" height="16" rx="1.5" fill="#B5E0F5"/>
<path d="M178.337 117.204C178.923 116.618 179.873 116.618 180.458 117.204L187.796 124.541H171L178.337 117.204Z" fill="white"/>
<path d="M179.487 112.61C182.97 112.61 185.792 109.787 185.792 106.305C185.792 102.823 182.97 100 179.487 100C176.005 100 173.183 102.823 173.183 106.305C173.183 109.787 176.005 112.61 179.487 112.61Z" fill="#42B0D5"/>
<path fill-rule="evenodd" clip-rule="evenodd" d="M154.619 199.738C154.651 198.529 154.756 193.005 154.124 189.951C155.768 188.552 157.419 186.881 159.076 184.926C160.586 183.144 158.517 180.591 156.425 181.678C155.701 182.054 154.975 182.399 154.249 182.708V168.101C157.89 165.999 161.22 163.61 161.22 160.633C161.22 151.664 148.122 144.638 131.402 144.638C114.682 144.638 101.584 151.664 101.584 160.633C101.584 163.491 104.28 165.86 107.743 167.952V182.549C107.364 182.37 106.984 182.181 106.605 181.984C104.513 180.897 102.445 183.45 103.954 185.232C105.237 186.747 106.518 188.091 107.794 189.27C107.708 189.579 107.665 189.735 107.664 189.737L107.14 202.07C107.137 202.162 107.239 202.221 107.318 202.172L108.594 201.396C108.668 201.352 108.763 201.399 108.771 201.483L109.44 208.217C109.447 208.293 109.527 208.341 109.599 208.313L111.281 207.649C111.342 207.624 111.41 207.653 111.433 207.714C112.362 210.265 114.356 214.869 117.241 216.912L119.071 218.209C119.14 218.258 119.238 218.219 119.253 218.137L119.363 217.565C119.379 217.482 119.476 217.443 119.545 217.494C120.121 217.921 120.786 218.48 121.515 219.092C124.116 221.275 127.525 224.135 130.55 224.135C133.651 224.135 137.195 221.115 139.859 218.845C140.581 218.229 141.239 217.669 141.805 217.239C141.873 217.188 141.969 217.224 141.988 217.305L142.226 218.32C142.245 218.405 142.349 218.438 142.415 218.382L144.216 216.856C144.411 216.691 148.608 213.096 150.634 208.28C150.804 208.28 150.966 208.286 151.117 208.292C151.637 208.311 152.041 208.327 152.265 208.079C153.041 206.648 153.486 202.728 153.486 202.728C153.496 202.586 153.67 202.521 153.77 202.623L154.33 203.196C154.402 203.269 154.528 203.221 154.53 203.119L154.619 199.738ZM104.69 160.633C104.69 153.625 116.923 147.704 131.402 147.704C145.882 147.704 158.114 153.625 158.114 160.633C158.114 162.501 153.147 165.223 150.179 166.85C149.062 167.462 148.008 168.04 147.096 168.598C146.768 168.799 146.45 168.995 146.14 169.187L146.035 169.252C141.54 172.031 139.063 173.562 131.402 173.562C125.01 173.562 122.945 172.468 119.2 170.484L119.199 170.483C118.613 170.173 117.993 169.844 117.316 169.498C116.704 169.185 116.046 168.857 115.361 168.517L115.355 168.514C111.364 166.528 104.69 163.207 104.69 160.633Z" fill="black"/>
<path d="M154.124 189.951L152.971 188.595L152.167 189.279L152.381 190.311L154.124 189.951ZM154.619 199.738L156.398 199.785L154.619 199.738ZM159.076 184.926L160.434 186.076L160.434 186.076L159.076 184.926ZM156.425 181.678L157.245 183.257L156.425 181.678ZM154.249 182.708H152.47V185.401L154.947 184.345L154.249 182.708ZM154.249 168.101L153.359 166.56L152.47 167.074V168.101H154.249ZM107.743 167.952H109.523V166.948L108.664 166.429L107.743 167.952ZM107.743 182.548L106.985 184.158L109.523 185.355V182.548H107.743ZM106.606 181.984L105.785 183.563L106.606 181.984ZM103.954 185.232L102.596 186.382L102.596 186.383L103.954 185.232ZM107.794 189.27L109.508 189.746L109.799 188.7L109.001 187.963L107.794 189.27ZM107.665 189.737L109.443 189.813L109.443 189.806L109.443 189.8L107.665 189.737ZM107.141 202.069L105.363 201.994L105.363 201.997L107.141 202.069ZM107.319 202.172L108.238 203.696L108.243 203.693L107.319 202.172ZM108.595 201.396L107.672 199.875L107.671 199.876L108.595 201.396ZM108.772 201.483L110.542 201.308H110.542L108.772 201.483ZM109.44 208.217L111.211 208.044L111.211 208.042L109.44 208.217ZM109.599 208.313L110.25 209.969L110.252 209.968L109.599 208.313ZM111.281 207.649L111.934 209.304L111.94 209.302L111.281 207.649ZM111.433 207.714L113.105 207.106L113.102 207.097L111.433 207.714ZM117.241 216.912L118.269 215.46H118.269L117.241 216.912ZM119.071 218.209L118.042 219.661L118.046 219.663L119.071 218.209ZM119.254 218.136L117.506 217.802L117.505 217.807L119.254 218.136ZM119.363 217.565L117.616 217.228L117.615 217.231L119.363 217.565ZM119.545 217.494L118.484 218.923H118.484L119.545 217.494ZM121.515 219.092L122.659 217.728L121.515 219.092ZM139.859 218.845L138.705 217.491L139.859 218.845ZM141.806 217.239L140.733 215.818L140.73 215.822L141.806 217.239ZM141.989 217.305L143.722 216.9L143.721 216.898L141.989 217.305ZM142.226 218.32L140.493 218.725L140.493 218.727L142.226 218.32ZM142.415 218.382L141.265 217.024L141.264 217.025L142.415 218.382ZM144.216 216.856L143.066 215.498L144.216 216.856ZM150.634 208.28V206.501H149.452L148.994 207.591L150.634 208.28ZM151.117 208.292L151.051 210.07L151.117 208.292ZM152.265 208.079L153.587 209.269L153.728 209.113L153.829 208.927L152.265 208.079ZM153.486 202.728L155.254 202.929L155.258 202.894L155.26 202.86L153.486 202.728ZM153.77 202.623L155.043 201.379L155.041 201.378L153.77 202.623ZM154.33 203.196L153.058 204.44L153.058 204.44L154.33 203.196ZM154.53 203.119L156.309 203.167V203.165L154.53 203.119ZM150.179 166.85L149.323 165.289V165.289L150.179 166.85ZM147.096 168.598L146.167 167.08L146.166 167.081L147.096 168.598ZM146.14 169.187L147.075 170.701L146.14 169.187ZM146.036 169.251L145.101 167.737L145.1 167.738L146.036 169.251ZM119.201 170.484L120.034 168.912L120.032 168.911L119.201 170.484ZM119.199 170.483L118.366 172.055L118.367 172.056L119.199 170.483ZM117.317 169.498L116.506 171.082L116.506 171.082L117.317 169.498ZM115.361 168.517L114.568 170.11L114.569 170.11L115.361 168.517ZM115.355 168.514L114.563 170.107L114.563 170.107L115.355 168.514ZM152.381 190.311C152.963 193.124 152.874 198.426 152.841 199.692L156.398 199.785C156.428 198.631 156.548 192.886 155.866 189.59L152.381 190.311ZM157.719 183.776C156.115 185.668 154.531 187.268 152.971 188.595L155.277 191.306C157.005 189.836 158.724 188.094 160.434 186.076L157.719 183.776ZM157.245 183.257C157.388 183.182 157.468 183.194 157.509 183.204C157.571 183.219 157.651 183.264 157.721 183.349C157.791 183.434 157.813 183.517 157.814 183.568C157.816 183.596 157.815 183.662 157.718 183.776L160.434 186.076C163.279 182.718 159.325 178.165 155.604 180.099L157.245 183.257ZM154.947 184.345C155.717 184.017 156.484 183.653 157.245 183.257L155.604 180.099C154.918 180.456 154.233 180.78 153.551 181.071L154.947 184.345ZM152.47 168.101V182.708H156.028V168.101H152.47ZM159.441 160.633C159.441 161.416 159.006 162.322 157.87 163.409C156.744 164.486 155.158 165.522 153.359 166.56L155.139 169.642C156.982 168.578 158.88 167.368 160.33 165.981C161.769 164.604 163 162.827 163 160.633H159.441ZM131.402 146.417C139.537 146.417 146.689 148.13 151.74 150.84C156.849 153.58 159.441 157.103 159.441 160.633H163C163 155.194 159.043 150.718 153.423 147.704C147.745 144.658 139.987 142.858 131.402 142.858V146.417ZM103.364 160.633C103.364 157.103 105.955 153.58 111.064 150.84C116.116 148.13 123.267 146.417 131.402 146.417V142.858C122.817 142.858 115.059 144.658 109.382 147.704C103.762 150.718 99.8047 155.194 99.8047 160.633H103.364ZM108.664 166.429C106.99 165.418 105.617 164.406 104.679 163.379C103.747 162.359 103.364 161.462 103.364 160.633H99.8047C99.8047 162.661 100.77 164.377 102.052 165.78C103.327 167.175 105.034 168.394 106.823 169.475L108.664 166.429ZM109.523 182.548V167.952H105.964V182.548H109.523ZM105.785 183.563C106.184 183.771 106.584 183.969 106.985 184.158L108.502 180.939C108.144 180.77 107.785 180.592 107.426 180.405L105.785 183.563ZM105.312 184.082C105.215 183.968 105.215 183.903 105.216 183.874C105.218 183.824 105.24 183.741 105.31 183.656C105.379 183.57 105.46 183.526 105.522 183.511C105.563 183.5 105.642 183.489 105.785 183.563L107.426 180.405C103.706 178.472 99.7514 183.024 102.596 186.382L105.312 184.082ZM109.001 187.963C107.784 186.838 106.553 185.548 105.311 184.082L102.596 186.383C103.921 187.946 105.251 189.343 106.586 190.577L109.001 187.963ZM109.443 189.8C109.442 189.826 109.439 189.873 109.437 189.893C109.436 189.91 109.433 189.94 109.431 189.953C109.427 189.984 109.423 190.008 109.421 190.024C109.416 190.056 109.411 190.08 109.408 190.092C109.406 190.106 109.403 190.117 109.402 190.124C109.4 190.132 109.398 190.138 109.397 190.143C109.393 190.159 109.39 190.172 109.389 190.175C109.388 190.18 109.387 190.183 109.387 190.185C109.386 190.187 109.386 190.188 109.386 190.188C109.386 190.188 109.387 190.185 109.389 190.176C109.394 190.159 109.402 190.131 109.412 190.093C109.433 190.016 109.465 189.901 109.508 189.746L106.08 188.793C106.036 188.948 106.004 189.065 105.982 189.145C105.971 189.184 105.962 189.216 105.956 189.238C105.953 189.249 105.95 189.26 105.947 189.271C105.946 189.275 105.944 189.285 105.941 189.296C105.94 189.3 105.936 189.313 105.932 189.33C105.931 189.338 105.926 189.357 105.921 189.382C105.919 189.394 105.914 189.419 105.909 189.45C105.907 189.461 105.891 189.555 105.886 189.675L109.443 189.8ZM108.918 202.145L109.443 189.813L105.887 189.662L105.363 201.994L108.918 202.145ZM106.4 200.648C107.488 199.992 108.974 200.764 108.919 202.142L105.363 201.997C105.299 203.559 106.99 204.448 108.238 203.696L106.4 200.648ZM107.671 199.876L106.395 200.651L108.243 203.693L109.519 202.917L107.671 199.876ZM110.542 201.308C110.401 199.889 108.838 199.168 107.672 199.875L109.517 202.918C108.498 203.536 107.125 202.909 107.001 201.659L110.542 201.308ZM111.211 208.042L110.542 201.308L107.001 201.659L107.669 208.393L111.211 208.042ZM108.948 206.657C109.945 206.265 111.1 206.911 111.211 208.044L107.669 208.391C107.795 209.675 109.109 210.417 110.25 209.969L108.948 206.657ZM110.628 205.994L108.945 206.658L110.252 209.968L111.934 209.304L110.628 205.994ZM113.102 207.097C112.717 206.055 111.57 205.618 110.622 205.996L111.94 209.302C111.115 209.63 110.104 209.251 109.764 208.332L113.102 207.097ZM118.269 215.46C117.143 214.663 116.08 213.269 115.153 211.628C114.243 210.019 113.551 208.329 113.105 207.106L109.761 208.323C110.244 209.65 111.014 211.538 112.054 213.379C113.078 215.19 114.454 217.119 116.213 218.364L118.269 215.46ZM120.1 216.757L118.269 215.46L116.212 218.364L118.042 219.661L120.1 216.757ZM117.505 217.807C117.736 216.578 119.14 216.08 120.096 216.755L118.046 219.663C119.141 220.435 120.74 219.86 121.002 218.466L117.505 217.807ZM117.615 217.231L117.506 217.802L121.001 218.471L121.111 217.901L117.615 217.231ZM120.606 216.066C119.456 215.212 117.873 215.893 117.616 217.228L121.11 217.903C120.885 219.071 119.496 219.674 118.484 218.923L120.606 216.066ZM122.659 217.728C121.944 217.128 121.233 216.531 120.605 216.065L118.484 218.923C119.009 219.312 119.629 219.832 120.372 220.454L122.659 217.728ZM130.55 222.355C129.553 222.355 128.299 221.864 126.828 220.929C125.389 220.016 123.976 218.834 122.659 217.728L120.372 220.454C121.656 221.532 123.248 222.872 124.92 223.934C126.559 224.975 128.522 225.914 130.55 225.914V222.355ZM138.705 217.491C137.357 218.639 135.894 219.883 134.402 220.847C132.874 221.834 131.573 222.355 130.55 222.355V225.914C132.628 225.914 134.649 224.925 136.335 223.835C138.057 222.722 139.697 221.32 141.013 220.199L138.705 217.491ZM140.73 215.822C140.115 216.289 139.415 216.886 138.705 217.491L141.013 220.199C141.748 219.573 142.363 219.049 142.882 218.656L140.73 215.822ZM143.721 216.898C143.411 215.582 141.841 214.982 140.733 215.818L142.878 218.659C141.905 219.393 140.528 218.865 140.256 217.713L143.721 216.898ZM143.959 217.915L143.722 216.9L140.256 217.71L140.493 218.725L143.959 217.915ZM141.264 217.025C142.195 216.235 143.669 216.682 143.958 217.913L140.493 218.727C140.822 220.127 142.503 220.641 143.567 219.738L141.264 217.025ZM143.066 215.498L141.265 217.024L143.566 219.739L145.367 218.213L143.066 215.498ZM148.994 207.591C147.142 211.992 143.231 215.358 143.066 215.498L145.366 218.213C145.591 218.023 150.075 214.2 152.274 208.97L148.994 207.591ZM151.184 206.514C151.036 206.508 150.843 206.501 150.634 206.501V210.06C150.766 210.06 150.895 210.064 151.051 210.07L151.184 206.514ZM150.943 206.888C151.08 206.736 151.233 206.639 151.364 206.584C151.482 206.533 151.566 206.522 151.577 206.521C151.587 206.519 151.566 206.523 151.489 206.523C151.412 206.522 151.321 206.519 151.184 206.514L151.051 210.07C151.264 210.078 151.657 210.098 152.028 210.051C152.429 209.999 153.072 209.84 153.587 209.269L150.943 206.888ZM153.486 202.728C151.718 202.527 151.718 202.527 151.718 202.527C151.718 202.527 151.718 202.527 151.718 202.528C151.718 202.529 151.717 202.531 151.717 202.535C151.716 202.54 151.715 202.55 151.714 202.563C151.71 202.589 151.706 202.628 151.699 202.68C151.686 202.783 151.667 202.933 151.641 203.119C151.59 203.493 151.514 204.003 151.415 204.552C151.316 205.105 151.197 205.677 151.063 206.183C150.921 206.716 150.791 207.063 150.701 207.23L153.829 208.927C154.126 208.379 154.343 207.699 154.503 207.095C154.671 206.463 154.809 205.787 154.918 205.181C155.027 204.572 155.111 204.013 155.167 203.606C155.195 203.402 155.216 203.235 155.231 203.119C155.238 203.06 155.244 203.014 155.247 202.982C155.249 202.966 155.251 202.953 155.252 202.944C155.253 202.939 155.253 202.936 155.253 202.933C155.253 202.932 155.253 202.931 155.253 202.93C155.254 202.93 155.254 202.929 155.254 202.929C155.254 202.929 155.254 202.929 155.254 202.929C155.254 202.929 155.254 202.929 153.486 202.728ZM155.041 201.378C153.852 200.164 151.834 200.953 151.711 202.596L155.26 202.86C155.159 204.219 153.488 204.878 152.499 203.868L155.041 201.378ZM155.602 201.952L155.043 201.379L152.498 203.867L153.058 204.44L155.602 201.952ZM152.752 203.07C152.793 201.559 154.604 200.932 155.601 201.95L153.058 204.44C154.2 205.606 156.262 204.882 156.309 203.167L152.752 203.07ZM152.841 199.692L152.752 203.072L156.309 203.165L156.398 199.785L152.841 199.692ZM131.402 145.924C123.944 145.924 116.992 147.445 111.841 149.938C106.837 152.361 102.911 156.041 102.911 160.633H106.47C106.47 158.216 108.66 155.432 113.392 153.142C117.977 150.922 124.381 149.483 131.402 149.483V145.924ZM159.894 160.633C159.894 156.041 155.967 152.361 150.963 149.938C145.812 147.445 138.861 145.924 131.402 145.924V149.483C138.423 149.483 144.827 150.922 149.413 153.142C154.145 155.432 156.335 158.216 156.335 160.633H159.894ZM151.034 168.41C152.501 167.606 154.57 166.474 156.273 165.294C157.121 164.707 157.951 164.059 158.587 163.384C159.153 162.783 159.894 161.824 159.894 160.633H156.335C156.335 160.375 156.454 160.457 155.997 160.943C155.609 161.355 155.011 161.839 154.246 162.369C152.724 163.424 150.825 164.467 149.323 165.289L151.034 168.41ZM148.025 170.116C148.893 169.584 149.908 169.028 151.034 168.41L149.323 165.289C148.216 165.896 147.122 166.496 146.167 167.08L148.025 170.116ZM147.075 170.701C147.386 170.509 147.701 170.314 148.027 170.115L146.166 167.081C145.836 167.284 145.516 167.481 145.206 167.673L147.075 170.701ZM146.97 170.766L147.075 170.701L145.206 167.673L145.101 167.737L146.97 170.766ZM131.402 175.341C135.35 175.341 138.095 174.947 140.481 174.133C142.841 173.327 144.752 172.137 146.971 170.765L145.1 167.738C142.823 169.146 141.248 170.11 139.331 170.765C137.439 171.411 135.115 171.782 131.402 171.782V175.341ZM118.367 172.056C120.216 173.036 121.825 173.895 123.809 174.475C125.81 175.06 128.107 175.341 131.402 175.341V171.782C128.305 171.782 126.373 171.517 124.808 171.059C123.226 170.597 121.93 169.916 120.034 168.912L118.367 172.056ZM118.367 172.056L118.369 172.057L120.032 168.911L120.031 168.91L118.367 172.056ZM116.506 171.082C117.17 171.422 117.779 171.745 118.366 172.055L120.032 168.911C119.448 168.601 118.817 168.267 118.127 167.914L116.506 171.082ZM114.569 170.11C115.256 170.452 115.905 170.774 116.506 171.082L118.127 167.914C117.504 167.595 116.836 167.263 116.153 166.923L114.569 170.11ZM114.563 170.107L114.568 170.11L116.153 166.923L116.148 166.921L114.563 170.107ZM102.911 160.633C102.911 162.006 103.76 163.134 104.523 163.914C105.345 164.757 106.431 165.559 107.56 166.288C109.827 167.752 112.586 169.123 114.563 170.107L116.148 166.921C114.134 165.918 111.56 164.636 109.492 163.299C108.454 162.628 107.621 161.993 107.068 161.427C106.454 160.799 106.47 160.546 106.47 160.633H102.911Z" fill="white"/>
<path d="M159.668 160.633C159.668 164.159 152.014 167.391 147.916 169.901C142.731 173.075 140.121 175.095 131.403 175.095C123.598 175.095 121.717 173.476 116.603 170.859C111.488 168.242 103.138 164.626 103.138 160.633C103.138 152.646 115.792 146.171 131.403 146.171C147.013 146.171 159.668 152.646 159.668 160.633Z" fill="white"/>
<path d="M147.914 169.901C142.73 173.075 140.119 175.095 131.401 175.095C123.596 175.095 121.716 173.476 116.601 170.859C111.486 168.242 115.882 156.984 134.645 152.455C153.407 147.925 158.387 155.401 159.667 160.633C159.667 164.159 152.013 167.391 147.914 169.901Z" fill="#E1E1E1"/>
<path fill-rule="evenodd" clip-rule="evenodd" d="M117.729 173.184C121.643 175.258 124.228 176.628 131.402 176.628C139.955 176.628 143.03 174.727 147.684 171.85C148.023 171.64 148.372 171.425 148.734 171.203C149.578 170.687 150.596 170.128 151.674 169.537L151.687 169.53L151.688 169.53C156.155 167.081 161.22 164.305 161.22 160.633C161.22 151.664 148.122 144.638 131.402 144.638C114.682 144.638 101.584 151.664 101.584 160.633C101.584 165.096 108.159 168.367 113.96 171.253L113.963 171.254L114.041 171.293C114.687 171.615 115.308 171.924 115.887 172.22C116.55 172.559 117.157 172.881 117.729 173.184L117.729 173.184ZM104.69 160.633C104.69 153.625 116.923 147.704 131.402 147.704C145.882 147.704 158.114 153.625 158.114 160.633C158.114 162.501 153.147 165.223 150.179 166.85C149.062 167.462 148.008 168.04 147.096 168.598C146.768 168.799 146.45 168.995 146.14 169.187L146.035 169.252C141.54 172.031 139.063 173.562 131.402 173.562C125.01 173.562 122.945 172.468 119.2 170.484L119.199 170.483C118.613 170.173 117.993 169.844 117.316 169.498C116.704 169.185 116.046 168.857 115.361 168.517L115.355 168.514C111.364 166.528 104.69 163.207 104.69 160.633Z" fill="black"/>
<path d="M108.2 187.624L107.796 197.129L109.047 196.369L109.789 203.848L111.342 203.235C111.342 203.235 113.592 210.817 117.136 213.328L117.347 212.229C117.347 212.229 124.301 218.423 129.54 218.423C134.779 218.423 141.885 212.025 141.885 212.025L142.196 213.353C142.196 213.353 147.1 209.198 148.641 204.028C149.65 204.717 150.064 204.258 150.064 204.258C150.064 204.258 151.343 201.693 150.881 196.749C151.574 196.902 152.057 197.359 152.057 197.359C152.057 197.359 152.267 189.373 151.343 187.015C149.032 185.266 108.816 185.418 108.816 185.418L108.2 187.624Z" fill="white"/>
<path d="M148.678 194.358C148.678 194.358 148.908 195.7 149.144 197.846C149.338 199.609 149.416 200.874 149.416 200.874L148.809 200.689C148.586 200.621 148.349 200.739 148.275 200.958C147.778 202.413 145.998 206.508 144.343 208.181C144.28 208.244 144.171 208.203 144.17 208.114L144.135 206.615C144.131 206.392 143.855 206.287 143.702 206.452C142.267 207.993 137.29 214.568 131.297 214.568C125.25 214.568 119.917 208.864 118.408 207.567C118.251 207.433 118.008 207.534 117.995 207.739L117.838 208.896C117.831 209 117.688 209.026 117.647 208.931C117.122 207.727 115.249 204.702 114.686 202.368C114.589 201.965 114.168 202.079 113.948 202.138L113.282 202.305L112.35 193.822L109.866 192.595L108.985 196.019L110.538 202.458L112.091 207.159L116.802 214.313L120.219 216.203L130.106 222.386L137.509 218.503L142.427 214.619L144.757 213.904L149.519 205.268L150.969 206.137L151.642 201.231L151.889 199.088L153.195 199.085L152.573 193.362L148.678 194.358Z" fill="#DDDDDD"/>
<path d="M109.297 169.963V180.646C109.297 180.646 106.946 189.465 130.782 190.066C155.086 190.679 152.696 180.409 152.696 180.409V168.895H109.297V169.963Z" fill="#FFDAA0"/>
<path fill-rule="evenodd" clip-rule="evenodd" d="M144.216 216.856C144.41 216.691 148.607 213.096 150.633 208.28C150.803 208.28 150.965 208.286 151.117 208.292C151.637 208.311 152.041 208.327 152.264 208.079C153.04 206.648 153.485 202.728 153.485 202.728C153.495 202.586 153.669 202.521 153.769 202.623L154.329 203.196C154.401 203.269 154.527 203.221 154.53 203.119L154.618 199.738C154.655 198.354 154.787 191.317 153.8 188.801C153.689 188.529 153.628 188.389 153.617 188.38L153.297 188.138C153.089 187.981 152.939 188.003 152.261 188.1C150.675 188.328 146.202 188.971 131.35 188.712C122.071 188.55 112.014 186.64 110.131 186.282C109.936 186.245 109.828 186.225 109.819 186.225L108.729 186.229C108.677 186.229 108.631 186.263 108.618 186.313C107.982 188.59 107.664 189.731 107.664 189.737L107.14 202.069C107.136 202.162 107.238 202.221 107.318 202.172L108.594 201.396C108.667 201.352 108.762 201.399 108.771 201.483L109.439 208.217C109.446 208.293 109.526 208.341 109.598 208.313L111.28 207.649C111.342 207.624 111.41 207.653 111.432 207.714C112.361 210.265 114.355 214.87 117.24 216.912L119.07 218.209C119.14 218.258 119.237 218.219 119.253 218.136L119.362 217.565C119.378 217.482 119.475 217.443 119.544 217.494C120.12 217.921 120.786 218.48 121.514 219.092C124.116 221.275 127.524 224.135 130.549 224.135C133.65 224.135 137.194 221.115 139.858 218.845C140.581 218.229 141.238 217.669 141.805 217.239C141.872 217.188 141.968 217.224 141.988 217.306L142.225 218.32C142.245 218.405 142.348 218.438 142.414 218.382L144.216 216.856ZM117.305 211.803C117.322 211.715 117.43 211.679 117.498 211.739L119.396 213.43C121.21 215.043 126.752 219.229 130.549 219.229C134.343 219.229 139.991 214.899 141.848 213.231L143.662 211.6C143.729 211.54 143.835 211.573 143.854 211.659L144.033 212.421C144.055 212.513 144.17 212.544 144.233 212.474C145.639 210.886 147.387 208.529 148.159 205.934L148.72 204.052C148.743 203.976 148.834 203.945 148.899 203.989L149.903 204.676C149.97 204.722 150.065 204.688 150.082 204.608C150.335 203.496 150.573 201.689 150.343 199.229L150.162 197.293C150.155 197.216 150.226 197.153 150.303 197.17L151.393 197.409C151.466 197.426 151.536 197.371 151.535 197.298C151.522 194.88 151.403 192.083 151.091 190.582C151.083 190.542 151.053 190.512 151.012 190.503C147.836 189.839 133.559 189.226 111.098 189.286C111.046 189.287 110.999 189.321 110.985 189.371L110.756 190.189C110.754 190.198 110.752 190.206 110.752 190.215L110.488 196.435C110.484 196.527 110.586 196.586 110.666 196.538L111.201 196.213C111.274 196.168 111.369 196.215 111.378 196.299L112.127 203.854C112.134 203.93 112.214 203.977 112.286 203.949L113.242 203.572C113.306 203.547 113.378 203.581 113.397 203.646L113.841 205.144C114.276 206.604 115.532 210.01 117.189 212.407L117.305 211.803Z" fill="black"/>
<path d="M143.98 177.78C143.91 179.189 143.067 180.296 142.096 180.251C141.125 180.206 140.394 179.027 140.464 177.618C140.533 176.208 141.376 175.102 142.347 175.147C143.318 175.191 144.049 176.37 143.98 177.78Z" fill="black"/>
<path d="M142.814 177.722C142.794 178.139 142.545 178.466 142.258 178.453C141.972 178.44 141.756 178.091 141.777 177.674C141.797 177.258 142.046 176.931 142.332 176.944C142.619 176.957 142.835 177.306 142.814 177.722Z" fill="white"/>
<path d="M144.531 181.064C142.816 180 141.176 180.286 140.521 180.47C140.349 180.518 140.169 180.437 140.099 180.277C140.015 180.088 140.123 179.873 140.328 179.816C141.108 179.599 142.975 179.287 144.914 180.492C145.086 180.599 145.134 180.824 145.014 180.984H145.013C144.901 181.133 144.69 181.163 144.531 181.064Z" fill="black"/>
<path d="M123.31 177.78C123.24 179.189 122.397 180.296 121.426 180.251C120.455 180.206 119.724 179.027 119.794 177.618C119.863 176.208 120.706 175.102 121.677 175.147C122.648 175.191 123.379 176.37 123.31 177.78Z" fill="black"/>
<path d="M122.067 177.722C122.047 178.139 121.798 178.466 121.511 178.453C121.225 178.44 121.009 178.091 121.03 177.674C121.05 177.258 121.299 176.931 121.585 176.944C121.872 176.957 122.088 177.306 122.067 177.722Z" fill="white"/>
<path d="M119.267 181.064C120.981 180 122.622 180.286 123.276 180.47C123.448 180.518 123.628 180.437 123.698 180.277C123.782 180.088 123.674 179.873 123.469 179.816C122.689 179.599 120.822 179.287 118.884 180.492C118.711 180.599 118.663 180.824 118.784 180.984H118.784C118.896 181.133 119.107 181.163 119.267 181.064Z" fill="black"/>
<path d="M136.636 185.276C137.339 185.619 133.754 186.242 137.045 183.858C141.134 180.894 143.359 181.854 144.965 182.171C148.072 182.784 150.658 184.633 150.658 171.603C151.047 168.843 152.056 170.606 152.056 170.606L152.366 186.089L145.611 184.403L138.779 186.234L136.731 185.28L136.636 185.276Z" fill="#FAC87D"/>
<path d="M125.927 185.276C125.225 185.619 129.101 185.834 125.81 183.449C121.72 180.485 119.248 182.626 117.618 182.784C115.25 183.014 111.905 184.633 111.905 171.603C111.516 168.843 110.507 170.606 110.507 170.606L110.196 186.089L117.579 185.339L123.785 184.403L125.832 185.28L125.927 185.276Z" fill="#FAC87D"/>
<path d="M131.861 182.901C131.861 182.901 130.95 183.253 130.313 184.681C129.744 185.958 130.702 187.798 130.702 187.798L126.625 186.265L128.832 182.978L131.861 182.901Z" fill="#FAC87D"/>
<path fill-rule="evenodd" clip-rule="evenodd" d="M127.657 186.303C127.657 186.302 127.657 186.302 126.23 185.871C124.803 185.44 124.804 185.439 124.804 185.438L124.804 185.437L124.805 185.434L124.807 185.427L124.813 185.408C124.818 185.393 124.824 185.373 124.832 185.35C124.848 185.302 124.87 185.237 124.899 185.158C124.956 184.999 125.041 184.781 125.156 184.522C125.383 184.009 125.738 183.316 126.248 182.613C127.258 181.223 129.019 179.617 131.706 179.617C134.266 179.617 135.903 181.251 136.81 182.6C137.273 183.288 137.593 183.966 137.797 184.466C137.9 184.719 137.975 184.931 138.027 185.086C138.052 185.163 138.072 185.226 138.086 185.272C138.093 185.295 138.098 185.314 138.103 185.329L138.108 185.348L138.11 185.354L138.111 185.358C138.111 185.359 138.111 185.359 136.674 185.756C135.237 186.152 135.238 186.152 135.238 186.153L135.238 186.155L135.232 186.135C135.226 186.113 135.214 186.076 135.198 186.026C135.164 185.926 135.111 185.776 135.036 185.592C134.885 185.221 134.654 184.737 134.336 184.263C133.68 183.288 132.833 182.598 131.706 182.598C130.357 182.598 129.38 183.374 128.661 184.365C128.306 184.853 128.049 185.351 127.881 185.73C127.798 185.918 127.738 186.072 127.701 186.174C127.683 186.225 127.67 186.263 127.663 186.285L127.656 186.306C127.655 186.307 127.655 186.308 127.656 186.307L127.656 186.306L127.657 186.304L127.657 186.303ZM135.239 186.157C135.239 186.157 135.239 186.157 135.239 186.157Z" fill="#0F0F0F"/>
<path fill-rule="evenodd" clip-rule="evenodd" d="M107.743 166.793V184.124C107.405 184.447 107.137 184.829 106.972 185.315C106.689 186.154 106.83 187.062 107.358 187.799C108.115 188.858 109.706 189.615 112.425 190.294C116.089 191.209 121.901 191.978 130.216 192.57C139.973 193.263 146.533 191.986 150.428 189.071C152.304 187.666 153.443 186.597 154.013 185.724C154.628 184.781 154.729 183.697 154.248 182.911V163.83H107.743V166.793ZM110.849 167.322V186.186C111.422 186.418 112.17 186.653 113.098 186.885C116.576 187.753 122.243 188.503 130.412 189.084C139.553 189.734 145.477 188.581 148.706 186.164C149.882 185.284 150.681 184.592 151.142 184.104V167.322H110.849V167.322Z" fill="black"/>
<path d="M107.389 164.741V165.507C107.389 167.347 120.123 170.719 131.305 170.719C142.487 170.719 153.669 165.814 153.669 165.814V163.361C153.669 163.361 144.299 159.331 131.305 159.331C118.985 159.331 107.389 163.374 107.389 163.374V164.741Z" fill="#646466"/>
<path d="M139.999 167.604C132.591 168.903 124.362 169.144 115.312 168.326C115.312 170.166 120.123 171.283 131.305 171.283C142.487 171.283 153.669 166.378 153.669 166.378V163.925C153.669 163.925 151.111 165.656 139.999 167.604Z" fill="#4B4B4D"/>
<path fill-rule="evenodd" clip-rule="evenodd" d="M114.342 160.227C118.851 159.022 124.968 157.803 131.306 157.803C137.98 157.803 143.717 159.018 147.786 160.233C149.823 160.84 151.447 161.449 152.568 161.91C153.129 162.14 153.565 162.333 153.864 162.471C154.013 162.539 154.129 162.594 154.209 162.633C154.249 162.652 154.28 162.668 154.302 162.678L154.329 162.692L154.333 162.694C154.334 162.694 154.335 162.695 154.335 162.695C154.82 162.936 155.259 163.185 155.597 163.442C155.765 163.57 155.961 163.739 156.128 163.954C156.283 164.154 156.527 164.539 156.527 165.069C156.527 165.507 156.368 165.859 156.236 166.083C156.099 166.317 155.928 166.519 155.766 166.687C155.441 167.023 155.011 167.362 154.522 167.703L154.402 167.787L154.268 167.846L153.669 166.481C154.268 167.846 154.268 167.846 154.267 167.846L154.267 167.847L154.256 167.851L154.228 167.864C154.203 167.874 154.169 167.889 154.123 167.908C154.033 167.947 153.902 168.002 153.732 168.071C153.392 168.21 152.898 168.407 152.272 168.643C151.02 169.113 149.237 169.739 147.099 170.365C142.837 171.611 137.094 172.877 131.306 172.877C123.583 172.877 115.394 170.813 106.756 166.757L105.898 166.355V163.041L106.824 162.662L107.389 164.041C106.824 162.662 106.825 162.662 106.825 162.662L106.828 162.66L106.837 162.657L106.866 162.645C106.891 162.635 106.927 162.62 106.974 162.602C107.068 162.565 107.204 162.511 107.381 162.444C107.735 162.31 108.249 162.119 108.904 161.892C110.212 161.437 112.082 160.832 114.342 160.227ZM109.635 164.794C117.365 168.215 124.584 169.896 131.306 169.896C136.699 169.896 142.138 168.71 146.262 167.503C148.317 166.902 150.028 166.302 151.223 165.852C151.82 165.628 152.287 165.442 152.602 165.313C152.661 165.288 152.715 165.266 152.763 165.246C152.72 165.226 152.672 165.204 152.619 165.179C152.355 165.058 151.957 164.881 151.436 164.667C150.395 164.24 148.864 163.665 146.934 163.089C143.069 161.936 137.625 160.784 131.306 160.784C125.322 160.784 119.481 161.939 115.112 163.107C112.933 163.69 111.134 164.272 109.883 164.707C109.798 164.737 109.715 164.766 109.635 164.794Z" fill="black"/>
<path d="M122.461 194.932L123.45 198.95H126.462L130.853 197.568H134.131L136.594 198.402H138.895H140.179L142.159 195.821L142.48 194.198L135.107 192.701L131.786 190.914L128.387 192.119L126.847 193.111L123.121 194.198L122.461 194.932Z" fill="#D8D8D8"/>
<path fill-rule="evenodd" clip-rule="evenodd" d="M120.358 195.391L123.186 194.448L123.992 196.863C123.992 196.863 123.992 196.863 123.992 196.863C124.157 197.357 124.647 197.693 125.194 197.663L130.353 195.901C130.353 195.901 130.353 195.901 130.353 195.901C130.353 195.901 130.354 195.901 130.354 195.901C131.547 195.493 132.844 195.493 134.037 195.9C134.037 195.9 134.037 195.9 134.038 195.9L139.081 197.619C139.694 197.651 140.221 197.223 140.318 196.651L140.654 194.67L143.593 195.169L143.257 197.15C143.257 197.15 143.257 197.15 143.257 197.15C142.878 199.382 140.774 200.876 138.548 200.56L138.41 200.54L133.075 198.722C132.506 198.528 131.886 198.528 131.318 198.722L125.872 200.581L125.736 200.601C123.742 200.893 121.805 199.728 121.164 197.807L120.358 195.391Z" fill="#0F0F0F"/>
<path d="M131.19 191.095C127.366 194.116 117.629 198.978 105.147 184.249C104.726 183.752 105.303 183.039 105.884 183.341C109.573 185.258 116.342 187.859 122.479 185.293C123.132 185.02 123.883 185.121 124.438 185.557C125.715 186.562 128.175 188.299 130.787 189.069C131.696 189.338 131.932 190.509 131.19 191.095Z" fill="white"/>
<path d="M120.54 194.126C116.211 193.64 110.944 191.048 105.069 184.114C104.647 183.617 104.488 183.415 105.069 183.717C107.062 184.753 114.204 190.226 120.044 191.387C125.012 192.374 129.574 189.751 130.716 190.088C131.626 190.357 131.853 190.374 131.112 190.96C129.087 192.559 125.407 194.674 120.54 194.126Z" fill="#DDDDDD"/>
<path d="M131.84 190.788C135.664 193.809 145.401 198.672 157.882 183.942C158.304 183.445 157.727 182.732 157.146 183.034C153.457 184.951 146.688 187.552 140.551 184.986C139.898 184.713 139.147 184.814 138.592 185.25C137.315 186.255 134.855 187.992 132.243 188.763C131.334 189.031 131.098 190.202 131.84 190.788Z" fill="white"/>
<path fill-rule="evenodd" clip-rule="evenodd" d="M121.326 195.859C125.527 196.092 129.173 194.65 132.159 192.291C133.879 190.932 133.338 188.223 131.23 187.601C129.297 187.03 127.247 185.809 125.404 184.358C124.404 183.571 123.049 183.389 121.872 183.881C117.31 185.789 111.897 184.734 106.606 181.984C104.514 180.897 102.445 183.45 103.954 185.232C109.851 192.192 115.686 195.546 121.326 195.859ZM123.083 186.704C123.212 186.65 123.359 186.67 123.468 186.756C125.393 188.271 127.504 189.564 129.66 190.319C127.338 191.989 124.594 192.969 121.5 192.798C117.693 192.587 113.641 190.634 109.38 186.528C110.553 186.936 111.75 187.266 112.961 187.502C116.543 188.2 119.964 188.009 123.083 186.704Z" fill="black"/>
<path d="M142.414 193.82C146.743 193.333 152.01 190.741 157.886 183.807C158.306 183.31 158.467 183.109 157.886 183.411C155.892 184.447 148.751 189.919 142.911 191.08C137.942 192.067 133.38 189.444 132.238 189.782C131.328 190.05 131.102 190.067 131.843 190.653C133.867 192.252 137.547 194.367 142.414 193.82Z" fill="#DDDDDD"/>
<path fill-rule="evenodd" clip-rule="evenodd" d="M131.8 187.294C129.692 187.916 129.151 190.625 130.871 191.985C133.857 194.344 137.503 195.785 141.704 195.553C147.344 195.24 153.178 191.885 159.076 184.926C160.585 183.144 158.517 180.591 156.424 181.678C151.133 184.427 145.72 185.482 141.159 183.575C139.981 183.082 138.626 183.265 137.626 184.051C135.784 185.502 133.734 186.724 131.8 187.294ZM153.65 186.221C149.389 190.327 145.337 192.28 141.53 192.491C138.436 192.663 135.692 191.683 133.37 190.012C135.526 189.257 137.639 187.963 139.562 186.449C139.671 186.363 139.818 186.344 139.947 186.398C143.066 187.702 146.487 187.893 150.069 187.195C151.28 186.959 152.477 186.629 153.65 186.221Z" fill="black"/>
<path fill-rule="evenodd" clip-rule="evenodd" d="M152.616 167.961C140.047 163.531 126.118 163.307 110.774 167.379C109.978 167.591 109.162 167.117 108.951 166.321C108.739 165.525 109.213 164.709 110.009 164.498C125.827 160.3 140.378 160.487 153.607 165.149C154.384 165.423 154.791 166.274 154.518 167.051C154.244 167.827 153.393 168.235 152.616 167.961Z" fill="black"/>
<path d="M126.282 154.326C126.688 155.308 127.243 156.328 127.949 157.385C128.654 158.44 129.556 159.438 130.658 160.379C130.935 160.616 131.346 160.604 131.61 160.352C132.758 159.256 133.709 158.184 134.465 157.136C135.198 156.118 135.717 155.182 136.023 154.326V154.326C136.112 154.076 136.055 153.796 135.874 153.602L134.425 152.038C134.312 151.916 134.161 151.838 133.997 151.816C132.629 151.634 131.679 151.543 131.149 151.543C130.619 151.543 129.64 151.634 128.213 151.816V151.816C128.043 151.838 127.887 151.921 127.772 152.049L126.408 153.58C126.226 153.783 126.177 154.073 126.282 154.326Z" fill="black"/>
<path d="M128.5 154.993C128.702 155.416 128.959 155.852 129.273 156.301C129.64 156.828 130.109 157.434 130.68 158.12H130.68C130.806 158.271 131.03 158.292 131.181 158.166C131.2 158.149 131.218 158.131 131.234 158.111C131.829 157.343 132.323 156.698 132.717 156.175C133.029 155.76 133.268 155.372 133.434 155.01V155.01C133.556 154.743 133.502 154.429 133.298 154.218L132.777 153.681C132.664 153.564 132.515 153.49 132.355 153.47C131.693 153.388 131.229 153.346 130.964 153.346C130.699 153.346 130.221 153.388 129.532 153.47C129.365 153.49 129.211 153.568 129.096 153.691L128.622 154.201C128.422 154.415 128.374 154.729 128.5 154.993Z" fill="#FAC500"/>
</g>
<defs>
<clipPath id="clip0_3196_2818">
<rect width="504" height="336" fill="white"/>
</clipPath>
</defs>
</svg>
