<svg width="48" height="48" viewBox="0 0 48 48" fill="none" xmlns="http://www.w3.org/2000/svg">
<rect width="48" height="48" fill="white"/>
<path fill-rule="evenodd" clip-rule="evenodd" d="M36.3818 33.0374C36.3987 32.3782 36.4546 29.3684 36.1175 27.7041C36.9944 26.942 37.8752 26.0317 38.7588 24.9662C39.564 23.9951 38.4606 22.6039 37.3449 23.1963C36.9587 23.4013 36.5715 23.589 36.1843 23.7577V15.7984C38.1264 14.6527 39.9021 13.3513 39.9021 11.7289C39.9021 6.84157 32.917 3.01311 24 3.01311C15.0829 3.01311 8.0979 6.84157 8.0979 11.7289C8.0979 13.2861 9.53591 14.5772 11.3827 15.7173V23.6707C11.1802 23.5732 10.9778 23.4707 10.7758 23.3634C9.6602 22.771 8.55684 24.1622 9.36166 25.1332C10.0461 25.9585 10.729 26.6907 11.4096 27.3331C11.3637 27.5018 11.3407 27.5867 11.3406 27.5879L11.0612 34.3077C11.0592 34.3579 11.1135 34.39 11.1561 34.3636L11.8366 33.9409C11.8757 33.9167 11.9266 33.9424 11.931 33.9882L12.2873 37.6576C12.2913 37.6991 12.3339 37.7251 12.3721 37.7096L13.2693 37.3479C13.3021 37.3345 13.3383 37.35 13.3505 37.3836C13.8457 38.7734 14.9092 41.2822 16.4477 42.3955L17.4237 43.1019C17.4608 43.1286 17.5128 43.1077 17.5211 43.0626L17.5794 42.7514C17.588 42.7059 17.6397 42.6846 17.6765 42.7124C17.9837 42.9452 18.3386 43.2499 18.7273 43.5831C20.1146 44.7725 21.9321 46.3309 23.5455 46.3309C25.1994 46.3309 27.0894 44.6855 28.5102 43.4485C28.8954 43.1131 29.2461 42.8077 29.5482 42.5734C29.5842 42.5456 29.6355 42.5651 29.6458 42.6095L29.7722 43.1626C29.7828 43.2088 29.8379 43.2268 29.8733 43.1961L30.8339 42.3648C30.9378 42.2749 33.1759 40.3162 34.2563 37.6919C34.3471 37.6919 34.4333 37.6951 34.5142 37.6984C34.7916 37.7088 35.0071 37.7172 35.1261 37.5821C35.5402 36.8024 35.7773 34.6665 35.7773 34.6665C35.7829 34.5892 35.8755 34.5539 35.9288 34.6095L36.2274 34.9213C36.2659 34.9614 36.333 34.9351 36.3344 34.8795L36.3818 33.0374ZM9.75435 11.7289C9.75435 7.91011 16.2781 4.68377 24 4.68377C31.7221 4.68377 38.2458 7.91011 38.2458 11.7289C38.2458 12.7466 35.5967 14.2303 34.0136 15.1166C33.4183 15.45 32.8558 15.7651 32.3697 16.069C32.1948 16.1786 32.0252 16.2856 31.8599 16.39L31.8041 16.4252C29.4064 17.9398 28.0857 18.774 24 18.774C20.5908 18.774 19.4901 18.1781 17.4928 17.0968L17.4919 17.0963C17.1796 16.9272 16.8489 16.7481 16.4881 16.5595C16.1616 16.3888 15.8104 16.2103 15.445 16.0248L15.4422 16.0233C13.3136 14.9411 9.75435 13.1314 9.75435 11.7289Z" fill="black"/>
<path d="M36.1175 27.7041L35.5028 26.9656L35.0742 27.338L35.1883 27.9007L36.1175 27.7041ZM36.3818 33.0374L37.3304 33.063L36.3818 33.0374ZM38.7588 24.9662L39.4827 25.5931L39.4831 25.5929L38.7588 24.9662ZM37.3449 23.1963L37.7823 24.0567L37.3449 23.1963ZM36.1843 23.7577H35.2353V25.2251L36.5563 24.6496L36.1843 23.7577ZM36.1843 15.7984L35.7098 14.9587L35.2353 15.2387V15.7984H36.1843ZM11.3827 15.7173H12.3317V15.1703L11.8735 14.8874L11.3827 15.7173ZM11.3827 23.6707L10.978 24.5478L12.3317 25.1998V23.6707H11.3827ZM10.7758 23.3634L10.3383 24.2238L10.7758 23.3634ZM9.36169 25.1332L8.63753 25.7598L8.6377 25.76L9.36169 25.1332ZM11.4096 27.3331L12.3239 27.5929L12.4791 27.0226L12.0536 26.6209L11.4096 27.3331ZM11.3407 27.5879L12.2888 27.6291L12.289 27.6255L12.2891 27.6219L11.3407 27.5879ZM11.0612 34.3077L10.1131 34.2665L10.113 34.2683L11.0612 34.3077ZM11.1561 34.3636L11.6462 35.1939L11.649 35.1921L11.1561 34.3636ZM11.8366 33.9409L11.3445 33.1121L11.3438 33.1125L11.8366 33.9409ZM11.931 33.9882L12.8754 33.8926H12.8754L11.931 33.9882ZM12.2873 37.6576L13.2318 37.563L13.2317 37.5619L12.2873 37.6576ZM12.3722 37.7096L12.7194 38.612L12.7206 38.6117L12.3722 37.7096ZM13.2693 37.3479L13.6178 38.2496L13.6209 38.2485L13.2693 37.3479ZM13.3505 37.3836L14.2422 37.0519L14.2406 37.0472L13.3505 37.3836ZM16.4477 42.3955L16.9963 41.6042H16.9962L16.4477 42.3955ZM17.4237 43.1019L16.8752 43.8932L16.8769 43.8943L17.4237 43.1019ZM17.5211 43.0626L16.5891 42.8803L16.5885 42.8832L17.5211 43.0626ZM17.5794 42.7514L16.6476 42.5677L16.6474 42.5691L17.5794 42.7514ZM17.6765 42.7124L17.1107 43.4911H17.1109L17.6765 42.7124ZM18.7273 43.5831L19.3374 42.8402L18.7273 43.5831ZM28.5102 43.4485L27.8947 42.7106L28.5102 43.4485ZM29.5482 42.5734L28.9764 41.7995L28.9745 41.8013L29.5482 42.5734ZM29.6458 42.6095L30.57 42.389L30.5696 42.3875L29.6458 42.6095ZM29.7722 43.1626L28.8481 43.3831L28.8484 43.3842L29.7722 43.1626ZM29.8733 43.1961L29.26 42.4561L29.2594 42.4568L29.8733 43.1961ZM30.8339 42.3648L30.2206 41.6248L30.8339 42.3648ZM34.2563 37.6919V36.7223H33.626L33.3816 37.3161L34.2563 37.6919ZM34.5142 37.6984L34.4786 38.6673L34.5142 37.6984ZM35.1262 37.5821L35.8314 38.2308L35.9066 38.1456L35.9603 38.0446L35.1262 37.5821ZM35.7773 34.6665L36.7203 34.7759L36.7224 34.7571L36.7234 34.7383L35.7773 34.6665ZM35.9289 34.6095L36.6076 33.9315L36.6069 33.9308L35.9289 34.6095ZM36.2274 34.9214L35.5491 35.5993L35.5494 35.5996L36.2274 34.9214ZM36.3345 34.8795L37.2831 34.9058V34.9047L36.3345 34.8795ZM34.0136 15.1166L33.5575 14.2663V14.2663L34.0136 15.1166ZM32.3697 16.069L31.8744 15.242L31.8737 15.2424L32.3697 16.069ZM31.8599 16.39L32.3584 17.215L31.8599 16.39ZM31.8041 16.4252L31.3056 15.6001L31.3049 15.6005L31.8041 16.4252ZM17.4928 17.0968L17.9372 16.24L17.9364 16.2396L17.4928 17.0968ZM17.4919 17.0963L17.0476 17.9531L17.0484 17.9535L17.4919 17.0963ZM16.4881 16.5595L16.0558 17.4227L16.0558 17.4227L16.4881 16.5595ZM15.445 16.0248L15.0223 16.8929L15.0226 16.893L15.445 16.0248ZM15.4422 16.0233L15.0194 16.8914L15.0195 16.8914L15.4422 16.0233ZM35.1883 27.9007C35.4985 29.4333 35.4509 32.3223 35.4332 33.0121L37.3304 33.063C37.3467 32.4342 37.4106 29.3034 37.0467 27.5076L35.1883 27.9007ZM38.0349 24.3394C37.1796 25.3706 36.3348 26.2424 35.5028 26.9656L36.7326 28.4427C37.654 27.6417 38.5709 26.6927 39.4827 25.5931L38.0349 24.3394ZM37.7823 24.0567C37.8586 24.0162 37.901 24.0224 37.9229 24.0279C37.9558 24.0362 37.9989 24.0605 38.036 24.107C38.0731 24.1535 38.0851 24.1986 38.0858 24.2262C38.0865 24.2416 38.0861 24.2775 38.0345 24.3396L39.4831 25.5929C41.0001 23.7628 38.8916 21.2822 36.9072 22.3359L37.7823 24.0567ZM36.5563 24.6496C36.9672 24.4707 37.3763 24.2723 37.7823 24.0567L36.9072 22.3359C36.5411 22.5303 36.1758 22.7074 35.8119 22.8657L36.5563 24.6496ZM35.2353 15.7984V23.7577H37.1333V15.7984H35.2353ZM38.9531 11.7289C38.9531 12.1555 38.7214 12.6493 38.1154 13.2418C37.5152 13.8286 36.669 14.3928 35.7098 14.9587L36.6588 16.6381C37.6417 16.0583 38.6542 15.399 39.4276 14.643C40.195 13.8927 40.8511 12.9246 40.8511 11.7289H38.9531ZM24 3.98274C28.3386 3.98274 32.1524 4.91613 34.8464 6.39269C37.571 7.88604 38.9531 9.80527 38.9531 11.7289H40.8511C40.8511 8.76513 38.7408 6.32649 35.7437 4.68381C32.7159 3.0243 28.5786 2.04348 24 2.04348V3.98274ZM9.04693 11.7289C9.04693 9.80527 10.429 7.88604 13.1537 6.39269C15.8477 4.91613 19.6615 3.98274 24 3.98274V2.04348C19.4215 2.04348 15.2842 3.0243 12.2565 4.68381C9.25937 6.32649 7.14893 8.76513 7.14893 11.7289H9.04693ZM11.8735 14.8874C10.9807 14.3363 10.2488 13.7849 9.74827 13.2254C9.25124 12.6698 9.04693 12.1807 9.04693 11.7289H7.14893C7.14893 12.8343 7.66361 13.7694 8.34729 14.5337C9.02746 15.294 9.93792 15.9582 10.8919 16.5472L11.8735 14.8874ZM12.3317 23.6707V15.7173H10.4337V23.6707H12.3317ZM10.3383 24.2238C10.5508 24.3366 10.7641 24.4447 10.978 24.5478L11.7874 22.7937C11.5964 22.7016 11.405 22.6047 11.2134 22.503L10.3383 24.2238ZM10.0858 24.5065C10.0344 24.4445 10.0343 24.4086 10.0348 24.3933C10.0356 24.3657 10.0476 24.3206 10.0847 24.274C10.1216 24.2276 10.165 24.2032 10.1978 24.195C10.2197 24.1895 10.2619 24.1832 10.3383 24.2238L11.2134 22.503C9.22927 21.4495 7.12049 23.9296 8.63753 25.7598L10.0858 24.5065ZM12.0536 26.6209C11.4044 26.0082 10.7481 25.3049 10.0857 24.5063L8.6377 25.76C9.34427 26.612 10.0537 27.3733 10.7657 28.0453L12.0536 26.6209ZM12.2891 27.6219C12.2885 27.6363 12.2869 27.6618 12.286 27.6729C12.2852 27.6819 12.2835 27.6981 12.2827 27.7054C12.2807 27.7221 12.2786 27.7357 12.2772 27.7443C12.2745 27.7613 12.2719 27.7747 12.2706 27.7812C12.2691 27.7887 12.2678 27.7948 12.267 27.7988C12.266 27.803 12.2653 27.8065 12.2647 27.809C12.2626 27.8179 12.2609 27.8246 12.2605 27.8263C12.2599 27.8289 12.2594 27.8309 12.2591 27.8317C12.2589 27.8327 12.2588 27.8333 12.2587 27.8334C12.2587 27.8336 12.2591 27.8317 12.2605 27.8268C12.263 27.8175 12.267 27.8027 12.2726 27.7817C12.2839 27.74 12.301 27.6772 12.3239 27.5929L10.4954 27.0733C10.4724 27.1578 10.455 27.2218 10.4433 27.265C10.4375 27.2865 10.4328 27.3037 10.4295 27.3159C10.428 27.3218 10.4263 27.3281 10.4248 27.3337C10.4242 27.336 10.4229 27.3412 10.4214 27.3472C10.4208 27.3496 10.419 27.3569 10.4169 27.3661C10.4159 27.3701 10.4135 27.3808 10.4108 27.3945C10.4095 27.4011 10.4069 27.4145 10.4041 27.4315C10.4032 27.4374 10.3945 27.4886 10.3923 27.5539L12.2891 27.6219ZM12.0094 34.3488L12.2888 27.6291L10.3925 27.5468L10.1131 34.2665L12.0094 34.3488ZM10.6661 33.5334C11.2462 33.1756 12.0392 33.5962 12.0094 34.347L10.113 34.2683C10.0793 35.1192 10.9809 35.604 11.6462 35.1939L10.6661 33.5334ZM11.3438 33.1125L10.6633 33.5348L11.649 35.1921L12.3295 34.7697L11.3438 33.1125ZM12.8754 33.8926C12.8002 33.1197 11.9663 32.7266 11.3445 33.1121L12.3287 34.7701C11.7852 35.1069 11.053 34.765 10.9867 34.0842L12.8754 33.8926ZM13.2317 37.5619L12.8754 33.8926L10.9867 34.0842L11.343 37.7533L13.2317 37.5619ZM12.0249 36.8075C12.5566 36.5938 13.1726 36.9461 13.2318 37.563L11.3429 37.7522C11.41 38.4518 12.1112 38.8564 12.7194 38.612L12.0249 36.8075ZM12.9208 36.4461L12.0237 36.8078L12.7206 38.6117L13.6178 38.2496L12.9208 36.4461ZM14.2406 37.0472C14.035 36.4793 13.4232 36.2411 12.9177 36.4472L13.6209 38.2485C13.181 38.4276 12.6418 38.2211 12.4604 37.72L14.2406 37.0472ZM16.9962 41.6042C16.3957 41.1699 15.8285 40.4101 15.334 39.5163C14.8489 38.6395 14.4798 37.7186 14.2422 37.0519L12.4588 37.7154C12.7164 38.4384 13.1266 39.4672 13.6817 40.4704C14.2275 41.4569 14.9612 42.5081 15.8993 43.1867L16.9962 41.6042ZM17.9723 42.3106L16.9963 41.6042L15.8992 43.1867L16.8752 43.8932L17.9723 42.3106ZM16.5885 42.8832C16.712 42.2132 17.4605 41.9421 17.9706 42.3096L16.8769 43.8943C17.4611 44.3152 18.3137 44.0018 18.4537 43.242L16.5885 42.8832ZM16.6474 42.5691L16.5891 42.8803L18.4532 43.2449L18.5115 42.9341L16.6474 42.5691ZM18.2423 41.9341C17.629 41.4688 16.7851 41.8403 16.6476 42.5677L18.5112 42.9351C18.391 43.5719 17.6504 43.9004 17.1107 43.4911L18.2423 41.9341ZM19.3374 42.8402C18.9558 42.5132 18.5769 42.1879 18.2421 41.9338L17.1109 43.4911C17.3905 43.7029 17.7215 43.9863 18.1173 44.3256L19.3374 42.8402ZM23.5456 45.3613C23.0139 45.3613 22.3451 45.0938 21.5605 44.5845C20.7931 44.0867 20.0398 43.4427 19.3374 42.8402L18.1173 44.3256C18.8022 44.913 19.6513 45.6429 20.5429 46.2215C21.4172 46.789 22.4638 47.3005 23.5456 47.3005V45.3613ZM27.8947 42.7106C27.1757 43.3366 26.3953 44.0141 25.6 44.5393C24.7852 45.0776 24.0912 45.3613 23.5456 45.3613V47.3005C24.6537 47.3005 25.7317 46.7615 26.6305 46.1677C27.5489 45.5613 28.4239 44.7974 29.1257 44.1867L27.8947 42.7106ZM28.9745 41.8013C28.6464 42.0558 28.2731 42.381 27.8947 42.7106L29.1257 44.1867C29.5176 43.8452 29.8457 43.56 30.122 43.3456L28.9745 41.8013ZM30.5696 42.3875C30.4043 41.6706 29.5671 41.3439 28.9764 41.7995L30.1202 43.3474C29.6013 43.7474 28.8667 43.4597 28.7221 42.8319L30.5696 42.3875ZM30.6965 42.942L30.57 42.389L28.7217 42.8301L28.8481 43.3831L30.6965 42.942ZM29.2594 42.4568C29.756 42.0262 30.5417 42.2702 30.6961 42.9409L28.8484 43.3842C29.0238 44.1473 29.9199 44.4274 30.4873 43.9354L29.2594 42.4568ZM30.2206 41.6248L29.26 42.4561L30.487 43.9358L31.4476 43.1044L30.2206 41.6248ZM33.3816 37.3161C32.3941 39.7145 30.3086 41.5486 30.2206 41.6248L31.4472 43.1044C31.567 43.0008 33.9582 40.9176 35.1311 38.068L33.3816 37.3161ZM34.5496 36.7295C34.4708 36.7263 34.3676 36.7223 34.2563 36.7223V38.6615C34.3266 38.6615 34.3959 38.664 34.4786 38.6673L34.5496 36.7295ZM34.421 36.9331C34.4941 36.8504 34.5761 36.7977 34.6457 36.7674C34.7089 36.7396 34.7534 36.7338 34.7591 36.7331C34.7647 36.7324 34.7534 36.7342 34.7125 36.7342C34.6711 36.7338 34.6231 36.7324 34.5496 36.7295L34.4786 38.6673C34.5923 38.6716 34.8022 38.6824 34.9997 38.6568C35.2138 38.6286 35.5568 38.542 35.8314 38.2308L34.421 36.9331ZM35.7773 34.6665C34.8343 34.5571 34.8343 34.5571 34.8343 34.5571C34.8343 34.5571 34.8343 34.5571 34.8343 34.5575C34.8343 34.5582 34.834 34.5593 34.834 34.5611C34.8336 34.5643 34.8329 34.5694 34.8322 34.5766C34.8305 34.5907 34.828 34.612 34.8245 34.6401C34.8177 34.6965 34.8075 34.7784 34.7937 34.8798C34.7662 35.0834 34.7255 35.361 34.6729 35.6603C34.6199 35.9617 34.5566 36.2736 34.4853 36.549C34.4097 36.8396 34.3401 37.0288 34.292 37.1197L35.9603 38.0446C36.1189 37.7457 36.2345 37.3753 36.32 37.0461C36.4094 36.7017 36.4828 36.3335 36.5411 36.0032C36.5994 35.6711 36.644 35.3664 36.674 35.1448C36.6888 35.034 36.7001 34.943 36.7079 34.8795C36.7118 34.8474 36.715 34.8224 36.7167 34.8048C36.7178 34.7961 36.7188 34.7892 36.7192 34.7842C36.7196 34.7817 36.7196 34.7799 36.7199 34.7784C36.7199 34.7777 36.7199 34.7773 36.7199 34.7766C36.7203 34.7766 36.7203 34.7762 36.7203 34.7762C36.7203 34.7759 36.7203 34.7759 36.7203 34.7759C36.7203 34.7759 36.7203 34.7759 35.7773 34.6665ZM36.6069 33.9308C35.9727 33.2695 34.8962 33.6991 34.8308 34.5947L36.7234 34.7383C36.6697 35.4791 35.7787 35.8379 35.2509 35.2877L36.6069 33.9308ZM36.9061 34.2434L36.6076 33.9315L35.2505 35.2874L35.5491 35.5993L36.9061 34.2434ZM35.3858 34.8528C35.4081 34.0297 36.3737 33.6879 36.9054 34.2427L35.5494 35.5996C36.1582 36.2346 37.258 35.8401 37.2831 34.9058L35.3858 34.8528ZM35.4332 33.0121L35.3858 34.8539L37.2831 34.9047L37.3304 33.063L35.4332 33.0121ZM24 3.71414C20.0223 3.71414 16.315 4.54302 13.568 5.9015C10.8992 7.22136 8.80541 9.2269 8.80541 11.7289H10.7034C10.7034 10.412 11.8714 8.89502 14.3949 7.64703C16.8403 6.43767 20.2558 5.65337 24 5.65337V3.71414ZM39.1948 11.7289C39.1948 9.2269 37.1008 7.22136 34.4319 5.9015C31.685 4.54302 27.9778 3.71414 24 3.71414V5.65337C27.7443 5.65337 31.1597 6.43767 33.6052 7.64703C36.1288 8.89502 37.2969 10.412 37.2969 11.7289H39.1948ZM34.4697 15.9669C35.2523 15.5288 36.3553 14.912 37.2636 14.269C37.7159 13.9489 38.1585 13.5957 38.4977 13.2279C38.7998 12.9004 39.1948 12.3783 39.1948 11.7289H37.2969C37.2969 11.5883 37.3604 11.6333 37.1163 11.8979C36.9096 12.1223 36.5906 12.3862 36.1829 12.675C35.371 13.2499 34.3581 13.8181 33.5575 14.2663L34.4697 15.9669ZM32.865 16.8961C33.3282 16.6066 33.8691 16.3032 34.4697 15.9669L33.5575 14.2663C32.9671 14.5969 32.3835 14.9236 31.8744 15.242L32.865 16.8961ZM32.3584 17.215C32.5241 17.1106 32.6923 17.0043 32.8661 16.8956L31.8737 15.2424C31.6974 15.3529 31.5267 15.4607 31.3614 15.5649L32.3584 17.215ZM32.3026 17.2503L32.3584 17.215L31.3614 15.5649L31.3056 15.6001L32.3026 17.2503ZM24 19.7436C26.1055 19.7436 27.5694 19.529 28.8416 19.0852C30.1005 18.6461 31.1197 17.9975 32.3029 17.2499L31.3049 15.6005C30.0909 16.3675 29.2509 16.8933 28.2285 17.2499C27.2195 17.6019 25.9803 17.8043 24 17.8043V19.7436ZM17.0485 17.9536C18.0345 18.4873 18.8922 18.9553 19.9506 19.2715C21.0179 19.5904 22.2427 19.7436 24 19.7436V17.8043C22.3482 17.8043 21.3181 17.6596 20.4833 17.4102C19.6397 17.1582 18.9485 16.7875 17.9372 16.24L17.0485 17.9536ZM17.0484 17.9535L17.0493 17.954L17.9364 16.2396L17.9355 16.2391L17.0484 17.9535ZM16.0558 17.4227C16.4097 17.6077 16.7348 17.7837 17.0476 17.9531L17.9363 16.2395C17.6246 16.0708 17.2881 15.8886 16.9204 15.6963L16.0558 17.4227ZM15.0226 16.893C15.389 17.0791 15.7351 17.255 16.0558 17.4227L16.9205 15.6964C16.5881 15.5226 16.2319 15.3416 15.8675 15.1565L15.0226 16.893ZM15.0195 16.8914L15.0223 16.8929L15.8677 15.1566L15.8649 15.1552L15.0195 16.8914ZM8.80541 11.7289C8.80541 12.4773 9.25856 13.0919 9.66496 13.5169C10.1039 13.976 10.6829 14.4131 11.2851 14.8106C12.4937 15.6084 13.9651 16.3553 15.0194 16.8914L15.865 15.1552C14.7907 14.609 13.4183 13.91 12.3151 13.1818C11.7614 12.8163 11.3176 12.4703 11.0226 12.1618C10.6951 11.8193 10.7034 11.6818 10.7034 11.7289H8.80541Z" fill="white"/>
<path d="M39.0739 11.7289C39.0739 13.6504 34.9922 15.4115 32.8064 16.7791C30.0414 18.5088 28.6494 19.6093 24 19.6093C19.8375 19.6093 18.8348 18.7272 16.1071 17.3011C13.3792 15.8751 8.92615 13.9049 8.92615 11.7289C8.92615 7.37668 15.6749 3.84845 24 3.84845C32.3252 3.84845 39.0739 7.37668 39.0739 11.7289Z" fill="white"/>
<path d="M32.8064 16.7791C30.0415 18.5089 28.6494 19.6093 24.0001 19.6093C19.8375 19.6093 18.8348 18.7272 16.1071 17.3012C13.3793 15.8751 15.7235 9.74076 25.7297 7.27266C35.7356 4.80456 38.3918 8.87805 39.074 11.7289C39.074 13.6504 34.9923 15.4115 32.8064 16.7791Z" fill="#E1E1E1"/>
<path fill-rule="evenodd" clip-rule="evenodd" d="M16.7083 18.5682C18.7953 19.6982 20.1738 20.4446 24 20.4446C28.5614 20.4446 30.2015 19.409 32.6831 17.8412C32.8643 17.7268 33.0501 17.6094 33.243 17.4887C33.6932 17.2072 34.2362 16.9031 34.8114 16.5809L34.8181 16.5771L34.8184 16.577C37.2011 15.2425 39.9021 13.7297 39.9021 11.7289C39.9021 6.84157 32.917 3.01311 24 3.01311C15.0829 3.01311 8.0979 6.84157 8.0979 11.7289C8.0979 14.1607 11.6043 15.9431 14.6983 17.5158L14.6996 17.5164L14.7414 17.5377C15.0857 17.7129 15.4169 17.8814 15.726 18.0429C16.0791 18.2273 16.403 18.4027 16.7082 18.5681L16.7083 18.5682ZM9.75435 11.7289C9.75435 7.91011 16.2781 4.68377 24 4.68377C31.7221 4.68377 38.2458 7.91011 38.2458 11.7289C38.2458 12.7466 35.5967 14.2303 34.0136 15.1166C33.4183 15.45 32.8558 15.7651 32.3697 16.069C32.1948 16.1786 32.0252 16.2856 31.8599 16.39L31.8041 16.4252C29.4064 17.9398 28.0857 18.774 24 18.774C20.5908 18.774 19.4901 18.1781 17.4928 17.0968L17.4919 17.0963C17.1796 16.9272 16.8489 16.7481 16.4881 16.5595C16.1616 16.3888 15.8104 16.2103 15.445 16.0248L15.4422 16.0233C13.3136 14.9411 9.75435 13.1314 9.75435 11.7289Z" fill="black"/>
<path d="M11.6262 26.4362L11.4108 31.6158L12.0782 31.2014L12.4738 35.2769L13.302 34.943C13.302 34.943 14.5021 39.0744 16.3922 40.4422L16.5045 39.8437C16.5045 39.8437 20.2133 43.2185 23.0071 43.2185C25.8009 43.2185 29.5906 39.7322 29.5906 39.7322L29.7563 40.4559C29.7563 40.4559 32.3718 38.1922 33.1936 35.3748C33.7317 35.7505 33.9525 35.5 33.9525 35.5C33.9525 35.5 34.6347 34.1023 34.3881 31.4086C34.758 31.4917 35.0155 31.7411 35.0155 31.7411C35.0155 31.7411 35.1275 27.3892 34.6347 26.1047C33.402 25.1516 11.9548 25.2345 11.9548 25.2345L11.6262 26.4362Z" fill="white"/>
<path d="M33.2141 30.1059C33.2141 30.1059 33.3367 30.8368 33.4625 32.0064C33.566 32.967 33.6077 33.6561 33.6077 33.6561L33.2841 33.5558C33.165 33.5186 33.0389 33.5828 32.9993 33.702C32.7343 34.4947 31.785 36.7263 30.9021 37.6377C30.8685 37.6724 30.8106 37.6497 30.8099 37.6013L30.7912 36.7847C30.789 36.6631 30.6421 36.6061 30.5605 36.6956C29.7948 37.5356 27.1408 41.1183 23.9449 41.1183C20.7196 41.1183 17.8759 38.0103 17.0707 37.3035C16.9872 37.2302 16.8577 37.2854 16.8509 37.397L16.7667 38.0276C16.7632 38.0839 16.6872 38.0984 16.665 38.0464C16.3852 37.3905 15.3864 35.7422 15.0861 34.4705C15.0344 34.251 14.8098 34.3127 14.6926 34.3452L14.3374 34.4358L13.8404 29.8135L12.5152 29.1453L12.0458 31.0108L12.874 34.5192L13.7023 37.0807L16.2146 40.979L18.0367 42.0092L23.3098 45.3783L27.2578 43.2622L29.8803 41.1461L31.1229 40.7563L33.6628 36.0505L34.4358 36.5241L34.7948 33.851L34.9265 32.6833L35.6229 32.6815L35.2915 29.5629L33.2141 30.1059Z" fill="#DDDDDD"/>
<path d="M12.2109 16.8127V22.6339C12.2109 22.6339 10.9572 27.4394 23.6687 27.767C36.6305 28.1011 35.3558 22.5046 35.3558 22.5046V16.2307H12.2109V16.8127Z" fill="#FFDAA0"/>
<path fill-rule="evenodd" clip-rule="evenodd" d="M30.8339 42.3648C30.9378 42.2749 33.1759 40.3162 34.2563 37.6919C34.3471 37.6919 34.4333 37.6951 34.5142 37.6984C34.7916 37.7089 35.0071 37.7172 35.1261 37.5822C35.5402 36.8024 35.7773 34.6665 35.7773 34.6665C35.7829 34.5893 35.8755 34.5539 35.9288 34.6095L36.2274 34.9214C36.2659 34.9614 36.333 34.9351 36.3344 34.8795L36.3818 33.0374C36.4012 32.2829 36.4715 28.4489 35.9454 27.0779C35.8861 26.9296 35.8536 26.8531 35.8476 26.8484L35.6769 26.7166C35.5663 26.6311 35.4862 26.6429 35.1247 26.6959C34.2789 26.8201 31.8931 27.1704 23.9724 27.0291C19.0239 26.9409 13.6606 25.9001 12.6564 25.7052C12.5522 25.685 12.495 25.674 12.4899 25.6739L11.909 25.6761C11.8812 25.6763 11.8566 25.695 11.8494 25.7222C11.5103 26.9628 11.3408 27.5847 11.3407 27.588L11.0612 34.3077C11.0592 34.3579 11.1136 34.39 11.1561 34.3636L11.8366 33.9409C11.8757 33.9168 11.9265 33.9424 11.931 33.9882L12.2873 37.6576C12.2913 37.6991 12.3339 37.7251 12.3721 37.7096L13.2693 37.3479C13.3021 37.3345 13.3383 37.35 13.3505 37.3836C13.8457 38.7734 14.9092 41.2826 16.4477 42.3955L17.4237 43.1019C17.4608 43.1286 17.5128 43.1077 17.5211 43.0626L17.5794 42.7514C17.588 42.7059 17.6397 42.6846 17.6765 42.7124C17.9837 42.9453 18.3386 43.2499 18.7273 43.5831C20.1146 44.7726 21.9321 46.3309 23.5455 46.3309C25.1994 46.3309 27.0894 44.6856 28.5102 43.4485C28.8954 43.1131 29.2461 42.8077 29.5482 42.5735C29.5842 42.5457 29.6355 42.5651 29.6458 42.6099L29.7722 43.1626C29.7828 43.2088 29.8379 43.2268 29.8733 43.1961L30.8339 42.3648ZM16.4825 39.6116C16.4916 39.5636 16.5491 39.5441 16.5852 39.5766L17.5976 40.4982C18.5652 41.3768 21.5203 43.6578 23.5455 43.6578C25.5686 43.6578 28.581 41.2985 29.5711 40.3895L30.5389 39.5008C30.5742 39.4683 30.6307 39.486 30.6413 39.5329L30.7367 39.9484C30.748 39.9982 30.8099 40.0152 30.8434 39.9769C31.5928 39.112 32.5251 37.8273 32.9371 36.4137L33.2363 35.3877C33.2483 35.3466 33.2967 35.3296 33.3314 35.3538L33.867 35.7278C33.903 35.7531 33.9532 35.7343 33.9627 35.691C34.0977 35.0852 34.2245 34.1005 34.1016 32.7602L34.0051 31.705C34.0012 31.6628 34.0394 31.6288 34.0804 31.6382L34.6619 31.7682C34.7008 31.7772 34.7379 31.7476 34.7375 31.7075C34.7304 30.3903 34.6672 28.8663 34.5008 28.0482C34.4962 28.0262 34.4803 28.0098 34.4584 28.0051C32.7647 27.6434 25.151 27.3091 13.172 27.3422C13.1442 27.3424 13.1192 27.3611 13.1117 27.3881L12.99 27.8342C12.9887 27.8389 12.9878 27.8436 12.9877 27.8483L12.8469 31.2375C12.8447 31.2877 12.899 31.3198 12.9416 31.2935L13.2269 31.1163C13.2659 31.0921 13.3168 31.1177 13.3213 31.1635L13.7208 35.2798C13.7248 35.3213 13.7672 35.3473 13.8058 35.3318L14.3155 35.1264C14.3496 35.1127 14.3879 35.1315 14.3983 35.1668L14.6352 35.983C14.8671 36.7786 15.537 38.6344 16.4207 39.9408L16.4825 39.6116Z" fill="black"/>
<path d="M30.7078 21.0722C30.6707 21.8403 30.2209 22.4432 29.703 22.4187C29.1853 22.3944 28.7954 21.7521 28.8325 20.984C28.8693 20.216 29.3191 19.6131 29.8369 19.6374C30.3548 19.6618 30.7445 20.3042 30.7078 21.0722Z" fill="black"/>
<path d="M30.0855 21.041C30.0746 21.2682 29.9421 21.4464 29.7891 21.4392C29.6364 21.432 29.5214 21.2421 29.5323 21.015C29.5432 20.7879 29.6761 20.6096 29.8287 20.6168C29.9813 20.624 30.0965 20.814 30.0855 21.041Z" fill="white"/>
<path d="M31.0013 22.8617C30.0869 22.2822 29.212 22.4381 28.863 22.5381C28.7714 22.5643 28.6751 22.5199 28.6377 22.4331C28.5931 22.3299 28.6509 22.2127 28.7602 22.1816C29.176 22.0633 30.1717 21.8935 31.2055 22.5502C31.2973 22.6087 31.3231 22.7308 31.2588 22.8183H31.2585C31.1988 22.8992 31.0864 22.9159 31.0013 22.8617Z" fill="black"/>
<path d="M19.6839 21.0722C19.6469 21.8403 19.1971 22.4432 18.6793 22.4187C18.1616 22.3944 17.7717 21.7521 17.8088 20.984C17.8456 20.216 18.2955 19.6131 18.8132 19.6374C19.331 19.6618 19.7209 20.3042 19.6839 21.0722Z" fill="black"/>
<path d="M19.0223 21.041C19.0114 21.2682 18.8787 21.4464 18.7259 21.4392C18.5731 21.432 18.4581 21.2421 18.469 21.015C18.4799 20.7879 18.6126 20.6096 18.7654 20.6168C18.9182 20.624 19.0332 20.814 19.0223 21.041Z" fill="white"/>
<path d="M17.5279 22.8617C18.4419 22.2822 19.317 22.4381 19.666 22.5381C19.7576 22.5643 19.8539 22.5199 19.8913 22.4331C19.936 22.3299 19.8781 22.2127 19.7688 22.1816C19.353 22.0633 18.3571 21.8935 17.3236 22.5502C17.2316 22.6087 17.2057 22.7308 17.2703 22.8183H17.2705C17.3302 22.8992 17.4427 22.9159 17.5279 22.8617Z" fill="black"/>
<path d="M26.7912 25.1567C27.1657 25.344 25.2542 25.6834 27.0092 24.384C29.1901 22.769 30.3767 23.2924 31.2331 23.4651C32.8897 23.7993 34.2693 24.8065 34.2693 17.7063C34.4764 16.2027 35.0145 17.1633 35.0145 17.1633L35.1802 25.6L31.5775 24.6812L27.934 25.6787L26.8416 25.159L26.7912 25.1567Z" fill="#FAC87D"/>
<path d="M21.0804 25.1567C20.7061 25.344 22.7735 25.4607 21.0183 24.1613C18.8373 22.5463 17.5187 23.7129 16.6494 23.7993C15.3863 23.9246 13.6025 24.8065 13.6025 17.7063C13.3954 16.2027 12.8571 17.1633 12.8571 17.1633L12.6914 25.6L16.6287 25.1914L19.9385 24.6812L21.0301 25.159L21.0804 25.1567Z" fill="#FAC87D"/>
<path d="M24.2454 23.863C24.2454 23.863 23.7596 24.0545 23.4203 24.8326C23.1167 25.5288 23.6274 26.5312 23.6274 26.5312L21.4532 25.6959L22.6303 23.9048L24.2454 23.863Z" fill="#FAC87D"/>
<path fill-rule="evenodd" clip-rule="evenodd" d="M22.0028 25.7164C22.0029 25.7162 22.0029 25.7159 21.242 25.481C20.481 25.2461 20.4811 25.2458 20.4812 25.2455L20.4814 25.2448L20.4819 25.2433L20.483 25.2394L20.4862 25.229C20.4888 25.2208 20.4921 25.2101 20.4963 25.1971C20.5047 25.1711 20.5165 25.1358 20.5319 25.0926C20.5625 25.0062 20.6077 24.8872 20.6688 24.7463C20.7902 24.4666 20.9795 24.0889 21.2515 23.7061C21.7898 22.9484 22.7293 22.0733 24.1625 22.0733C25.5277 22.0733 26.4004 22.9638 26.884 23.6988C27.1309 24.074 27.3016 24.4434 27.4104 24.7158C27.4653 24.8533 27.5057 24.9693 27.533 25.0533C27.5467 25.0954 27.5572 25.1297 27.5647 25.1549C27.5684 25.1676 27.5714 25.1779 27.5736 25.1859L27.5764 25.196L27.5775 25.1997L27.578 25.2018C27.5781 25.2021 27.5782 25.2024 26.8119 25.4184C26.0456 25.6343 26.0456 25.6346 26.0457 25.6348L26.0461 25.6361L26.0428 25.6249C26.0393 25.613 26.0332 25.5929 26.0243 25.5657C26.0066 25.5113 25.9782 25.4294 25.9383 25.3294C25.8575 25.127 25.7344 24.8631 25.5646 24.6051C25.215 24.0737 24.763 23.6977 24.1625 23.6977C23.4425 23.6977 22.9218 24.1204 22.5381 24.6604C22.3491 24.9265 22.2121 25.1976 22.1222 25.4047C22.0778 25.507 22.0462 25.5908 22.0265 25.6464C22.0166 25.6741 22.0098 25.6946 22.0059 25.7066L22.0023 25.7181C22.002 25.7189 22.002 25.7191 22.0021 25.7188L22.0023 25.7181L22.0026 25.7169L22.0028 25.7164ZM26.0463 25.637C26.0464 25.6372 26.0464 25.6372 26.0463 25.637Z" fill="#0F0F0F"/>
<path fill-rule="evenodd" clip-rule="evenodd" d="M11.3827 15.0857V24.5293C11.2026 24.7054 11.0595 24.9134 10.9719 25.1785C10.8208 25.6357 10.8961 26.1303 11.1774 26.532C11.5814 27.1087 12.4295 27.5213 13.8796 27.8913C15.8339 28.3901 18.9332 28.8092 23.368 29.1313C28.5711 29.5092 32.0697 28.8135 34.1468 27.2249C35.1477 26.4596 35.755 25.8768 36.0589 25.4012C36.3867 24.8875 36.4408 24.2966 36.1843 23.8683V13.4712H11.3827V15.0857ZM13.0392 15.3742V25.653C13.345 25.7793 13.7436 25.9073 14.2388 26.0336C16.0935 26.507 19.116 26.9157 23.4725 27.2321C28.3473 27.5861 31.5066 26.9579 33.2289 25.6408C33.8557 25.1616 34.2821 24.7846 34.5276 24.5187V15.3742H13.0392V15.3742Z" fill="black"/>
<path d="M11.1941 13.9672V14.3849C11.1941 15.3873 17.9856 17.225 23.9489 17.225C29.9122 17.225 35.8755 14.552 35.8755 14.552V13.2154C35.8755 13.2154 30.8784 11.0194 23.9489 11.0194C17.3782 11.0194 11.1941 13.2225 11.1941 13.2225V13.9672Z" fill="#646466"/>
<path d="M28.5853 15.5277C24.6345 16.2355 20.2459 16.3667 15.4194 15.9212C15.4194 16.9236 17.9856 17.5324 23.9489 17.5324C29.9121 17.5324 35.8755 14.8594 35.8755 14.8594V13.5229C35.8755 13.5229 34.5114 14.4659 28.5853 15.5277Z" fill="#4B4B4D"/>
<path fill-rule="evenodd" clip-rule="evenodd" d="M14.9022 11.5079C17.3071 10.8509 20.5693 10.1869 23.9489 10.1869C27.5084 10.1869 30.568 10.8491 32.7381 11.5108C33.8241 11.8419 34.6902 12.1737 35.2883 12.4245C35.5874 12.55 35.8198 12.6553 35.9793 12.7302C36.0591 12.7677 36.1208 12.7976 36.1634 12.8187C36.1848 12.8292 36.2014 12.8376 36.2132 12.8435L36.2273 12.8507L36.2298 12.8519C36.2301 12.8521 36.2305 12.8523 36.2309 12.8525C36.4895 12.9841 36.7234 13.1196 36.9037 13.2598C36.9932 13.3293 37.0978 13.4215 37.1868 13.5385C37.2695 13.6473 37.3997 13.8574 37.3997 14.1459C37.3997 14.3849 37.315 14.5764 37.2446 14.6988C37.1714 14.8263 37.0803 14.9364 36.9936 15.0279C36.8206 15.2106 36.5909 15.3958 36.3306 15.5815L36.2665 15.6273L36.1949 15.6594L35.8755 14.9156C36.1949 15.6594 36.1947 15.6594 36.1946 15.6595L36.1941 15.6597L36.1884 15.6622L36.1733 15.6689C36.1604 15.6746 36.1418 15.6828 36.1178 15.6932C36.0696 15.7141 35.9995 15.7442 35.9089 15.7821C35.7276 15.8579 35.4642 15.9652 35.1304 16.0935C34.463 16.3499 33.5121 16.6908 32.3716 17.0316C30.0987 17.7108 27.036 18.4008 23.9489 18.4008C19.8305 18.4008 15.4632 17.2759 10.8563 15.0661L10.3992 14.8468V13.041L10.8929 12.8344L11.1941 13.5861C10.8929 12.8344 10.8931 12.8344 10.8932 12.8343L10.8951 12.8335L10.8996 12.8317L10.9152 12.8252C10.9286 12.8197 10.9479 12.8118 10.9728 12.8017C11.0228 12.7815 11.0956 12.7525 11.1899 12.7158C11.3785 12.6425 11.6529 12.5388 12.0019 12.4147C12.6995 12.1668 13.6967 11.8373 14.9022 11.5079ZM12.3918 13.9963C16.5146 15.8606 20.3644 16.7764 23.9489 16.7764C26.8251 16.7764 29.7257 16.1299 31.9253 15.4725C33.021 15.1451 33.9337 14.8178 34.5708 14.573C34.8892 14.4507 35.1382 14.3492 35.3064 14.2788C35.3379 14.2656 35.3665 14.2536 35.3922 14.2427C35.3695 14.2318 35.3439 14.2196 35.3152 14.2061C35.1744 14.14 34.9622 14.0437 34.6846 13.9273C34.1292 13.6944 33.313 13.3812 32.2835 13.0673C30.2226 12.439 27.319 11.8113 23.9489 11.8113C20.7579 11.8113 17.6426 12.4407 15.3128 13.0772C14.1509 13.3946 13.1914 13.7119 12.5242 13.949C12.4787 13.9652 12.4346 13.9809 12.3918 13.9963Z" fill="black"/>
<path d="M19.2322 30.4185L19.7599 32.6078H21.3662L23.7076 31.8552H25.4558L26.7695 32.3097H27.9968H28.6814L29.7373 30.9033L29.9083 30.0185L25.9767 29.2027L24.2054 28.229L22.3927 28.886L21.5712 29.4261L19.5842 30.0185L19.2322 30.4185Z" fill="#D8D8D8"/>
<path fill-rule="evenodd" clip-rule="evenodd" d="M18.1108 30.6686L19.619 30.1546L20.0487 31.4707C20.0487 31.4707 20.0487 31.4707 20.0487 31.4707C20.1366 31.7399 20.3981 31.923 20.6897 31.9063L23.441 30.9466C23.4411 30.9466 23.441 30.9466 23.441 30.9466C23.4411 30.9466 23.4414 30.9465 23.4415 30.9464C24.078 30.7241 24.7695 30.7242 25.4056 30.9459C25.4058 30.946 25.4059 30.946 25.406 30.9461L28.0957 31.8826C28.4226 31.8998 28.7035 31.6667 28.7553 31.355L28.9348 30.2756L30.5022 30.5476L30.3227 31.6269C30.3227 31.6269 30.3228 31.6268 30.3227 31.6269C30.1206 32.8434 28.9985 33.6574 27.8116 33.4848L27.7378 33.4741L24.8925 32.4834C24.589 32.3776 24.2588 32.3776 23.9556 32.4836L21.0511 33.4967L20.9786 33.5075C19.9154 33.6663 18.8824 33.0317 18.5405 31.9847L18.1108 30.6686Z" fill="#0F0F0F"/>
<path d="M23.886 28.3276C21.8464 29.9741 16.6535 32.6233 9.99713 24.5974C9.7725 24.3264 10.0801 23.938 10.39 24.1026C12.3573 25.147 15.9672 26.5646 19.2402 25.1661C19.5886 25.0174 19.9891 25.0724 20.2848 25.3101C20.9658 25.8577 22.2778 26.8041 23.6706 27.224C24.1558 27.3703 24.2812 28.0085 23.886 28.3276Z" fill="white"/>
<path d="M18.207 29.9795C15.8985 29.7146 13.0894 28.3019 9.95605 24.5238C9.73142 24.2528 9.64613 24.1432 9.95605 24.3077C11.019 24.8721 14.8277 27.8542 17.9423 28.4867C20.5918 29.0248 23.0248 27.5955 23.6341 27.7791C24.1193 27.9255 24.2401 27.9349 23.8449 28.254C22.7654 29.1255 20.8026 30.2777 18.207 29.9795Z" fill="#DDDDDD"/>
<path d="M24.2348 28.1606C26.2744 29.807 31.4675 32.4566 38.1237 24.4303C38.3484 24.1594 38.0406 23.7709 37.7308 23.9355C35.7636 24.98 32.1536 26.3975 28.8806 24.9992C28.5322 24.8503 28.1319 24.9053 27.836 25.1431C27.155 25.6908 25.8429 26.6371 24.4502 27.0571C23.965 27.2033 23.8396 27.8415 24.2348 28.1606Z" fill="white"/>
<path fill-rule="evenodd" clip-rule="evenodd" d="M18.6263 30.9235C20.8668 31.0506 22.8111 30.2651 24.4035 28.9797C25.3209 28.239 25.0321 26.7627 23.9079 26.4236C22.8771 26.1129 21.7841 25.4475 20.8011 24.657C20.2679 24.2282 19.5454 24.1287 18.9174 24.3968C16.4843 25.4364 13.5975 24.8615 10.7758 23.3633C9.66018 22.771 8.55682 24.1622 9.36164 25.1331C12.5068 28.9254 15.6184 30.7531 18.6263 30.9235ZM19.5633 25.9352C19.632 25.9058 19.7105 25.9166 19.7684 25.9632C20.795 26.7887 21.9212 27.4935 23.0709 27.9047C21.8326 28.8151 20.3691 29.3491 18.7192 29.2556C16.6887 29.1406 14.5279 28.0766 12.2554 25.8393C12.881 26.0613 13.5192 26.2413 14.165 26.3699C16.0756 26.7503 17.8997 26.646 19.5633 25.9352Z" fill="black"/>
<path d="M29.8744 29.8127C32.1829 29.5474 34.992 28.1349 38.1254 24.3568C38.3498 24.0858 38.4353 23.9761 38.1254 24.1407C37.0623 24.7051 33.2538 27.6871 30.1391 28.3197C27.4896 28.8577 25.0565 27.4284 24.4473 27.6121C23.9621 27.7584 23.8412 27.7679 24.2364 28.087C25.316 28.9584 27.2788 30.1109 29.8744 29.8127Z" fill="#DDDDDD"/>
<path fill-rule="evenodd" clip-rule="evenodd" d="M24.2129 26.2567C23.0886 26.5955 22.7998 28.0719 23.7172 28.8126C25.3096 30.0983 27.254 30.8834 29.4944 30.7567C32.5023 30.5863 35.6138 28.7584 38.7589 24.9662C39.564 23.9951 38.4607 22.6039 37.345 23.1963C34.5231 24.6945 31.6363 25.2693 29.2036 24.23C28.5757 23.9617 27.8532 24.0611 27.3199 24.4897C26.3374 25.28 25.2438 25.9459 24.2129 26.2567ZM35.8653 25.6722C33.5929 27.9096 31.4321 28.9736 29.4015 29.0887C27.7517 29.1821 26.2882 28.6481 25.0499 27.7378C26.1999 27.3263 27.3267 26.6212 28.3524 25.7961C28.4102 25.7496 28.4885 25.7388 28.5574 25.7683C30.221 26.479 32.0451 26.5833 33.9557 26.2029C34.6016 26.0743 35.2396 25.8943 35.8653 25.6722Z" fill="black"/>
<path fill-rule="evenodd" clip-rule="evenodd" d="M35.3141 15.7219C28.6109 13.3079 21.1825 13.1857 12.9992 15.405C12.5749 15.52 12.1396 15.2619 12.027 14.8283C11.9144 14.3947 12.167 13.95 12.5914 13.8349C21.027 11.5472 28.7874 11.6491 35.8426 14.1899C36.2567 14.339 36.4741 14.8028 36.3281 15.2259C36.1822 15.649 35.7282 15.871 35.3141 15.7219Z" fill="black"/>
<path d="M21.2698 8.29218C21.4863 8.82741 21.7827 9.383 22.1591 9.95894C22.5348 10.5339 23.0163 11.0777 23.6035 11.5904C23.7514 11.7195 23.9708 11.7133 24.1116 11.576C24.7236 10.9788 25.231 10.3945 25.6339 9.82318C26.0249 9.26893 26.3018 8.75857 26.4649 8.29211V8.29215C26.5125 8.1558 26.482 8.00365 26.3857 7.89752L25.6125 7.04542C25.5525 6.97929 25.4719 6.93662 25.3845 6.92475C24.6547 6.82555 24.1484 6.77599 23.8656 6.77599C23.5828 6.77599 23.0609 6.82559 22.2999 6.92478V6.92482C22.2092 6.93662 22.1257 6.98157 22.0649 7.05138L21.3373 7.8855C21.2404 7.99657 21.2141 8.15461 21.2698 8.29218Z" fill="black"/>
<path d="M22.4521 8.65591C22.5596 8.88625 22.6969 9.12385 22.8641 9.3687C23.06 9.65554 23.3101 9.98587 23.6146 10.3597H23.6146C23.6817 10.442 23.8013 10.4532 23.8817 10.3846C23.8922 10.3756 23.9017 10.3655 23.9101 10.3545C24.2274 9.93638 24.4909 9.58489 24.7008 9.30004C24.8674 9.07396 24.9948 8.86235 25.0831 8.66518V8.66515C25.1483 8.51971 25.1195 8.34831 25.0106 8.23345L24.7331 7.94076C24.6729 7.8773 24.5934 7.83677 24.5077 7.82586C24.1547 7.78096 23.9076 7.7585 23.7661 7.7585C23.6247 7.7585 23.3701 7.78096 23.0023 7.8259C22.9133 7.8368 22.831 7.87954 22.7699 7.94658L22.5169 8.22413C22.4106 8.34077 22.3849 8.51202 22.4521 8.65591Z" fill="#FAC500"/>
</svg>
