<svg width="48" height="48" viewBox="0 0 48 48" fill="none" xmlns="http://www.w3.org/2000/svg">
<rect width="48" height="48" fill="white"/>
<path d="M36.5 7.5H11.5C9.84315 7.5 8.5 8.84315 8.5 10.5V40.6875C8.5 42.3444 9.84315 43.6875 11.5 43.6875H36.5C38.1569 43.6875 39.5 42.3444 39.5 40.6875V10.5C39.5 8.84315 38.1569 7.5 36.5 7.5Z" fill="white"/>
<path d="M36.5 7.5H11.5C9.84315 7.5 8.5 8.84315 8.5 10.5V40.6875C8.5 42.3444 9.84315 43.6875 11.5 43.6875H36.5C38.1569 43.6875 39.5 42.3444 39.5 40.6875V10.5C39.5 8.84315 38.1569 7.5 36.5 7.5Z" fill="#FFA201" fill-opacity="0.6"/>
<path fill-rule="evenodd" clip-rule="evenodd" d="M8 10.5C8 8.567 9.567 7 11.5 7H36.5C38.433 7 40 8.567 40 10.5V40.6875C40 42.6205 38.433 44.1875 36.5 44.1875H11.5C9.567 44.1875 8 42.6205 8 40.6875V10.5ZM11.5 8C10.1193 8 9 9.11929 9 10.5V40.6875C9 42.0682 10.1193 43.1875 11.5 43.1875H36.5C37.8807 43.1875 39 42.0682 39 40.6875V10.5C39 9.11929 37.8807 8 36.5 8H11.5Z" fill="white"/>
<path fill-rule="evenodd" clip-rule="evenodd" d="M8 10.5C8 8.567 9.567 7 11.5 7H36.5C38.433 7 40 8.567 40 10.5V40.6875C40 42.6205 38.433 44.1875 36.5 44.1875H11.5C9.567 44.1875 8 42.6205 8 40.6875V10.5ZM11.5 8C10.1193 8 9 9.11929 9 10.5V40.6875C9 42.0682 10.1193 43.1875 11.5 43.1875H36.5C37.8807 43.1875 39 42.0682 39 40.6875V10.5C39 9.11929 37.8807 8 36.5 8H11.5Z" fill="#FFA201" fill-opacity="0.6"/>
<path d="M18 6C18 4.89543 18.8954 4 20 4H28C29.1046 4 30 4.89543 30 6V10H18V6Z" fill="white"/>
<path d="M18 6C18 4.89543 18.8954 4 20 4H28C29.1046 4 30 4.89543 30 6V10H18V6Z" fill="#FFA201" fill-opacity="0.6"/>
<path fill-rule="evenodd" clip-rule="evenodd" d="M28 8H20V6H28V8Z" fill="white"/>
<path fill-rule="evenodd" clip-rule="evenodd" d="M28 8H20V6H28V8Z" fill="#963700" fill-opacity="0.8"/>
<path d="M34 26C34 31.5228 29.5228 36 24 36C18.4772 36 14 31.5228 14 26C14 20.4772 18.4772 16 24 16C29.5228 16 34 20.4772 34 26Z" fill="#42B0D5"/>
<path fill-rule="evenodd" clip-rule="evenodd" d="M30.3241 22.5665L24.9731 30.3498C24.6932 30.7568 24.2309 31 23.737 31H20.7676C20.2661 31 19.7977 30.7493 19.5195 30.3321L17.668 27.5547L19.3321 26.4453L21.0352 29H23.474L28.676 21.4335L30.3241 22.5665Z" fill="white"/>
</svg>
