<svg width="48" height="48" viewBox="0 0 48 48" fill="none" xmlns="http://www.w3.org/2000/svg">
<rect width="48" height="48" fill="white"/>
<path d="M45.5 23.5V37.5H2.5V21.5C2.5 18.1863 5.18629 15.5 8.5 15.5H13.5V13.5C13.5 10.1863 16.1863 7.5 19.5 7.5H27.5C30.8137 7.5 33.5 10.1863 33.5 13.5V19.5H41.5C43.7091 19.5 45.5 21.2909 45.5 23.5Z" fill="white"/>
<path d="M45.5 23.5V37.5H2.5V21.5C2.5 18.1863 5.18629 15.5 8.5 15.5H13.5V13.5C13.5 10.1863 16.1863 7.5 19.5 7.5H27.5C30.8137 7.5 33.5 10.1863 33.5 13.5V19.5H41.5C43.7091 19.5 45.5 21.2909 45.5 23.5Z" fill="#B5E0F5" fill-opacity="0.6"/>
<path fill-rule="evenodd" clip-rule="evenodd" d="M27.5 8C30.5376 8 33 10.4624 33 13.5V20H41.5C43.433 20 45 21.567 45 23.5V37H3V21.5C3 18.4624 5.46243 16 8.5 16H14V13.5C14 10.4624 16.4624 8 19.5 8H27.5ZM34 13.5C34 9.91015 31.0899 7 27.5 7H19.5C15.9102 7 13 9.91015 13 13.5V15H8.5C4.91015 15 2 17.9101 2 21.5V38H46V23.5C46 21.0147 43.9853 19 41.5 19H34V13.5Z" fill="white"/>
<path fill-rule="evenodd" clip-rule="evenodd" d="M27.5 8C30.5376 8 33 10.4624 33 13.5V20H41.5C43.433 20 45 21.567 45 23.5V37H3V21.5C3 18.4624 5.46243 16 8.5 16H14V13.5C14 10.4624 16.4624 8 19.5 8H27.5ZM34 13.5C34 9.91015 31.0899 7 27.5 7H19.5C15.9102 7 13 9.91015 13 13.5V15H8.5C4.91015 15 2 17.9101 2 21.5V38H46V23.5C46 21.0147 43.9853 19 41.5 19H34V13.5Z" fill="#B5E0F5" fill-opacity="0.6"/>
<path fill-rule="evenodd" clip-rule="evenodd" d="M9 24.5C9 22.567 10.567 21 12.5 21H17V24H12.5C12.2239 24 12 24.2239 12 24.5V30.5C12 30.7761 12.2239 31 12.5 31H17V34H12.5C10.567 34 9 32.433 9 30.5V24.5Z" fill="#42B0D5"/>
<path fill-rule="evenodd" clip-rule="evenodd" d="M19 24.5C19 22.567 20.567 21 22.5 21H25.5C27.433 21 29 22.567 29 24.5V30.5C29 32.433 27.433 34 25.5 34H22.5C20.567 34 19 32.433 19 30.5V24.5ZM22.5 24C22.2239 24 22 24.2239 22 24.5V30.5C22 30.7761 22.2239 31 22.5 31H25.5C25.7761 31 26 30.7761 26 30.5V24.5C26 24.2239 25.7761 24 25.5 24H22.5Z" fill="#42B0D5"/>
<path fill-rule="evenodd" clip-rule="evenodd" d="M35.5 31H31V28H35.5C37.433 28 39 29.567 39 31.5V32.2639C39 33.5896 38.251 34.8016 37.0652 35.3944L34.2764 36.7889C34.107 36.8736 34 37.0467 34 37.2361V38H39V41H31V37.2361C31 35.9104 31.749 34.6984 32.9348 34.1056L35.7236 32.7111C35.893 32.6264 36 32.4533 36 32.2639V31.5C36 31.2239 35.7761 31 35.5 31Z" fill="#42B0D5"/>
</svg>
