<svg width="48" height="48" viewBox="0 0 48 48" fill="none" xmlns="http://www.w3.org/2000/svg">
<rect width="48" height="48" fill="white"/>
<path d="M42 24C42 33.9411 33.9411 42 24 42C14.0589 42 6 33.9411 6 24C6 14.0589 14.0589 6 24 6C33.9411 6 42 14.0589 42 24Z" fill="#F7F7F7"/>
<path fill-rule="evenodd" clip-rule="evenodd" d="M24 41C33.3888 41 41 33.3888 41 24C41 14.6112 33.3888 7 24 7C14.6112 7 7 14.6112 7 24C7 33.3888 14.6112 41 24 41ZM24 42C33.9411 42 42 33.9411 42 24C42 14.0589 33.9411 6 24 6C14.0589 6 6 14.0589 6 24C6 33.9411 14.0589 42 24 42Z" fill="#F7F7F7"/>
<path fill-rule="evenodd" clip-rule="evenodd" d="M17.5392 13.8858C14.2059 16.0199 12 19.7527 12 24H10C10 19.0425 12.5775 14.6876 16.4608 12.2015L17.5392 13.8858Z" fill="#0073AB"/>
<path fill-rule="evenodd" clip-rule="evenodd" d="M30.108 13.6684C26.2621 11.3894 21.3051 11.4748 17.5392 13.8858L16.4608 12.2015C20.863 9.38305 26.6316 9.28363 31.1276 11.9478L30.108 13.6684Z" fill="#42B0D5"/>
<path fill-rule="evenodd" clip-rule="evenodd" d="M36 24C36 19.6045 33.6374 15.7599 30.108 13.6684L31.1276 11.9478C35.2395 14.3845 38 18.8693 38 24H36Z" fill="white"/>
<path fill-rule="evenodd" clip-rule="evenodd" d="M36 24C36 19.6045 33.6374 15.7599 30.108 13.6684L31.1276 11.9478C35.2395 14.3845 38 18.8693 38 24H36Z" fill="#FA381C" fill-opacity="0.75"/>
<path d="M28 24C28 26.2091 26.2091 28 24 28C21.7909 28 20 26.2091 20 24C20 21.7909 21.7909 20 24 20C26.2091 20 28 21.7909 28 24Z" fill="#545454"/>
<path fill-rule="evenodd" clip-rule="evenodd" d="M24.7071 23.2929L17.7071 16.2929L16.2929 17.7071L23.2929 24.7071L24.7071 23.2929Z" fill="#CFCFCF"/>
</svg>
