<svg width="48" height="48" viewBox="0 0 48 48" fill="none" xmlns="http://www.w3.org/2000/svg">
<rect width="48" height="48" fill="white"/>
<path d="M12 43H36C37.6569 43 39 41.6569 39 40V14L29 5H12C10.3431 5 9 6.34315 9 8V40C9 41.6569 10.3431 43 12 43Z" fill="#EDEDED"/>
<path d="M32 14H39L29 5V11C29 12.6569 30.3431 14 32 14Z" fill="#F7F7F7"/>
<path d="M34 25C34 30.5228 29.5228 35 24 35C18.4772 35 14 30.5228 14 25C14 19.4772 18.4772 15 24 15C29.5228 15 34 19.4772 34 25Z" fill="#42B0D5"/>
<path fill-rule="evenodd" clip-rule="evenodd" d="M30.324 21.5665L24.973 29.3498C24.6932 29.7568 24.2309 30 23.737 30H20.7676C20.2661 30 19.7977 29.7493 19.5195 29.3321L17.6679 26.5547L19.332 25.4453L21.0352 28H23.474L28.6759 20.4335L30.324 21.5665Z" fill="white"/>
</svg>
