<svg width="504" height="336" viewBox="0 0 504 336" fill="none" xmlns="http://www.w3.org/2000/svg">
<g clip-path="url(#clip0_2994_1657)">
<path d="M0 0H504V336H0V0Z" fill="white"/>
<path d="M0 0H504V336H0V0Z" fill="#B5E0F5" fill-opacity="0.3"/>
<path d="M0 276H504V336H0V276Z" fill="#EDEDED"/>
<path d="M438.187 53.8619H478.64V48.3153C478.559 45.0055 477.207 41.8539 474.865 39.5129C472.523 37.1718 469.37 35.8206 466.059 35.7388H457.801L255.983 -37.8499V-41.3327C255.983 -44.0414 248.176 -43.848 248.176 -41.3327V-38.4304L90.5547 35.5453H85.3286V53.6684H100.749V64.6325C100.624 66.214 101.131 67.7805 102.159 68.9892C103.186 70.198 104.651 70.9505 106.233 71.082H127.653V53.6039H153.461V231.545C150.277 231.653 147.225 232.842 144.808 234.918C142.392 236.993 140.756 239.83 140.17 242.961H122.169V226.579C122.178 226.334 122.138 226.089 122.052 225.858C121.966 225.628 121.835 225.417 121.667 225.238C121.499 225.058 121.298 224.913 121.074 224.811C120.85 224.709 120.609 224.653 120.363 224.644H101.394C101.165 224.636 100.937 224.672 100.722 224.752C100.508 224.832 100.311 224.953 100.143 225.108C99.9752 225.264 99.8398 225.452 99.7444 225.66C99.6491 225.868 99.5958 226.093 99.5875 226.321V243.025H95.5227V226.579C95.5317 226.323 95.4878 226.067 95.3937 225.828C95.2997 225.59 95.1574 225.373 94.9759 225.191C94.7943 225.01 94.5773 224.867 94.3384 224.773C94.0995 224.679 93.8437 224.635 93.5871 224.644H74.2312C74.0024 224.636 73.7742 224.672 73.5595 224.752C73.3448 224.832 73.148 224.953 72.9802 225.108C72.8124 225.264 72.677 225.452 72.5817 225.66C72.4863 225.868 72.433 226.093 72.4247 226.321V243.025H68.2954V226.579C68.3041 226.334 68.2641 226.089 68.178 225.858C68.0918 225.628 67.9611 225.417 67.7934 225.238C67.6256 225.058 67.424 224.913 67.2002 224.811C66.9764 224.709 66.7346 224.653 66.4889 224.644H47.8427C47.6139 224.636 47.3856 224.672 47.171 224.752C46.9563 224.832 46.7594 224.953 46.5916 225.108C46.4239 225.264 46.2884 225.452 46.1931 225.66C46.0978 225.868 46.0445 226.093 46.0361 226.321V242.961H17.7765C-22.1611 242.961 -25 276.305 -25 276.305H412.701C412.701 276.305 411.927 243.09 370.376 243.09V242.703C370.446 241.289 370.047 239.891 369.243 238.725C368.438 237.559 367.272 236.691 365.925 236.254V192.01C365.927 190.354 365.291 188.761 364.15 187.56C363.009 186.359 361.45 185.643 359.795 185.56H294.63C292.919 185.56 291.278 186.24 290.068 187.45C288.858 188.659 288.178 190.299 288.178 192.01V236.447C286.771 236.825 285.533 237.668 284.666 238.839C283.799 240.01 283.354 241.44 283.404 242.896H272.307C272.027 239.709 270.531 236.752 268.128 234.638C265.725 232.525 262.601 231.417 259.403 231.545V53.8619H422.186C422.168 54.2262 422.223 54.5903 422.347 54.9334C422.47 55.2765 422.66 55.5919 422.906 55.8615C423.152 56.1311 423.448 56.3496 423.779 56.5045C424.109 56.6593 424.467 56.7476 424.831 56.7641V56.7641V71.211C423.809 71.5888 422.939 72.2924 422.356 73.2131C421.773 74.1338 421.509 75.2207 421.605 76.3061H417.218C416.756 76.3061 416.313 76.4896 415.986 76.8161C415.659 77.1427 415.476 77.5856 415.476 78.0475V100.169H445.155V78.2409C445.155 77.7449 444.958 77.2692 444.607 76.9184C444.256 76.5676 443.78 76.3706 443.284 76.3706H439.09C439.23 75.2699 438.977 74.1551 438.375 73.2229C437.773 72.2907 436.861 71.601 435.799 71.2755V56.8286C436.149 56.8291 436.496 56.7583 436.818 56.6207C437.14 56.483 437.43 56.2814 437.671 56.028C437.913 55.7746 438.1 55.4748 438.222 55.1467C438.344 54.8187 438.398 54.4693 438.38 54.1198V54.1198L438.187 53.8619ZM164.43 16.0033H151.526C149.683 15.778 147.813 15.9179 146.025 16.4151C144.236 16.9123 142.562 17.7571 141.1 18.9011C139.638 20.0452 138.416 21.466 137.504 23.0825C136.591 24.699 136.007 26.4794 135.783 28.3219C135.783 28.3219 135.783 28.7088 135.783 28.9023V35.8033H95.9098L246.757 -35.1411L167.462 35.0293V19.0991C167.534 18.3218 167.297 17.5474 166.802 16.9437C166.307 16.3401 165.594 15.9559 164.817 15.8744H164.107L164.43 16.0033ZM244.305 90.3015H167.591V59.5374L244.305 90.3015ZM244.886 231.545H244.305C241.021 231.519 237.831 232.649 235.296 234.735C232.76 236.822 231.039 239.734 230.433 242.961H181.656C181.076 235.222 175.204 231.739 167.462 231.545V97.5894H244.886V231.545ZM244.886 84.0455L168.43 53.7974H244.886V84.0455ZM248.047 35.5453H170.624L248.176 -33.2708L248.047 35.5453ZM325.471 200.846H330.245V213.745H325.471V200.846ZM300.373 198.459H320.567C320.6 199.104 320.88 199.711 321.348 200.155C321.817 200.599 322.438 200.847 323.084 200.846V213.745C321.148 214.196 320.309 216.389 320.18 218.259H316.18C315.768 218.274 315.375 218.44 315.078 218.726C314.78 219.011 314.598 219.396 314.567 219.807V226.837H341.085V220.13C341.076 219.901 341.023 219.676 340.928 219.468C340.832 219.26 340.697 219.073 340.529 218.917C340.361 218.761 340.164 218.64 339.95 218.56C339.735 218.481 339.507 218.444 339.278 218.453H335.471C335.567 217.483 335.333 216.51 334.806 215.69C334.279 214.871 333.49 214.253 332.568 213.938V201.039C333.144 200.961 333.671 200.675 334.051 200.236C334.431 199.797 334.638 199.234 334.633 198.653H352.956V236.383C351.489 236.697 350.177 237.513 349.247 238.691C348.316 239.868 347.826 241.332 347.859 242.832V243.219H305.083V242.896C305.136 241.449 304.701 240.025 303.846 238.856C302.992 237.686 301.768 236.837 300.373 236.447V198.459ZM255.854 35.5453V-34.1092L389.023 35.7388L255.854 35.5453ZM432.831 70.8885H427.412V56.6996H432.831V70.8885ZM392.7 35.6743L261.661 -32.8838L452.187 35.4808L392.7 35.6743Z" fill="#AAE1F8"/>
<path d="M360.51 123.159V88.8473C360.51 87.7868 360.931 86.7697 361.681 86.0198C362.432 85.2699 363.449 84.8486 364.51 84.8486H490.065C491.109 84.8486 492.11 85.2631 492.848 86.0009C493.586 86.7387 494.001 87.7394 494.001 88.7828V123.094L360.51 123.159Z" fill="#E2E2E2"/>
<path d="M486.194 117.29H487.549C487.74 117.277 487.92 117.2 488.061 117.071C488.202 116.942 488.294 116.769 488.323 116.58V91.3626C488.323 91.1573 488.242 90.9604 488.096 90.8153C487.951 90.6702 487.754 90.5886 487.549 90.5886H486.194C486.006 90.5886 485.825 90.6634 485.692 90.7964C485.559 90.9295 485.484 91.1099 485.484 91.2981V116.645C485.484 116.833 485.559 117.013 485.692 117.146C485.825 117.279 486.006 117.354 486.194 117.354" fill="#F7F7F7"/>
<path d="M479.613 117.29H480.968C481.156 117.29 481.337 117.215 481.47 117.082C481.603 116.949 481.678 116.768 481.678 116.58V91.3626C481.687 91.2693 481.677 91.1752 481.649 91.0858C481.621 90.9963 481.576 90.9132 481.516 90.8412C481.456 90.7693 481.383 90.7099 481.3 90.6666C481.217 90.6232 481.126 90.5967 481.032 90.5886H479.613C479.425 90.5886 479.244 90.6634 479.111 90.7964C478.978 90.9295 478.903 91.1099 478.903 91.2981V116.645C478.903 116.833 478.978 117.013 479.111 117.146C479.244 117.279 479.425 117.354 479.613 117.354" fill="#F7F7F7"/>
<path d="M473.033 117.29H474.388C474.576 117.29 474.757 117.215 474.89 117.082C475.023 116.949 475.098 116.768 475.098 116.58V91.3626C475.107 91.2693 475.097 91.1752 475.069 91.0858C475.041 90.9963 474.996 90.9132 474.936 90.8412C474.876 90.7693 474.803 90.7099 474.72 90.6666C474.637 90.6232 474.546 90.5967 474.452 90.5886H473.033C472.828 90.5886 472.631 90.6702 472.486 90.8153C472.34 90.9604 472.259 91.1573 472.259 91.3626V116.709C472.259 116.897 472.334 117.078 472.467 117.211C472.6 117.344 472.78 117.419 472.969 117.419V117.419" fill="#F7F7F7"/>
<path d="M466.386 117.29H467.741C467.835 117.298 467.929 117.289 468.018 117.261C468.108 117.233 468.191 117.188 468.263 117.128C468.335 117.068 468.394 116.995 468.438 116.912C468.481 116.829 468.508 116.738 468.516 116.645V116.645V91.3626C468.516 91.1573 468.434 90.9604 468.289 90.8153C468.144 90.6702 467.947 90.5886 467.741 90.5886H466.386C466.198 90.5886 466.018 90.6634 465.885 90.7964C465.752 90.9295 465.677 91.1099 465.677 91.2981V116.645C465.677 116.833 465.752 117.013 465.885 117.146C466.018 117.279 466.198 117.354 466.386 117.354" fill="#F7F7F7"/>
<path d="M459.807 117.29H461.162C461.351 117.29 461.531 117.215 461.664 117.082C461.797 116.949 461.872 116.768 461.872 116.58V91.3626C461.881 91.2693 461.871 91.1752 461.843 91.0858C461.816 90.9963 461.771 90.9132 461.711 90.8412C461.651 90.7693 461.577 90.7099 461.494 90.6666C461.411 90.6232 461.32 90.5967 461.227 90.5886H459.807C459.619 90.5886 459.439 90.6634 459.306 90.7964C459.172 90.9295 459.098 91.1099 459.098 91.2981V91.2981V116.645C459.098 116.833 459.172 117.013 459.306 117.146C459.439 117.279 459.619 117.354 459.807 117.354" fill="#F7F7F7"/>
<path d="M453.224 117.29H454.579C454.767 117.29 454.948 117.215 455.081 117.082C455.214 116.949 455.289 116.768 455.289 116.58V91.3626C455.298 91.2693 455.288 91.1752 455.26 91.0858C455.233 90.9963 455.188 90.9132 455.128 90.8412C455.068 90.7693 454.994 90.7099 454.911 90.6666C454.828 90.6232 454.737 90.5967 454.644 90.5886H453.224C453.123 90.5886 453.022 90.6086 452.928 90.6475C452.834 90.6864 452.749 90.7434 452.677 90.8153C452.605 90.8872 452.548 90.9725 452.509 91.0664C452.47 91.1603 452.45 91.2609 452.45 91.3626V116.709C452.45 116.897 452.525 117.078 452.658 117.211C452.791 117.344 452.972 117.419 453.16 117.419V117.419" fill="#F7F7F7"/>
<path d="M446.385 117.29H447.739C447.833 117.298 447.927 117.289 448.016 117.261C448.106 117.233 448.189 117.188 448.261 117.128C448.333 117.068 448.392 116.995 448.436 116.912C448.479 116.829 448.506 116.738 448.514 116.645V116.645V91.3626C448.514 91.2609 448.494 91.1603 448.455 91.0664C448.416 90.9725 448.359 90.8872 448.287 90.8153C448.215 90.7434 448.13 90.6864 448.036 90.6475C447.942 90.6086 447.841 90.5886 447.739 90.5886H446.385C446.196 90.5886 446.016 90.6634 445.883 90.7964C445.75 90.9295 445.675 91.1099 445.675 91.2981V116.645C445.675 116.833 445.75 117.013 445.883 117.146C446.016 117.279 446.196 117.354 446.385 117.354" fill="#F7F7F7"/>
<path d="M439.935 117.29H441.29C441.478 117.29 441.659 117.215 441.792 117.082C441.925 116.949 442 116.768 442 116.58V91.3626C442.009 91.2693 441.999 91.1752 441.971 91.0858C441.944 90.9963 441.899 90.9132 441.839 90.8412C441.779 90.7693 441.705 90.7099 441.622 90.6666C441.539 90.6232 441.448 90.5967 441.355 90.5886H439.935C439.747 90.5886 439.567 90.6634 439.433 90.7964C439.3 90.9295 439.226 91.1099 439.226 91.2981V91.2981V116.645C439.226 116.833 439.3 117.013 439.433 117.146C439.567 117.279 439.747 117.354 439.935 117.354" fill="#F7F7F7"/>
<path d="M433.482 117.29H434.837C435.025 117.29 435.206 117.215 435.339 117.082C435.472 116.949 435.547 116.768 435.547 116.58V91.3626C435.556 91.2693 435.546 91.1752 435.518 91.0858C435.491 90.9963 435.446 90.9132 435.386 90.8412C435.326 90.7693 435.252 90.7099 435.169 90.6666C435.086 90.6232 434.995 90.5967 434.902 90.5886H433.482C433.381 90.5886 433.28 90.6086 433.186 90.6475C433.092 90.6864 433.007 90.7434 432.935 90.8153C432.863 90.8872 432.806 90.9725 432.767 91.0664C432.728 91.1603 432.708 91.2609 432.708 91.3626V116.709C432.708 116.897 432.783 117.078 432.916 117.211C433.049 117.344 433.23 117.419 433.418 117.419V117.419" fill="#F7F7F7"/>
<path d="M427.029 117.29H428.32C428.413 117.298 428.507 117.289 428.596 117.261C428.686 117.233 428.769 117.188 428.841 117.128C428.913 117.068 428.972 116.995 429.016 116.912C429.059 116.829 429.086 116.738 429.094 116.645V116.645V91.3626C429.094 91.2609 429.074 91.1603 429.035 91.0664C428.996 90.9725 428.939 90.8872 428.867 90.8153C428.795 90.7434 428.71 90.6864 428.616 90.6475C428.522 90.6086 428.421 90.5886 428.32 90.5886H427.029C426.824 90.5886 426.627 90.6702 426.482 90.8153C426.336 90.9604 426.255 91.1573 426.255 91.3626V116.709C426.255 116.897 426.33 117.078 426.463 117.211C426.596 117.344 426.776 117.419 426.965 117.419V117.419" fill="#F7F7F7"/>
<path d="M420.189 117.29H421.544C421.735 117.277 421.915 117.2 422.056 117.071C422.197 116.942 422.289 116.769 422.318 116.58V91.3626C422.318 91.1573 422.237 90.9604 422.092 90.8153C421.946 90.6702 421.749 90.5886 421.544 90.5886H420.189C420.001 90.5886 419.82 90.6634 419.687 90.7964C419.554 90.9295 419.479 91.1099 419.479 91.2981V116.645C419.479 116.833 419.554 117.013 419.687 117.146C419.82 117.279 420.001 117.354 420.189 117.354" fill="#F7F7F7"/>
<path d="M413.61 117.29H414.965C415.153 117.29 415.334 117.215 415.467 117.082C415.6 116.949 415.675 116.768 415.675 116.58V91.3626C415.684 91.2693 415.674 91.1752 415.646 91.0858C415.619 90.9963 415.573 90.9132 415.513 90.8412C415.453 90.7693 415.38 90.7099 415.297 90.6666C415.214 90.6232 415.123 90.5967 415.03 90.5886H413.61C413.405 90.5886 413.208 90.6702 413.063 90.8153C412.917 90.9604 412.836 91.1573 412.836 91.3626V116.709C412.865 116.898 412.957 117.071 413.098 117.2C413.239 117.329 413.42 117.406 413.61 117.419" fill="#F7F7F7"/>
<path d="M407.029 117.29H408.32C408.413 117.298 408.507 117.289 408.596 117.261C408.686 117.233 408.769 117.188 408.841 117.128C408.913 117.068 408.972 116.995 409.016 116.912C409.059 116.829 409.086 116.738 409.094 116.645V116.645V91.3626C409.094 91.1573 409.012 90.9604 408.867 90.8153C408.722 90.6702 408.525 90.5886 408.32 90.5886H407.029C406.824 90.5886 406.627 90.6702 406.482 90.8153C406.336 90.9604 406.255 91.1573 406.255 91.3626V116.709C406.255 116.897 406.33 117.078 406.463 117.211C406.596 117.344 406.776 117.419 406.965 117.419V117.419" fill="#F7F7F7"/>
<path d="M400.384 117.29H401.738C401.929 117.277 402.11 117.2 402.25 117.071C402.391 116.942 402.484 116.769 402.513 116.58V91.3626C402.513 91.1573 402.431 90.9604 402.286 90.8153C402.141 90.6702 401.944 90.5886 401.738 90.5886H400.384C400.195 90.5886 400.015 90.6634 399.882 90.7964C399.749 90.9295 399.674 91.1099 399.674 91.2981V116.645C399.674 116.833 399.749 117.013 399.882 117.146C400.015 117.279 400.195 117.354 400.384 117.354" fill="#F7F7F7"/>
<path d="M393.802 117.29H395.156C395.345 117.29 395.525 117.215 395.658 117.082C395.791 116.949 395.866 116.768 395.866 116.58V91.3626C395.875 91.2693 395.865 91.1752 395.838 91.0858C395.81 90.9963 395.765 90.9132 395.705 90.8412C395.645 90.7693 395.571 90.7099 395.488 90.6666C395.405 90.6232 395.314 90.5967 395.221 90.5886H393.802C393.596 90.5886 393.399 90.6702 393.254 90.8153C393.109 90.9604 393.027 91.1573 393.027 91.3626V116.709C393.056 116.898 393.149 117.071 393.29 117.2C393.43 117.329 393.611 117.406 393.802 117.419" fill="#F7F7F7"/>
<path d="M387.221 117.29H388.318C388.411 117.298 388.505 117.289 388.594 117.261C388.684 117.233 388.767 117.188 388.839 117.128C388.911 117.068 388.97 116.995 389.014 116.912C389.057 116.829 389.084 116.738 389.092 116.645V116.645V91.3626C389.092 91.1573 389.01 90.9604 388.865 90.8153C388.72 90.6702 388.523 90.5886 388.318 90.5886H387.027C386.822 90.5886 386.625 90.6702 386.48 90.8153C386.335 90.9604 386.253 91.1573 386.253 91.3626V116.709C386.253 116.897 386.328 117.078 386.461 117.211C386.594 117.344 386.774 117.419 386.963 117.419V117.419" fill="#F7F7F7"/>
<path d="M380.575 117.29H381.865C382.056 117.277 382.236 117.2 382.377 117.071C382.518 116.942 382.611 116.769 382.64 116.58V91.3626C382.64 91.1573 382.558 90.9604 382.413 90.8153C382.268 90.6702 382.071 90.5886 381.865 90.5886H380.575C380.387 90.5886 380.206 90.6634 380.073 90.7964C379.94 90.9295 379.865 91.1099 379.865 91.2981V116.645C379.865 116.833 379.94 117.013 380.073 117.146C380.206 117.279 380.387 117.354 380.575 117.354" fill="#F7F7F7"/>
<path d="M373.995 117.29H375.414C375.603 117.29 375.783 117.215 375.916 117.082C376.049 116.949 376.124 116.768 376.124 116.58V91.3626C376.133 91.2693 376.123 91.1752 376.096 91.0858C376.068 90.9963 376.023 90.9132 375.963 90.8412C375.903 90.7693 375.829 90.7099 375.746 90.6666C375.663 90.6232 375.572 90.5967 375.479 90.5886H374.059C373.854 90.5886 373.657 90.6702 373.512 90.8153C373.367 90.9604 373.285 91.1573 373.285 91.3626V116.709C373.314 116.898 373.407 117.071 373.547 117.2C373.688 117.329 373.869 117.406 374.059 117.419" fill="#F7F7F7"/>
<path d="M367.414 117.29H368.962C369.055 117.298 369.149 117.289 369.239 117.261C369.328 117.233 369.412 117.188 369.484 117.128C369.556 117.068 369.615 116.995 369.658 116.912C369.702 116.829 369.728 116.738 369.736 116.645V116.645V91.3626C369.736 91.1573 369.655 90.9604 369.51 90.8153C369.364 90.6702 369.167 90.5886 368.962 90.5886H367.672C367.466 90.5886 367.269 90.6702 367.124 90.8153C366.979 90.9604 366.897 91.1573 366.897 91.3626V116.709C366.897 116.897 366.972 117.078 367.105 117.211C367.238 117.344 367.419 117.419 367.607 117.419V117.419" fill="#F7F7F7"/>
<path d="M411.221 108.002V99.8754H413.414L416.124 105.938L418.834 99.8754H420.899V108.002H419.092V103.294L417.092 108.002H415.156L413.092 103.294V108.002H411.221Z" fill="black"/>
<path d="M423.804 108.002H421.675L425.288 99.8754H427.869L431.546 108.002H429.417L428.772 106.389H424.514L423.804 108.002ZM428.062 104.841L426.578 101.423L425.159 104.841H428.062Z" fill="black"/>
<path d="M440.125 106.389V108.002H432.318V99.8754H440.125V101.488H434.254V103.1H439.286V104.712H434.254V106.389H440.125Z" fill="black"/>
<path d="M441.611 108.002V99.8759H448.063C448.224 99.858 448.387 99.8723 448.543 99.9179C448.699 99.9634 448.844 100.039 448.97 100.141C449.096 100.243 449.2 100.369 449.277 100.512C449.354 100.655 449.402 100.811 449.418 100.972V103.81C449.418 104.391 448.838 104.971 447.805 104.971L449.676 107.809H447.612L445.805 105.035H443.676V107.809L441.611 108.002ZM443.547 103.617H447.612V101.488H443.547V103.617Z" fill="black"/>
<path d="M452.837 108.002H452.192C451.903 108.022 451.618 107.934 451.392 107.755C451.165 107.576 451.013 107.319 450.966 107.034V105.744H452.837V106.389H456.837V104.712H452.256C452.103 104.73 451.949 104.718 451.801 104.676C451.653 104.633 451.515 104.562 451.395 104.466C451.275 104.37 451.175 104.251 451.102 104.116C451.028 103.982 450.982 103.833 450.966 103.681V101.165C450.957 101.004 450.98 100.843 451.034 100.691C451.088 100.539 451.171 100.399 451.279 100.279C451.386 100.16 451.517 100.062 451.663 99.9929C451.808 99.9235 451.966 99.8836 452.127 99.8754H457.224C457.385 99.8754 457.544 99.9071 457.693 99.9686C457.842 100.03 457.977 100.12 458.091 100.234C458.205 100.348 458.295 100.483 458.357 100.632C458.418 100.78 458.45 100.94 458.45 101.101V102.326H456.579V101.681H452.837V103.294H457.482C457.643 103.285 457.804 103.308 457.956 103.362C458.108 103.415 458.248 103.499 458.368 103.606C458.488 103.714 458.586 103.845 458.655 103.99C458.724 104.136 458.764 104.294 458.773 104.454V106.97C458.791 107.114 458.78 107.26 458.741 107.4C458.702 107.54 458.635 107.671 458.545 107.785C458.455 107.899 458.343 107.994 458.216 108.064C458.089 108.135 457.949 108.179 457.805 108.195H452.837V108.002Z" fill="black"/>
<path d="M460.581 108.002V99.8754H462.517V103.165L466.194 99.8754H468.775L464.452 103.681L468.969 108.002H466.259L462.517 104.325V108.002H460.581Z" fill="black"/>
<path d="M388.318 94.7809H401.221C401.769 94.7809 402.294 94.9983 402.681 95.3854C403.069 95.7724 403.286 96.2974 403.286 96.8447V96.8447V111.034C403.286 111.598 403.062 112.139 402.662 112.539C402.263 112.938 401.722 113.162 401.157 113.162H388.318C387.753 113.162 387.211 112.938 386.812 112.539C386.413 112.139 386.188 111.598 386.188 111.034V96.8447C386.197 96.5652 386.26 96.2901 386.375 96.035C386.49 95.78 386.654 95.5501 386.857 95.3584C387.061 95.1667 387.301 95.0171 387.562 94.918C387.824 94.8189 388.103 94.7723 388.382 94.7809H388.318Z" fill="#00B2D9"/>
<path d="M397.545 103.488L400.965 99.1664V99.1019L395.997 101.553L394.771 96.1351H394.706L393.48 101.553L388.512 99.1019V99.1664L391.932 103.488L386.964 105.874H392.513L391.287 111.291L394.771 106.97L398.19 111.291L396.964 105.874H402.513L397.545 103.488Z" fill="white"/>
<path d="M188.946 416.491V304.076L213.376 311.217L200.036 413.763L188.946 416.491Z" fill="#DCA48C"/>
<path d="M188.946 416.491V304.076L162.749 296.293L177.937 413.763L188.946 416.491Z" fill="#B4816B"/>
<path d="M236.76 197.679L227.68 241.65L228.162 250.235C228.242 250.633 228.242 251.042 228.162 251.439L220.929 267.487C220.699 268.037 220.285 268.489 219.757 268.768C219.229 269.046 218.621 269.132 218.036 269.011H215.706V250.797L221.09 241.57L224.787 197.277L221.412 183.637L235.153 180.828L237.242 193.827C237.484 195.1 237.484 196.406 237.242 197.679" fill="#DCA48C"/>
<path d="M202.848 123.377C205.378 123.335 207.789 122.302 209.563 120.501C211.337 118.7 212.331 116.275 212.33 113.749V92.8061C212.33 73.0673 205.982 67.0493 188.223 67.0493C170.463 67.0493 164.115 73.0673 164.115 92.8061V113.588C164.048 116.067 164.95 118.475 166.63 120.303C168.309 122.13 170.635 123.232 173.115 123.377V123.377H202.848Z" fill="#FF5E4B"/>
<path d="M171.509 83.2574V108.372C171.655 110.344 172.191 112.268 173.088 114.031C173.985 115.794 175.223 117.362 176.732 118.643V125.062L188.384 160.367L200.117 125.544V119.205C202.955 116.632 204.779 113.132 205.26 109.335V88.6335C202.615 90.3791 199.481 91.235 196.315 91.0762C193.149 90.9174 190.117 89.7523 187.661 87.7508C183.043 84.3047 177.341 82.6251 171.589 83.0167" fill="#DCA48C"/>
<path d="M181.312 98.7434H180.106C180.005 98.7548 179.902 98.7445 179.805 98.7133C179.708 98.6821 179.618 98.6308 179.542 98.5625C179.466 98.4943 179.406 98.4108 179.364 98.3175C179.323 98.2242 179.302 98.1233 179.303 98.0213V98.0213V96.7375C179.313 96.5326 179.389 96.3365 179.519 96.1777C179.65 96.019 179.827 95.9058 180.026 95.8548H181.392C181.511 95.8422 181.632 95.8563 181.745 95.8962C181.858 95.9361 181.96 96.0007 182.045 96.0854C182.13 96.17 182.195 96.2725 182.235 96.3853C182.275 96.4981 182.289 96.6185 182.276 96.7375V98.0213C182.277 98.1338 182.253 98.2451 182.208 98.3481C182.163 98.4511 182.096 98.5434 182.013 98.619C181.93 98.6947 181.831 98.752 181.724 98.7873C181.617 98.8225 181.504 98.8349 181.392 98.8237" fill="#00243F"/>
<path d="M196.419 98.7435H195.214C194.998 98.7285 194.793 98.6411 194.633 98.4955C194.472 98.3499 194.366 98.1546 194.33 97.9412V96.6573C194.33 96.4232 194.423 96.1987 194.589 96.0332C194.755 95.8677 194.98 95.7747 195.214 95.7747H196.419C196.527 95.7502 196.638 95.7506 196.746 95.7757C196.853 95.8009 196.953 95.8502 197.038 95.9198C197.124 95.9895 197.192 96.0777 197.238 96.1777C197.284 96.2777 197.306 96.3869 197.303 96.4968C197.303 96.4968 197.303 96.4968 197.303 96.4968V97.7807C197.315 97.882 197.304 97.9846 197.273 98.0817C197.242 98.1788 197.191 98.2682 197.122 98.344C197.054 98.4198 196.97 98.4803 196.877 98.5215C196.783 98.5627 196.682 98.5837 196.58 98.5831V98.5831" fill="#00243F"/>
<path d="M200.197 119.124V125.383L198.268 132.444C193.733 132.629 189.255 131.379 185.474 128.871C181.693 126.364 178.802 122.728 177.214 118.482C184.768 125.142 190.955 127.79 200.598 119.124" fill="#DCA48C"/>
<path d="M200.195 125.383L201.963 149.936L188.543 160.287L176.087 149.936L176.81 124.982L188.543 160.287L200.195 125.383Z" fill="white"/>
<path d="M218.679 184.198L234.751 180.828L228.322 139.826L208.554 131.401L200.518 125.784L188.866 152.825L176.812 124.902L167.732 131.802L149.169 141.511L137.275 178.181L154.312 184.279L158.812 172.885L163.874 205.542L156.883 231.54C155.866 235.521 155.593 239.656 156.079 243.736L170.624 357.596L206.304 367.144L221.733 245.261C222.38 240.788 221.967 236.225 220.528 231.941L212.492 205.542L216.429 172.885L218.679 184.198Z" fill="#00243F"/>
<path d="M176.571 249.834L150.615 257.858C150.071 258.036 149.479 257.993 148.967 257.738C148.456 257.482 148.066 257.035 147.882 256.494V256.494L144.989 246.625C144.857 246.03 144.947 245.408 145.243 244.875C145.539 244.343 146.021 243.938 146.597 243.736L172.472 235.712C172.768 235.627 173.077 235.6 173.383 235.635C173.689 235.669 173.985 235.764 174.254 235.913C174.522 236.062 174.759 236.263 174.95 236.504C175.141 236.745 175.282 237.021 175.365 237.317L178.178 247.186C178.279 247.449 178.326 247.73 178.316 248.012C178.306 248.293 178.239 248.57 178.119 248.825C177.998 249.08 177.828 249.308 177.617 249.495C177.406 249.682 177.16 249.825 176.892 249.915V249.915" fill="#CFCFCF"/>
<path d="M165.24 239.323L169.098 237.718C169.304 237.667 169.497 237.571 169.662 237.436C169.827 237.302 169.96 237.133 170.052 236.942C170.144 236.75 170.193 236.54 170.195 236.328C170.196 236.115 170.151 235.905 170.062 235.712V235.712C170.043 235.335 169.884 234.979 169.617 234.712C169.35 234.446 168.993 234.287 168.615 234.268L159.535 233.385L150.695 237.076L155.678 250.155C155.93 250.783 156.407 251.295 157.015 251.591C157.624 251.888 158.322 251.948 158.972 251.76L164.597 249.995C165.095 249.765 165.509 249.387 165.782 248.913C166.055 248.439 166.175 247.892 166.124 247.347L165.24 239.323Z" fill="#DCA48C"/>
<path d="M150.615 237.236L134.543 194.228C133.819 191.903 133.819 189.413 134.543 187.087L137.516 178.18L151.016 182.995L147.48 191.661L159.936 233.545L150.615 237.236Z" fill="#DCA48C"/>
<path d="M210.322 165.824C210.322 167.236 209.902 168.617 209.116 169.791C208.33 170.966 207.213 171.881 205.906 172.421C204.6 172.962 203.162 173.103 201.774 172.828C200.387 172.552 199.113 171.872 198.112 170.873C197.112 169.875 196.431 168.602 196.155 167.217C195.879 165.832 196.021 164.396 196.562 163.091C197.103 161.786 198.02 160.671 199.196 159.886C200.372 159.101 201.755 158.682 203.17 158.682V158.682C205.052 158.703 206.851 159.465 208.175 160.802C209.499 162.139 210.241 163.944 210.241 165.824" fill="#AAE1F8"/>
<path d="M168.857 77.6407H209.037L217.073 66.4072C217.073 66.4072 218.921 64 216.108 64H162.589C160.5 64 161.625 66.006 161.625 66.006L168.857 77.6407Z" fill="#00243F"/>
<path d="M208.955 77.6409H168.775C171.427 83.8193 177.454 85.6648 187.74 85.6648C198.026 85.6648 205.66 84.7822 208.875 77.6409" fill="#878787"/>
<path d="M193.446 71.2215C193.446 72.4983 192.938 73.7229 192.034 74.6257C191.129 75.5286 189.903 76.0358 188.624 76.0358C187.346 76.0358 186.119 75.5286 185.215 74.6257C184.311 73.7229 183.803 72.4983 183.803 71.2215C183.803 69.9446 184.311 68.7201 185.215 67.8172C186.119 66.9143 187.346 66.4071 188.624 66.4071C189.903 66.4071 191.129 66.9143 192.034 67.8172C192.938 68.7201 193.446 69.9446 193.446 71.2215V71.2215" fill="#AAE1F8"/>
<path d="M275.582 267.32L271.633 255.714L285.376 251.055L293.274 274.268L291.142 274.978C289.587 275.509 287.941 275.725 286.302 275.614C284.662 275.504 283.061 275.068 281.591 274.334C280.121 273.599 278.812 272.58 277.74 271.335C276.668 270.09 275.854 268.645 275.345 267.083V267.083" fill="#FFD6C3"/>
<path d="M348 238.139L340.14 261.465L354.021 266.139L361.881 242.813L348 238.139Z" fill="#FFD6C3"/>
<path d="M269.182 257.135L268.787 249.082L284.189 248.371V256.503L269.182 257.135Z" fill="white"/>
<path d="M350.217 247.345L352.191 237.633L370.357 241.976L367.751 251.924L350.217 247.345Z" fill="white"/>
<path d="M296.823 84.1488C296.823 69.9373 302.431 65.0422 318.148 65.0422C333.866 65.0422 338.21 71.0427 338.21 86.6753C338.452 89.2915 338.086 91.9281 337.141 94.3796C336.196 96.8311 334.696 99.0311 332.76 100.808C332.76 98.8341 332.207 88.6492 332.207 88.6492L303.537 82.3329C303.617 87.9882 303.22 93.6401 302.352 99.2289C300.42 97.1812 298.932 94.7568 297.98 92.1076C297.029 89.4585 296.635 86.6415 296.823 83.833" fill="#FF6C5B"/>
<path d="M301.72 77.4385V94.3344H300.773C299.351 94.3344 298.245 95.4398 298.245 98.44C298.245 101.44 299.114 103.019 301.641 103.019V106.493C301.612 108.174 301.958 109.84 302.655 111.37C303.352 112.9 304.382 114.255 305.67 115.336V120.389L317.517 137.127L329.68 121.336V115.731C332.044 113.6 333.465 110.618 333.63 107.441V104.046C336.473 104.046 336.789 102.624 336.789 98.7558C336.789 94.8871 335.367 94.2555 334.498 94.2555H333.63V85.8865L301.72 77.4385Z" fill="#FFD6C3"/>
<path d="M310.331 97.1767H309.146C308.916 97.1767 308.695 97.0852 308.532 96.9223C308.369 96.7595 308.277 96.5386 308.277 96.3082V95.1239C308.277 94.8936 308.369 94.6727 308.532 94.5098C308.695 94.347 308.916 94.2555 309.146 94.2555H310.331C310.438 94.2428 310.546 94.2545 310.648 94.2896C310.749 94.3248 310.842 94.3826 310.918 94.4586C310.994 94.5346 311.051 94.6269 311.087 94.7285C311.122 94.83 311.134 94.9383 311.121 95.045V95.045V96.2293C311.132 96.3331 311.122 96.438 311.092 96.5379C311.062 96.6379 311.013 96.731 310.947 96.8117C310.88 96.8925 310.799 96.9593 310.707 97.0084C310.615 97.0575 310.514 97.0879 310.41 97.0978V97.0978" fill="#00243F"/>
<path d="M325.419 97.1764H324.234C324.004 97.1764 323.783 97.0849 323.62 96.922C323.457 96.7591 323.365 96.5382 323.365 96.3079V95.1236C323.365 94.8933 323.457 94.6724 323.62 94.5095C323.783 94.3466 324.004 94.2551 324.234 94.2551H325.419C325.649 94.2551 325.87 94.3466 326.033 94.5095C326.196 94.6724 326.288 94.8933 326.288 95.1236V96.3079C326.288 96.5382 326.196 96.7591 326.033 96.922C325.87 97.0849 325.649 97.1764 325.419 97.1764" fill="#00243F"/>
<path d="M329.762 115.73V120.941C329.762 120.941 322.338 130.415 322.338 130.731C313.571 130.731 305.356 114.94 305.356 114.94C314.992 123.388 320.363 124.652 329.762 115.414" fill="#E0AD98"/>
<path d="M284.109 243.476H352.43L359.064 267.162L356.458 346.115V347.378L349.823 418.436L326.128 424.515V347.931L320.679 279.715L314.676 339.246L318.704 425.383L294.298 417.093L285.057 342.562V340.114L284.346 243.239" fill="#00243F"/>
<path d="M353.614 248.134L337.817 256.819C335.373 258.152 332.502 258.468 329.826 257.7C327.15 256.931 324.885 255.14 323.521 252.713C323.124 251.931 322.806 251.111 322.573 250.266L321.151 244.739L318.94 254.529C318.321 256.905 316.896 258.992 314.907 260.432C312.919 261.872 310.491 262.577 308.04 262.424L284.345 261.082V248.134L268.549 248.845L266.337 194.683C266.257 193.236 266.257 191.787 266.337 190.34L274.235 145.179C274.818 141.732 276.25 138.485 278.401 135.728C280.551 132.972 283.354 130.793 286.557 129.389L301.485 122.836L305.276 119.756L316.097 131.047L317.676 144.232L319.256 130.889L329.524 120.309L333.552 123.072L352.903 132.468C355.405 133.689 357.642 135.391 359.485 137.477C361.329 139.564 362.742 141.993 363.644 144.627L379.441 190.419C380.689 194.164 380.88 198.179 379.994 202.025L370.516 241.502L352.35 237.16L360.248 197.13L352.35 174.471L353.614 248.134Z" fill="#00243F"/>
<path d="M317.834 172.418L333.71 123.23L329.84 119.914L317.676 132.547L305.355 119.283L301.643 122.994L317.834 172.418Z" fill="white"/>
<path d="M322.1 138.074L317.677 133.495L313.333 138.074C313.024 138.513 312.858 139.037 312.858 139.574C312.858 140.111 313.024 140.635 313.333 141.074L315.782 145.732L312.188 158.128L318.23 175.184L322.732 158.523L320.442 145.495L322.969 140.916C323.209 140.415 323.292 139.853 323.208 139.303C323.123 138.754 322.875 138.243 322.495 137.837" fill="#00243F"/>
<path d="M342.241 172.339C342.241 173.713 341.833 175.057 341.069 176.199C340.306 177.342 339.22 178.232 337.95 178.758C336.68 179.284 335.283 179.422 333.934 179.154C332.586 178.886 331.348 178.224 330.376 177.252C329.404 176.281 328.742 175.043 328.473 173.695C328.205 172.347 328.343 170.95 328.869 169.68C329.395 168.411 330.286 167.326 331.429 166.562C332.572 165.799 333.916 165.391 335.29 165.391C336.206 165.381 337.115 165.553 337.963 165.899C338.811 166.244 339.581 166.756 340.229 167.403C340.876 168.05 341.388 168.82 341.733 169.668C342.079 170.516 342.252 171.424 342.241 172.339V172.339Z" fill="#AAE1F8"/>
<path d="M297.931 77.5958H337.423L345.321 66.5424C345.321 66.5424 347.217 64.1738 344.373 64.1738H291.376C289.322 64.1738 290.507 66.0687 290.507 66.0687L297.931 77.5958Z" fill="#00243F"/>
<path d="M337.188 77.5957H297.696C300.303 83.5961 306.226 85.491 316.257 85.491C326.288 85.491 333.792 84.6225 336.951 77.5957" fill="#939393"/>
<path d="M322.02 71.2794C322.087 71.9328 322.01 72.593 321.795 73.2135C321.58 73.8341 321.231 74.4001 320.774 74.8717C320.316 75.3433 319.761 75.7091 319.147 75.9434C318.534 76.1777 317.876 76.2749 317.22 76.2281C316.565 76.1813 315.928 75.9917 315.354 75.6725C314.779 75.3533 314.282 74.9124 313.896 74.3806C313.51 73.8488 313.246 73.2391 313.121 72.5942C312.996 71.9494 313.014 71.285 313.173 70.6478C313.342 69.58 313.86 68.5982 314.646 67.8555C315.432 67.1128 316.442 66.651 317.518 66.5422C318.774 66.5422 319.98 67.0413 320.869 67.9297C321.757 68.8181 322.257 70.023 322.257 71.2794V71.2794" fill="#AAE1F8"/>
</g>
<defs>
<clipPath id="clip0_2994_1657">
<rect width="504" height="336" fill="white"/>
</clipPath>
</defs>
</svg>
