<svg width="504" height="336" viewBox="0 0 504 336" fill="none" xmlns="http://www.w3.org/2000/svg">
<rect width="504" height="336" fill="white"/>
<path d="M504 0H0V286H504V0Z" fill="white"/>
<path d="M504 0H0V286H504V0Z" fill="#B5E0F5" fill-opacity="0.3"/>
<path d="M504 286H0V336H504V286Z" fill="#EDEDED"/>
<path d="M464.935 195.881H436.278V207.499H464.935V195.881Z" fill="#C8ECFA"/>
<path d="M448.866 210.249H420.209V221.867H448.866V210.249Z" fill="#C8ECFA"/>
<path d="M165.415 67.2925H136.758V78.9101H165.415V67.2925Z" fill="#C8ECFA"/>
<path d="M180.828 80.8274H152.171V92.445H180.828V80.8274Z" fill="#C8ECFA"/>
<path d="M196.44 67.2925H167.783V78.9101H196.44V67.2925Z" fill="#C8ECFA"/>
<path d="M405.254 131.783H376.598V143.4H405.254V131.783Z" fill="#C8ECFA"/>
<path d="M420.667 118.445H392.01V130.063H420.667V118.445Z" fill="#C8ECFA"/>
<path d="M436.279 131.783H407.622V143.4H436.279V131.783Z" fill="#C8ECFA"/>
<path d="M477.523 76.1484H448.866V87.766H477.523V76.1484Z" fill="#C8ECFA"/>
<path d="M129.657 209.803H101V221.421H129.657V209.803Z" fill="#C8ECFA"/>
<path d="M180.828 168.909H152.171V180.526H180.828V168.909Z" fill="#C8ECFA"/>
<path d="M362.84 270.251H232.846C231.897 270.261 230.982 269.893 230.304 269.229C229.625 268.565 229.239 267.658 229.229 266.708L229.236 26.5428C229.246 25.5933 229.633 24.6867 230.311 24.0223C230.99 23.358 231.904 22.9903 232.854 23.0002H362.847C363.797 22.9903 364.711 23.358 365.39 24.0224C366.068 24.6868 366.455 25.5935 366.465 26.543L366.457 266.709C366.447 267.658 366.061 268.565 365.382 269.229C364.704 269.893 363.789 270.261 362.84 270.251Z" fill="#ADB9C1" stroke="#ADB9C1" stroke-width="1.13371" stroke-linejoin="round"/>
<path d="M359.537 29.7327H236.155V270.252H359.537V29.7327Z" fill="#F7F7F7" stroke="#F7F7F7" stroke-width="1.12001" stroke-linejoin="round"/>
<path d="M192.309 214.764C192.309 206.294 194.779 204.176 200.936 204.176C206.975 204.176 209.485 206.254 209.485 214.764C209.485 223.313 206.975 225.352 200.936 225.352C194.779 225.352 192.309 223.274 192.309 214.764Z" fill="#4DA298"/>
<path d="M209.82 200.397C209.82 194.122 211.65 192.553 216.211 192.553C220.685 192.553 222.544 194.093 222.544 200.397C222.544 206.729 220.685 208.24 216.211 208.24C211.65 208.24 209.82 206.7 209.82 200.397Z" fill="#4DA298"/>
<path d="M186.073 204.796C186.073 199.273 187.684 197.893 191.698 197.893C195.636 197.893 197.272 199.248 197.272 204.796C197.272 210.37 195.636 211.699 191.698 211.699C187.684 211.699 186.073 210.344 186.073 204.796Z" fill="#4DA298"/>
<path d="M212.454 224.925C212.454 219.699 213.978 218.392 217.777 218.392C221.503 218.392 223.051 219.674 223.051 224.925C223.051 230.199 221.503 231.457 217.777 231.457C213.978 231.457 212.454 230.175 212.454 224.925Z" fill="#4DA298"/>
<path d="M205.748 244.501H207.012V211.939C207.012 211.133 207.186 210.337 207.525 209.605C207.863 208.874 208.356 208.225 208.971 207.703L213.425 203.917L212.606 202.954L208.152 206.74C207.398 207.38 206.792 208.177 206.377 209.075C205.962 209.972 205.747 210.95 205.748 211.939V244.501Z" fill="#4DA298"/>
<path d="M212.848 267.534H198.476C197.98 267.534 197.499 267.359 197.119 267.04C196.739 266.721 196.483 266.278 196.397 265.789L191.365 237.253H219.959L214.927 265.789C214.841 266.278 214.586 266.721 214.205 267.04C213.825 267.359 213.344 267.534 212.848 267.534V267.534Z" fill="#ADB9C1" stroke="#ADB9C1" stroke-width="1.13371" stroke-linejoin="round"/>
<path d="M345.104 151.188C348.278 150.844 350.572 147.991 350.228 144.817C349.883 141.642 347.031 139.348 343.856 139.693C340.682 140.037 338.388 142.89 338.732 146.064C339.077 149.239 341.929 151.533 345.104 151.188Z" fill="#ADB9C1"/>
<path d="M330.22 147.344L340.881 147.344C341.933 147.344 342.785 146.492 342.785 145.441L342.785 145.44C342.785 144.389 341.933 143.537 340.881 143.537L330.22 143.537C329.168 143.537 328.316 144.389 328.316 145.44L328.316 145.441C328.316 146.492 329.168 147.344 330.22 147.344Z" fill="#ADB9C1"/>
<path d="M292.144 49.5415H257.56V133.39H292.144V49.5415Z" stroke="#CFCFCF" stroke-width="2.08702" stroke-linejoin="round"/>
<path d="M338.132 49.5415H303.548V133.39H338.132V49.5415Z" stroke="#CFCFCF" stroke-width="2.08702" stroke-linejoin="round"/>
<path d="M292.144 160.273H257.56V244.122H292.144V160.273Z" stroke="#CFCFCF" stroke-width="2.08702" stroke-linejoin="round"/>
<path d="M338.132 160.273H303.548V244.122H338.132V160.273Z" stroke="#CFCFCF" stroke-width="2.08702" stroke-linejoin="round"/>
<path d="M401.193 268.209H194.498C193.842 268.209 193.311 268.741 193.311 269.397V284.539C193.311 285.195 193.842 285.726 194.498 285.726H401.193C401.849 285.726 402.38 285.195 402.38 284.539V269.397C402.38 268.741 401.849 268.209 401.193 268.209Z" fill="#D7D7D7" stroke="#D7D7D7" stroke-miterlimit="10"/>
<path d="M223.396 267.57V286.366" stroke="#B7B7B7" stroke-width="1.13915" stroke-linejoin="round"/>
<path d="M273.029 267.57V286.366" stroke="#B7B7B7" stroke-width="1.13915" stroke-linejoin="round"/>
<path d="M322.663 267.57V286.366" stroke="#B7B7B7" stroke-width="1.13915" stroke-linejoin="round"/>
<path d="M372.296 267.57V286.366" stroke="#B7B7B7" stroke-width="1.13915" stroke-linejoin="round"/>
<path d="M387.892 66.0126C378.812 72.0184 379.126 83.3098 381.724 87.3374L383.144 89.4273L393.188 73.6112L392.619 67.2198C392.619 67.2198 389.667 66.8749 387.902 66.0227L387.892 66.0126Z" fill="#00243D"/>
<path d="M384.879 46.1278L380.426 53.3917L382.79 55.3902C381.907 65.2208 385.336 66.3367 391.403 67.3614L391.94 73.7629L383.155 89.4268L408.862 77.6788L406.58 62.3497L403.841 37.8089L395.593 29.8654C390.662 31.1639 386.878 35.3944 385.397 43.2162L384.879 46.1278Z" fill="#FFCEB8"/>
<path d="M387.914 49.8316L388.858 49.9939C389.223 50.0548 389.568 49.8215 389.629 49.4562L389.791 48.5127C389.852 48.1475 389.619 47.8026 389.253 47.7417L388.31 47.5794C387.945 47.5185 387.6 47.762 387.539 48.1171L387.377 49.0606C387.316 49.4258 387.559 49.7707 387.914 49.8316Z" fill="#00243D"/>
<path d="M419.525 57.379C418.044 65.7486 412.647 70.9023 408.152 72.9313C404.764 69.8776 401.355 63.9124 401.122 57.3384C403.983 57.8456 404.713 57.0239 405.17 54.4369L405.555 52.2354L388.218 35.5063C391.078 28.0396 399.103 28.283 406.408 29.5715C422.264 32.3715 422.345 41.3904 420.083 54.2543" fill="#00243D"/>
<path d="M408.151 72.9208C404.763 69.8671 400.644 64.7439 401.121 57.3279Z" fill="#00243D"/>
<path d="M408.151 72.9208C403.505 69.1976 400.644 64.7439 401.121 57.3279Z" fill="#00243D"/>
<path d="M409.215 162.836L412.259 157.754L402.601 152.052L399.922 157.399L409.215 162.836Z" fill="#B5E0F5"/>
<path d="M406.729 161.386L403.138 167.585L396.493 164.257L399.922 157.399L406.729 161.386Z" fill="#FFBAA6"/>
<path d="M414.43 113.055L408.19 106.39L414.43 128.374V113.055Z" fill="#545454"/>
<path d="M412.137 305.455V315.6C412.137 316.736 411.214 317.66 410.078 317.66H378.415C376.275 317.66 375.554 314.809 377.421 313.784L399.842 301.519L412.147 305.455H412.137Z" fill="#141414"/>
<path d="M420.112 176.989L415.009 190.37L414.38 290.755H398.686L386.248 157.054L414.948 152.032L419.148 160.097C421.867 165.322 422.222 171.47 420.122 176.968L420.112 176.989Z" fill="#00243D"/>
<path d="M414.331 108.601L414.95 152.052L386.25 157.074L382.648 118.401L378.479 112.842C375.537 108.916 375.182 103.63 377.586 99.349L383.156 89.4271L408.863 77.6792L414.331 108.601V108.601Z" fill="#878787"/>
<path d="M408.861 77.6788L435.411 114.039C437.328 116.666 437.531 120.176 435.908 123.007L411.306 166.001L399.031 159.133L419.828 119.923L408.192 106.379L408.851 77.6687L408.861 77.6788Z" fill="#878787"/>
<path d="M408.345 164.338L403.485 172.769L401.375 171.531C397.459 169.248 396.12 164.237 398.372 160.3L399.042 159.124L408.345 164.328V164.338Z" fill="#FFBAA6"/>
<path d="M406.599 309.3L412.138 305.455V290.765H398.675L399.832 301.509L391.239 306.216L403.027 309.858C404.245 310.233 405.564 310.031 406.599 309.3V309.3Z" fill="#FFCEB8"/>
<path d="M414.43 113.623L408.191 106.39L414.623 129.754L414.43 113.623Z" fill="#545454"/>
<path d="M150.167 133.105V143.071L106.444 136.556C104.912 136.169 103.381 135.025 102.217 133.493L84.5732 110.09L99.1539 99.3486L114.878 121.607L150.167 133.125V133.105Z" fill="#F6F7F7"/>
<path d="M103.75 36.043C99.5229 32.9795 98.7667 35.6552 98.7667 35.6552L84.1861 42.5578L77.6713 50.6043L76.5273 59.0386L73.4639 67.085L87.6567 84.7292L92.6397 73.5998C101.074 73.5998 106.057 74.7438 107.22 61.7143L110.672 60.5703L107.608 50.2165C108.384 46.3774 108.384 39.0871 103.769 36.0236" fill="#FBCAB4"/>
<path d="M85.3293 32.2041C81.4902 31.0601 79.1829 32.9796 78.4268 34.5114C76.5072 34.5114 74.5877 36.0431 74.5877 38.3504V39.126C72.6682 40.2699 72.2804 42.965 73.4437 44.8845C71.912 46.4163 71.912 49.1114 73.4437 50.6431C72.2998 51.7871 72.2998 53.7066 73.4437 54.87C73.7023 55.1285 73.9608 55.2578 74.2193 55.2578C73.4437 57.5651 74.6071 59.0968 76.5266 59.853C81.1218 59.4652 81.5096 56.4017 81.5096 54.4822V51.0309C81.5096 48.7236 82.2852 47.5796 85.3487 47.5796C89.1878 47.5796 89.1877 49.8869 89.1877 52.1749H93.4146V45.2723C103.012 45.2723 100.317 38.3698 104.932 38.3698H106.076C106.851 36.0625 105.688 33.3868 103.012 32.6112C102.237 32.2234 101.48 32.2234 100.705 32.6112C98.7853 30.3039 95.7219 29.9355 93.0268 31.4673C90.7195 31.0795 88.0438 30.3233 85.3487 32.2428L85.3293 32.2041Z" fill="#01243E"/>
<path d="M104.523 52.5431H103.379C102.991 52.5431 102.604 52.1554 102.604 51.7676V50.992C102.604 50.6042 102.991 50.2164 103.379 50.2164H104.523C104.911 50.2164 105.299 50.6042 105.299 50.992V51.7676C105.299 52.1554 104.911 52.5431 104.523 52.5431Z" fill="#01243E"/>
<path d="M95.3133 177.216L104.911 229.78C106.055 235.926 103.767 242.053 99.1524 246.28L56.5738 284.264C56.186 284.651 55.7982 284.651 55.4298 284.651L43.9127 285.795L38.9297 280.037V276.586C38.9297 276.198 38.9297 275.442 39.3174 275.054L76.5252 230.943L62.3324 191.428L56.186 175.704L95.3133 177.235V177.216Z" fill="black"/>
<path d="M56.1875 166.862L62.7022 191.796L69.9926 238.989L70.3804 300.376C70.3804 300.763 70.7681 301.52 71.1559 301.907L78.4463 309.198L84.5926 308.81L91.8829 300.763C92.2707 300.376 92.2707 299.988 92.2707 299.619L95.3342 237.477L96.4782 167.657L56.2069 166.881L56.1875 166.862Z" fill="#2B2B2B"/>
<path d="M53.4922 160.715L53.1045 177.603C53.1045 181.83 54.2484 186.425 56.168 190.264L64.6022 205.601H95.2953" fill="#2B2B2B"/>
<path d="M76.8945 307.646V316.08C76.8945 317.224 77.6701 318 78.8141 318H117.166V315.693C117.166 313.773 116.022 311.853 114.102 311.466L90.3119 302.256L76.8945 307.627V307.646Z" fill="#01243E"/>
<path d="M38.9113 280.405L33.5405 286.551C32.765 287.327 32.7649 288.858 33.9283 289.615L63.0896 314.549L64.6214 313.017C65.7653 311.486 66.1531 309.566 65.0091 307.647L52.7358 285.388L38.9307 280.405H38.9113Z" fill="#01243E"/>
<path d="M107.796 110.744L107.39 193.981L190.626 194.387L191.033 111.151L107.796 110.744Z" fill="#FAB47F"/>
<path d="M139.423 130.022L149.389 124.283L158.986 130.41V111.234L139.811 110.846L139.423 130.022Z" fill="#FFE6C6"/>
<path d="M74.2193 66.3483L93.783 82.4606C94.5586 83.2362 95.3147 83.9924 95.7025 85.1363L98.0098 94.3462L72.2998 70.1873L74.2193 66.3483Z" fill="#00B1D8"/>
<path d="M101.827 109.702L99.5201 172.232L53.4902 168.781L53.878 157.652L54.2658 141.152L54.6536 132.717L55.0414 110.459V109.683L55.4291 97.0219C55.4291 92.7951 56.9609 88.9754 59.656 85.8926L73.0733 70.168L93.4126 87.8121C99.1711 93.1829 102.622 101.229 101.847 109.683L101.827 109.702Z" fill="#F6F7F7"/>
<path d="M135.975 138.476L145.185 136.944L154.782 141.539C155.558 141.927 155.926 142.683 155.926 143.847L155.538 148.074C155.538 148.849 154.763 149.605 154.007 149.993L144.409 152.3L135.199 148.074" fill="#FBCAB4"/>
<path d="M102.217 109.703L101.442 127.734L101.054 134.637L100.666 141.54L100.278 148.442L99.1344 173.377L52.7168 169.925L53.1046 158.796L53.4924 148.83V141.927L53.8802 135.413V128.51L54.268 111.254V110.478L54.6557 97.817C54.6557 93.5902 56.1875 89.7705 58.8826 86.6876L72.2999 70.5753C72.2999 70.1875 102.993 101.268 102.217 109.703V109.703Z" fill="#01243E"/>
<path d="M101.073 127.734V134.249H53.8799V132.717V127.734H101.073Z" fill="#00B1D8"/>
<path d="M100.683 141.152L100.296 147.667H53.4902V141.152H100.683Z" fill="#00B1D8"/>
<path d="M137.118 138.845V148.811L93.3956 142.296C91.8638 141.908 90.3321 140.764 89.1688 139.232L65.0098 107.395L63.8659 105.864C60.4146 101.637 60.8024 95.122 65.0098 91.6708L65.3976 91.283L65.7854 90.8952C69.6245 88.5879 74.6075 89.3635 77.6709 92.8147C78.8149 93.9587 79.5905 95.122 80.3466 96.6538L102.218 127.735L137.118 138.864V138.845Z" fill="#F6F7F7"/>
<path d="M103.747 66.3486C103.747 67.1242 104.891 67.8804 106.423 68.2681L106.811 67.4926C106.811 67.1048 107.198 67.1048 107.198 66.717L103.747 66.3292V66.3486Z" fill="white"/>
<path d="M77.1099 43.5664V39.708C77.1099 39.4365 77.0323 39.1651 76.9741 38.8743C76.6251 37.8466 75.5587 37.1486 74.4342 37.1486H73.3096C73.5229 35.8301 73.7362 34.7444 74.0076 33.9882C74.7832 31.7778 76.3925 30.1297 78.7967 29.1021C81.1816 28.0745 84.9237 27.5122 89.9067 27.5122C94.9091 27.5122 98.5543 28.0551 101.017 29.1021C103.402 30.1297 105.03 31.7196 105.806 33.93C106.446 35.7914 106.853 40.1345 106.93 43.5858H77.0905L77.1099 43.5664Z" fill="#00B1D8"/>
<path d="M117.96 43.5666H106.172V40.1929H115.401C117.262 40.2704 117.96 41.841 117.96 43.5666Z" fill="#00B1D8"/>
<path d="M72.7471 43.5661H77.1096V40.4639H73.0185L72.7471 43.5661Z" fill="#4E6779"/>
</svg>
