<svg width="504" height="336" viewBox="0 0 504 336" fill="none" xmlns="http://www.w3.org/2000/svg">
<g clip-path="url(#clip0_3192_2037)">
<rect width="504" height="336" fill="white"/>
<path d="M504 0H0V336H504V0Z" fill="#F7F7F7"/>
<path d="M381.669 135.731H71.1475V127.815H381.683V135.731H381.669ZM381.669 236.839H71.1475V228.923H381.683V236.839H381.669Z" fill="#E8E8E3"/>
<path d="M80.8466 330.943H75.749V237.129H80.8466V330.943ZM162.393 330.943H157.296V237.129H162.393V330.943ZM295.04 330.943H289.943V237.129H295.04V330.943ZM376.601 330.943H371.503V237.129H376.601V330.943ZM80.8466 229.103H75.749V135.289H80.8466V229.103ZM162.393 229.103H157.296V135.289H162.393V229.103ZM295.04 229.103H289.943V135.289H295.04V229.103ZM376.601 229.103H371.503V135.289H376.601V229.103Z" fill="#E8E8E3"/>
<path d="M296.822 225.842L325.957 225.87L325.985 196.735L296.85 196.708L296.822 225.842Z" fill="#E8E8E3"/>
<path d="M314.131 203.339L310.815 201.308L307.5 203.339L307.528 196.708L314.131 196.735V203.339Z" fill="#E8E8E3"/>
<path d="M296.808 195.092L325.942 195.119L325.97 165.984L296.835 165.957L296.808 195.092Z" fill="#E8E8E3"/>
<path d="M314.117 172.615L310.802 170.585L307.486 172.615L307.514 165.984H314.117V172.615Z" fill="#E8E8E3"/>
<path d="M328.941 309.392L325.888 307.527L322.862 309.365V303.314H328.941V309.392Z" fill="#E8E8E3"/>
<path d="M121.227 93.458L152.212 93.4857L152.24 62.4998L121.254 62.4722L121.227 93.458Z" fill="#E8E8E3"/>
<path d="M139.655 69.5313L136.146 67.3901L132.623 69.5313V62.4998H139.655V69.5313V69.5313Z" fill="#E8E8E3"/>
<path d="M137.194 126.392H168.18V95.3923H137.194V126.392Z" fill="#E8E8E3"/>
<path d="M155.748 102.686L152.225 100.545L148.702 102.686L148.73 95.627L155.761 95.6546L155.748 102.686Z" fill="#E8E8E3"/>
<path d="M104.027 126.585L135.013 126.613L135.041 95.627L104.055 95.5994L104.027 126.585Z" fill="#E8E8E3"/>
<path d="M122.442 102.659L118.919 100.517L115.396 102.645V95.6133H122.456V102.659H122.442Z" fill="#E8E8E3"/>
<path d="M277.398 92.8225H243.566V126.654H277.398V92.8225Z" fill="#E8E8E3"/>
<path d="M256.415 100.918L260.463 98.4592L264.497 100.932V92.8091H256.443L256.415 100.918Z" fill="#E8E8E3"/>
<path d="M239.353 92.8225H205.521V126.654H239.353V92.8225Z" fill="#E8E8E3"/>
<path d="M218.37 100.918L222.418 98.4592L226.465 100.932V92.8091H218.412L218.37 100.918Z" fill="#E8E8E3"/>
<path d="M242.931 166.274H209.1V200.106H242.931V166.274Z" fill="#E8E8E3"/>
<path d="M221.947 174.37L226.023 171.911L230.056 174.411V166.26H222.003L221.947 174.37Z" fill="#E8E8E3"/>
<path d="M265.835 304.295L269.91 301.836L273.944 304.308V296.186H265.89L265.835 304.295Z" fill="#E8E8E3"/>
<path d="M191.859 254.383L196.266 251.33L200.673 254.424V244.298H191.901L191.859 254.383Z" fill="#E8E8E3"/>
<path d="M199.941 126.668V102.037H175.31V126.668H199.941Z" fill="#E8E8E3"/>
<path d="M183.944 107.908L186.901 106.126L189.829 107.936V102.023H183.958L183.944 107.908Z" fill="#E8E8E3"/>
<path d="M269.676 207.124L272.632 205.342L275.588 207.152V201.239H269.717L269.676 207.124Z" fill="#E8E8E3"/>
<path d="M243.359 207.869L246.316 206.087L249.244 207.897V201.984H243.373L243.359 207.869Z" fill="#E8E8E3"/>
<path d="M217.015 207.124L219.971 205.342L222.9 207.152V201.239H217.028L217.015 207.124Z" fill="#E8E8E3"/>
<path d="M271.319 66.6855H247.6V91.3168H271.319V66.6855Z" fill="#E8E8E3"/>
<path d="M256.607 72.5844L259.467 70.8024L262.285 72.6397V66.6995H256.635L256.607 72.5844Z" fill="#E8E8E3"/>
<path d="M185.711 254.231L188.101 261.139L191.748 259.951C192.314 259.757 192.632 259.136 192.439 258.569L190.864 253.803C190.684 253.223 190.062 252.905 189.482 253.085C189.482 253.085 189.482 253.085 189.468 253.085L185.711 254.231Z" fill="#E8E8E3"/>
<path d="M342.259 159.45L334.108 142.14L350.133 135.703L354.098 147.86C354.802 150.001 356.294 151.783 358.27 152.847L384.462 166.882C384.462 166.882 386.824 167.587 386.769 167.918C386.41 168.968 386.217 170.032 386.23 171.054C386.286 173.637 386.051 176.207 385.927 178.776C385.125 178.403 384.462 178.141 384.02 178.044L347.025 163.884C344.925 163.083 343.212 161.495 342.259 159.45Z" fill="#FCCEB9"/>
<path d="M384.571 178.265L385.911 167.531L406.343 164.589C406.757 164.492 407.213 164.616 407.545 164.92L408.111 165.432C408.65 165.915 408.705 166.716 408.263 167.214L404.271 171.579L408.084 177.201C408.636 178.03 408.595 179.08 407.973 179.757L399.726 185.228C399.035 185.974 397.861 186.07 396.977 185.435L387.652 179.467L384.571 178.265Z" fill="#FCCEB9"/>
<path d="M277.399 47.5113C277.399 33.9593 282.621 29.3176 297.265 29.3176C311.894 29.3176 315.956 35.023 315.956 49.9288C315.956 59.6957 310.858 63.4394 310.858 63.4394C310.803 61.5054 310.333 51.7938 310.333 51.7938L283.671 46.0884C283.671 46.0884 283.381 62.7349 282.552 62.2375C279.955 60.6627 277.399 54.0041 277.399 47.5113Z" fill="#02253B"/>
<path d="M281.073 42.248L280.935 56.9605H279.968C278.586 56.9605 277.495 58.038 277.495 60.9943C277.495 65.1248 278.324 65.484 280.797 65.484V68.9238C280.797 74.6983 284.789 77.5855 284.789 77.5855V82.3515L281.722 93.7346L296.753 98.8874L310.857 96.0831L308.716 83.0284V78.0137C308.716 78.0137 312.515 74.7121 312.515 69.9046C312.515 68.6613 312.418 68.1226 312.418 66.603C315.167 66.603 315.443 65.2215 315.443 61.3811C315.443 57.5269 314.062 56.9743 313.247 56.9743H312.418V50.6473L281.073 42.248Z" fill="#FCCEB9"/>
<path d="M308.717 78.014V83.0287C308.717 83.0287 308.288 94.1494 307.971 94.177C290.758 96.1248 284.79 77.5996 284.79 77.5996C291.877 78.8844 296.988 79.5613 308.717 78.014Z" fill="#E7B9A4"/>
<path d="M282.372 41.709V65.2212C282.372 67.7769 284.264 68.0532 286.958 68.0532H305.69C308.122 68.0532 310.677 66.6994 310.677 63.8812V49.528L312.57 49.9286V67.7631C312.57 74.767 312.57 83.484 297.485 83.484C281.184 83.484 280.907 77.0602 280.907 68.1775V41.709H282.372ZM301.436 72.5567H292.539C292.539 74.9881 301.436 75.1262 301.436 72.5567Z" fill="#02253B"/>
<path d="M290.412 59.1569H289.238C288.782 59.1569 288.423 58.7977 288.423 58.3418V57.1676C288.423 56.7117 288.782 56.3525 289.238 56.3525H290.412C290.868 56.3525 291.227 56.7117 291.227 57.1676V58.3418C291.227 58.7977 290.868 59.1569 290.412 59.1569Z" fill="#02253B"/>
<path d="M303.771 59.1569H302.596C302.14 59.1569 301.781 58.7977 301.781 58.3418V57.1676C301.781 56.7117 302.14 56.3525 302.596 56.3525H303.771C304.226 56.3525 304.586 56.7117 304.586 57.1676V58.3418C304.586 58.7977 304.213 59.1569 303.771 59.1569Z" fill="#02253B"/>
<path d="M263.971 204.112L331.91 207.676L337.353 226.588L334.798 300.399C334.784 300.786 334.756 301.173 334.715 301.56L329.23 350.67C329.175 351.264 329.023 351.831 328.802 352.383L325.68 359.815L307.238 362.33L305.276 357.909C304.944 357.149 304.765 356.334 304.765 355.505L305.069 302.167L299.861 234.808L293.782 294.197L297.236 356.486C297.277 357.315 297.139 358.144 296.835 358.931L294.957 363.697L276.68 358.627L272.895 351.527C272.549 350.891 272.328 350.187 272.246 349.482L264.8 297.319C264.703 296.559 264.648 295.785 264.648 295.012L263.971 204.112Z" fill="#313F53"/>
<path d="M331.207 136.905L333.721 144.42L352.108 137.264L342.024 107.411C340.242 102.162 336.443 97.8514 331.47 95.4339L312.557 86.2472L308.703 83.0147L306.783 95.4063L296.961 106.983L285.702 93.6518L284.777 82.3516L281.157 85.9986L266.486 92.4361C260.104 95.2405 256.208 102.175 252.948 109.138L240.764 138.245L255.794 146.561L263.723 133.852L264.027 211.793L331.912 207.815L331.207 136.905Z" fill="#02253B"/>
<path d="M289.059 195.561L308.703 200.244L312.558 86.2608L308.703 83.0282C308.703 83.0282 307.419 95.3921 296.864 95.3921C286.31 95.3921 284.777 82.3789 284.777 82.3789L281.157 86.0259L289.059 195.561Z" fill="#3FAFD4"/>
<path d="M277.468 47.4009H316.3C316.3 47.4009 315.278 53.7832 297.582 53.7832C279.899 53.7832 277.468 47.4009 277.468 47.4009Z" fill="#3596AD"/>
<path d="M293.298 26.3478V26.334H300.772C312.21 27.5497 316.202 34.8713 316.202 45.0664L316.23 47.4701H277.55L277.48 45.1493C278.019 33.0616 282.937 27.4391 293.298 26.3478Z" fill="#3FAFD4"/>
<path d="M277.398 89.397L281.156 86.0125L296.973 107.01L312.556 86.2611L322.295 96.5115L312.542 199.733L301.781 204.112L283.325 201.971L275.257 180.738L277.398 125.384" fill="#02253B"/>
<path d="M250.212 180.504C250.212 180.504 248.526 176.387 248.015 169.825C247.518 163.429 245.073 159.423 238.29 159.63C238.29 159.63 238.124 159.63 238.027 159.644C237.944 159.644 237.778 159.685 237.778 159.685C231.092 160.887 229.545 165.308 230.388 171.676C231.258 178.197 230.471 182.576 230.471 182.576C226.672 207.691 237.709 212.498 242.185 213.424C243.567 213.521 244.796 213.534 246.15 212.996C250.695 210.398 258.362 202.151 250.212 180.504Z" fill="white"/>
<path d="M250.294 181.305C250.294 181.305 248.608 177.188 248.097 170.627C247.6 164.23 245.155 160.224 238.372 160.431C238.372 160.431 238.206 160.432 238.109 160.445C238.026 160.445 237.861 160.487 237.861 160.487C231.174 161.689 229.627 166.109 230.47 172.478C231.34 178.998 230.553 183.377 230.553 183.377C226.754 208.492 237.791 213.3 242.267 214.225C243.649 214.322 244.878 214.336 246.232 213.797C250.777 211.2 258.444 202.939 250.294 181.305Z" stroke="#F3754D" stroke-width="0.1217" stroke-miterlimit="10"/>
<path d="M250.349 181.747C250.349 181.747 248.664 177.63 248.153 171.068C247.655 164.672 245.21 160.666 238.427 160.873C238.427 160.873 238.262 160.873 238.165 160.887C238.082 160.887 237.916 160.929 237.916 160.929C231.23 162.131 229.683 166.551 230.525 172.92C231.396 179.44 230.608 183.819 230.608 183.819C226.809 208.934 237.847 213.741 242.323 214.667C243.704 214.764 244.934 214.778 246.288 214.239C250.819 211.642 258.486 203.381 250.349 181.747Z" fill="#F3754D"/>
<path d="M246.261 188.765L236.107 189.829C235.735 189.87 235.403 189.594 235.362 189.221C235.32 188.848 235.596 188.516 235.969 188.475L246.123 187.411C246.496 187.37 246.828 187.646 246.869 188.019C246.91 188.392 246.634 188.723 246.261 188.765Z" fill="white"/>
<path d="M246.58 191.721L236.426 192.785C236.053 192.826 235.721 192.55 235.68 192.177C235.638 191.804 235.915 191.473 236.288 191.431L246.441 190.367C246.814 190.326 247.146 190.602 247.187 190.975C247.215 191.348 246.953 191.68 246.58 191.721Z" fill="white"/>
<path d="M246.883 194.664L236.73 195.728C236.357 195.769 236.025 195.493 235.984 195.12C235.942 194.747 236.218 194.415 236.591 194.374L246.745 193.31C247.118 193.269 247.45 193.545 247.491 193.918C247.533 194.291 247.256 194.636 246.883 194.664Z" fill="white"/>
<path d="M247.2 197.62L237.046 198.684C236.673 198.725 236.341 198.449 236.3 198.076C236.259 197.703 236.535 197.371 236.908 197.33L247.062 196.266C247.434 196.225 247.766 196.501 247.807 196.874C247.835 197.247 247.573 197.579 247.2 197.62Z" fill="white"/>
<path d="M247.338 176.885L246.219 170.06C245.75 165.598 242.199 162.324 238.29 162.739C234.38 163.153 231.59 167.09 232.059 171.552C232.073 171.649 232.087 171.759 232.101 171.856L232.419 178.459C232.474 179.509 233.441 180.255 234.463 180.048L239.851 178.915C239.947 178.888 240.058 178.888 240.155 178.888L245.653 178.874C246.717 178.86 247.518 177.921 247.338 176.885Z" fill="#142F55"/>
<path d="M228.164 183.405C228.164 183.405 227.709 178.97 229.076 172.547C230.402 166.261 229.187 161.744 222.611 160.031C222.611 160.031 222.445 159.975 222.362 159.962C222.28 159.948 222.114 159.934 222.114 159.934C215.358 159.202 212.623 163.015 211.642 169.356C210.634 175.862 208.645 179.841 208.645 179.841C197.911 202.856 207.139 210.592 211.173 212.747C212.471 213.23 213.645 213.589 215.096 213.451C220.194 212.222 229.877 206.461 228.164 183.405Z" fill="white"/>
<path d="M228.026 184.192C228.026 184.192 227.57 179.758 228.938 173.334C230.264 167.049 229.048 162.531 222.472 160.818C222.472 160.818 222.307 160.763 222.224 160.749C222.141 160.735 221.975 160.722 221.975 160.722C215.22 159.989 212.485 163.802 211.504 170.143C210.495 176.65 208.506 180.628 208.506 180.628C197.772 203.643 207 211.379 211.034 213.534C212.333 214.018 213.507 214.377 214.957 214.239C220.055 213.009 229.725 207.249 228.026 184.192Z" stroke="#F3754D" stroke-width="0.1217" stroke-miterlimit="10"/>
<path d="M227.944 184.621C227.944 184.621 227.488 180.186 228.856 173.762C230.182 167.477 228.966 162.96 222.39 161.247C222.39 161.247 222.225 161.191 222.142 161.177C222.059 161.164 221.893 161.15 221.893 161.15C215.138 160.418 212.403 164.23 211.422 170.571C210.413 177.078 208.424 181.057 208.424 181.057C197.69 204.071 206.918 211.808 210.952 213.963C212.251 214.446 213.425 214.805 214.875 214.667C219.973 213.451 229.657 207.691 227.944 184.621Z" fill="#F3754D"/>
<path d="M222.044 190.215L212.001 188.378C211.628 188.309 211.393 187.964 211.462 187.591C211.531 187.218 211.877 186.983 212.25 187.052L222.293 188.889C222.666 188.958 222.901 189.304 222.832 189.677C222.762 190.036 222.417 190.284 222.044 190.215Z" fill="white"/>
<path d="M221.506 193.13L211.463 191.293C211.09 191.224 210.855 190.879 210.924 190.506C210.993 190.133 211.339 189.898 211.712 189.967L221.755 191.804C222.128 191.873 222.363 192.219 222.293 192.592C222.238 192.951 221.879 193.199 221.506 193.13Z" fill="white"/>
<path d="M220.98 196.045L210.937 194.208C210.564 194.139 210.329 193.793 210.398 193.42C210.467 193.047 210.812 192.813 211.185 192.882L221.228 194.719C221.601 194.788 221.836 195.133 221.767 195.506C221.698 195.879 221.339 196.114 220.98 196.045Z" fill="white"/>
<path d="M220.442 198.974L210.398 197.137C210.025 197.067 209.791 196.722 209.86 196.349C209.929 195.976 210.274 195.741 210.647 195.81L220.69 197.648C221.063 197.717 221.298 198.062 221.229 198.435C221.16 198.794 220.815 199.043 220.442 198.974Z" fill="white"/>
<path d="M226.423 179.122L227.28 172.256C228.081 167.85 225.608 163.705 221.74 162.987C217.872 162.282 214.087 165.28 213.286 169.687C213.272 169.784 213.258 169.894 213.231 169.991L211.67 176.415C211.421 177.437 212.139 178.431 213.189 178.514L218.673 178.943C218.77 178.956 218.881 178.97 218.977 178.998L224.255 180.531C225.277 180.835 226.299 180.158 226.423 179.122Z" fill="#142F55"/>
<path d="M253.39 147.211C249.895 148.703 247.353 149.38 243.886 150.954C238.043 153.607 236.578 153.109 240.059 160.404C231.412 159.34 234.409 172.229 231.301 172.132C221.41 171.828 218.702 164.603 219.918 160.141C221.714 153.552 221.203 150.277 228.303 145.456C231.08 143.577 233.042 142.417 235.984 140.331C238.402 138.618 241.427 135.151 243.886 133.465C254.302 126.323 262.688 143.246 253.39 147.211Z" fill="#FCCEB9"/>
<path d="M128.881 203.366C132.086 205.424 139.159 207.994 148.594 200.023C148.594 200.023 159.728 207.262 168.791 209.058C175.173 210.315 177.066 215.923 177.618 219.598C177.881 221.311 176.554 222.858 174.814 222.858H125.399C124.557 222.858 123.866 222.209 123.811 221.366C123.645 218.617 123.41 212.788 124.322 209.969C124.957 208.022 125.634 205.922 126.145 204.333C126.532 203.2 127.872 202.717 128.881 203.366Z" fill="#F3754D"/>
<path d="M124.155 215.55H176.802C177.369 215.55 177.838 215.965 177.921 216.531L178.197 220.233C178.474 222.402 176.774 224.309 174.592 224.309H124.39C123.906 224.309 123.52 223.936 123.492 223.452L123.257 216.476C123.243 215.979 123.644 215.55 124.155 215.55Z" fill="white"/>
<path d="M176.857 216.282H123.823V216.89H176.857V216.282Z" fill="#F3754D"/>
<path d="M151.369 207.165C151.176 206.985 151.162 206.695 151.341 206.502L154.311 203.297C154.491 203.104 154.781 203.09 154.975 203.269C155.168 203.449 155.182 203.739 155.002 203.932L152.032 207.137C151.866 207.331 151.562 207.345 151.369 207.165Z" fill="white"/>
<path d="M153.414 208.187C153.22 208.008 153.207 207.718 153.386 207.524L156.356 204.319C156.536 204.126 156.826 204.112 157.019 204.292C157.213 204.471 157.227 204.761 157.047 204.955L154.077 208.16C153.911 208.353 153.607 208.367 153.414 208.187Z" fill="white"/>
<path d="M155.513 209.362C155.32 209.182 155.306 208.892 155.486 208.698L158.456 205.493C158.636 205.3 158.926 205.286 159.119 205.466C159.312 205.645 159.326 205.936 159.147 206.129L156.177 209.334C155.997 209.527 155.693 209.541 155.513 209.362Z" fill="white"/>
<path d="M157.655 210.481C157.462 210.301 157.448 210.011 157.627 209.818L160.598 206.613C160.777 206.419 161.067 206.405 161.261 206.585C161.454 206.765 161.468 207.055 161.288 207.248L158.318 210.453C158.152 210.646 157.849 210.66 157.655 210.481Z" fill="white"/>
<path d="M70.0584 203.366C73.2634 205.424 80.3364 207.994 89.7717 200.023C89.7717 200.023 100.906 207.262 109.968 209.058C116.351 210.315 118.243 215.923 118.796 219.598C119.058 221.311 117.732 222.858 115.992 222.858H66.5772C65.7345 222.858 65.0438 222.209 64.9885 221.366C64.8227 218.617 64.5879 212.788 65.4997 209.969C66.1351 208.022 66.812 205.922 67.3232 204.333C67.71 203.2 69.05 202.717 70.0584 203.366Z" fill="#F3754D"/>
<path d="M65.3201 215.55H117.967C118.534 215.55 119.003 215.965 119.086 216.531L119.362 220.233C119.639 222.402 117.939 224.309 115.757 224.309H65.555C65.0715 224.309 64.6847 223.936 64.6571 223.452L64.4222 216.476C64.4084 215.979 64.8228 215.55 65.3201 215.55Z" fill="white"/>
<path d="M118.022 216.282H64.9883V216.89H118.022V216.282Z" fill="#F3754D"/>
<path d="M92.5487 207.165C92.3552 206.985 92.3414 206.695 92.521 206.502L95.4911 203.297C95.6707 203.104 95.9608 203.09 96.1542 203.269C96.3476 203.449 96.3614 203.739 96.1818 203.932L93.2117 207.137C93.046 207.331 92.7421 207.345 92.5487 207.165Z" fill="white"/>
<path d="M94.5936 208.187C94.4002 208.008 94.3864 207.718 94.5659 207.524L97.5361 204.319C97.7157 204.126 98.0058 204.112 98.1992 204.292C98.3926 204.471 98.4064 204.761 98.2268 204.955L95.2567 208.16C95.0771 208.353 94.787 208.367 94.5936 208.187Z" fill="white"/>
<path d="M96.6785 209.362C96.4851 209.182 96.4713 208.892 96.6509 208.698L99.621 205.493C99.8006 205.3 100.091 205.286 100.284 205.466C100.478 205.645 100.491 205.936 100.312 206.129L97.3416 209.334C97.1759 209.527 96.8719 209.541 96.6785 209.362Z" fill="white"/>
<path d="M98.8348 210.481C98.6414 210.301 98.6276 210.011 98.8072 209.818L101.777 206.613C101.957 206.419 102.247 206.405 102.44 206.585C102.634 206.765 102.648 207.055 102.468 207.248L99.4979 210.453C99.3321 210.646 99.0282 210.66 98.8348 210.481Z" fill="white"/>
<path d="M416.275 223.259H338.817L338.886 177.671H416.358L416.275 223.259Z" fill="#FBB57F"/>
<path d="M409.133 215.537H385.842V217.54H409.133V215.537Z" fill="#BF6E4D"/>
<path d="M389.392 211.503H408.871C409.023 211.503 409.133 211.572 409.133 211.669V213.326C409.133 213.423 409.009 213.492 408.871 213.492H389.392C389.24 213.492 389.13 213.423 389.13 213.326V211.669C389.116 211.572 389.24 211.503 389.392 211.503Z" fill="#BF6E4D"/>
<path d="M385.98 178.611H369.195V199.83H385.98V178.611Z" fill="#BF6E4D"/>
<path d="M416.358 191.099H338.873V192.439H416.358V191.099Z" fill="#BF6E4D"/>
<path d="M418.375 177.865H335.985V191.099H418.375V177.865Z" fill="#FBB57F"/>
<path d="M270.754 223.259H193.296L193.365 177.671H270.837L270.754 223.259Z" fill="#FBB57F"/>
<path d="M263.612 215.537H240.32V217.54H263.612V215.537Z" fill="#BF6E4D"/>
<path d="M243.87 211.503H263.348C263.5 211.503 263.611 211.572 263.611 211.669V213.326C263.611 213.423 263.487 213.492 263.348 213.492H243.87C243.718 213.492 243.607 213.423 243.607 213.326V211.669C243.594 211.572 243.718 211.503 243.87 211.503Z" fill="#BF6E4D"/>
<path d="M270.822 192.273H193.364V195.05H270.822V192.273Z" fill="#CF967F"/>
<path d="M240.458 178.611H223.674V199.83H240.458V178.611Z" fill="#BF6E4D" stroke="#BF6E4D" stroke-width="1.0906" stroke-miterlimit="51.5747"/>
<path d="M281.514 192.619H182.616L193.295 177.671H270.836L281.514 192.619Z" fill="#FEDAC0"/>
<path d="M193.295 177.671L179.688 186.692L179.55 189.22L189.731 182.658L193.295 177.671Z" fill="#FBBC8C"/>
<path d="M270.836 177.671L284.443 186.692L284.568 189.22L274.4 182.658L270.836 177.671Z" fill="#FDCCA7"/>
<path d="M437 247H422V336H437V247Z" fill="#9B9B9B"/>
<path d="M83 247H68V336H83V247Z" fill="#9B9B9B"/>
<path d="M422 263H83V336H422V263Z" fill="#D0D1D0"/>
<path d="M445.203 246.661H50.3711V223.065H445.203C451.723 223.065 457 228.343 457 234.863C457 241.383 451.723 246.661 445.203 246.661Z" fill="#D0D1D0" stroke="#9B9B9B" stroke-width="2.2866" stroke-miterlimit="51.5747"/>
<path d="M437 247H59V263H437V247Z" fill="#9B9B9B"/>
<path d="M94.7281 240.002C97.5816 240.002 99.8947 237.689 99.8947 234.835C99.8947 231.982 97.5816 229.668 94.7281 229.668C91.8747 229.668 89.5615 231.982 89.5615 234.835C89.5615 237.689 91.8747 240.002 94.7281 240.002Z" fill="#9B9B9B"/>
<path d="M138.204 240.002C141.057 240.002 143.37 237.689 143.37 234.835C143.37 231.982 141.057 229.668 138.204 229.668C135.35 229.668 133.037 231.982 133.037 234.835C133.037 237.689 135.35 240.002 138.204 240.002Z" fill="#9B9B9B"/>
<path d="M181.664 240.002C184.517 240.002 186.83 237.689 186.83 234.835C186.83 231.982 184.517 229.668 181.664 229.668C178.81 229.668 176.497 231.982 176.497 234.835C176.497 237.689 178.81 240.002 181.664 240.002Z" fill="#9B9B9B"/>
<path d="M225.137 240.002C227.991 240.002 230.304 237.689 230.304 234.835C230.304 231.982 227.991 229.668 225.137 229.668C222.284 229.668 219.971 231.982 219.971 234.835C219.971 237.689 222.284 240.002 225.137 240.002Z" fill="#9B9B9B"/>
<path d="M268.612 240.002C271.465 240.002 273.779 237.689 273.779 234.835C273.779 231.982 271.465 229.668 268.612 229.668C265.758 229.668 263.445 231.982 263.445 234.835C263.445 237.689 265.758 240.002 268.612 240.002Z" fill="#9B9B9B"/>
<path d="M312.072 240.002C314.925 240.002 317.239 237.689 317.239 234.835C317.239 231.982 314.925 229.668 312.072 229.668C309.218 229.668 306.905 231.982 306.905 234.835C306.905 237.689 309.218 240.002 312.072 240.002Z" fill="#9B9B9B"/>
<path d="M355.547 240.002C358.4 240.002 360.713 237.689 360.713 234.835C360.713 231.982 358.4 229.668 355.547 229.668C352.693 229.668 350.38 231.982 350.38 234.835C350.38 237.689 352.693 240.002 355.547 240.002Z" fill="#9B9B9B"/>
<path d="M399.007 240.002C401.861 240.002 404.174 237.689 404.174 234.835C404.174 231.982 401.861 229.668 399.007 229.668C396.154 229.668 393.841 231.982 393.841 234.835C393.841 237.689 396.154 240.002 399.007 240.002Z" fill="#9B9B9B"/>
<path d="M442.481 240.002C445.334 240.002 447.648 237.689 447.648 234.835C447.648 231.982 445.334 229.668 442.481 229.668C439.628 229.668 437.314 231.982 437.314 234.835C437.314 237.689 439.628 240.002 442.481 240.002Z" fill="#9B9B9B"/>
<path d="M70.2636 375.729H47V108.695H59.9856C65.6634 108.695 70.2636 113.296 70.2636 118.973V375.729Z" fill="#D0D1D0"/>
<path d="M57.9415 147.887C59.8794 147.887 61.4504 146.316 61.4504 144.378C61.4504 142.44 59.8794 140.869 57.9415 140.869C56.0036 140.869 54.4326 142.44 54.4326 144.378C54.4326 146.316 56.0036 147.887 57.9415 147.887Z" fill="#75BFB8"/>
<path d="M57.9415 183.003C59.8794 183.003 61.4504 181.432 61.4504 179.494C61.4504 177.557 59.8794 175.986 57.9415 175.986C56.0036 175.986 54.4326 177.557 54.4326 179.494C54.4326 181.432 56.0036 183.003 57.9415 183.003Z" fill="#FBB47F"/>
</g>
<defs>
<clipPath id="clip0_3192_2037">
<rect width="504" height="336" fill="white"/>
</clipPath>
</defs>
</svg>
