<svg width="48" height="48" viewBox="0 0 48 48" fill="none" xmlns="http://www.w3.org/2000/svg">
<rect width="48" height="48" fill="white"/>
<path d="M27.0078 6H20.9991C20.633 6 20.2803 6.1332 20.018 6.3885C18.2001 8.15744 11 15.8019 11 25.9143C11 25.9143 11 40 24 40C37 40 37 25.9143 37 25.9143C37 15.6811 29.7946 8.12234 27.98 6.38099C27.7189 6.13039 27.3697 6 27.0078 6Z" fill="white"/>
<path d="M27.0078 6H20.9991C20.633 6 20.2803 6.1332 20.018 6.3885C18.2001 8.15744 11 15.8019 11 25.9143C11 25.9143 11 40 24 40C37 40 37 25.9143 37 25.9143C37 15.6811 29.7946 8.12234 27.98 6.38099C27.7189 6.13039 27.3697 6 27.0078 6Z" fill="#4DB5AB" fill-opacity="0.8"/>
<path fill-rule="evenodd" clip-rule="evenodd" d="M30.8177 26.269L24.3771 32.2802C24.1801 32.464 23.8729 32.4587 23.6824 32.2682L17.7071 26.2929L16.2929 27.7071L22.2682 33.6824C23.2208 34.635 24.7569 34.6615 25.7417 33.7423L32.1823 27.7311L30.8177 26.269Z" fill="#00786B"/>
<path fill-rule="evenodd" clip-rule="evenodd" d="M27.7929 18.7929L24.3536 22.2322C24.1583 22.4275 23.8417 22.4275 23.6464 22.2322L20.2071 18.7929L18.7929 20.2071L22.2322 23.6465C23.2085 24.6228 24.7915 24.6228 25.7678 23.6465L29.2071 20.2071L27.7929 18.7929Z" fill="#00786B"/>
<path fill-rule="evenodd" clip-rule="evenodd" d="M23 44V14H25V44H23Z" fill="#00786B"/>
</svg>
