<svg width="48" height="48" viewBox="0 0 48 48" fill="none" xmlns="http://www.w3.org/2000/svg">
<rect width="48" height="48" fill="white"/>
<path d="M10.957 16H44.82C45.8716 16 46.5968 17.0539 46.221 18.036L41.9985 29.072C41.5543 30.2332 40.4398 31 39.1966 31H14.1211L10.957 16Z" fill="#CFCFCF"/>
<path d="M10.9609 16H44.8212C45.8725 16 46.5976 17.0533 46.2224 18.0353L45.0898 21H12L10.9609 16Z" fill="#545454"/>
<path fill-rule="evenodd" clip-rule="evenodd" d="M10.9609 16L12 21H45.0898L46.2224 18.0353C46.5976 17.0533 45.8725 16 44.8212 16H10.9609ZM12.1901 17L12.8136 20H44.4014L45.2883 17.6784C45.4133 17.3511 45.1716 17 44.8212 17H12.1901Z" fill="#545454"/>
<path fill-rule="evenodd" clip-rule="evenodd" d="M8.68865 12H2V10H8.68865C9.87062 10 10.8911 10.8278 11.1349 11.9843L15.9032 34.6031C15.9519 34.8344 16.156 35 16.3924 35H41V37H16.3924C15.2105 37 14.19 36.1722 13.9462 35.0157L9.1779 12.3969C9.12914 12.1656 8.92505 12 8.68865 12Z" fill="#545454"/>
<path d="M23 38.5C23 40.433 21.433 42 19.5 42C17.567 42 16 40.433 16 38.5C16 36.567 17.567 35 19.5 35C21.433 35 23 36.567 23 38.5Z" fill="#545454"/>
<path d="M21 38.5C21 39.3284 20.3284 40 19.5 40C18.6716 40 18 39.3284 18 38.5C18 37.6716 18.6716 37 19.5 37C20.3284 37 21 37.6716 21 38.5Z" fill="#878787"/>
<path d="M39 38.5C39 40.433 37.433 42 35.5 42C33.567 42 32 40.433 32 38.5C32 36.567 33.567 35 35.5 35C37.433 35 39 36.567 39 38.5Z" fill="#545454"/>
<path d="M37 38.5C37 39.3284 36.3284 40 35.5 40C34.6716 40 34 39.3284 34 38.5C34 37.6716 34.6716 37 35.5 37C36.3284 37 37 37.6716 37 38.5Z" fill="#878787"/>
</svg>
