<svg width="48" height="48" viewBox="0 0 48 48" fill="none" xmlns="http://www.w3.org/2000/svg">
<rect width="48" height="48" fill="white"/>
<path d="M2 36H46V38C46 39.6569 44.6569 41 43 41H5C3.34315 41 2 39.6569 2 38V36Z" fill="#CFCFCF"/>
<path d="M5 12H43V36H5V12Z" fill="#545454"/>
<path d="M37 12C37 19.1797 31.1797 25 24 25C16.8203 25 11 19.1797 11 12H37Z" fill="#CFCFCF"/>
<path d="M34 12C34 17.5228 29.5228 22 24 22C18.4772 22 14 17.5228 14 12H34Z" fill="#878787"/>
<path d="M30 12C30 15.3137 27.3137 18 24 18C20.6863 18 18 15.3137 18 12H30Z" fill="#545454"/>
<path d="M28 12C28 14.2091 26.2091 16 24 16C21.7909 16 20 14.2091 20 12H28Z" fill="#545454"/>
<path d="M40 12L40 14.5C40 15.3284 39.3284 16 38.5 16L35 16L35 12L40 12Z" fill="#CFCFCF"/>
<path d="M28 26.5C28 27.3284 27.3284 28 26.5 28L21.5 28C20.6716 28 20 27.3284 20 26.5L20 23L28 23L28 26.5Z" fill="#CFCFCF"/>
<path d="M37.0814 19.4246C37.6672 20.0104 37.6672 20.9602 37.0814 21.546L33.5459 25.0815C32.9601 25.6673 32.0104 25.6673 31.4246 25.0815L28.9497 22.6066L34.6066 16.9498L37.0814 19.4246Z" fill="#CFCFCF"/>
<path d="M16.5754 25.0815C15.9896 25.6672 15.0399 25.6672 14.4541 25.0815L10.9186 21.5459C10.3328 20.9601 10.3328 20.0104 10.9186 19.4246L13.3935 16.9497L19.0503 22.6066L16.5754 25.0815Z" fill="#CFCFCF"/>
<path d="M9.5 16C8.67157 16 8 15.3284 8 14.5L8 12L13 12L13 16L9.5 16Z" fill="#CFCFCF"/>
<path d="M5 11C5 9.34315 6.34315 8 8 8H40C41.6569 8 43 9.34315 43 11V12H5V11Z" fill="#EDEDED"/>
<path fill-rule="evenodd" clip-rule="evenodd" d="M29 37C29 37.5523 28.5523 38 28 38H20C19.4477 38 19 37.5523 19 37V36H29V37Z" fill="#878787"/>
</svg>
