<svg width="504" height="336" viewBox="0 0 504 336" fill="none" xmlns="http://www.w3.org/2000/svg">
<g clip-path="url(#clip0_2944_1716)">
<rect width="504" height="336" fill="white"/>
<path d="M-9 175H515V336H-9V175Z" fill="#EDEDED"/>
<path d="M505.011 77.6717C501.065 77.6717 499.701 77.6036 499.701 77.6036V43.971C499.701 43.971 499.539 42.7613 500.613 42.7613H506.929L493.198 23.1423C493.198 23.1423 491.903 20.8593 488.673 20.8593H471.772V12.9878H463.888V20.8593H445.777C443.178 20.8593 441.626 23.1509 441.626 23.1509L427.453 42.9402H433.214C433.214 42.9402 434.459 42.9914 434.459 44.1499V60.208L427.495 67.202C427.495 67.202 427.495 74.7157 427.495 77.3054C427.495 78.7451 426.754 79.9378 424.12 79.9378C422.876 79.9378 416.714 79.9378 415.657 79.9378V52.4644C415.657 52.4644 415.529 51.2036 416.612 51.2036C417.532 51.2036 420.592 51.2036 422.527 51.2036L406.128 32.7346C406.128 32.7346 404.228 30.5453 401.177 30.5453H392.381V21.3619H384.506V30.5453H366.088C363.488 30.5453 361.954 32.5046 361.954 32.5046L346.008 51.3654H351.258V77.0584C351.258 79.7503 348.948 79.844 348.948 79.844L338.959 79.8611V73.3782H339.496C342.641 73.3782 345.198 70.8311 345.198 67.6791V60.8299C345.198 57.6864 342.641 55.1308 339.496 55.1308H333.939C330.795 55.1308 328.238 57.6864 328.238 60.8299V67.6791C328.238 70.8311 330.795 73.3782 333.939 73.3782H334.349V79.8696L317.576 79.9037V71.8619H318.172C321.675 71.8619 324.522 69.0251 324.522 65.5153V57.8909C324.522 54.3896 321.675 51.5443 318.172 51.5443H311.984C308.482 51.5443 305.635 54.3896 305.635 57.8909V65.5153C305.635 69.0165 308.482 71.8619 311.984 71.8619H312.445V79.9122L299.942 79.9292C299.942 73.2504 300.01 28.1174 300.01 22.0519C300.01 13.7971 291.078 13.7971 291.078 13.7971H286.774V-14H223.142V69.7918L219.238 69.7577L212.045 61.3325V6.64978H162.118V75.4398C162.118 79.0262 158.555 78.907 158.555 78.907H149.87C149.811 77.9017 149.231 72.5945 143.035 72.5945C143.035 63.9308 135.816 63.7263 135.816 63.7263H134.205L126.287 48.1197C125.001 45.5555 121.574 45.4703 121.574 45.4703H97.5227V34.1402C97.5227 30.8093 96.6278 26.7884 96.6278 26.7884L88.0196 -8.73532L78.653 26.5755C78.653 26.5755 77.6132 30.3663 77.6132 34.8984V65.856C77.6132 65.856 72.3545 66.2564 72.3545 71.6233V84.1546C72.3545 84.1546 69.184 84.1546 60.9339 84.1631V62.704C60.9339 57.8057 60.4481 51.2036 29.5781 51.2036C-3.43963 51.2036 -3.64418 57.8909 -3.64418 62.704V84.1972H-21.0735C-37.3523 84.1972 -38 175 -38 175L512 174.77V83.6946C512 83.6946 511.651 77.6547 505.011 77.6547" fill="#C8E9F4"/>
<path d="M225.412 87H424.731C439.991 87 454.658 92.9412 465.601 103.577L520.387 156.774L552.164 176.083C558.462 179.911 562.302 186.737 562.302 194.101V220.74C562.302 230.403 554.464 238.236 544.795 238.236H525.872C525.368 201.51 513.921 192.209 486.293 192.209C458.666 192.209 447.572 201.342 447.068 238.236H312.771C312.266 201.51 300.819 192.209 273.183 192.209C245.547 192.209 234.462 201.342 233.958 238.236H220.6C213.452 238.236 207.648 232.436 207.648 225.293V104.726C207.648 94.9393 215.593 87 225.386 87" fill="#E8E8E3"/>
<mask id="mask0_2944_1716" style="mask-type:alpha" maskUnits="userSpaceOnUse" x="207" y="87" width="356" height="152">
<path d="M224.908 87H424.713C440.011 87 454.714 92.9593 465.684 103.628L520.604 156.987L552.457 176.354C558.772 180.194 562.62 187.04 562.62 194.427V221.147C562.62 230.84 554.763 238.697 545.07 238.697H526.102C525.596 201.859 514.121 192.53 486.426 192.53C458.731 192.53 447.611 201.69 447.105 238.697H312.48C311.974 201.859 300.499 192.53 272.795 192.53C245.091 192.53 233.98 201.69 233.474 238.697H220.083C212.918 238.697 207.101 232.879 207.101 225.714V104.78C207.101 94.9635 215.064 87 224.881 87" fill="#E8E8E3"/>
</mask>
<g mask="url(#mask0_2944_1716)">
<path d="M450.747 212.271C448.264 219.374 447.093 228.818 447.093 241.26H312.512C312.512 228.836 311.35 219.392 308.858 212.271H450.738H450.747Z" fill="#7C8082"/>
<path d="M236.983 212.262C235.831 219.432 235.288 228.966 235.288 241.526H206.832V212.262H236.983Z" fill="#7C8082"/>
</g>
<path d="M290.708 142.487V128.901H294.317L298.902 139.046L303.416 128.901H306.874V142.487H303.895V134.586L300.454 142.487H297.279L293.794 134.621V142.487H290.708Z" fill="#151415"/>
<path d="M311.708 142.488H308.196L314.227 128.893H318.545L324.611 142.488H321.144L319.955 139.774H312.861L311.708 142.488ZM318.865 137.229L316.373 131.473L313.934 137.229H318.865Z" fill="#151415"/>
<path d="M326.012 142.487V128.901H338.977V131.615H329.142V134.311H337.584V136.962H329.142V139.765H339.003V142.487H326.012Z" fill="#151415"/>
<path d="M341.522 142.479V128.893H352.377C353.822 128.893 354.665 129.735 354.665 131.172V135.739C354.665 136.785 353.743 137.743 351.934 137.743H351.623L354.789 142.479H351.304L348.307 137.832H344.706V142.479H341.522ZM344.706 135.136H351.526V131.624H344.706V135.136Z" fill="#151415"/>
<path d="M360.385 142.487H359.311C357.91 142.487 357.236 141.671 357.236 140.492V138.718H360.393V139.765H367.098V136.98H359.409C358.185 136.98 357.298 136.155 357.298 135.011V130.976C357.298 129.753 358.256 128.901 359.427 128.901H368.224C369.412 128.901 370.228 129.788 370.228 131.074V132.688H367.098V131.615H360.393V134.284H368.064C369.19 134.284 370.228 135.038 370.228 136.475V140.35C370.228 141.671 369.501 142.478 368.126 142.478H360.393L360.385 142.487Z" fill="#151415"/>
<path d="M373.253 142.487V128.91H376.472V134.338L382.609 128.91H386.972L379.647 135.216L387.238 142.487H382.715L376.472 136.306V142.487H373.253Z" fill="#151415"/>
<path d="M252 120.273H274.188C276.13 120.273 277.7 121.851 277.7 123.785V147.587C277.7 149.529 276.121 151.098 274.188 151.098H252C250.058 151.098 248.488 149.52 248.488 147.587V123.785C248.488 121.843 250.067 120.273 252 120.273Z" fill="#00AADC"/>
<path d="M267.759 134.888L273.523 127.651L273.505 127.634L265.178 131.651L263.112 122.632H263.094L261.028 131.651L252.692 127.634L252.674 127.651L258.438 134.888L250.111 138.905L250.12 138.923H259.37L257.312 147.95L257.339 147.959L263.103 140.732L268.867 147.959L268.894 147.941L266.836 138.923H276.086L276.095 138.905L267.759 134.888Z" fill="white"/>
<path d="M464.231 112.657H432.073C429.263 112.657 426.985 114.912 426.985 117.694V151.832C426.985 154.614 429.263 156.869 432.073 156.869H494.102C499.713 156.869 502.505 150.138 498.516 146.233L464.231 112.648V112.657Z" fill="white"/>
<path d="M219.146 173.673H207.648V201.975H219.146V173.673Z" fill="#F2766B"/>
<path d="M312.895 238.236C312.392 202.245 300.957 193.131 273.362 193.131C245.766 193.131 234.685 202.081 234.182 238.236H312.895Z" fill="#414A51"/>
<path d="M526.925 238.236C526.416 202.245 514.853 193.131 486.947 193.131C459.042 193.131 447.836 202.081 447.327 238.236H526.925Z" fill="#414A51"/>
<path d="M456.172 232.479C456.172 249.333 470.037 263 487.127 263C504.216 263 518.081 249.333 518.081 232.479C518.081 215.625 504.225 201.975 487.127 201.975C470.029 201.975 456.172 215.625 456.172 232.479Z" fill="#353535"/>
<path d="M469.438 232.483C469.438 242.01 477.348 249.734 487.126 249.734C496.904 249.734 504.814 242.01 504.814 232.483C504.814 222.956 496.904 215.241 487.126 215.241C477.348 215.241 469.438 222.965 469.438 232.483Z" fill="#BBBFBC"/>
<path d="M243.025 232.479C243.025 249.333 256.495 263 273.096 263C289.697 263 303.166 249.333 303.166 232.479C303.166 215.625 289.697 201.975 273.096 201.975C256.495 201.975 243.025 215.625 243.025 232.479Z" fill="#353535"/>
<path d="M254.522 232.483C254.522 242.01 262.631 249.734 272.653 249.734C282.675 249.734 290.784 242.01 290.784 232.483C290.784 222.956 282.666 215.241 272.653 215.241C262.64 215.241 254.522 222.965 254.522 232.483Z" fill="#BBBFBC"/>
<path d="M66.2598 299.045V215.25L84.3436 220.611L74.467 297.044L66.2598 299.045Z" fill="#956F5B"/>
<path d="M66.2572 299.046V215.251L46.6836 209.445L58.0434 297.044L66.2572 299.046Z" fill="#AC826F"/>
<path d="M74.4658 297.044L78.1571 308.843C78.5628 310.133 77.5984 311.45 76.2416 311.45H66.252V299.053L74.4658 297.051V297.044Z" fill="#002D55"/>
<path d="M58.0456 297.044L54.3543 308.843C53.9486 310.133 54.913 311.45 56.2698 311.45H66.2594V299.053L58.0456 297.051V297.044Z" fill="#002D55"/>
<path d="M101.841 135.965L95.0838 168.774L95.3897 175.146C95.403 175.458 95.3498 175.771 95.2168 176.057L89.8695 188.102C89.4904 188.946 88.5858 189.425 87.6747 189.259L85.992 188.946L85.8789 175.578L89.936 168.674L92.6429 135.699L90.1821 125.523L100.371 123.415L101.901 133.092C102.054 134.043 102.027 135.014 101.834 135.958" fill="#AC826F"/>
<path d="M76.6001 80.6628C80.5109 80.6628 83.5836 77.5036 83.5836 73.1605C83.5836 68.8175 83.5836 60.271 83.5836 57.6838C83.5836 42.9919 78.8548 38.5159 65.9188 38.5159C52.9827 38.5159 48.2539 42.9919 48.2539 57.6838C48.2539 60.271 48.2539 68.6179 48.2539 73.1605C48.2539 77.7031 51.3266 80.6628 55.2374 80.6628H76.6068H76.6001Z" fill="#002D55"/>
<path d="M53.2762 50.5474L53.3294 69.2963C53.3294 73.8588 57.2135 76.9249 57.2135 76.9249V81.7934L65.8863 108.098L74.6123 82.1126V77.457C74.6123 77.457 78.3901 73.8655 78.3901 70.0612C78.3901 69.0835 78.3169 54.7574 78.3169 54.7574H78.3236C73.894 57.6705 68.7329 56.9256 65.2345 54.1322C62.9932 52.3431 59.8273 50.554 53.2695 50.554" fill="#AC826F"/>
<path d="M60.4786 62.2597H59.5475C59.195 62.2597 58.9023 61.967 58.9023 61.6145V60.6901C58.9023 60.3309 59.195 60.0449 59.5475 60.0449H60.4786C60.8378 60.0449 61.1237 60.3309 61.1237 60.6901V61.6145C61.1237 61.9737 60.8378 62.2597 60.4786 62.2597Z" fill="#01243C"/>
<path d="M71.8185 62.2597H70.8873C70.5348 62.2597 70.2422 61.967 70.2422 61.6145V60.6901C70.2422 60.3309 70.5282 60.0449 70.8873 60.0449H71.8185C72.1776 60.0449 72.4636 60.3309 72.4636 60.6901V61.6145C72.4636 61.9737 72.1776 62.2597 71.8185 62.2597Z" fill="#01243C"/>
<path d="M74.6185 77.4505V82.1128L72.8627 87.3471C61.1305 88.0853 57.2197 76.9185 57.2197 76.9185C62.8398 81.9066 67.4355 83.8753 74.6252 77.4505" fill="#956F5B"/>
<path d="M74.6189 82.1127L75.9225 100.376L65.8863 108.098L56.6016 100.376L57.2135 81.7935L65.8863 108.098L74.6189 82.1127Z" fill="white"/>
<path d="M88.341 125.909L100.379 123.415L96.914 101.447C96.0693 96.0728 92.5576 91.497 87.5894 89.2889L80.872 86.2959L74.6201 82.1059L65.9207 102.538L57.2213 81.7866L50.4639 86.9477L42.3631 91.0979C38.5921 93.0267 35.7388 96.3787 34.4286 100.403L27.5781 121.419L40.2747 125.975L43.6334 117.495L49.5129 142.117L43.0016 160.081C41.6914 163.693 41.2657 167.57 41.7579 171.381L48.2957 236.507L83.1333 246.038L90.5424 172.691C91.0811 168.515 90.5158 164.265 88.8996 160.374L81.2378 141.938L86.5319 117.449L88.3476 125.896L88.341 125.909Z" fill="#002D55"/>
<path d="M58.3772 176.349L37.3935 182.654C36.4025 182.94 35.365 182.375 35.079 181.384L32.7578 173.403C32.4718 172.412 33.0371 171.374 34.0281 171.089L55.0118 164.783C56.0028 164.497 57.0403 165.063 57.3263 166.054L59.6475 174.035C59.9335 175.026 59.3681 176.063 58.3772 176.349Z" fill="#8FD6EC"/>
<path d="M48.5076 167.005L51.3874 165.808C51.8796 165.601 52.1789 165.096 52.119 164.564L52.1057 164.424C52.0392 163.859 51.5936 163.413 51.0216 163.36L44.2975 162.728L37.6865 165.468L41.3844 175.205C41.7569 176.196 42.841 176.722 43.8519 176.409L48.0221 175.119C48.9731 174.826 49.5651 173.882 49.4121 172.898L48.5009 167.005H48.5076Z" fill="#AC826F"/>
<path d="M37.6863 165.469L25.5217 133.418C24.8699 131.709 24.83 129.826 25.3954 128.084L27.5636 121.426L37.6397 125.044L34.9793 131.509L44.2973 162.735L37.6863 165.475V165.469Z" fill="#AC826F"/>
<path d="M84.1095 106.029H69.6504V111.616H84.1095V106.029Z" fill="#F1655D"/>
<path d="M136.54 243.597H196.137V184H136.54V243.597Z" fill="#F7BA83"/>
<path d="M159.552 197.566L166.319 193.43L173.095 197.566V184.015L159.552 184.023V197.566Z" fill="#FFECCC"/>
<path d="M103.001 310.384H162.599V250.786H103.001V310.384Z" fill="#F7BA83"/>
<path d="M170.103 310.384H229.7V250.786H170.103V310.384Z" fill="#F7BA83"/>
<path d="M125.997 264.353L132.772 260.217L139.54 264.353V250.802L125.997 250.81V264.353Z" fill="#FFECCC"/>
<path d="M194.28 264.353L201.056 260.217L207.831 264.353L207.823 250.802L194.28 250.81V264.353Z" fill="#FFECCC"/>
</g>
<defs>
<clipPath id="clip0_2944_1716">
<rect width="504" height="336" fill="white"/>
</clipPath>
</defs>
</svg>
