<svg width="48" height="48" viewBox="0 0 48 48" fill="none" xmlns="http://www.w3.org/2000/svg">
<rect width="48" height="48" fill="white"/>
<path d="M4.5 35H43.5C44.3284 35 45 34.3284 45 33.5V27H3V33.5C3 34.3284 3.67157 35 4.5 35Z" fill="#878787"/>
<path d="M31 15.5V27H45V19.8391C45 19.5017 44.8863 19.1742 44.6772 18.9094L41.2504 14.5703C40.966 14.2101 40.5322 14 40.0733 14H32.5C31.6716 14 31 14.6716 31 15.5Z" fill="#CFCFCF"/>
<path d="M29 11.5V27H3V11.5C3 10.6716 3.67157 10 4.5 10H27.5C28.3284 10 29 10.6716 29 11.5Z" fill="#EDEDED"/>
<path fill-rule="evenodd" clip-rule="evenodd" d="M9 22V15H11V22H9Z" fill="#545454"/>
<path fill-rule="evenodd" clip-rule="evenodd" d="M15 22V15H17V22H15Z" fill="#545454"/>
<path fill-rule="evenodd" clip-rule="evenodd" d="M21 22V15H23V22H21Z" fill="#545454"/>
<path d="M16 34.5C16 36.9853 13.9853 39 11.5 39C9.01472 39 7 36.9853 7 34.5C7 32.0147 9.01472 30 11.5 30C13.9853 30 16 32.0147 16 34.5Z" fill="#545454"/>
<path d="M14 34.5C14 35.8807 12.8807 37 11.5 37C10.1193 37 9 35.8807 9 34.5C9 33.1193 10.1193 32 11.5 32C12.8807 32 14 33.1193 14 34.5Z" fill="#EDEDED"/>
<path d="M41 34.5C41 36.9853 38.9853 39 36.5 39C34.0147 39 32 36.9853 32 34.5C32 32.0147 34.0147 30 36.5 30C38.9853 30 41 32.0147 41 34.5Z" fill="#545454"/>
<path d="M39 34.5C39 35.8807 37.8807 37 36.5 37C35.1193 37 34 35.8807 34 34.5C34 33.1193 35.1193 32 36.5 32C37.8807 32 39 33.1193 39 34.5Z" fill="#EDEDED"/>
</svg>
