<svg width="504" height="336" viewBox="0 0 504 336" fill="none" xmlns="http://www.w3.org/2000/svg">
<g clip-path="url(#clip0_4281_3156)">
<path d="M0 0H504V330C504 333.314 501.314 336 498 336H6.00001C2.6863 336 0 333.314 0 330V0Z" fill="white"/>
<path d="M0 0H504V330C504 333.314 501.314 336 498 336H6.00001C2.6863 336 0 333.314 0 330V0Z" fill="#B5E0F5" fill-opacity="0.3"/>
<path d="M462.63 30.3265C462.63 27.3888 460.477 22 450.691 22C440.905 22 438.381 27.2428 438.381 30.5698C430.869 30.5698 426.016 34.4137 425 40.5871H476.23C474.941 35.551 472.07 30.3265 462.63 30.3265Z" fill="white"/>
<path d="M412 59H312C312 54.1763 314.431 49.6938 321.725 49.6938H325.28C325.28 44.8753 330.384 39.0175 343.369 39.0175H356.828C356.828 32.6376 360.062 28 373.578 28C392.13 28 392.655 36.9184 392.655 46.6124C412.268 46.6072 412 59 412 59Z" fill="white"/>
<path d="M0 225H504V336H0V225Z" fill="#F7F7F7"/>
<path d="M0 164H504V225H0V164Z" fill="white"/>
<path d="M0 164H504V225H0V164Z" fill="#0073AB" fill-opacity="0.2"/>
<path d="M45.4736 106.659V91.9855C45.4736 91.7633 45.5176 91.5433 45.6029 91.3382C45.6882 91.1331 45.8133 90.9469 45.9709 90.7903C46.1285 90.6337 46.3155 90.5098 46.5211 90.4258C46.7268 90.3417 46.947 90.2992 47.1692 90.3006H100.765C101.212 90.3006 101.641 90.4781 101.957 90.7941C102.273 91.11 102.45 91.5386 102.45 91.9855V106.659H45.4736Z" fill="white"/>
<path d="M45.4736 106.659V91.9855C45.4736 91.7633 45.5176 91.5433 45.6029 91.3382C45.6882 91.1331 45.8133 90.9469 45.9709 90.7903C46.1285 90.6337 46.3155 90.5098 46.5211 90.4258C46.7268 90.3417 46.947 90.2992 47.1692 90.3006H100.765C101.212 90.3006 101.641 90.4781 101.957 90.7941C102.273 91.11 102.45 91.5386 102.45 91.9855V106.659H45.4736Z" fill="#00243D" fill-opacity="0.6"/>
<path d="M45.4736 88.5623V73.889C45.4764 73.4412 45.6563 73.0126 45.974 72.6969C46.2917 72.3813 46.7213 72.2041 47.1692 72.2041H100.765C101.212 72.2041 101.641 72.3816 101.957 72.6976C102.273 73.0136 102.45 73.4421 102.45 73.889V88.5623H45.4736Z" fill="white"/>
<path d="M45.4736 88.5623V73.889C45.4764 73.4412 45.6563 73.0126 45.974 72.6969C46.2917 72.3813 46.7213 72.2041 47.1692 72.2041H100.765C101.212 72.2041 101.641 72.3816 101.957 72.6976C102.273 73.0136 102.45 73.4421 102.45 73.889V88.5623H45.4736Z" fill="#00243D" fill-opacity="0.6"/>
<path d="M45.4736 70.4766V55.8033C45.4764 55.3555 45.6563 54.9269 45.974 54.6112C46.2917 54.2956 46.7213 54.1184 47.1692 54.1184H100.765C101.212 54.1184 101.641 54.2959 101.957 54.6119C102.273 54.9279 102.45 55.3564 102.45 55.8033V70.4766H45.4736Z" fill="white"/>
<path d="M45.4736 70.4766V55.8033C45.4764 55.3555 45.6563 54.9269 45.974 54.6112C46.2917 54.2956 46.7213 54.1184 47.1692 54.1184H100.765C101.212 54.1184 101.641 54.2959 101.957 54.6119C102.273 54.9279 102.45 55.3564 102.45 55.8033V70.4766H45.4736Z" fill="#00243D" fill-opacity="0.6"/>
<path d="M-13.5488 124.744V110.071C-13.5488 109.624 -13.3713 109.196 -13.0553 108.88C-12.7394 108.564 -12.3108 108.386 -11.864 108.386H41.732C42.1799 108.386 42.6096 108.563 42.9272 108.879C43.2449 109.195 43.4248 109.623 43.4276 110.071V124.744H-13.5488Z" fill="white"/>
<path d="M-13.5488 124.744V110.071C-13.5488 109.624 -13.3713 109.196 -13.0553 108.88C-12.7394 108.564 -12.3108 108.386 -11.864 108.386H41.732C42.1799 108.386 42.6096 108.563 42.9272 108.879C43.2449 109.195 43.4248 109.623 43.4276 110.071V124.744H-13.5488Z" fill="#00243D" fill-opacity="0.6"/>
<path d="M-13.5488 106.659V91.9855C-13.5488 91.5386 -13.3713 91.11 -13.0553 90.7941C-12.7394 90.4781 -12.3108 90.3006 -11.864 90.3006H41.732C41.9542 90.2992 42.1744 90.3417 42.3801 90.4258C42.5857 90.5098 42.7727 90.6337 42.9303 90.7903C43.0879 90.9469 43.213 91.1331 43.2983 91.3382C43.3837 91.5433 43.4276 91.7633 43.4276 91.9855V106.659H-13.5488Z" fill="white"/>
<path d="M-13.5488 106.659V91.9855C-13.5488 91.5386 -13.3713 91.11 -13.0553 90.7941C-12.7394 90.4781 -12.3108 90.3006 -11.864 90.3006H41.732C41.9542 90.2992 42.1744 90.3417 42.3801 90.4258C42.5857 90.5098 42.7727 90.6337 42.9303 90.7903C43.0879 90.9469 43.213 91.1331 43.2983 91.3382C43.3837 91.5433 43.4276 91.7633 43.4276 91.9855V106.659H-13.5488Z" fill="#00243D" fill-opacity="0.6"/>
<path d="M45.4736 124.744V110.071C45.4764 109.623 45.6563 109.195 45.974 108.879C46.2917 108.563 46.7213 108.386 47.1692 108.386H100.765C101.212 108.386 101.641 108.564 101.957 108.88C102.273 109.196 102.45 109.624 102.45 110.071V124.744H45.4736Z" fill="white"/>
<path d="M45.4736 124.744V110.071C45.4764 109.623 45.6563 109.195 45.974 108.879C46.2917 108.563 46.7213 108.386 47.1692 108.386H100.765C101.212 108.386 101.641 108.564 101.957 108.88C102.273 109.196 102.45 109.624 102.45 110.071V124.744H45.4736Z" fill="#00243D" fill-opacity="0.6"/>
<path d="M104.551 106.659V91.9855C104.549 91.7638 104.592 91.5441 104.676 91.339C104.76 91.134 104.884 90.9476 105.041 90.7909C105.198 90.6342 105.384 90.5101 105.589 90.426C105.794 90.3418 106.014 90.2992 106.236 90.3006H159.789C160.236 90.3006 160.664 90.4781 160.98 90.7941C161.296 91.11 161.474 91.5386 161.474 91.9855V106.659H104.551Z" fill="white"/>
<path d="M104.551 106.659V91.9855C104.549 91.7638 104.592 91.5441 104.676 91.339C104.76 91.134 104.884 90.9476 105.041 90.7909C105.198 90.6342 105.384 90.5101 105.589 90.426C105.794 90.3418 106.014 90.2992 106.236 90.3006H159.789C160.236 90.3006 160.664 90.4781 160.98 90.7941C161.296 91.11 161.474 91.5386 161.474 91.9855V106.659H104.551Z" fill="#00243D" fill-opacity="0.6"/>
<path d="M163.532 106.659V91.9854C163.532 91.5386 163.71 91.11 164.026 90.794C164.342 90.478 164.77 90.3005 165.217 90.3005H218.813C219.26 90.3005 219.689 90.478 220.005 90.794C220.32 91.11 220.498 91.5386 220.498 91.9854V106.659H163.532Z" fill="white"/>
<path d="M163.532 106.659V91.9854C163.532 91.5386 163.71 91.11 164.026 90.794C164.342 90.478 164.77 90.3005 165.217 90.3005H218.813C219.26 90.3005 219.689 90.478 220.005 90.794C220.32 91.11 220.498 91.5386 220.498 91.9854V106.659H163.532Z" fill="#00243D" fill-opacity="0.6"/>
<path d="M104.551 88.5623V73.889C104.551 73.4421 104.728 73.0136 105.044 72.6976C105.36 72.3816 105.789 72.2041 106.236 72.2041H159.789C160.236 72.2041 160.664 72.3816 160.98 72.6976C161.296 73.0136 161.474 73.4421 161.474 73.889V88.5623H104.551Z" fill="white"/>
<path d="M104.551 88.5623V73.889C104.551 73.4421 104.728 73.0136 105.044 72.6976C105.36 72.3816 105.789 72.2041 106.236 72.2041H159.789C160.236 72.2041 160.664 72.3816 160.98 72.6976C161.296 73.0136 161.474 73.4421 161.474 73.889V88.5623H104.551Z" fill="#00243D" fill-opacity="0.6"/>
<path d="M104.551 124.744V110.071C104.551 109.624 104.728 109.196 105.044 108.88C105.36 108.564 105.789 108.386 106.236 108.386H159.789C160.236 108.386 160.664 108.564 160.98 108.88C161.296 109.196 161.474 109.624 161.474 110.071V124.744H104.551Z" fill="white"/>
<path d="M104.551 124.744V110.071C104.551 109.624 104.728 109.196 105.044 108.88C105.36 108.564 105.789 108.386 106.236 108.386H159.789C160.236 108.386 160.664 108.564 160.98 108.88C161.296 109.196 161.474 109.624 161.474 110.071V124.744H104.551Z" fill="#00243D" fill-opacity="0.6"/>
<path d="M163.532 124.744V110.071C163.532 109.624 163.71 109.196 164.026 108.88C164.342 108.564 164.77 108.386 165.217 108.386H218.813C219.26 108.386 219.689 108.564 220.005 108.88C220.32 109.196 220.498 109.624 220.498 110.071V124.744H163.532Z" fill="white"/>
<path d="M163.532 124.744V110.071C163.532 109.624 163.71 109.196 164.026 108.88C164.342 108.564 164.77 108.386 165.217 108.386H218.813C219.26 108.386 219.689 108.564 220.005 108.88C220.32 109.196 220.498 109.624 220.498 110.071V124.744H163.532Z" fill="#00243D" fill-opacity="0.6"/>
<path d="M-27.4337 98.9594C-27.4337 103.875 -27.3804 113.782 -27.3804 118.346C-27.3804 124.542 -19.7984 124.691 -19.7984 124.691H219.07C233.476 124.691 237.038 110.828 237.87 105.571C237.999 104.949 238.359 104.4 238.878 104.034C239.396 103.668 240.035 103.512 240.664 103.598L337 103.737L299.133 141.231C309.104 145.176 314.361 153.622 314.361 164.52H-108.83C-108.83 138.063 -130.435 143.299 -131 96.0269H-30.2062C-28.0202 96.0269 -27.455 97.1572 -27.4337 98.9274" fill="white"/>
<path d="M-27.4337 98.9594C-27.4337 103.875 -27.3804 113.782 -27.3804 118.346C-27.3804 124.542 -19.7984 124.691 -19.7984 124.691H219.07C233.476 124.691 237.038 110.828 237.87 105.571C237.999 104.949 238.359 104.4 238.878 104.034C239.396 103.668 240.035 103.512 240.664 103.598L337 103.737L299.133 141.231C309.104 145.176 314.361 153.622 314.361 164.52H-108.83C-108.83 138.063 -130.435 143.299 -131 96.0269H-30.2062C-28.0202 96.0269 -27.455 97.1572 -27.4337 98.9274" fill="#0073AB" fill-opacity="0.4"/>
<path d="M753.108 240.536H351V266.531H753.108V240.536Z" fill="#545454"/>
<path d="M739.446 240.536V144.086C739.45 142.631 739.164 141.19 738.606 139.846C738.047 138.501 737.226 137.279 736.191 136.249C735.155 135.219 733.924 134.402 732.569 133.844C731.214 133.287 729.762 133 728.295 133H372.825C371.355 132.996 369.9 133.28 368.541 133.836C367.183 134.392 365.949 135.208 364.91 136.238C363.871 137.268 363.047 138.492 362.487 139.839C361.926 141.185 361.64 142.629 361.644 144.086V240.536H739.446Z" fill="#F7F7F7"/>
<path d="M385.02 149.273H379.818C379.042 149.273 378.413 149.897 378.413 150.666V222.871C378.413 223.64 379.042 224.264 379.818 224.264H385.02C385.796 224.264 386.425 223.64 386.425 222.871V150.666C386.425 149.897 385.796 149.273 385.02 149.273Z" fill="#E2E2E2"/>
<path d="M403.708 149.273H398.506C397.73 149.273 397.101 149.897 397.101 150.666V222.871C397.101 223.64 397.73 224.264 398.506 224.264H403.708C404.484 224.264 405.113 223.64 405.113 222.871V150.666C405.113 149.897 404.484 149.273 403.708 149.273Z" fill="#E2E2E2"/>
<path d="M422.393 149.273H417.191C416.415 149.273 415.786 149.897 415.786 150.666V222.871C415.786 223.64 416.415 224.264 417.191 224.264H422.393C423.169 224.264 423.798 223.64 423.798 222.871V150.666C423.798 149.897 423.169 149.273 422.393 149.273Z" fill="#E2E2E2"/>
<path d="M441.047 149.273H435.845C435.069 149.273 434.439 149.897 434.439 150.666V222.871C434.439 223.64 435.069 224.264 435.845 224.264H441.047C441.823 224.264 442.452 223.64 442.452 222.871V150.666C442.452 149.897 441.823 149.273 441.047 149.273Z" fill="#E2E2E2"/>
<path d="M459.732 149.273H454.53C453.754 149.273 453.125 149.897 453.125 150.666V222.871C453.125 223.64 453.754 224.264 454.53 224.264H459.732C460.508 224.264 461.137 223.64 461.137 222.871V150.666C461.137 149.897 460.508 149.273 459.732 149.273Z" fill="#E2E2E2"/>
<path d="M478.418 149.273H473.216C472.44 149.273 471.811 149.897 471.811 150.666V222.871C471.811 223.64 472.44 224.264 473.216 224.264H478.418C479.194 224.264 479.823 223.64 479.823 222.871V150.666C479.823 149.897 479.194 149.273 478.418 149.273Z" fill="#E2E2E2"/>
<path d="M497.104 149.273H491.902C491.126 149.273 490.497 149.897 490.497 150.666V222.871C490.497 223.64 491.126 224.264 491.902 224.264H497.104C497.88 224.264 498.509 223.64 498.509 222.871V150.666C498.509 149.897 497.88 149.273 497.104 149.273Z" fill="#E2E2E2"/>
<path d="M482.605 206.746C482.605 208.318 481.975 209.826 480.854 210.938C479.732 212.05 478.212 212.674 476.626 212.674H439.136C437.55 212.674 436.029 212.05 434.908 210.938C433.786 209.826 433.156 208.318 433.156 206.746V166.79C433.156 165.218 433.786 163.71 434.908 162.599C436.029 161.487 437.55 160.862 439.136 160.862H476.656C478.242 160.862 479.762 161.487 480.884 162.599C482.005 163.71 482.635 165.218 482.635 166.79L482.605 206.746Z" fill="#00B2D9"/>
<path d="M465.774 185.434L475.52 173.282L475.49 173.252L461.409 179.981L457.911 164.864H457.881L454.383 179.981L440.272 173.252L440.242 173.282L450.018 185.434L435.907 192.163L435.937 192.192H451.573L448.105 207.339L448.135 207.369L457.881 195.216L467.657 207.369L467.687 207.309L464.219 192.192H479.855L479.885 192.163L465.774 185.434Z" fill="white"/>
<path d="M430.288 271.985C430.288 276.575 428.915 281.063 426.343 284.879C423.77 288.696 420.114 291.671 415.837 293.427C411.56 295.184 406.853 295.643 402.312 294.748C397.771 293.852 393.6 291.642 390.326 288.396C387.052 285.15 384.823 281.015 383.92 276.513C383.016 272.011 383.48 267.345 385.252 263.104C387.023 258.863 390.024 255.238 393.873 252.688C397.723 250.138 402.249 248.777 406.879 248.777C413.087 248.777 419.041 251.222 423.431 255.574C427.821 259.927 430.288 265.83 430.288 271.985Z" fill="#00243F"/>
<path d="M420.092 271.985C420.092 274.576 419.317 277.109 417.865 279.264C416.413 281.418 414.349 283.098 411.934 284.089C409.52 285.081 406.863 285.34 404.299 284.835C401.736 284.329 399.382 283.081 397.533 281.249C395.685 279.417 394.427 277.083 393.917 274.541C393.407 272 393.669 269.366 394.669 266.972C395.669 264.578 397.363 262.532 399.536 261.092C401.709 259.652 404.264 258.884 406.877 258.884C408.614 258.88 410.334 259.216 411.939 259.873C413.544 260.53 415.002 261.495 416.23 262.713C417.458 263.93 418.431 265.376 419.094 266.967C419.756 268.558 420.096 270.264 420.092 271.985Z" fill="#EDEDED"/>
<path d="M483.979 271.985C483.979 276.575 482.606 281.063 480.034 284.879C477.462 288.696 473.806 291.671 469.528 293.427C465.251 295.184 460.544 295.643 456.003 294.748C451.462 293.852 447.291 291.642 444.017 288.396C440.744 285.15 438.514 281.015 437.611 276.513C436.708 272.011 437.171 267.345 438.943 263.104C440.715 258.863 443.715 255.238 447.565 252.688C451.414 250.138 455.94 248.777 460.57 248.777C466.776 248.784 472.726 251.232 477.114 255.583C481.502 259.934 483.971 265.832 483.979 271.985Z" fill="#00243F"/>
<path d="M473.784 271.985C473.784 274.576 473.009 277.109 471.557 279.264C470.105 281.418 468.041 283.098 465.627 284.089C463.212 285.081 460.555 285.34 457.992 284.835C455.428 284.329 453.074 283.081 451.226 281.249C449.378 279.417 448.119 277.083 447.609 274.541C447.1 272 447.361 269.366 448.361 266.972C449.362 264.578 451.055 262.532 453.228 261.092C455.401 259.652 457.956 258.884 460.57 258.884C462.306 258.88 464.026 259.216 465.631 259.873C467.236 260.53 468.695 261.495 469.922 262.713C471.15 263.93 472.123 265.376 472.786 266.967C473.449 268.558 473.788 270.264 473.784 271.985Z" fill="#EDEDED"/>
<path d="M548.733 250.407H500.002C497.74 250.407 495.906 252.225 495.906 254.467V278.595C495.906 280.838 497.74 282.656 500.002 282.656H548.733C550.995 282.656 552.829 280.838 552.829 278.595V254.467C552.829 252.225 550.995 250.407 548.733 250.407Z" fill="#CFCFCF"/>
<path d="M70.8469 190.618L79.6108 238.005C80.1156 240.704 79.9129 243.488 79.0225 246.087C78.132 248.685 76.584 251.011 74.5282 252.837L36.0289 287.145C35.7493 287.424 35.3781 287.592 34.9839 287.619L24.5813 288.709L19.8312 283.473V280.298C19.8313 279.854 19.9915 279.425 20.2825 279.089L54.0079 239.19L41.2303 203.649L35.5064 189.267L70.8469 190.618Z" fill="#00243F"/>
<path d="M35.5306 181.093L41.2544 203.625L47.8332 246.274L48.3082 301.645C48.3223 302.132 48.5169 302.596 48.8545 302.948L55.5284 309.701L60.9434 309.488L67.736 302.19C68.0355 301.865 68.2119 301.446 68.2348 301.005L71.1798 244.97L72.0586 181.969L35.5306 181.093Z" fill="#335066"/>
<path d="M32.9422 175.43L32.6809 190.736C32.6834 194.679 33.6798 198.557 35.5785 202.014L43.1548 215.804H70.9902" fill="#335066"/>
<path d="M54.1498 308.374V315.956C54.1498 316.453 54.3475 316.929 54.6994 317.28C55.0512 317.631 55.5285 317.828 56.0261 317.828H90.8203V315.814C90.8228 314.955 90.5627 314.117 90.0746 313.41C89.5866 312.703 88.8938 312.161 88.089 311.857L66.4287 303.612L54.1498 308.374Z" fill="#CFCFCF"/>
<path d="M19.8564 283.472L14.9401 289.254C14.7774 289.438 14.6532 289.652 14.5745 289.885C14.4959 290.118 14.4645 290.364 14.4822 290.608C14.4999 290.853 14.5663 291.092 14.6776 291.311C14.7888 291.53 14.9426 291.725 15.1301 291.884L41.5879 314.44L42.9417 312.9C43.4978 312.255 43.8453 311.457 43.9385 310.611C44.0318 309.765 43.8664 308.911 43.4642 308.161L32.3253 287.879L19.8564 283.472Z" fill="#CFCFCF"/>
<path d="M100.062 180.684L101.632 185.481C101.819 186.054 101.506 186.669 100.932 186.856L84.2924 192.275C83.7188 192.462 83.1021 192.149 82.9148 191.577L81.3448 186.78C81.1576 186.208 81.4707 185.592 82.0443 185.405L98.684 179.986C99.2576 179.799 99.8744 180.112 100.062 180.684Z" fill="#00243F"/>
<path d="M152.566 252.525L199.775 237.15L215.188 284.247L167.978 299.622L152.566 252.525Z" fill="#FFB67F"/>
<path d="M141.837 219.728L174.71 209.021L185.442 241.816L152.569 252.522L141.837 219.728Z" fill="#FF5E4B"/>
<path d="M174.257 257.623L178.603 252.529L185.158 254.069L181.596 243.17L170.67 246.724L174.257 257.623Z" fill="#FFECCC"/>
<path d="M99.9942 180.43L112.208 176.45L113.934 181.72L101.72 185.701L99.9942 180.43Z" fill="#545454"/>
<path d="M146.928 265.816L199.587 290.402L197.674 294.479L145.015 269.893L146.928 265.816Z" fill="#545454"/>
<path d="M225.13 280.961L225.818 283.046C225.969 283.502 226.027 283.983 225.989 284.461C225.95 284.939 225.817 285.405 225.595 285.831C225.374 286.257 225.07 286.635 224.7 286.942C224.331 287.249 223.903 287.479 223.443 287.619L158.795 308.683C158.338 308.833 157.856 308.891 157.377 308.852C156.897 308.814 156.43 308.681 156.003 308.46C155.576 308.239 155.198 307.936 154.89 307.567C154.582 307.198 154.351 306.772 154.211 306.313L153.522 304.228L225.13 280.961Z" fill="#545454"/>
<path d="M153.784 303.233L159.08 301.527L119.156 179.908C118.935 179.227 118.582 178.596 118.115 178.051C117.649 177.507 117.079 177.06 116.439 176.736C115.799 176.412 115.101 176.218 114.385 176.165C113.669 176.111 112.95 176.2 112.268 176.425L153.784 303.233Z" fill="#545454"/>
<path d="M146.35 309.701C147.07 311.935 148.438 313.905 150.282 315.362C152.125 316.819 154.361 317.697 156.705 317.885C159.049 318.073 161.397 317.562 163.45 316.418C165.503 315.273 167.169 313.546 168.237 311.455C169.305 309.365 169.726 307.005 169.448 304.675C169.17 302.345 168.204 300.15 166.674 298.369C165.143 296.587 163.117 295.299 160.852 294.667C158.587 294.036 156.185 294.089 153.95 294.822C150.971 295.798 148.499 297.91 147.075 300.698C145.651 303.486 145.391 306.722 146.35 309.701Z" fill="#00243F"/>
<path d="M151.266 308.09C151.678 309.34 152.452 310.44 153.49 311.251C154.529 312.063 155.785 312.549 157.1 312.649C158.416 312.748 159.731 312.457 160.88 311.811C162.03 311.165 162.961 310.194 163.558 309.021C164.154 307.847 164.389 306.523 164.232 305.217C164.075 303.91 163.533 302.68 162.675 301.68C161.817 300.68 160.682 299.957 159.412 299.601C158.142 299.244 156.795 299.272 155.541 299.679C153.858 300.232 152.463 301.427 151.662 303.003C150.861 304.58 150.718 306.409 151.266 308.09Z" fill="#CFCFCF"/>
<path d="M95.0492 181.164L97.4242 188.035L101.058 186.85C101.331 186.759 101.557 186.562 101.686 186.305C101.815 186.048 101.837 185.75 101.747 185.476L100.179 180.737C100.136 180.6 100.066 180.473 99.9733 180.363C99.8806 180.253 99.7669 180.162 99.6389 180.096C99.5108 180.03 99.3709 179.99 99.2273 179.978C99.0836 179.966 98.939 179.983 98.8018 180.027L95.0492 181.164Z" fill="#00243F"/>
<path d="M54.5317 59.1665L54.0567 64.9003L63.3668 63.8815C63.6251 62.8198 63.6974 61.7217 63.5806 60.6355C63.2481 59.8062 62.0843 56.963 61.443 57.0104C60.8018 57.0577 54.5317 59.1665 54.5317 59.1665Z" fill="#4D6679"/>
<path d="M82.5094 59.7116C78.4481 57.0105 77.9256 58.9771 77.9256 58.9771L64.2692 65.398L58.1653 73.0984L56.1228 80.2064L51.634 90.75L68.0455 105.322L73.3655 92.9061L86.452 83.8079V82.9786L89.8008 81.6754L87.7108 73.8566C87.7108 65.0663 86.5707 62.5074 82.5094 59.7827" fill="#FFCCB4"/>
<path d="M86.4987 92.053C86.3562 95.1569 84.3612 95.6544 77.5923 95.6307C69.446 95.6307 68.8285 93.4746 68.8997 86.8878C68.8997 84.7791 68.8997 75.4913 68.7572 73.7617C68.6147 72.032 68.7572 70.2787 65.1947 70.3735C62.5109 70.3735 61.7509 71.4634 61.7271 73.6906V76.9129C61.7271 78.6188 60.1833 83.2628 56.9771 81.9122C54.9108 79.5429 53.9845 77.3868 53.9845 67.6961C53.9295 66.2106 54.0976 64.7251 54.4833 63.2892C55.0236 61.3601 56.1627 59.6514 57.7371 58.4083C60.7059 56.039 65.1947 55.2808 70.7523 55.2808C81.1311 55.2808 83.7912 57.4369 85.0024 62.0097H77.5686C76.9672 61.9759 76.3657 62.0752 75.8073 62.3005C75.2489 62.5258 74.7473 62.8715 74.3385 63.3128C73.6043 64.2574 73.2411 65.437 73.3173 66.6299V79.4007C73.3109 79.9688 73.4184 80.5324 73.6334 81.0584C73.8483 81.5845 74.1665 82.0624 74.5692 82.4641C74.9718 82.8657 75.4509 83.1831 75.9782 83.3976C76.5055 83.6121 77.0704 83.7193 77.6398 83.7129H86.4512C86.4512 83.7129 86.76 86.6035 85.5012 87.3143C86.4512 88.4753 86.6175 89.352 86.4987 92.053Z" fill="#00243F"/>
<path d="M83.5306 74.4251H82.6281C82.4643 74.4251 82.3073 74.3602 82.1915 74.2447C82.0756 74.1291 82.0106 73.9724 82.0106 73.8091V72.9087C82.0106 72.7453 82.0756 72.5887 82.1915 72.4731C82.3073 72.3576 82.4643 72.2927 82.6281 72.2927H83.5306C83.6137 72.2895 83.6965 72.3031 83.7742 72.3326C83.8519 72.3621 83.9228 72.407 83.9827 72.4645C84.0426 72.5221 84.0902 72.591 84.1227 72.6674C84.1552 72.7437 84.1719 72.8258 84.1719 72.9087V73.8091C84.1657 73.9746 84.0955 74.1313 83.9759 74.2462C83.8563 74.3611 83.6967 74.4252 83.5306 74.4251Z" fill="#00243F"/>
<path d="M51.7048 90.4182L69.4226 104.848C70.1755 105.459 70.7226 106.286 70.9901 107.217L73.1514 115.557L50.2798 93.759L51.7048 90.4182Z" fill="#00B2D9"/>
<path d="M76.6429 129.631L74.6479 186.14L32.8236 182.846L33.0136 172.658L33.3461 157.636L33.6548 150.055L33.9398 130.034V129.394L34.2011 117.784C34.2724 114.098 35.6335 110.552 38.0486 107.762L50.28 93.6167L68.5915 109.42C71.471 111.889 73.7076 115.017 75.1098 118.537C76.5121 122.057 77.0381 125.864 76.6429 129.631Z" fill="#00243F"/>
<path d="M87.3778 174.483L94.5029 179.032L98.1129 187.964C98.2669 188.338 98.3016 188.75 98.2123 189.145C98.1231 189.539 97.9142 189.896 97.6142 190.168L94.7641 192.75C94.4503 193.044 94.0506 193.23 93.6234 193.281C93.1961 193.332 92.7637 193.246 92.3891 193.035L84.5752 188.865L80.8227 180.596" fill="#FFCCB4"/>
<path d="M87.3779 174.482L80.8228 180.572L48.6174 165.929C47.3089 165.035 46.3192 163.749 45.7911 162.257L36.7898 137.307L52.4175 132L60.2313 155.433L87.3779 174.482Z" fill="#FFCCB4"/>
<path d="M58.2593 65.6585V61.7728C58.266 61.4799 58.2093 61.1889 58.093 60.9198C57.9104 60.4332 57.5873 60.0115 57.1646 59.7079C56.7419 59.4043 56.2385 59.2324 55.718 59.2139H54.6255C54.7521 58.1204 54.9827 57.0415 55.3142 55.9916C55.7095 54.8834 56.3379 53.8724 57.1572 53.0264C57.9765 52.1805 58.9677 51.5192 60.0643 51.087C63.5698 49.8635 67.2805 49.3324 70.9895 49.5233C74.7061 49.3329 78.4245 49.864 81.9384 51.087C83.027 51.4864 84.0157 52.117 84.8358 52.9352C85.656 53.7534 86.2881 54.7397 86.6884 55.8257C87.4223 59.0122 87.7967 62.2706 87.8047 65.5401L58.2593 65.6585Z" fill="#00B2D9"/>
<path d="M98.8018 65.6589H86.9266V62.2944H96.213C98.113 62.2944 98.8018 63.9056 98.8018 65.6589Z" fill="#00B2D9"/>
<path d="M53.9847 65.6351L58.2598 65.6588V62.5312H54.246L53.9847 65.6351Z" fill="#4D6679"/>
<path d="M332.161 251.597H272.563V192H332.161V251.597Z" fill="#F7BA83"/>
<path d="M309.148 205.566L302.381 201.43L295.605 205.566V192.015L309.148 192.023V205.566Z" fill="#FFECCC"/>
<path d="M365.699 318.384H306.102V258.786H365.699V318.384Z" fill="#F7BA83"/>
<path d="M298.597 318.384H239V258.786H298.597V318.384Z" fill="#F7BA83"/>
<path d="M342.703 272.353L335.928 268.217L329.16 272.353V258.802L342.703 258.81V272.353Z" fill="#FFECCC"/>
<path d="M274.42 272.353L267.645 268.217L260.869 272.353L260.877 258.802L274.42 258.81V272.353Z" fill="#FFECCC"/>
</g>
<defs>
<clipPath id="clip0_4281_3156">
<rect width="504" height="336" fill="white"/>
</clipPath>
</defs>
</svg>
