<svg width="48" height="48" viewBox="0 0 48 48" fill="none" xmlns="http://www.w3.org/2000/svg">
<rect width="48" height="48" fill="white"/>
<path d="M6 9C6 7.34315 7.34315 6 9 6H39C40.6569 6 42 7.34315 42 9V39C42 40.6569 40.6569 42 39 42H9C7.34315 42 6 40.6569 6 39V9Z" fill="white"/>
<path d="M6 9C6 7.34315 7.34315 6 9 6H39C40.6569 6 42 7.34315 42 9V39C42 40.6569 40.6569 42 39 42H9C7.34315 42 6 40.6569 6 39V9Z" fill="#FFA201" fill-opacity="0.6"/>
<path fill-rule="evenodd" clip-rule="evenodd" d="M36 32H26V30H36V32Z" fill="white"/>
<path fill-rule="evenodd" clip-rule="evenodd" d="M36 32H26V30H36V32Z" fill="#963700" fill-opacity="0.8"/>
<path fill-rule="evenodd" clip-rule="evenodd" d="M36 37H26V35H36V37Z" fill="white"/>
<path fill-rule="evenodd" clip-rule="evenodd" d="M36 37H26V35H36V37Z" fill="#963700" fill-opacity="0.8"/>
<path d="M19 16V6H29V16L24 13L19 16Z" fill="white"/>
<path d="M19 16V6H29V16L24 13L19 16Z" fill="#963700" fill-opacity="0.8"/>
</svg>
