<svg width="48" height="48" viewBox="0 0 48 48" fill="none" xmlns="http://www.w3.org/2000/svg">
<rect width="48" height="48" fill="white"/>
<path d="M2 36H46V38C46 39.6569 44.6569 41 43 41H5C3.34315 41 2 39.6569 2 38V36Z" fill="#CFCFCF"/>
<path d="M19 36H29V36.5C29 37.3284 28.3284 38 27.5 38H20.5C19.6716 38 19 37.3284 19 36.5V36Z" fill="#878787"/>
<path d="M5 12H43V36H5V12Z" fill="#545454"/>
<path fill-rule="evenodd" clip-rule="evenodd" d="M17.5392 20.8858C14.2059 23.0199 12 26.7527 12 31H10C10 26.0425 12.5775 21.6876 16.4608 19.2015L17.5392 20.8858Z" fill="#0073AB"/>
<path fill-rule="evenodd" clip-rule="evenodd" d="M30.108 20.6684C26.2621 18.3894 21.3051 18.4748 17.5392 20.8858L16.4608 19.2015C20.863 16.3831 26.6316 16.2836 31.1276 18.9478L30.108 20.6684Z" fill="#42B0D5"/>
<path fill-rule="evenodd" clip-rule="evenodd" d="M36 31C36 26.6045 33.6373 22.7598 30.1079 20.6684L31.1275 18.9478C35.2395 21.3845 38 25.8693 38 31H36Z" fill="white"/>
<path fill-rule="evenodd" clip-rule="evenodd" d="M36 31C36 26.6045 33.6373 22.7598 30.1079 20.6684L31.1275 18.9478C35.2395 21.3845 38 25.8693 38 31H36Z" fill="#FA381C" fill-opacity="0.75"/>
<path d="M28 31H20C20 28.7909 21.7909 27 24 27C26.2091 27 28 28.7909 28 31Z" fill="#878787"/>
<path fill-rule="evenodd" clip-rule="evenodd" d="M24.7071 30.2929L17.7071 23.2929L16.2929 24.7071L23.2929 31.7071L24.7071 30.2929Z" fill="#CFCFCF"/>
<path d="M5 11C5 9.34315 6.34315 8 8 8H40C41.6569 8 43 9.34315 43 11V12H5V11Z" fill="#EDEDED"/>
</svg>
