<svg width="504" height="336" viewBox="0 0 504 336" fill="none" xmlns="http://www.w3.org/2000/svg">
<g clip-path="url(#clip0_2936_1392)">
<path d="M0 0H504V330C504 333.314 501.314 336 498 336H6.00001C2.6863 336 0 333.314 0 330V0Z" fill="white"/>
<path d="M0 0H504V330C504 333.314 501.314 336 498 336H6.00001C2.6863 336 0 333.314 0 330V0Z" fill="#B5E0F5" fill-opacity="0.3"/>
<path d="M0 225H504V336H0V225Z" fill="#F7F7F7"/>
<path d="M0 164H504V225H0V164Z" fill="white"/>
<path d="M0 164H504V225H0V164Z" fill="#0073AB" fill-opacity="0.2"/>
<path d="M452.63 30.3265C452.63 27.3888 450.477 22 440.691 22C430.905 22 428.381 27.2428 428.381 30.5698C420.869 30.5698 416.016 34.4137 415 40.5871H466.23C464.941 35.551 462.07 30.3265 452.63 30.3265Z" fill="white"/>
<path d="M402 59H302C302 54.1763 304.431 49.6938 311.725 49.6938H315.28C315.28 44.8753 320.384 39.0175 333.369 39.0175H346.828C346.828 32.6376 350.062 28 363.578 28C382.13 28 382.655 36.9184 382.655 46.6124C402.268 46.6072 402 59 402 59Z" fill="white"/>
<path d="M135.644 80.8417V41.3325H118.945L108.238 80.8417H135.644Z" fill="white"/>
<path d="M135.644 80.8417V41.3325H118.945L108.238 80.8417H135.644Z" fill="#0073AB" fill-opacity="0.4"/>
<path d="M260.474 106.659V91.9855C260.474 91.7633 260.518 91.5433 260.603 91.3382C260.688 91.1331 260.813 90.9469 260.971 90.7903C261.128 90.6337 261.315 90.5098 261.521 90.4258C261.727 90.3417 261.947 90.2992 262.169 90.3006H315.765C316.212 90.3006 316.641 90.4781 316.957 90.7941C317.273 91.11 317.45 91.5386 317.45 91.9855V106.659H260.474Z" fill="white"/>
<path d="M260.474 106.659V91.9855C260.474 91.7633 260.518 91.5433 260.603 91.3382C260.688 91.1331 260.813 90.9469 260.971 90.7903C261.128 90.6337 261.315 90.5098 261.521 90.4258C261.727 90.3417 261.947 90.2992 262.169 90.3006H315.765C316.212 90.3006 316.641 90.4781 316.957 90.7941C317.273 91.11 317.45 91.5386 317.45 91.9855V106.659H260.474Z" fill="#00243D" fill-opacity="0.6"/>
<path d="M260.474 88.5623V73.889C260.476 73.4412 260.656 73.0126 260.974 72.6969C261.292 72.3813 261.721 72.2041 262.169 72.2041H315.765C316.212 72.2041 316.641 72.3816 316.957 72.6976C317.273 73.0136 317.45 73.4421 317.45 73.889V88.5623H260.474Z" fill="white"/>
<path d="M260.474 88.5623V73.889C260.476 73.4412 260.656 73.0126 260.974 72.6969C261.292 72.3813 261.721 72.2041 262.169 72.2041H315.765C316.212 72.2041 316.641 72.3816 316.957 72.6976C317.273 73.0136 317.45 73.4421 317.45 73.889V88.5623H260.474Z" fill="#00243D" fill-opacity="0.6"/>
<path d="M260.474 70.4766V55.8033C260.476 55.3555 260.656 54.9269 260.974 54.6112C261.292 54.2956 261.721 54.1184 262.169 54.1184H315.765C316.212 54.1184 316.641 54.2959 316.957 54.6119C317.273 54.9279 317.45 55.3564 317.45 55.8033V70.4766H260.474Z" fill="white"/>
<path d="M260.474 70.4766V55.8033C260.476 55.3555 260.656 54.9269 260.974 54.6112C261.292 54.2956 261.721 54.1184 262.169 54.1184H315.765C316.212 54.1184 316.641 54.2959 316.957 54.6119C317.273 54.9279 317.45 55.3564 317.45 55.8033V70.4766H260.474Z" fill="#00243D" fill-opacity="0.6"/>
<path d="M201.451 124.744V110.071C201.451 109.624 201.629 109.196 201.945 108.88C202.261 108.564 202.689 108.386 203.136 108.386H256.732C257.18 108.386 257.61 108.563 257.927 108.879C258.245 109.195 258.425 109.623 258.428 110.071V124.744H201.451Z" fill="white"/>
<path d="M201.451 124.744V110.071C201.451 109.624 201.629 109.196 201.945 108.88C202.261 108.564 202.689 108.386 203.136 108.386H256.732C257.18 108.386 257.61 108.563 257.927 108.879C258.245 109.195 258.425 109.623 258.428 110.071V124.744H201.451Z" fill="#00243D" fill-opacity="0.6"/>
<path d="M201.451 106.659V91.9855C201.451 91.5386 201.629 91.11 201.945 90.7941C202.261 90.4781 202.689 90.3006 203.136 90.3006H256.732C256.954 90.2992 257.174 90.3417 257.38 90.4258C257.586 90.5098 257.773 90.6337 257.93 90.7903C258.088 90.9469 258.213 91.1331 258.298 91.3382C258.384 91.5433 258.428 91.7633 258.428 91.9855V106.659H201.451Z" fill="white"/>
<path d="M201.451 106.659V91.9855C201.451 91.5386 201.629 91.11 201.945 90.7941C202.261 90.4781 202.689 90.3006 203.136 90.3006H256.732C256.954 90.2992 257.174 90.3417 257.38 90.4258C257.586 90.5098 257.773 90.6337 257.93 90.7903C258.088 90.9469 258.213 91.1331 258.298 91.3382C258.384 91.5433 258.428 91.7633 258.428 91.9855V106.659H201.451Z" fill="#00243D" fill-opacity="0.6"/>
<path d="M260.474 124.744V110.071C260.476 109.623 260.656 109.195 260.974 108.879C261.292 108.563 261.721 108.386 262.169 108.386H315.765C316.212 108.386 316.641 108.564 316.957 108.88C317.273 109.196 317.45 109.624 317.45 110.071V124.744H260.474Z" fill="white"/>
<path d="M260.474 124.744V110.071C260.476 109.623 260.656 109.195 260.974 108.879C261.292 108.563 261.721 108.386 262.169 108.386H315.765C316.212 108.386 316.641 108.564 316.957 108.88C317.273 109.196 317.45 109.624 317.45 110.071V124.744H260.474Z" fill="#00243D" fill-opacity="0.6"/>
<path d="M319.551 106.659V91.9855C319.549 91.7638 319.592 91.5441 319.676 91.339C319.76 91.134 319.884 90.9476 320.041 90.7909C320.198 90.6342 320.384 90.5101 320.589 90.426C320.794 90.3418 321.014 90.2992 321.236 90.3006H374.789C375.236 90.3006 375.664 90.4781 375.98 90.7941C376.296 91.11 376.474 91.5386 376.474 91.9855V106.659H319.551Z" fill="white"/>
<path d="M319.551 106.659V91.9855C319.549 91.7638 319.592 91.5441 319.676 91.339C319.76 91.134 319.884 90.9476 320.041 90.7909C320.198 90.6342 320.384 90.5101 320.589 90.426C320.794 90.3418 321.014 90.2992 321.236 90.3006H374.789C375.236 90.3006 375.664 90.4781 375.98 90.7941C376.296 91.11 376.474 91.5386 376.474 91.9855V106.659H319.551Z" fill="#00243D" fill-opacity="0.6"/>
<path d="M378.532 106.659V91.9854C378.532 91.5386 378.71 91.11 379.026 90.794C379.342 90.478 379.77 90.3005 380.217 90.3005H433.813C434.26 90.3005 434.689 90.478 435.005 90.794C435.32 91.11 435.498 91.5386 435.498 91.9854V106.659H378.532Z" fill="white"/>
<path d="M378.532 106.659V91.9854C378.532 91.5386 378.71 91.11 379.026 90.794C379.342 90.478 379.77 90.3005 380.217 90.3005H433.813C434.26 90.3005 434.689 90.478 435.005 90.794C435.32 91.11 435.498 91.5386 435.498 91.9854V106.659H378.532Z" fill="#00243D" fill-opacity="0.6"/>
<path d="M319.551 88.5623V73.889C319.551 73.4421 319.728 73.0136 320.044 72.6976C320.36 72.3816 320.789 72.2041 321.236 72.2041H374.789C375.236 72.2041 375.664 72.3816 375.98 72.6976C376.296 73.0136 376.474 73.4421 376.474 73.889V88.5623H319.551Z" fill="white"/>
<path d="M319.551 88.5623V73.889C319.551 73.4421 319.728 73.0136 320.044 72.6976C320.36 72.3816 320.789 72.2041 321.236 72.2041H374.789C375.236 72.2041 375.664 72.3816 375.98 72.6976C376.296 73.0136 376.474 73.4421 376.474 73.889V88.5623H319.551Z" fill="#00243D" fill-opacity="0.6"/>
<path d="M319.551 124.744V110.071C319.551 109.624 319.728 109.196 320.044 108.88C320.36 108.564 320.789 108.386 321.236 108.386H374.789C375.236 108.386 375.664 108.564 375.98 108.88C376.296 109.196 376.474 109.624 376.474 110.071V124.744H319.551Z" fill="white"/>
<path d="M319.551 124.744V110.071C319.551 109.624 319.728 109.196 320.044 108.88C320.36 108.564 320.789 108.386 321.236 108.386H374.789C375.236 108.386 375.664 108.564 375.98 108.88C376.296 109.196 376.474 109.624 376.474 110.071V124.744H319.551Z" fill="#00243D" fill-opacity="0.6"/>
<path d="M378.532 124.744V110.071C378.532 109.624 378.71 109.196 379.026 108.88C379.342 108.564 379.77 108.386 380.217 108.386H433.813C434.26 108.386 434.689 108.564 435.005 108.88C435.32 109.196 435.498 109.624 435.498 110.071V124.744H378.532Z" fill="white"/>
<path d="M378.532 124.744V110.071C378.532 109.624 378.71 109.196 379.026 108.88C379.342 108.564 379.77 108.386 380.217 108.386H433.813C434.26 108.386 434.689 108.564 435.005 108.88C435.32 109.196 435.498 109.624 435.498 110.071V124.744H378.532Z" fill="#00243D" fill-opacity="0.6"/>
<path d="M141.764 80.8523H163.241V62.7026H141.764V80.8523Z" fill="#CFCFCF"/>
<path d="M94.1074 98.4049V81.5135C94.1074 80.7668 94.404 80.0508 94.932 79.5228C95.4599 78.9949 96.176 78.6982 96.9227 78.6982H165.075C165.821 78.6982 166.537 78.9949 167.065 79.5228C167.593 80.0508 167.89 80.7668 167.89 81.5135V98.4369L94.1074 98.4049Z" fill="#CFCFCF"/>
<path d="M166.047 62.6921H141.733V57.7655H167.892V60.8793C167.892 61.1201 167.844 61.3584 167.751 61.5805C167.658 61.8025 167.521 62.0038 167.349 62.1726C167.178 62.3413 166.974 62.4742 166.75 62.5634C166.527 62.6526 166.288 62.6963 166.047 62.6921V62.6921Z" fill="#CFCFCF"/>
<path d="M111.011 70.6045H135.644V49.2983H116.79L111.011 70.6045Z" fill="white"/>
<path d="M111.011 70.6045H135.644V49.2983H116.79L111.011 70.6045Z" fill="#0073AB" fill-opacity="0.4"/>
<path d="M122.646 59.4076L119.244 55.1421L119.254 55.1314L124.17 57.4988L125.375 52.1882H125.386L126.602 57.4988L131.518 55.1314L131.528 55.1421L128.127 59.4076L133.032 61.7749V61.7856H127.583L128.799 67.0962L128.777 67.1068L125.386 62.8413L121.984 67.1068L121.974 67.0962L123.179 61.7856H117.74V61.7749L122.646 59.4076Z" fill="white"/>
<path d="M187.566 98.9594C187.566 103.875 187.62 113.782 187.62 118.346C187.62 124.542 195.202 124.691 195.202 124.691H434.07C448.476 124.691 452.038 110.828 452.87 105.571C452.999 104.949 453.359 104.4 453.878 104.034C454.396 103.668 455.035 103.512 455.664 103.598L552 103.737L514.133 141.231C524.104 145.176 529.361 153.622 529.361 164.52H106.17C106.17 138.063 84.5652 143.299 84 96.0269H184.794C186.98 96.0269 187.545 97.1572 187.566 98.9274" fill="white"/>
<path d="M187.566 98.9594C187.566 103.875 187.62 113.782 187.62 118.346C187.62 124.542 195.202 124.691 195.202 124.691H434.07C448.476 124.691 452.038 110.828 452.87 105.571C452.999 104.949 453.359 104.4 453.878 104.034C454.396 103.668 455.035 103.512 455.664 103.598L552 103.737L514.133 141.231C524.104 145.176 529.361 153.622 529.361 164.52H106.17C106.17 138.063 84.5652 143.299 84 96.0269H184.794C186.98 96.0269 187.545 97.1572 187.566 98.9274" fill="#0073AB" fill-opacity="0.4"/>
<path d="M253.466 257.25H-148.643V283.245H253.466V257.25Z" fill="#545454"/>
<path d="M367.163 220.585L345.368 174.079C344.775 172.813 343.83 171.742 342.644 170.991C341.457 170.24 340.079 169.841 338.671 169.84H260.94C258.984 169.848 257.11 170.622 255.727 171.993C254.344 173.365 253.564 175.222 253.556 177.162V292.019H292.182C292.84 265.787 301.54 259.088 322.079 259.088C342.617 259.088 350.959 265.669 351.646 292.019H360.615C362.576 292.011 364.455 291.233 365.839 289.856C367.223 288.478 368 286.613 368 284.668V223.668C367.95 222.592 367.664 221.54 367.163 220.585V220.585Z" fill="#00B2D9"/>
<path d="M239.804 257.251V160.8C239.807 159.345 239.522 157.905 238.963 156.56C238.405 155.215 237.584 153.993 236.548 152.963C235.512 151.933 234.281 151.116 232.927 150.559C231.572 150.001 230.119 149.714 228.652 149.714H-126.818C-128.287 149.71 -129.743 149.994 -131.101 150.55C-132.46 151.106 -133.694 151.922 -134.733 152.952C-135.772 153.983 -136.595 155.206 -137.156 156.553C-137.716 157.9 -138.003 159.343 -137.999 160.8V257.251H239.804Z" fill="#F7F7F7"/>
<path d="M16.1462 165.987H10.9442C10.1682 165.987 9.53906 166.611 9.53906 167.38V239.585C9.53906 240.354 10.1682 240.978 10.9442 240.978H16.1462C16.9222 240.978 17.5513 240.354 17.5513 239.585V167.38C17.5513 166.611 16.9222 165.987 16.1462 165.987Z" fill="#E2E2E2"/>
<path d="M34.8317 165.987H29.6297C28.8537 165.987 28.2246 166.611 28.2246 167.38V239.585C28.2246 240.354 28.8537 240.978 29.6297 240.978H34.8317C35.6078 240.978 36.2369 240.354 36.2369 239.585V167.38C36.2369 166.611 35.6078 165.987 34.8317 165.987Z" fill="#E2E2E2"/>
<path d="M53.5173 165.987H48.3153C47.5392 165.987 46.9102 166.611 46.9102 167.38V239.585C46.9102 240.354 47.5392 240.978 48.3153 240.978H53.5173C54.2933 240.978 54.9224 240.354 54.9224 239.585V167.38C54.9224 166.611 54.2933 165.987 53.5173 165.987Z" fill="#E2E2E2"/>
<path d="M72.2028 165.987H67.0008C66.2248 165.987 65.5957 166.611 65.5957 167.38V239.585C65.5957 240.354 66.2248 240.978 67.0008 240.978H72.2028C72.9789 240.978 73.6079 240.354 73.6079 239.585V167.38C73.6079 166.611 72.9789 165.987 72.2028 165.987Z" fill="#E2E2E2"/>
<path d="M90.8591 165.987H85.6571C84.8811 165.987 84.252 166.611 84.252 167.38V239.585C84.252 240.354 84.8811 240.978 85.6571 240.978H90.8591C91.6352 240.978 92.2643 240.354 92.2643 239.585V167.38C92.2643 166.611 91.6352 165.987 90.8591 165.987Z" fill="#E2E2E2"/>
<path d="M109.544 165.987H104.342C103.566 165.987 102.937 166.611 102.937 167.38V239.585C102.937 240.354 103.566 240.978 104.342 240.978H109.544C110.32 240.978 110.949 240.354 110.949 239.585V167.38C110.949 166.611 110.32 165.987 109.544 165.987Z" fill="#E2E2E2"/>
<path d="M128.228 165.987H123.026C122.25 165.987 121.621 166.611 121.621 167.38V239.585C121.621 240.354 122.25 240.978 123.026 240.978H128.228C129.004 240.978 129.633 240.354 129.633 239.585V167.38C129.633 166.611 129.004 165.987 128.228 165.987Z" fill="#E2E2E2"/>
<path d="M146.916 165.987H141.714C140.938 165.987 140.309 166.611 140.309 167.38V239.585C140.309 240.354 140.938 240.978 141.714 240.978H146.916C147.692 240.978 148.321 240.354 148.321 239.585V167.38C148.321 166.611 147.692 165.987 146.916 165.987Z" fill="#E2E2E2"/>
<path d="M165.6 165.987H160.398C159.622 165.987 158.993 166.611 158.993 167.38V239.585C158.993 240.354 159.622 240.978 160.398 240.978H165.6C166.376 240.978 167.005 240.354 167.005 239.585V167.38C167.005 166.611 166.376 165.987 165.6 165.987Z" fill="#E2E2E2"/>
<path d="M184.287 165.987H179.085C178.309 165.987 177.68 166.611 177.68 167.38V239.585C177.68 240.354 178.309 240.978 179.085 240.978H184.287C185.063 240.978 185.692 240.354 185.692 239.585V167.38C185.692 166.611 185.063 165.987 184.287 165.987Z" fill="#E2E2E2"/>
<path d="M202.968 165.987H197.766C196.99 165.987 196.361 166.611 196.361 167.38V239.585C196.361 240.354 196.99 240.978 197.766 240.978H202.968C203.744 240.978 204.374 240.354 204.374 239.585V167.38C204.374 166.611 203.744 165.987 202.968 165.987Z" fill="#E2E2E2"/>
<path d="M221.654 165.987H216.452C215.676 165.987 215.047 166.611 215.047 167.38V239.585C215.047 240.354 215.676 240.978 216.452 240.978H221.654C222.43 240.978 223.059 240.354 223.059 239.585V167.38C223.059 166.611 222.43 165.987 221.654 165.987Z" fill="#E2E2E2"/>
<path d="M4.9668 214.864V192.1H11.0657L18.8388 209.114L26.4624 192.1H32.3221V214.864H27.2696V201.615L21.4697 214.864H16.0883L10.1987 201.704V214.864H4.9668Z" fill="black"/>
<path d="M40.5135 214.953H34.5342L44.7289 192.13H52.0536L62.3081 214.953H56.3288L54.3257 210.389H42.3671L40.5135 214.953ZM52.4721 206.061L48.2567 196.398L44.2805 206.061H52.4721Z" fill="black"/>
<path d="M64.6982 214.864V192.1H86.6423V196.635H70.0198V201.17H84.2805V205.616H70.0198V210.329H86.7021V214.864H64.6982Z" fill="black"/>
<path d="M90.9463 214.953V192.16H109.333C109.852 192.109 110.376 192.173 110.867 192.347C111.358 192.522 111.804 192.802 112.173 193.167C112.542 193.533 112.824 193.975 113 194.462C113.176 194.949 113.24 195.469 113.189 195.983V203.66C113.189 205.409 111.635 207.01 108.585 207.01H108.047L113.399 214.953H107.419L102.367 207.158H96.3875V214.953H90.9463ZM96.3277 202.623H107.868V196.695H96.3277V202.623Z" fill="black"/>
<path d="M122.877 214.953H121.054C120.589 215.013 120.117 214.968 119.672 214.823C119.227 214.678 118.821 214.435 118.483 214.114C118.144 213.793 117.883 213.401 117.717 212.967C117.552 212.532 117.486 212.067 117.526 211.604V208.64H122.877V210.389H134.208V205.735H121.203C120.745 205.768 120.285 205.706 119.852 205.554C119.42 205.401 119.024 205.162 118.689 204.85C118.355 204.537 118.089 204.16 117.91 203.741C117.73 203.322 117.64 202.871 117.645 202.415V195.657C117.637 195.191 117.725 194.727 117.903 194.295C118.081 193.863 118.346 193.472 118.681 193.144C119.017 192.817 119.416 192.561 119.855 192.392C120.294 192.223 120.763 192.144 121.233 192.16H136.181C136.654 192.154 137.122 192.246 137.556 192.431C137.991 192.616 138.381 192.889 138.702 193.232C139.023 193.576 139.268 193.982 139.421 194.426C139.574 194.869 139.631 195.339 139.589 195.806V198.503H134.268V196.724H122.937V201.2H135.912C136.403 201.179 136.894 201.26 137.352 201.437C137.809 201.615 138.225 201.885 138.571 202.231C138.917 202.577 139.187 202.991 139.362 203.447C139.538 203.902 139.615 204.389 139.589 204.876V211.397C139.641 211.874 139.584 212.356 139.424 212.808C139.263 213.261 139.004 213.672 138.663 214.013C138.322 214.353 137.909 214.615 137.454 214.777C136.999 214.94 136.513 215 136.032 214.953H122.877Z" fill="black"/>
<path d="M144.643 214.894V192.1H150.084V201.2L160.458 192.1H167.842L155.465 202.682L168.291 214.894H160.637L150.084 204.52V214.894H144.643Z" fill="black"/>
<path d="M294.752 181.697H279.864C278.559 181.697 277.502 182.745 277.502 184.038V199.866C277.502 201.16 278.559 202.208 279.864 202.208H294.752C296.057 202.208 297.114 201.16 297.114 199.866V184.038C297.114 182.745 296.057 181.697 294.752 181.697Z" fill="#CCEDFB"/>
<path d="M179.801 288.699C179.807 293.298 178.436 297.795 175.863 301.621C173.29 305.447 169.629 308.43 165.345 310.193C161.061 311.955 156.346 312.418 151.796 311.522C147.247 310.627 143.068 308.413 139.788 305.161C136.508 301.909 134.275 297.766 133.372 293.255C132.468 288.745 132.935 284.07 134.713 279.822C136.49 275.575 139.499 271.946 143.358 269.395C147.218 266.844 151.753 265.485 156.392 265.491C162.598 265.499 168.547 267.946 172.936 272.297C177.324 276.648 179.793 282.546 179.801 288.699Z" fill="#00243F"/>
<path d="M169.576 288.699C169.576 291.292 168.8 293.826 167.347 295.981C165.894 298.136 163.828 299.815 161.412 300.806C158.995 301.797 156.337 302.055 153.773 301.547C151.209 301.039 148.854 299.788 147.007 297.953C145.16 296.118 143.904 293.78 143.398 291.237C142.891 288.694 143.157 286.059 144.162 283.665C145.167 281.272 146.865 279.228 149.042 277.792C151.219 276.356 153.777 275.592 156.392 275.598C158.127 275.594 159.845 275.931 161.449 276.588C163.052 277.245 164.508 278.211 165.734 279.428C166.959 280.646 167.93 282.092 168.589 283.683C169.248 285.274 169.584 286.979 169.576 288.699" fill="#EDEDED"/>
<path d="M233.494 288.699C233.5 293.297 232.13 297.793 229.558 301.618C226.986 305.443 223.328 308.426 219.045 310.19C214.763 311.953 210.049 312.418 205.501 311.524C200.952 310.631 196.773 308.42 193.492 305.171C190.211 301.923 187.976 297.782 187.069 293.273C186.162 288.765 186.624 284.091 188.398 279.843C190.171 275.595 193.175 271.964 197.03 269.409C200.885 266.854 205.418 265.491 210.055 265.491C216.266 265.491 222.224 267.935 226.618 272.287C231.013 276.638 233.486 282.541 233.494 288.699Z" fill="#00243F"/>
<path d="M223.27 288.699C223.27 291.291 222.495 293.824 221.043 295.978C219.591 298.132 217.528 299.812 215.113 300.803C212.698 301.795 210.041 302.054 207.478 301.549C204.915 301.043 202.56 299.796 200.712 297.963C198.864 296.131 197.606 293.797 197.096 291.255C196.586 288.714 196.848 286.08 197.848 283.686C198.848 281.292 200.542 279.246 202.715 277.806C204.888 276.367 207.443 275.598 210.056 275.598C211.793 275.594 213.513 275.93 215.118 276.587C216.723 277.244 218.181 278.209 219.409 279.427C220.637 280.644 221.61 282.09 222.273 283.681C222.935 285.272 223.274 286.978 223.27 288.699" fill="#EDEDED"/>
<path d="M345.28 288.699C345.28 293.29 343.907 297.777 341.335 301.593C338.763 305.41 335.107 308.385 330.829 310.141C326.552 311.898 321.845 312.358 317.304 311.462C312.763 310.567 308.592 308.356 305.318 305.11C302.044 301.865 299.815 297.729 298.912 293.227C298.008 288.725 298.472 284.059 300.244 279.818C302.016 275.577 305.016 271.952 308.866 269.402C312.715 266.852 317.241 265.491 321.871 265.491C328.077 265.499 334.027 267.946 338.415 272.297C342.803 276.648 345.272 282.546 345.28 288.699Z" fill="#00243F"/>
<path d="M335.085 288.699C335.085 291.291 334.31 293.824 332.858 295.978C331.406 298.132 329.342 299.812 326.927 300.803C324.513 301.795 321.856 302.054 319.293 301.549C316.729 301.043 314.375 299.796 312.527 297.963C310.679 296.131 309.42 293.797 308.91 291.255C308.4 288.714 308.662 286.08 309.662 283.686C310.662 281.292 312.356 279.246 314.529 277.806C316.702 276.367 319.257 275.598 321.871 275.598C323.607 275.594 325.327 275.93 326.932 276.587C328.537 277.244 329.995 278.209 331.223 279.427C332.451 280.644 333.424 282.09 334.087 283.681C334.75 285.272 335.089 286.978 335.085 288.699Z" fill="#EDEDED"/>
<path d="M49.0908 267.121H0.359494C-1.90257 267.121 -3.73633 268.939 -3.73633 271.182V295.309C-3.73633 297.552 -1.90257 299.37 0.359494 299.37H49.0908C51.3529 299.37 53.1867 297.552 53.1867 295.309V271.182C53.1867 268.939 51.3529 267.121 49.0908 267.121Z" fill="#CFCFCF"/>
<path d="M352.871 232.441H310.059C309.314 232.441 308.599 232.148 308.072 231.625C307.545 231.103 307.249 230.394 307.249 229.655V184.483C307.249 183.744 307.545 183.035 308.072 182.512C308.599 181.99 309.314 181.696 310.059 181.696H335.352C335.886 181.693 336.409 181.842 336.86 182.126C337.31 182.41 337.669 182.816 337.893 183.297L355.233 219.785C355.41 220.145 355.502 220.54 355.502 220.941V229.774C355.474 230.462 355.189 231.116 354.704 231.608C354.218 232.101 353.565 232.398 352.871 232.441V232.441Z" fill="#CCEDFB"/>
</g>
<defs>
<clipPath id="clip0_2936_1392">
<rect width="504" height="336" fill="white"/>
</clipPath>
</defs>
</svg>
