<svg width="48" height="48" viewBox="0 0 48 48" fill="none" xmlns="http://www.w3.org/2000/svg">
<rect width="48" height="48" fill="white"/>
<path d="M19.5 7V14.5H28.5V7C28.5 6.17157 27.8284 5.5 27 5.5H21C20.1716 5.5 19.5 6.17157 19.5 7Z" fill="#00243D"/>
<path fill-rule="evenodd" clip-rule="evenodd" d="M21 6C20.4477 6 20 6.44772 20 7V14H28V7C28 6.44772 27.5523 6 27 6H21ZM19 7C19 5.89543 19.8954 5 21 5H27C28.1046 5 29 5.89543 29 7V15H19V7Z" fill="#00243D"/>
<path d="M12.5 16V26.5H35.5V16C35.5 15.1716 34.8284 14.5 34 14.5H14C13.1716 14.5 12.5 15.1716 12.5 16Z" fill="#EDEDED"/>
<path fill-rule="evenodd" clip-rule="evenodd" d="M14 15C13.4477 15 13 15.4477 13 16V26H35V16C35 15.4477 34.5523 15 34 15H14ZM12 16C12 14.8954 12.8954 14 14 14H34C35.1046 14 36 14.8954 36 16V27H12V16Z" fill="#EDEDED"/>
<path d="M23.0966 22.2853L6.6488 27.4793C5.77849 27.7542 5.35327 28.736 5.74821 29.5588L10.5916 39.6491C10.8412 40.1692 11.367 40.5 11.9438 40.5H36.0561C36.633 40.5 37.1588 40.1692 37.4084 39.6491L42.2518 29.5588C42.6467 28.736 42.2215 27.7542 41.3512 27.4793L24.9034 22.2853C24.3154 22.0996 23.6845 22.0996 23.0966 22.2853Z" fill="#42B0D5"/>
<path fill-rule="evenodd" clip-rule="evenodd" d="M24.6023 23.2389C24.2103 23.1151 23.7897 23.1151 23.3977 23.2389L6.94993 28.4329C6.65983 28.5245 6.51809 28.8518 6.64973 29.1261L11.4931 39.2164C11.5763 39.3897 11.7515 39.5 11.9438 39.5H36.0561C36.2484 39.5 36.4237 39.3897 36.5069 39.2164L41.3502 29.1261C41.4819 28.8518 41.3402 28.5245 41.05 28.4329L24.6023 23.2389ZM25.2045 21.3317L24.9034 22.2853L25.2045 21.3317L41.6523 26.5257C43.1028 26.9838 43.8115 28.6202 43.1533 29.9915L38.3099 40.0818C37.8939 40.9486 37.0176 41.5 36.0561 41.5H11.9438C10.9824 41.5 10.1061 40.9486 9.69003 40.0818L4.84669 29.9915C4.18845 28.6202 4.89716 26.9838 6.34767 26.5257L22.7955 21.3317L23.0966 22.2853L22.7955 21.3317C23.5794 21.0841 24.4206 21.0841 25.2045 21.3317Z" fill="#42B0D5"/>
<path d="M14.4689 38.5H3.5V40.5C3.5 42.1569 4.84315 43.5 6.5 43.5H41.5C43.1569 43.5 44.5 42.1569 44.5 40.5V38.5H34.5311C33.3044 38.5 32.2013 37.7531 31.7457 36.6142L31.5 36H29L28.7543 36.6142C28.2987 37.7531 27.1956 38.5 25.9689 38.5H23.0311C21.8044 38.5 20.7013 37.7531 20.2457 36.6142L20 36H17.5L17.2543 36.6142C16.7987 37.7531 15.6956 38.5 14.4689 38.5Z" fill="#B5E0F5"/>
<path fill-rule="evenodd" clip-rule="evenodd" d="M17.1615 35.5H20.3385L20.7099 36.4285C21.0896 37.3776 22.0088 38 23.0311 38H25.9689C26.9912 38 27.9104 37.3776 28.2901 36.4285L28.6615 35.5H31.8385L32.2099 36.4285C32.5896 37.3776 33.5088 38 34.5311 38H45V40.5C45 42.433 43.433 44 41.5 44H6.5C4.567 44 3 42.433 3 40.5V38H14.4689C15.4912 38 16.4104 37.3776 16.7901 36.4285L17.1615 35.5ZM17.8385 36.5L17.7186 36.7999C17.187 38.1287 15.9001 39 14.4689 39H4V40.5C4 41.8807 5.11929 43 6.5 43H41.5C42.8807 43 44 41.8807 44 40.5V39H34.5311C33.0999 39 31.813 38.1287 31.2814 36.7999L31.1615 36.5H29.3385L29.2186 36.7999C28.687 38.1287 27.4001 39 25.9689 39H23.0311C21.5999 39 20.313 38.1287 19.7814 36.7999L19.6615 36.5H17.8385Z" fill="#B5E0F5"/>
</svg>
