<svg xmlns="http://www.w3.org/2000/svg" width="20" height="20" viewBox="0 0 20 20"><path fill-rule="evenodd" d="M9.5 4a6.5 6.5 0 0 0-3.788 11.783l.472-1.415A2 2 0 0 1 8.08 13h2.838a2 2 0 0 1 1.897 1.368l.472 1.415A6.5 6.5 0 0 0 9.5 4zm2.91 12.313l-.543-1.63A1 1 0 0 0 10.92 14H8.08a1 1 0 0 0-.949.684l-.543 1.63c.876.439 1.865.686 2.911.686a6.473 6.473 0 0 0 2.91-.687zM2 10.5a7.5 7.5 0 1 1 15 0 7.5 7.5 0 0 1-15 0zM7.5 8a1 1 0 0 1 1-1h2a1 1 0 0 1 1 1v2.5a1 1 0 0 1-1 1h-2a1 1 0 0 1-1-1V8zm1 0v2.5h2V8h-2z" clip-rule="evenodd"/></svg>