<svg width="504" height="336" viewBox="0 0 504 336" fill="none" xmlns="http://www.w3.org/2000/svg">
<g clip-path="url(#clip0_2950_2011)">
<path d="M0 0H504V326C504 329.314 501.314 332 498 332H6.00001C2.6863 332 0 329.314 0 326V0Z" fill="white"/>
<path d="M0 0H504V326C504 329.314 501.314 332 498 332H6.00001C2.6863 332 0 329.314 0 326V0Z" fill="#B5E0F5" fill-opacity="0.3"/>
<path d="M-17 251H520V336H-17V251Z" fill="#F7F7F7"/>
<path d="M0 188H504V251H0V188Z" fill="white"/>
<path d="M0 188H504V251H0V188Z" fill="#0073AB" fill-opacity="0.2"/>
<path d="M162.426 297.887V308.339C162.426 309.513 163.378 310.466 164.553 310.466H195.486C197.685 310.466 198.438 307.53 196.505 306.472L173.403 293.828L162.426 297.887Z" fill="#00243D"/>
<path d="M168.031 301.787L162.426 297.887L158.588 286.289L170.712 282.75L173.404 293.822L182.144 298.607L171.903 302.296C170.607 302.761 169.167 302.573 168.037 301.787H168.031Z" fill="#FBD4C2"/>
<path d="M133.651 297.887V308.339C133.651 309.513 134.604 310.466 135.778 310.466H166.712C168.91 310.466 169.664 307.53 167.731 306.472L144.629 293.828L133.651 297.887Z" fill="#00243D"/>
<path d="M153.369 298.613L143.128 302.302C141.832 302.767 140.392 302.578 139.262 301.792L133.657 297.893L133.574 285.198L148.529 281.997L146.452 293.456" fill="#FBD4C2"/>
<path d="M143.604 212.044L103.875 210.847L95.7998 207.197L55.5615 206.029L66.5059 226.262L71.7455 236.298L135.002 240.202" fill="#878787"/>
<path d="M152.296 218.585L174.788 288.621L158.582 291.523L135.004 240.202L152.296 218.585Z" fill="#545454"/>
<path d="M42.1484 309.469L62.6304 247.613C63.7603 244.207 66.9394 241.908 70.5285 241.908H98.9972" stroke="#CFCFCF" stroke-width="6.78" stroke-miterlimit="10" stroke-linecap="round"/>
<path d="M54.0119 134.381L71.7744 136.646L83.7323 150.05C85.7595 152.32 86.906 155.245 86.9669 158.291L87.1995 169.895L95.7955 207.197L56.748 208.233L54.0064 206.029L51.7078 200.678C51.7078 200.678 52.1343 197.472 51.2204 192.52C50.5059 188.637 45.1777 165.093 43.0564 155.732C42.5026 153.284 42.9844 150.725 44.3857 148.643L54.0064 134.375" fill="#FB6A55"/>
<path d="M86.2965 109.373L88.8 117.792L85.9144 119.149C84.1697 129.174 80.4588 129.362 74.1447 128.775L71.9016 135.001L74.3663 147.125L54.0117 134.38L60.3701 119.731L69.6418 96.0363L79.9714 90.3259C84.5352 92.9291 87.1772 98.1521 86.5624 106.338L86.3021 109.373H86.2965Z" fill="#FBD4C2"/>
<path d="M50.208 112.918C49.2886 123.414 54.6389 127.247 59.1972 127.646C62.8084 127.961 66.3643 125.065 67.1452 116.186C64.1654 115.926 63.6503 114.912 63.8829 112.215L64.0934 109.928L85.816 97.9087C84.9575 89.7171 76.8988 87.8173 69.2887 87.1527C52.7558 85.7071 50.2689 94.6686 49.0947 108.072" fill="#03253D"/>
<path d="M124.875 208.61L124.687 209.385L98.7604 209.457L64.6146 195.666C62.3105 194.736 60.2446 192.542 59.3584 190.587L72.629 184.439L102.554 203.038L109.561 201.781C110.292 201.653 111.04 201.709 111.743 201.952L123.502 206.057C124.554 206.422 125.152 207.53 124.881 208.604L124.875 208.61Z" fill="#FBD4C2"/>
<path d="M129.814 309.469L109.332 247.613C108.202 244.207 105.023 241.908 101.434 241.908H87.1943" stroke="#CFCFCF" stroke-width="6.78" stroke-miterlimit="10" stroke-linecap="round"/>
<path d="M131.874 211.877L145.854 212.054C153.857 212.154 159.85 219.421 158.426 227.297L146.928 290.797L131.287 288.532V240.102L108.501 238.103L116.754 216.114L131.874 211.877Z" fill="#878787"/>
<path d="M129.377 234.115L131.293 240.108H59.9716C52.0347 240.108 45.2776 234.348 44.0148 226.511L31.0986 146.178L34.1172 145.574C37.7561 144.843 41.3562 147.003 42.4252 150.559L62.7188 217.926L122.946 228.754C125.887 229.286 128.324 231.324 129.371 234.121L129.377 234.115Z" fill="#49C4E3"/>
<path d="M98.6357 209.446H155.667V211.269C155.667 211.811 155.224 212.249 154.687 212.249H99.6216C99.0788 212.249 98.6413 211.806 98.6413 211.269V209.446H98.6357Z" fill="#CFCFCF"/>
<path d="M158.919 208.128L172.589 157.123C172.888 155.998 172.223 154.841 171.099 154.536L170.428 154.359L155.668 209.446L156.333 209.624C157.457 209.928 158.615 209.258 158.919 208.128Z" fill="#CFCFCF"/>
<path d="M80.1396 109.978C80.2061 109.319 80.7932 108.837 81.4523 108.903L83.1693 109.075C83.8284 109.141 84.3103 109.728 84.2438 110.387" fill="#03253D"/>
<path d="M460.425 45.6767C460.425 42.2626 457.923 36 446.55 36C435.176 36 432.243 42.093 432.243 45.9594C423.513 45.9594 417.873 50.4267 416.692 57.6012H476.23C474.731 51.7485 471.395 45.6767 460.425 45.6767Z" fill="white"/>
<path d="M411.584 78.9999H295.368C295.368 73.394 298.194 68.1846 306.67 68.1846H310.801C310.801 62.5847 316.733 55.777 331.824 55.777H347.465C347.465 48.3625 351.224 42.9729 366.932 42.9729C388.492 42.9729 389.103 53.3376 389.103 64.6035C411.895 64.5975 411.584 78.9999 411.584 78.9999Z" fill="white"/>
<path d="M353.068 224.576H429.599V148.045H353.068V224.576Z" fill="#F7BA83"/>
<path d="M382.617 165.465L391.308 160.155L400.008 165.465V148.064L382.617 148.074V165.465Z" fill="#FFECCC"/>
<path d="M310 310.339H386.531V233.808H310V310.339Z" fill="#F7BA83"/>
<path d="M396.167 310.339H472.698V233.808H396.167V310.339Z" fill="#F7BA83"/>
<path d="M339.529 251.229L348.23 245.918L356.92 251.229V233.828L339.529 233.838V251.229Z" fill="#FFECCC"/>
<path d="M427.215 251.229L435.915 245.918L444.616 251.229L444.606 233.828L427.215 233.838V251.229Z" fill="#FFECCC"/>
<path d="M262.32 37.8301H122.12C117.083 37.8301 113 41.9132 113 46.9501V114.22C113 119.257 117.083 123.34 122.12 123.34H262.32C267.357 123.34 271.44 119.257 271.44 114.22V46.9501C271.44 41.9132 267.357 37.8301 262.32 37.8301Z" fill="white"/>
<path d="M131.389 96.73H163.689V64.43H131.389V96.73Z" fill="#FB6A55"/>
<path d="M177.47 68.6602L252.13 68.6602V64.4302L177.47 64.4302V68.6602Z" fill="#A0D7EA"/>
<path d="M177.47 82.6997L252.13 82.6997V78.4697L177.47 78.4697V82.6997Z" fill="#A0D7EA"/>
<path d="M177.04 96.73L251.7 96.73V92.5L177.04 92.5V96.73Z" fill="#A0D7EA"/>
</g>
<defs>
<clipPath id="clip0_2950_2011">
<rect width="504" height="336" fill="white"/>
</clipPath>
</defs>
</svg>
