<svg xmlns="http://www.w3.org/2000/svg" width="20" height="20" viewBox="0 0 20 20"><path fill-rule="evenodd" d="M15.5 2A2.5 2.5 0 0 0 13 4.5c0 .95.413 2.114.928 3.181A19.751 19.751 0 0 0 15.263 10h.474a19.75 19.75 0 0 0 1.335-2.319C17.587 6.614 18 5.45 18 4.5A2.5 2.5 0 0 0 15.5 2zm0 9H12a1 1 0 1 0 0 2h4.5a2.5 2.5 0 0 1 0 5H4.257a.98.98 0 0 1-.816-.431 20.753 20.753 0 0 1-1.413-2.453C1.498 14.02 1 12.686 1 11.5a3.5 3.5 0 1 1 7 0c0 1.185-.498 2.52-1.028 3.616A20.317 20.317 0 0 1 5.928 17H16.5a1.5 1.5 0 0 0 0-3H12a2 2 0 1 1 0-4h2.072c-.3-.48-.686-1.143-1.044-1.884C12.498 7.02 12 5.686 12 4.5a3.5 3.5 0 1 1 7 0c0 1.185-.498 2.52-1.028 3.616a20.749 20.749 0 0 1-1.413 2.453.98.98 0 0 1-.816.431H15.5zM4.737 17a19.75 19.75 0 0 0 1.335-2.319C6.587 13.614 7 12.45 7 11.5a2.5 2.5 0 0 0-5 0c0 .95.413 2.114.928 3.181A19.75 19.75 0 0 0 4.263 17h.474zM14.5 4.5a1 1 0 1 1 2 0 1 1 0 0 1-2 0zm-10 6a1 1 0 1 0 0 2 1 1 0 0 0 0-2z" clip-rule="evenodd"/></svg>