<svg width="504" height="336" viewBox="0 0 504 336" fill="none" xmlns="http://www.w3.org/2000/svg">
<g clip-path="url(#clip0_2994_2134)">
<path d="M0 0H504V336H0V0Z" fill="white"/>
<path d="M0 0H504V336H0V0Z" fill="#B5E0F5" fill-opacity="0.3"/>
<path d="M527.795 273.582C523.727 273.582 522.321 273.512 522.321 273.512V238.811C522.321 238.811 522.154 237.563 523.261 237.563H529.772L515.617 217.321C515.617 217.321 514.282 214.966 510.952 214.966H493.528V206.845H485.401V214.966H466.73C464.05 214.966 462.451 217.33 462.451 217.33L447.84 237.748H453.779C453.779 237.748 455.062 237.801 455.062 238.996V255.564L447.883 262.78C447.883 262.78 447.883 270.532 447.883 273.204C447.883 274.689 447.119 275.92 444.404 275.92C443.121 275.92 436.769 275.92 435.679 275.92V247.574C435.679 247.574 435.547 246.274 436.663 246.274C437.612 246.274 440.766 246.274 442.761 246.274L425.856 227.218C425.856 227.218 423.897 224.959 420.751 224.959H411.684V215.485H403.565V224.959H384.578C381.898 224.959 380.316 226.981 380.316 226.981L363.877 246.441H369.29V272.949C369.29 275.727 366.909 275.823 366.909 275.823L356.611 275.841V269.152H357.164C360.407 269.152 363.043 266.524 363.043 263.272V256.205C363.043 252.962 360.407 250.325 357.164 250.325H351.436C348.194 250.325 345.558 252.962 345.558 256.205V263.272C345.558 266.524 348.194 269.152 351.436 269.152H351.858V275.85L334.566 275.885V267.588H335.181C338.792 267.588 341.727 264.661 341.727 261.04V253.173C341.727 249.561 338.792 246.625 335.181 246.625H328.802C325.191 246.625 322.256 249.561 322.256 253.173V261.04C322.256 264.652 325.191 267.588 328.802 267.588H329.277V275.894L316.387 275.911C316.387 269.02 316.457 222.454 316.457 216.196C316.457 207.68 307.249 207.68 307.249 207.68H302.812V179H237.213V265.452L233.189 265.417L225.774 256.724V200.305H174.303V271.279C174.303 274.979 170.631 274.856 170.631 274.856H161.677C161.616 273.819 161.018 268.343 154.631 268.343C154.631 259.405 147.189 259.194 147.189 259.194H145.528L137.365 243.092C136.039 240.446 132.507 240.358 132.507 240.358H107.712V228.668C107.712 225.232 106.789 221.083 106.789 221.083L97.9148 184.432L88.2586 220.864C88.2586 220.864 87.1867 224.775 87.1867 229.451V261.391C87.1867 261.391 81.7655 261.804 81.7655 267.342V280.271C81.7655 280.271 78.497 280.271 69.9918 280.279V258.139C69.9918 253.085 69.491 246.274 37.6669 246.274C3.6286 246.274 3.41773 253.173 3.41773 258.139V280.315H-14.5503C-31.3322 280.315 -32 374 -32 374L535 373.763V279.796C535 279.796 534.64 273.564 527.795 273.564" fill="#C8E9F4"/>
<path d="M300 136.716V70.276C300 63.5185 305.518 58.0001 312.276 58.0001H420.041C426.672 58.0001 432.064 63.3923 432.064 70.0236V136.704C432.064 140.983 428.6 144.448 424.32 144.448H307.744C303.465 144.391 300 140.915 300 136.704V136.716Z" fill="#FCFCFC"/>
<mask id="mask0_2994_2134" style="mask-type:alpha" maskUnits="userSpaceOnUse" x="300" y="68" width="132" height="76">
<rect x="300" y="68.0001" width="132" height="76" fill="#00786B"/>
</mask>
<g mask="url(#mask0_2994_2134)">
<path d="M351.296 78.266L331.402 62.6514H302.398V75.2945L311.818 86.2626V95.4295L330.346 116.069C330.909 116.689 331.712 117.056 332.572 117.056H342.794L339.513 126.349C339.203 127.278 339.33 128.265 339.823 129.011L345.468 137.443V155.719L349.437 158.943V149.031L365.855 131.489C367.53 129.687 367.461 126.9 365.729 125.167L354.508 114.509C353.889 113.889 353.086 113.58 352.214 113.58H334.557L330.587 101.923H336.416C337.712 101.923 338.894 101.361 339.697 100.374L352.03 85.1956C353.705 83.0273 353.395 79.9296 351.284 78.2546L351.296 78.266Z" fill="#00786B"/>
<path d="M402.293 88.1788L410.726 102.738L400.434 127.095C399.872 128.334 398.886 129.321 397.646 129.883L391.325 132.418C389.283 133.221 386.988 131.741 386.988 129.504V108.428H375.217C373.978 108.428 372.796 107.866 371.993 106.88L367.094 100.501C366.039 99.1354 366.039 97.2194 367.152 95.9115L373.416 87.9837C374.345 86.802 375.768 86.1251 377.259 86.1251H398.518C400.125 86.0678 401.559 86.8709 402.304 88.1673L402.293 88.1788Z" fill="#00786B"/>
</g>
<path d="M300.287 68.5371V62.5253C300.287 59.68 302.582 57.3854 305.427 57.3854H427.269C430.114 57.3854 432.409 59.68 432.409 62.5253V68.5371" fill="#004D40"/>
<path d="M380 112C382.209 112 384 110.209 384 108C384 105.791 382.209 104 380 104C377.791 104 376 105.791 376 108C376 110.209 377.791 112 380 112Z" fill="#004D40"/>
<path d="M343 100C345.761 100 348 97.7614 348 95C348 92.2386 345.761 90 343 90C340.239 90 338 92.2386 338 95C338 97.7614 340.239 100 343 100Z" fill="#004D40"/>
<path d="M47.874 151.906V87.3941C47.874 80.0858 53.8285 74.1314 61.1367 74.1314H166.986C174.179 74.1314 179.996 79.9596 179.996 87.1417V151.906C179.996 156.679 176.095 160.58 171.322 160.58H56.5475C51.7174 160.58 47.874 156.736 47.874 151.906Z" fill="#FCFCFC"/>
<path d="M47.874 85.3518V77.665C47.874 74.8197 50.1686 72.5251 53.0139 72.5251H174.856C177.701 72.5251 179.996 74.8197 179.996 77.665V85.283" fill="white"/>
<path d="M47.874 85.3518V77.665C47.874 74.8197 50.1686 72.5251 53.0139 72.5251H174.856C177.701 72.5251 179.996 74.8197 179.996 77.665V85.283" fill="#FA381C" fill-opacity="0.75"/>
<path d="M55.8012 81.9444C56.9987 81.9444 57.9696 80.9736 57.9696 79.776C57.9696 78.5785 56.9987 77.6077 55.8012 77.6077C54.6036 77.6077 53.6328 78.5785 53.6328 79.776C53.6328 80.9736 54.6036 81.9444 55.8012 81.9444Z" fill="white"/>
<path d="M62.5024 81.9444C63.6999 81.9444 64.6707 80.9736 64.6707 79.776C64.6707 78.5785 63.6999 77.6077 62.5024 77.6077C61.3048 77.6077 60.334 78.5785 60.334 79.776C60.334 80.9736 61.3048 81.9444 62.5024 81.9444Z" fill="white"/>
<path d="M69.2485 81.9444C70.446 81.9444 71.4168 80.9736 71.4168 79.776C71.4168 78.5785 70.446 77.6077 69.2485 77.6077C68.0509 77.6077 67.0801 78.5785 67.0801 79.776C67.0801 80.9736 68.0509 81.9444 69.2485 81.9444Z" fill="white"/>
<path d="M168.167 109.02H123.48V112.806H168.167V109.02Z" fill="#FFBAA6"/>
<path d="M168.167 117.946H123.48V121.732H168.167V117.946Z" fill="white"/>
<path d="M168.167 117.946H123.48V121.732H168.167V117.946Z" fill="#FA381C" fill-opacity="0.75"/>
<path d="M168.167 126.872H123.48V130.658H168.167V126.872Z" fill="white"/>
<path d="M168.167 126.872H123.48V130.658H168.167V126.872Z" fill="#FA381C" fill-opacity="0.75"/>
<path d="M150.935 135.741H123.48V139.527H150.935V135.741Z" fill="#FFBAA6"/>
<path d="M105.388 144.472H66.036C65.4164 144.472 64.9805 143.978 64.9805 143.416V95.3906H67.1488V142.303H105.445V144.472H105.388Z" fill="white"/>
<path d="M105.388 144.472H66.036C65.4164 144.472 64.9805 143.978 64.9805 143.416V95.3906H67.1488V142.303H105.445V144.472H105.388Z" fill="#FA381C" fill-opacity="0.75"/>
<path d="M70.1199 100.473L66.896 96.4461H65.1636L61.9397 100.473L60.2646 99.1078L63.4885 95.0808C63.9245 94.5875 64.544 94.2777 65.2209 94.2777H66.9533C67.6302 94.2777 68.2498 94.5875 68.6857 95.0808L71.9096 99.1078L70.1084 100.473H70.1199Z" fill="white"/>
<path d="M70.1199 100.473L66.896 96.4461H65.1636L61.9397 100.473L60.2646 99.1078L63.4885 95.0808C63.9245 94.5875 64.544 94.2777 65.2209 94.2777H66.9533C67.6302 94.2777 68.2498 94.5875 68.6857 95.0808L71.9096 99.1078L70.1084 100.473H70.1199Z" fill="#FA381C" fill-opacity="0.75"/>
<path d="M101.602 149.187L100.236 147.512L104.263 144.288V142.556L100.236 139.332L101.602 137.657L105.629 140.88C106.122 141.316 106.432 141.936 106.432 142.613V144.345C106.432 145.022 106.122 145.642 105.629 146.078L101.602 149.175V149.187Z" fill="white"/>
<path d="M101.602 149.187L100.236 147.512L104.263 144.288V142.556L100.236 139.332L101.602 137.657L105.629 140.88C106.122 141.316 106.432 141.936 106.432 142.613V144.345C106.432 145.022 106.122 145.642 105.629 146.078L101.602 149.175V149.187Z" fill="#FA381C" fill-opacity="0.75"/>
<path d="M83.0159 141.993H73.7803V126.815H82.9471V141.993H83.0045H83.0159Z" fill="#FFBAA6"/>
<path d="M94.3504 141.993H85.1836V130.647H94.3504V141.993V141.993Z" fill="#FFBAA6"/>
<path d="M173.578 113.775V49.2627C173.578 41.9544 179.533 36 186.841 36H292.69C299.883 36 305.7 41.8282 305.7 49.0102V113.775C305.7 118.547 301.799 122.448 297.026 122.448H182.252C177.479 122.448 173.578 118.547 173.578 113.775V113.775Z" fill="white"/>
<path d="M173.578 47.1516V41.1399C173.578 38.2946 175.873 36 178.718 36H300.56C303.405 36 305.7 38.2946 305.7 41.1399V47.1516" fill="#0073AB"/>
<path d="M181.505 43.7442C182.703 43.7442 183.674 42.7733 183.674 41.5758C183.674 40.3782 182.703 39.4074 181.505 39.4074C180.308 39.4074 179.337 40.3782 179.337 41.5758C179.337 42.7733 180.308 43.7442 181.505 43.7442Z" fill="white"/>
<path d="M188.264 43.7442C189.462 43.7442 190.432 42.7733 190.432 41.5758C190.432 40.3782 189.462 39.4074 188.264 39.4074C187.067 39.4074 186.096 40.3782 186.096 41.5758C186.096 42.7733 187.067 43.7442 188.264 43.7442Z" fill="white"/>
<path d="M194.953 43.7442C196.15 43.7442 197.121 42.7733 197.121 41.5758C197.121 40.3782 196.15 39.4074 194.953 39.4074C193.755 39.4074 192.784 40.3782 192.784 41.5758C192.784 42.7733 193.755 43.7442 194.953 43.7442Z" fill="white"/>
<path d="M194.894 77.2794C191.108 81.3063 192.416 87.7541 197.429 90.0487C200.47 91.414 204.187 90.6682 206.481 88.2474C210.267 84.2205 208.96 77.7727 203.946 75.4781C200.906 74.1128 197.188 74.8586 194.894 77.2794ZM196.19 87.2608C199.414 90.4847 204.806 89.4291 206.596 85.2186C207.583 82.8667 207.032 80.0787 205.231 78.2775C202.007 75.0536 196.615 76.1091 194.825 80.3197C193.838 82.6716 194.332 85.4595 196.19 87.2608Z" fill="white"/>
<path d="M217.45 81.1801L213.916 82.4765C213.606 82.6027 213.423 82.9125 213.423 83.2223C213.365 84.5876 213.113 85.884 212.619 87.1919C212.493 87.5017 212.562 87.8114 212.803 88.0638L215.534 90.5993L213.618 93.4446L210.21 91.8958C209.9 91.7696 209.591 91.8384 209.338 92.0793C208.352 93.0086 207.227 93.7544 205.988 94.3051C205.862 94.3624 205.736 94.4886 205.678 94.6148C205.621 94.7411 205.552 94.9246 205.552 95.1082L205.678 98.8254L202.328 99.5023L201.032 95.9687C200.906 95.6589 200.596 95.4753 200.286 95.4753C198.921 95.418 197.624 95.1656 196.317 94.6722C196.007 94.546 195.64 94.6149 195.445 94.8558L192.909 97.5863L190.064 95.6704L191.613 92.2629C191.739 91.9531 191.67 91.6434 191.429 91.391C190.5 90.4043 189.754 89.28 189.203 88.0409C189.077 87.7311 188.767 87.5476 188.458 87.5476L184.74 87.6738L184.063 84.3237L187.597 83.0272C187.907 82.901 188.09 82.5913 188.09 82.2815C188.148 80.9162 188.4 79.6198 188.894 78.3119C189.02 78.0021 188.951 77.6924 188.71 77.4399L185.979 74.9044L187.895 72.0592L191.303 73.608C191.613 73.7342 191.922 73.6654 192.175 73.4244C193.161 72.4951 194.286 71.7494 195.525 71.1987C195.835 71.0725 196.018 70.7627 196.018 70.453L195.892 66.7357L199.242 66.0588L200.539 69.5925C200.665 69.9023 200.975 70.0858 201.284 70.0858C202.65 70.1432 203.946 70.3956 205.254 70.8889C205.564 71.0151 205.931 70.9463 206.126 70.7054L208.661 67.9748L211.507 69.8908L209.958 73.2982C209.832 73.608 209.9 73.9178 210.141 74.1702C211.071 75.1568 211.816 76.2812 212.367 77.5203C212.493 77.83 212.803 78.0136 213.113 78.0136L216.83 77.8874L217.45 81.1686V81.1801ZM196.19 87.2493C199.414 90.4731 204.806 89.4176 206.596 85.2071C207.583 82.8551 207.032 80.0672 205.231 78.266C202.007 75.0421 196.615 76.0976 194.825 80.3082C193.838 82.6601 194.332 85.448 196.19 87.2493Z" fill="#0073AB"/>
<path d="M225.939 63.7644C223.151 66.6097 224.08 71.325 227.74 72.8739C229.782 73.7458 232.261 73.241 233.809 71.6348C236.597 68.7895 235.668 64.0742 232.008 62.5253C229.966 61.7222 227.488 62.2156 225.939 63.7644ZM227.671 71.0153C229.473 72.2543 232.008 71.761 233.19 69.9024C234.429 68.0438 233.936 65.5656 232.077 64.3839C230.218 63.1449 227.74 63.6382 226.559 65.4968C225.319 67.3554 225.813 69.8335 227.671 71.0153Z" fill="white"/>
<path d="M226.559 65.4967C227.799 63.6955 230.277 63.2021 232.078 64.3838C233.879 65.6229 234.372 68.1011 233.191 69.9023C231.952 71.7035 229.474 72.1969 227.672 71.0152C225.814 69.8335 225.32 67.3553 226.559 65.4967Z" fill="white"/>
<path d="M221.419 63.9479C221.671 64.2003 221.729 64.5101 221.602 64.8198C221.293 65.6229 221.167 66.4949 221.109 67.3553C221.109 67.6651 220.926 67.9749 220.616 68.1011L217.954 69.2139L218.321 71.0726H221.235C221.545 71.0726 221.855 71.2561 221.981 71.5659C222.348 72.369 222.853 73.1147 223.404 73.7343C223.587 73.9867 223.656 74.2964 223.53 74.6062L222.417 77.2679L223.966 78.3234L226.008 76.2813C226.26 76.0288 226.57 75.9715 226.88 76.0977C227.683 76.4074 228.555 76.591 229.416 76.591C229.725 76.591 229.978 76.7746 230.092 77.0843L231.205 79.7461L233.064 79.3789V76.4648C233.064 76.2812 233.121 76.155 233.19 76.0288C233.259 75.9026 233.374 75.8453 233.5 75.7764C234.303 75.4093 235.049 74.9045 235.668 74.285C235.921 74.1014 236.23 74.0326 236.54 74.1588L239.202 75.2716L240.257 73.7228L238.215 71.6806C237.963 71.4282 237.905 71.1184 238.032 70.8087C238.341 70.0056 238.468 69.1336 238.525 68.2732C238.525 67.9634 238.709 67.711 239.018 67.5963L241.68 66.4834L241.313 64.6248H238.399C238.089 64.6248 237.779 64.4412 237.653 64.1315C237.286 63.3284 236.781 62.5826 236.23 61.9631C236.047 61.7107 235.978 61.4009 236.104 61.0912L237.217 58.4294L235.668 57.3739L233.626 59.4161C233.374 59.6685 233.064 59.7259 232.823 59.5997C232.02 59.2899 231.148 59.1063 230.287 59.1063C229.978 59.1063 229.668 58.9228 229.542 58.613L228.429 55.9513L226.57 56.3184V59.2325C226.57 59.5423 226.387 59.8521 226.077 59.9783C225.274 60.3454 224.585 60.8502 223.909 61.4009C223.656 61.5845 223.346 61.7107 223.037 61.5845L220.375 60.4716L219.319 62.0205L221.43 63.9364L221.419 63.9479ZM232.077 64.4412C233.878 65.6803 234.372 68.1584 233.19 69.9597C231.951 71.7609 229.473 72.2543 227.672 71.0726C225.813 69.8335 225.377 67.3553 226.559 65.5541C227.798 63.6955 230.276 63.2022 232.077 64.4412Z" fill="#B5E0F5"/>
<path d="M293.871 70.889H249.185V74.6751H293.871V70.889Z" fill="white"/>
<path d="M293.871 70.889H249.185V74.6751H293.871V70.889Z" fill="#0073AB" fill-opacity="0.4"/>
<path d="M293.871 79.8148H249.185V83.6009H293.871V79.8148Z" fill="#0073AB"/>
<path d="M293.871 88.672H249.185V92.458H293.871V88.672Z" fill="#0073AB"/>
<path d="M276.639 97.5978H249.185V101.384H276.639V97.5978Z" fill="white"/>
<path d="M276.639 97.5978H249.185V101.384H276.639V97.5978Z" fill="#0073AB" fill-opacity="0.4"/>
<path d="M367.302 228.007L351.871 242.452L351.125 248.831L349.462 262.587L347.787 248.831L347.098 242.635L333.778 228.065L334.398 227.755H366.809L367.302 228.007Z" fill="#FF5E4B"/>
<path d="M359.249 209.662H345.803C345.803 213.322 359.249 213.506 359.249 209.662Z" fill="white"/>
<path d="M317.108 170.253C316.546 179.052 322.133 185.064 324.921 186.739C326.218 187.485 328.707 168.268 328.707 168.268L368.552 170.689C368.552 170.689 369.298 185.558 369.356 188.541C369.356 188.541 380.14 177.63 377.352 167.775C382.435 162.818 379.578 157.116 376.239 154.26C379.085 147.812 368.862 129.971 347.672 132.564C335.648 134.056 335.648 140.309 329.086 139.941C315.823 139.264 312.416 166.214 317.12 170.241" fill="#00243D"/>
<path d="M324.727 157.231C324.727 164.356 324.543 179.167 324.543 179.167H323.121C321.078 179.167 319.403 180.773 319.403 185.179C319.403 191.317 320.642 191.868 324.302 191.868V197.008C324.302 205.624 330.257 209.96 330.257 209.96V216.534L330.566 227.067L348.728 251.55L366.075 233.147L366.018 217.464V210.523C366.018 210.523 371.72 205.624 371.72 198.442C371.72 196.583 371.593 195.78 371.593 193.543C375.689 193.543 376.114 191.501 376.114 185.73C376.114 179.959 374.072 179.156 372.833 179.156H371.593V165.021C363.356 170.471 353.684 169.048 347.11 163.839C342.9 160.558 336.945 157.208 324.738 157.208" fill="#FFCEB8"/>
<path d="M338.608 184.066H336.876C336.199 184.066 335.637 183.504 335.637 182.827V181.095C335.637 180.418 336.199 179.856 336.876 179.856H338.608C339.285 179.856 339.847 180.418 339.847 181.095V182.827C339.847 183.504 339.285 184.066 338.608 184.066Z" fill="black"/>
<path d="M359.431 184.066H357.699C357.022 184.066 356.46 183.504 356.46 182.827V181.095C356.46 180.418 357.022 179.856 357.699 179.856H359.431C360.108 179.856 360.671 180.418 360.671 181.095V182.827C360.671 183.504 360.108 184.066 359.431 184.066Z" fill="black"/>
<path d="M366.064 210.591L366.006 217.533C366.006 217.533 366.569 232.344 366.064 232.401C341.89 235.373 330.303 217.59 330.303 217.59C351.998 221.617 366.247 212.817 366.064 210.591" fill="#E8BAA5"/>
<path d="M325.783 156.371V192.877C325.783 196.847 328.697 197.283 332.907 197.283H361.968C365.754 197.283 369.712 195.172 369.712 190.778L369.896 161.522H372.626V196.847C372.626 207.758 372.626 221.261 349.199 221.261C323.855 221.261 323.477 211.28 323.477 197.466V156.382L325.783 156.371ZM355.394 204.35H341.569C341.569 208.067 355.394 208.32 355.394 204.35Z" fill="#00243D"/>
<path d="M287.358 253.42C289.963 250.448 293.118 247.97 296.778 246.169L331.609 228.007L330.623 227.078L325.483 230.669L292.705 247.397C291.408 248.016 290.227 248.693 289.045 249.439C288.425 251.114 287.806 252.41 287.37 253.408L287.358 253.42Z" fill="#FF5E4B"/>
<path d="M274.28 345.008L295.47 366.818L304.27 358.511L385.945 360.68L386.749 364.707L415.5 350.515C423.37 345.375 426.777 343.516 425.848 337.505L415.752 265.122C415.19 261.657 413.951 258.365 412.161 255.45C410.979 253.099 409.557 250.861 407.882 248.819C404.784 245.159 400.883 242.188 396.351 240.203L373.796 230.29L365.122 228.065L351.733 242.624L350.988 248.762L349.312 262.518L347.637 248.762L346.892 242.383L325.323 230.612L296.193 244.746C292.533 246.548 290.307 247.351 287.703 250.322C284.169 254.349 281.255 262.346 280.142 267.669L270.471 332.743C269.725 337.206 271.09 341.795 274.257 345.019L274.28 345.008Z" fill="#00243D"/>
<path d="M325.414 230.669L343.266 285.819C346.926 286.749 350.827 287.552 354.853 288.24L373.818 230.29L366.567 226.504L349.645 244.723L330.623 227.067L325.414 230.658V230.669Z" fill="white"/>
<path d="M342.269 257.688L345.986 264.571L342.579 283.903L343.198 285.762C344.495 294.745 345.986 318.299 350.013 318.976L356.392 283.215L352.985 264.503L356.702 257.504C357.505 256.013 357.264 254.154 356.082 252.915C354.843 251.619 353.352 250.07 352.113 248.762C350.621 247.213 349.508 246.031 349.508 246.031L346.973 248.819L342.877 253.099C341.695 254.338 341.454 256.196 342.257 257.688H342.269Z" fill="white"/>
<path d="M342.269 257.688L345.986 264.571L342.579 283.903L343.198 285.762C344.495 294.745 345.986 318.299 350.013 318.976L356.392 283.215L352.985 264.503L356.702 257.504C357.505 256.013 357.264 254.154 356.082 252.915C354.843 251.619 353.352 250.07 352.113 248.762C350.621 247.213 349.508 246.031 349.508 246.031L346.973 248.819L342.877 253.099C341.695 254.338 341.454 256.196 342.257 257.688H342.269Z" fill="#4DB5AB" fill-opacity="0.8"/>
<path d="M397.42 336.334H303.469C299.132 336.334 295.599 332.801 295.599 328.464V263.642C295.599 259.305 299.132 255.772 303.469 255.772H397.42C401.757 255.772 405.291 259.305 405.291 263.642V328.464C405.234 332.801 401.757 336.334 397.42 336.334Z" fill="white"/>
<path d="M397.42 336.334H303.469C299.132 336.334 295.599 332.801 295.599 328.464V263.642C295.599 259.305 299.132 255.772 303.469 255.772H397.42C401.757 255.772 405.291 259.305 405.291 263.642V328.464C405.234 332.801 401.757 336.334 397.42 336.334Z" fill="#00243D" fill-opacity="0.3"/>
<path d="M160.54 223.109L193.318 238.907C201.499 243.186 207.384 251.114 209.117 260.476L221.886 328.154C222.689 332.56 221.45 337.138 218.421 340.361L198.091 362.24L181.478 366.761L129.736 374.138L110.278 360.129L79.0484 354.117C73.289 352.936 66.1529 336.025 67.0822 329.944L82.4559 260.476C83.6949 252.169 88.7774 244.987 96.0283 241.327L128.129 223.109H160.54V223.109Z" fill="#00243D"/>
<path d="M125.709 181.347C139.029 181.221 142.436 185.191 142.505 195.229C142.562 205.016 139.35 209.111 125.961 209.295C112.515 209.421 109.233 205.394 109.165 195.596C109.038 185.5 112.262 181.462 125.709 181.347Z" fill="#00243D"/>
<path d="M162.767 181.347C176.087 181.347 179.437 185.374 179.437 195.356C179.437 205.337 176.156 209.238 162.767 209.238C149.378 209.238 146.097 205.142 146.097 195.356C146.097 185.317 149.378 181.347 162.767 181.347Z" fill="#00243D"/>
<path d="M173.171 182.896C173.791 180.108 174.227 177.01 174.227 173.603C174.227 149.12 164.808 142.374 143.617 142.374C124.09 142.374 114.671 149.062 114.361 168.463C114.419 173.855 114.981 178.812 115.91 182.965L173.171 182.907V182.896Z" fill="#00243D"/>
<path d="M121.246 162.566C139.832 176.322 167.287 171.928 167.287 171.928L167.229 185.064L171.073 185.191C171.073 191.569 171.015 194.3 167.356 194.3V199.383C167.356 207.93 160.541 214.068 160.541 214.068V223.177L144.743 260.304L128.13 223.177V214.068C128.13 214.068 121.315 207.93 121.315 199.383V194.3C117.655 194.3 117.598 191.638 117.598 185.191L121.441 185.064L121.315 164.608V162.566H121.258H121.246Z" fill="#FFCEB8"/>
<path d="M135.312 186.177H133.579C132.902 186.177 132.397 185.615 132.397 184.996V183.263C132.397 182.586 132.96 182.081 133.579 182.081H135.312C135.988 182.081 136.493 182.644 136.493 183.263V184.996C136.493 185.615 136 186.177 135.312 186.177Z" fill="black"/>
<path d="M155.882 186.177H154.149C153.473 186.177 152.968 185.615 152.968 184.996V183.263C152.968 182.586 153.53 182.081 154.149 182.081H155.882C156.559 182.081 157.064 182.644 157.064 183.263V184.996C157.121 185.615 156.57 186.177 155.882 186.177Z" fill="black"/>
<path d="M160.54 214.068V223.177L154.219 237.863C133.763 235.878 128.061 213.999 128.061 213.999C138.593 223.361 147.083 226.023 160.529 214.056L160.54 214.068Z" fill="#E8BAA5"/>
<path d="M151.488 207H138.042C137.985 210.592 151.488 210.844 151.488 207Z" fill="white"/>
<path d="M119.629 227.95L119.996 298.784H166.782L170.133 227.767L160.53 223.12L158.855 227.09C153.462 239.733 135.679 239.916 130.035 227.342L128.119 223.131L119.629 227.962V227.95Z" fill="white"/>
<path d="M119.629 227.95L119.996 298.784H166.782L170.133 227.767L160.53 223.12L158.855 227.09C153.462 239.733 135.679 239.916 130.035 227.342L128.119 223.131L119.629 227.962V227.95Z" fill="#FA381C" fill-opacity="0.75"/>
<path d="M191.827 336.403H97.8753C93.5385 336.403 90.0049 332.87 90.0049 328.533V263.711C90.0049 259.374 93.5385 255.841 97.8753 255.841H191.827C196.163 255.841 199.697 259.374 199.697 263.711V328.533C199.697 332.87 196.163 336.403 191.827 336.403Z" fill="#F2F2F2"/>
</g>
<defs>
<clipPath id="clip0_2994_2134">
<rect width="504" height="336" fill="white"/>
</clipPath>
</defs>
</svg>
