<svg xmlns="http://www.w3.org/2000/svg" width="20" height="20" viewBox="0 0 20 20"><path fill-rule="evenodd" d="M9.5 4a6.5 6.5 0 0 0-6.464 7.188l.736-.446a1 1 0 0 1 1.225.148l1.37 1.37a1 1 0 0 1 .242 1.026l-.85 2.53A6.5 6.5 0 1 0 9.5 4zM4.935 15.127l.726-2.16-1.37-1.37-1.056.64a6.495 6.495 0 0 0 1.7 2.89zM2 10.5a7.5 7.5 0 1 1 15 0 7.5 7.5 0 0 1-15 0zm5.665-2.947A1 1 0 0 1 8.559 7h3.79a1 1 0 0 1 .554.168l1.007.671a1 1 0 0 1 .34 1.28l-.728 1.456a.999.999 0 0 1-.447.447l-.681.34-.804 2.01a1 1 0 0 1-.928.628h-.535a1 1 0 0 1-.961-.725l-.853-2.984-.81-.648a1 1 0 0 1-.27-1.228l.432-.862zM12.349 8h-3.79l-.431.862.81.648a1 1 0 0 1 .337.506L10.127 13h.534l.804-2.01a1 1 0 0 1 .481-.522l.681-.34.728-1.457L12.35 8z" clip-rule="evenodd"/></svg>