<svg width="48" height="48" viewBox="0 0 48 48" fill="none" xmlns="http://www.w3.org/2000/svg">
<rect width="48" height="48" fill="white"/>
<path d="M8.5 26V11.5H10.3246C14.2 11.5 17.8368 9.62842 20.0894 6.47487L21.5 4.50002H26.5L27.9106 6.47487C30.1632 9.62842 33.8 11.5 37.6754 11.5H39.5V27C39.5 39 24 44.5 24 44.5C24 44.5 8.5 39 8.5 26Z" fill="#CFCFCF"/>
<path fill-rule="evenodd" clip-rule="evenodd" d="M21.2427 4.00002H26.7573L28.3175 6.18425C30.4762 9.2064 33.9615 11 37.6754 11H40V27C40 33.2352 35.9721 37.7401 32.0479 40.6516C30.0785 42.1127 28.1122 43.1907 26.6397 43.9032C25.9027 44.2598 25.2878 44.5256 24.8557 44.7028C24.6397 44.7915 24.4692 44.858 24.3519 44.9026C24.2933 44.9249 24.248 44.9418 24.2169 44.9532L24.181 44.9663L24.1713 44.9698L24.1685 44.9707C24.1683 44.9708 24.1672 44.9712 24 44.5C23.8328 44.9712 23.8326 44.9711 23.8323 44.971L23.8286 44.9697L23.8188 44.9662L23.7827 44.953C23.7515 44.9415 23.706 44.9245 23.6472 44.902C23.5296 44.857 23.3588 44.7899 23.1424 44.7001C22.7097 44.5207 22.0941 44.2505 21.3564 43.8857C19.8824 43.1566 17.9146 42.046 15.9439 40.5204C12.0105 37.4751 8 32.7207 8 26V11H10.3246C14.0385 11 17.5238 9.2064 19.6825 6.18425L21.2427 4.00002ZM24 44.5L23.8323 44.971L24 45.0305L24.1672 44.9712L24 44.5ZM24.0003 43.9664C24.11 43.9246 24.2711 43.8618 24.4763 43.7776C24.8919 43.6072 25.4879 43.3496 26.2041 43.003C27.6378 42.3093 29.5465 41.2623 31.4521 39.8484C35.2779 37.0099 39 32.7648 39 27V12H37.6754C33.6385 12 29.8501 10.0504 27.5037 6.76549L26.2427 5.00002H21.7573L20.4963 6.76549C18.1499 10.0504 14.3615 12 10.3246 12H9V26C9 32.2793 12.7395 36.7749 16.5561 39.7296C18.4604 41.204 20.3676 42.2809 21.7998 42.9893C22.5153 43.3432 23.1106 43.6043 23.5255 43.7764C23.7302 43.8613 23.8909 43.9245 24.0003 43.9664Z" fill="#CFCFCF"/>
<path d="M34 25C34 30.5228 29.5228 35 24 35C18.4772 35 14 30.5228 14 25C14 19.4772 18.4772 15 24 15C29.5228 15 34 19.4772 34 25Z" fill="#42B0D5"/>
<path fill-rule="evenodd" clip-rule="evenodd" d="M30.3241 21.5665L24.9731 29.3498C24.6932 29.7568 24.2309 30 23.737 30H20.7676C20.2661 30 19.7977 29.7493 19.5195 29.3321L17.668 26.5547L19.3321 25.4453L21.0352 28H23.474L28.676 20.4335L30.3241 21.5665Z" fill="white"/>
</svg>
