<svg width="504" height="336" viewBox="0 0 504 336" fill="none" xmlns="http://www.w3.org/2000/svg">
<g clip-path="url(#clip0_3008_1734)">
<path d="M0 0H504V336H0V0Z" fill="#F7F7F7"/>
<rect y="266" width="504" height="40" fill="#878787"/>
<path d="M489.345 77.3785H282.214V84.8547H489.345V77.3785Z" fill="#EDEDED"/>
<path d="M489.345 87H282.214V94.4762H489.345V87Z" fill="#EDEDED"/>
<path d="M489.345 96H282.214V103.476H489.345V96Z" fill="#EDEDED"/>
<path d="M489.345 105H282.214V112.476H489.345V105Z" fill="#EDEDED"/>
<path d="M489.345 114H282.214V121.476H489.345V114Z" fill="#EDEDED"/>
<path d="M489.345 123H282.214V130.476H489.345V123Z" fill="#EDEDED"/>
<path d="M489.131 132H282V139.476H489.131V132Z" fill="#EDEDED"/>
<path d="M490 141H282V266H490V141Z" fill="#E1F5FC"/>
<path d="M282 76H275V266H282V76Z" fill="#7F919F"/>
<path d="M496.883 76.3831H489.877V266.141H496.883V76.3831Z" fill="#7F919F"/>
<path d="M459.491 180.979H475V178.841C475 177.568 474.492 176.348 473.588 175.448C472.684 174.548 471.458 174.043 470.179 174.043H467.011L389.657 146.05V144.761C389.657 143.719 386.654 143.774 386.654 144.761V145.858L326.242 174.07H324.231V181.007H330.126V185.174C330.095 185.518 330.142 185.864 330.262 186.187C330.382 186.511 330.573 186.804 330.821 187.046C331.068 187.287 331.367 187.47 331.695 187.583C332.022 187.696 332.371 187.734 332.716 187.696H340.567V181.007H350.346V248.946C349.132 249.012 347.975 249.475 347.053 250.263C346.131 251.052 345.497 252.121 345.25 253.306H338.363V247.027C338.367 246.931 338.351 246.836 338.316 246.746C338.282 246.656 338.23 246.575 338.163 246.505C338.096 246.436 338.016 246.381 337.927 246.344C337.838 246.306 337.743 246.287 337.647 246.287H330.402C330.306 246.283 330.212 246.299 330.123 246.333C330.034 246.368 329.954 246.42 329.886 246.487C329.819 246.554 329.767 246.634 329.732 246.723C329.697 246.811 329.681 246.905 329.685 247V253.306H328.115V247.027C328.119 246.931 328.103 246.836 328.069 246.746C328.034 246.656 327.982 246.575 327.915 246.505C327.848 246.436 327.768 246.381 327.679 246.344C327.591 246.306 327.495 246.287 327.399 246.287H320.154C320.06 246.283 319.966 246.299 319.879 246.333C319.791 246.368 319.712 246.421 319.647 246.488C319.582 246.556 319.532 246.636 319.501 246.724C319.469 246.813 319.457 246.907 319.465 247V253.278H317.812V247.027C317.812 246.831 317.734 246.643 317.594 246.504C317.455 246.365 317.266 246.287 317.068 246.287H309.823C309.729 246.283 309.636 246.299 309.548 246.333C309.461 246.368 309.382 246.421 309.317 246.488C309.252 246.556 309.202 246.636 309.17 246.724C309.139 246.813 309.127 246.907 309.135 247V253.278H298.529C283.212 253.278 282 266 282 266H449.766C449.766 266 449.463 253.333 433.541 253.333C433.542 252.804 433.379 252.288 433.073 251.856C432.767 251.424 432.333 251.097 431.833 250.921V234.031C431.833 233.355 431.563 232.707 431.082 232.229C430.602 231.75 429.95 231.482 429.271 231.482H404.615C404.277 231.478 403.94 231.541 403.626 231.668C403.312 231.794 403.027 231.982 402.786 232.219C402.545 232.456 402.354 232.738 402.223 233.049C402.093 233.361 402.026 233.694 402.026 234.031V250.893C401.502 251.056 401.044 251.38 400.717 251.818C400.39 252.257 400.212 252.787 400.208 253.333V253.333H395.965C395.86 252.109 395.281 250.973 394.351 250.165C393.421 249.357 392.212 248.94 390.979 249.001V180.979H453.375C453.367 181.125 453.39 181.271 453.443 181.408C453.495 181.545 453.576 181.669 453.68 181.772C453.784 181.876 453.909 181.956 454.046 182.008C454.183 182.061 454.33 182.084 454.477 182.076V187.559C454.094 187.717 453.769 187.989 453.547 188.337C453.325 188.686 453.217 189.094 453.237 189.506H451.502C451.415 189.506 451.329 189.523 451.249 189.556C451.168 189.589 451.096 189.638 451.034 189.699C450.973 189.76 450.924 189.832 450.891 189.912C450.858 189.992 450.841 190.077 450.841 190.164V198.608H462.19V190.219C462.187 190.119 462.163 190.021 462.121 189.931C462.078 189.84 462.018 189.76 461.943 189.693C461.869 189.626 461.781 189.575 461.687 189.543C461.592 189.511 461.491 189.498 461.391 189.506H459.876C459.912 189.087 459.807 188.669 459.578 188.317C459.348 187.964 459.007 187.698 458.609 187.559V182.076C458.748 182.073 458.884 182.041 459.011 181.983C459.137 181.926 459.25 181.843 459.343 181.74C459.435 181.638 459.506 181.517 459.551 181.386C459.595 181.255 459.612 181.117 459.601 180.979H459.491ZM354.589 166.503H349.768C349.043 166.427 348.311 166.495 347.614 166.703C346.916 166.91 346.267 167.253 345.703 167.712C345.14 168.171 344.673 168.737 344.33 169.376C343.988 170.016 343.776 170.716 343.707 171.438V174.18H328.418L386.269 147.174L355.966 173.96V167.846C355.98 167.677 355.956 167.507 355.895 167.348C355.834 167.19 355.737 167.047 355.612 166.931C355.488 166.815 355.338 166.728 355.175 166.678C355.012 166.627 354.84 166.614 354.671 166.64L354.589 166.503ZM385.414 195.044H355.773V183.145L385.414 195.044ZM385.635 249.001H385.387C384.135 249.018 382.926 249.46 381.96 250.252C380.993 251.044 380.327 252.141 380.07 253.361H361.393C361.332 252.709 361.139 252.076 360.826 251.501C360.513 250.925 360.087 250.419 359.572 250.012C359.057 249.604 358.465 249.305 357.831 249.131C357.197 248.958 356.535 248.913 355.883 249.001V197.567H385.552L385.635 249.001ZM385.635 192.714L356.324 181.116H385.635V192.714ZM386.847 174.18H356.792L386.682 147.749L386.847 174.18ZM416.516 237.239H418.362V242.092H416.516V237.239ZM406.902 236.335H414.643C414.642 236.458 414.668 236.58 414.717 236.694C414.766 236.807 414.838 236.91 414.928 236.995C415.019 237.079 415.125 237.145 415.242 237.187C415.359 237.229 415.483 237.247 415.607 237.239V242.12C415.265 242.257 414.974 242.497 414.777 242.807C414.579 243.117 414.484 243.48 414.505 243.847H412.962C412.802 243.847 412.647 243.91 412.534 244.024C412.42 244.137 412.356 244.29 412.356 244.45V247.192H422.521V244.45C422.518 244.361 422.497 244.274 422.458 244.193C422.42 244.113 422.366 244.041 422.299 243.982C422.232 243.923 422.154 243.879 422.069 243.851C421.984 243.823 421.894 243.812 421.805 243.819H420.373C420.412 243.45 420.324 243.078 420.124 242.765C419.924 242.451 419.623 242.214 419.271 242.092V237.212C419.387 237.208 419.5 237.182 419.606 237.135C419.712 237.087 419.807 237.02 419.886 236.936C419.965 236.852 420.027 236.753 420.068 236.645C420.109 236.537 420.128 236.422 420.125 236.307H427.149V250.701C426.596 250.847 426.107 251.17 425.758 251.622C425.409 252.073 425.22 252.627 425.221 253.196V253.196H408.692C408.688 252.65 408.51 252.12 408.183 251.681C407.856 251.243 407.398 250.919 406.874 250.756L406.902 236.335ZM389.85 174.152V147.503L440.868 174.152H389.85ZM457.672 187.669H455.551V182.186H457.617L457.672 187.669ZM442.383 174.152L391.916 147.969L464.973 174.043L442.383 174.152Z" fill="#A8D0E4"/>
<path d="M499.279 58.7318H271.86V76.3164H499.279V58.7318Z" fill="#878787"/>
<path d="M496.196 61.6519H468.171V73.4412H496.196V61.6519Z" fill="#E1E1E1"/>
<path d="M479.878 63.4213H469.967V71.6716H479.878V63.4213Z" fill="#B3B3B3"/>
<path d="M279.664 69.2166C280.656 69.2166 281.46 68.4144 281.46 67.4249C281.46 66.4354 280.656 65.6333 279.664 65.6333C278.672 65.6333 277.868 66.4354 277.868 67.4249C277.868 68.4144 278.672 69.2166 279.664 69.2166Z" fill="#F4F4F4"/>
<path d="M491.673 71.9591C492.665 71.9591 493.469 71.157 493.469 70.1675C493.469 69.178 492.665 68.3759 491.673 68.3759C490.681 68.3759 489.877 69.178 489.877 70.1675C489.877 71.157 490.681 71.9591 491.673 71.9591Z" fill="#B3B3B3"/>
<path d="M491.74 66.6283C492.389 66.6283 492.915 66.1034 492.915 65.456C492.915 64.8085 492.389 64.2837 491.74 64.2837C491.091 64.2837 490.564 64.8085 490.564 65.456C490.564 66.1034 491.091 66.6283 491.74 66.6283Z" fill="#FF635E"/>
<g opacity="0.43">
<path opacity="0.43" d="M253.812 75.631H-35V82.9745H253.812V75.631Z" fill="#FF9E00"/>
<path opacity="0.43" d="M253.812 169.437H-35V176.781H253.812V169.437Z" fill="#FF9E00"/>
<path opacity="0.43" d="M249.533 177.068H244.788V264.106H249.533V177.068Z" fill="#6B4A3E"/>
<path opacity="0.43" d="M173.683 177.068H168.938V264.106H173.683V177.068Z" fill="#6B4A3E"/>
<path opacity="0.43" d="M50.3171 177.068H45.5723V264.106H50.3171V177.068Z" fill="#6B4A3E"/>
<path opacity="0.43" d="M249.533 82.5762H244.788V169.614H249.533V82.5762Z" fill="#6B4A3E"/>
<path opacity="0.43" d="M173.683 82.5762H168.938V169.614H173.683V82.5762Z" fill="#6B4A3E"/>
<path opacity="0.43" d="M50.3171 82.5762H45.5723V169.614H50.3171V82.5762Z" fill="#6B4A3E"/>
<path opacity="0.43" d="M102.755 76.8475H66.2822V82.0012H102.755V76.8475Z" fill="white"/>
<path opacity="0.43" d="M235.831 77.113H199.358V82.2667H235.831V77.113Z" fill="white"/>
<path opacity="0.43" d="M99.761 170.787H63.2881V175.94H99.761V170.787Z" fill="white"/>
<path opacity="0.43" d="M232.838 171.052H196.365V176.206H232.838V171.052Z" fill="white"/>
<path opacity="0.43" d="M16.8209 166.617L43.915 166.589L43.8867 139.56L16.7925 139.588L16.8209 166.617Z" fill="#FF8678"/>
<path opacity="0.43" d="M27.8135 145.704L30.8954 143.823L33.9773 145.704L33.9551 139.554L27.8135 139.577V145.704Z" fill="#FFECCC"/>
<path opacity="0.43" d="M16.8287 138.084L43.9229 138.056L43.8945 111.027L16.8003 111.055L16.8287 138.084Z" fill="#FF8678"/>
<path opacity="0.43" d="M27.835 117.192L30.9169 115.312L33.9988 117.192L33.9766 111.043H27.835V117.192Z" fill="#FFECCC"/>
<path opacity="0.43" d="M-22.5846 263.222H2.24805V238.448H-22.5846V263.222Z" fill="#4097C4"/>
<path opacity="0.43" d="M4.26696 263.199H29.0996V238.426H4.26696V263.199Z" fill="#4097C4"/>
<path opacity="0.43" d="M14.0449 244.111L16.8829 242.385L19.6988 244.089V238.47H14.0449V244.111Z" fill="#CFCFCF"/>
<path opacity="0.43" d="M178.409 43.7846L207.232 43.7545L207.202 14.9999L178.379 15.0301L178.409 43.7846Z" fill="#FFB67F"/>
<path opacity="0.43" d="M190.091 21.5502L193.35 19.5595L196.632 21.5502V15.0251H190.091V21.5502Z" fill="#FF6D00"/>
<path opacity="0.43" d="M163.55 74.3038H192.374V45.5492H163.55V74.3038Z" fill="#FFB67F"/>
<path opacity="0.43" d="M175.124 52.3177L178.405 50.327L181.687 52.3177L181.665 45.7705L175.124 45.7926V52.3177Z" fill="#FF6D00"/>
<path opacity="0.43" d="M194.407 74.5245L223.23 74.4944L223.2 45.7398L194.377 45.7699L194.407 74.5245Z" fill="#FFB67F"/>
<path opacity="0.43" d="M206.1 52.2956L209.381 50.3049L212.663 52.2735V45.7484H206.1V52.2956Z" fill="#FF6D00"/>
<path opacity="0.43" d="M93.4425 43.1605H61.9805V74.5473H93.4425V43.1605Z" fill="#FFB67F"/>
<path opacity="0.43" d="M81.4919 50.681L77.7227 48.4027L73.9756 50.7031V43.1605H81.4697L81.4919 50.681Z" fill="#FF5E4B"/>
<path opacity="0.43" d="M236.896 231.857H205.434V263.244H236.896V231.857Z" fill="#FFB67F"/>
<path opacity="0.43" d="M224.945 239.377L221.176 237.099L217.429 239.399V231.857H224.901L224.945 239.377Z" fill="#EDEDED"/>
<path opacity="0.43" d="M236.541 199.276H205.079V230.663H236.541V199.276Z" fill="#FFB67F"/>
<path opacity="0.43" d="M224.59 206.796L220.821 204.518L217.052 206.818V199.276H224.546L224.59 206.796Z" fill="#EDEDED"/>
<path opacity="0.43" d="M128.829 43.1605H97.3672V74.5473H128.829V43.1605Z" fill="#FFB67F"/>
<path opacity="0.43" d="M116.878 50.681L113.109 48.4027L109.34 50.7031V43.1605H116.834L116.878 50.681Z" fill="#EDEDED"/>
<path opacity="0.43" d="M125.504 111.309H94.042V142.695H125.504V111.309Z" fill="#FFB67F"/>
<path opacity="0.43" d="M113.553 118.829L109.762 116.551L106.015 118.873V111.309H113.509L113.553 118.829Z" fill="#EDEDED"/>
<path opacity="0.43" d="M84.6623 231.857H53.2002V263.243H84.6623V231.857Z" fill="#FFB67F"/>
<path opacity="0.43" d="M72.7338 239.377L68.9424 237.099L65.1953 239.399V231.857H72.6894L72.7338 239.377Z" fill="#EDEDED"/>
<path opacity="0.43" d="M117.321 231.857H85.8594V263.243H117.321V231.857Z" fill="#FFB67F"/>
<path opacity="0.43" d="M105.394 239.377L101.603 237.099L97.8555 239.399V231.857H105.35L105.394 239.377Z" fill="#EDEDED"/>
<path opacity="0.43" d="M154.483 224.16H120.183V263.266H154.483V224.16Z" fill="#FFB67F"/>
<path opacity="0.43" d="M141.446 233.516L137.322 230.685L133.242 233.56V224.16H141.401L141.446 233.516Z" fill="#EDEDED"/>
<path opacity="0.43" d="M154.571 183.704H120.271V222.81H154.571V183.704Z" fill="#FFB67F"/>
<path opacity="0.43" d="M141.534 193.06L137.432 190.229L133.33 193.105V183.704H141.489L141.534 193.06Z" fill="#EDEDED"/>
<path opacity="0.43" d="M134.018 51.7205V74.5693H156.921V51.7205H134.018Z" fill="#7FA79F"/>
<path opacity="0.43" d="M148.895 57.1617L146.146 55.5028L143.419 57.1839V51.6984H148.873L148.895 57.1617Z" fill="#007A6B"/>
<path opacity="0.43" d="M54.2871 143.757V166.606H77.1908V143.757H54.2871Z" fill="#7FA79F"/>
<path opacity="0.43" d="M69.1637 149.221L66.4144 147.562L63.665 149.243V143.757H69.1193L69.1637 149.221Z" fill="#007A6B"/>
<path opacity="0.43" d="M78.7861 144.443V167.292H101.69V144.443H78.7861Z" fill="#7FA79F"/>
<path opacity="0.43" d="M93.6415 149.906L90.8922 148.247L88.165 149.928V144.443H93.6194L93.6415 149.906Z" fill="#007A6B"/>
<path opacity="0.43" d="M103.288 143.757V166.606H126.192V143.757H103.288Z" fill="#7FA79F"/>
<path opacity="0.43" d="M118.142 149.221L115.393 147.562L112.666 149.243V143.757H118.12L118.142 149.221Z" fill="#007A6B"/>
<path opacity="0.43" d="M127.766 143.757V166.606H150.669V143.757H127.766Z" fill="#7FA79F"/>
<path opacity="0.43" d="M142.643 149.221L139.893 147.562L137.166 149.243V143.757H142.62L142.643 149.221Z" fill="#007A6B"/>
<path opacity="0.43" d="M89.6949 18.9178H67.6338V41.7667H89.6949V18.9178Z" fill="#878787"/>
<path opacity="0.43" d="M81.314 24.3812L78.6534 22.7223L76.0371 24.4255V18.9178H81.2919L81.314 24.3812Z" fill="#FCFCFD"/>
<path opacity="0.43" d="M117.1 199.652H86.0811V230.596H117.1V199.652Z" fill="#878787"/>
<path opacity="0.43" d="M105.327 207.062L101.602 204.806L97.8994 207.084V199.652H105.283L105.327 207.062Z" fill="#FCFCFD"/>
<path opacity="0.43" d="M13.0464 131.658H-21.9854V166.606H13.0464V131.658Z" fill="#878787"/>
<path opacity="0.43" d="M208.937 131.658H175.768V166.606H208.937V131.658Z" fill="#878787"/>
<path opacity="0.43" d="M196.343 140.019L192.352 137.498L188.405 140.064V131.658H196.298L196.343 140.019Z" fill="#FCFCFD"/>
<path opacity="0.43" d="M243.369 131.658H210.2V166.606H243.369V131.658Z" fill="#878787"/>
<path opacity="0.43" d="M230.775 140.019L226.807 137.498L222.838 140.063V131.658H230.731L230.775 140.019Z" fill="#FCFCFD"/>
</g>
<path d="M171.772 200.347L163.678 244.112C163.212 246.606 163.399 249.177 164.221 251.577C165.044 253.977 166.474 256.124 168.372 257.811L203.929 289.497C204.188 289.755 204.53 289.91 204.894 289.935L214.502 290.942L218.889 286.106V283.173C218.889 282.763 218.741 282.367 218.472 282.057L187.324 245.207L199.125 212.382L204.412 199.1L171.772 200.347Z" fill="#00243F"/>
<path d="M204.39 191.55L199.103 212.36L193.027 251.749L192.589 302.889C192.576 303.339 192.396 303.768 192.084 304.093L185.92 310.329L180.919 310.133L174.646 303.393C174.369 303.093 174.206 302.706 174.185 302.299L171.465 250.546L170.653 192.359L204.39 191.55Z" fill="#335066"/>
<path d="M206.781 186.32L207.022 200.456C207.02 204.097 206.1 207.679 204.346 210.873L197.349 223.608H171.641" fill="#335066"/>
<path d="M187.193 309.104V316.106C187.193 316.565 187.011 317.005 186.686 317.329C186.361 317.653 185.92 317.835 185.46 317.835H153.325V315.975C153.323 315.182 153.563 314.408 154.014 313.755C154.465 313.102 155.104 312.601 155.848 312.321L175.853 304.706L187.193 309.104Z" fill="#CFCFCF"/>
<path d="M218.867 286.105L223.407 291.445C223.558 291.615 223.672 291.813 223.745 292.028C223.818 292.243 223.846 292.47 223.83 292.696C223.814 292.922 223.752 293.143 223.65 293.345C223.547 293.547 223.405 293.727 223.232 293.874L198.796 314.706L197.546 313.284C197.032 312.688 196.711 311.951 196.625 311.17C196.539 310.389 196.692 309.6 197.063 308.907L207.351 290.175L218.867 286.105Z" fill="#CFCFCF"/>
<path d="M144.79 191.172L143.34 195.603C143.168 196.132 143.457 196.7 143.987 196.872L159.355 201.878C159.884 202.05 160.454 201.762 160.627 201.233L162.077 196.802C162.25 196.274 161.961 195.705 161.431 195.533L146.063 190.528C145.533 190.355 144.963 190.644 144.79 191.172Z" fill="#00243F"/>
<path d="M96.2992 257.523L52.6973 243.323L38.4628 286.82L82.0647 301.021L96.2992 257.523Z" fill="#FFB67F"/>
<path d="M106.207 227.232L75.8467 217.344L65.935 247.632L96.2958 257.52L106.207 227.232Z" fill="#FF5E4B"/>
<path d="M76.2656 262.231L72.2514 257.526L66.1973 258.949L69.4876 248.883L79.5778 252.165L76.2656 262.231Z" fill="#FFECCC"/>
<path d="M144.853 190.938L133.572 187.262L131.978 192.13L143.259 195.806L144.853 190.938Z" fill="#545454"/>
<path d="M101.506 269.798L52.8711 292.505L54.6377 296.271L103.272 273.564L101.506 269.798Z" fill="#545454"/>
<path d="M29.2805 283.786L28.6444 285.712C28.5052 286.132 28.4518 286.577 28.4872 287.018C28.5225 287.46 28.646 287.89 28.8503 288.284C29.0547 288.677 29.3358 289.026 29.6771 289.309C30.0184 289.593 30.4131 289.806 30.8379 289.935L90.5457 309.389C90.9675 309.528 91.4129 309.581 91.8557 309.546C92.2984 309.51 92.7297 309.387 93.124 309.183C93.5184 308.979 93.868 308.699 94.1522 308.358C94.4365 308.018 94.6496 307.624 94.7792 307.2L95.4154 305.275L29.2805 283.786Z" fill="#545454"/>
<path d="M95.1738 304.356L90.2822 302.78L127.155 190.456C127.359 189.826 127.686 189.243 128.116 188.74C128.547 188.238 129.073 187.825 129.665 187.526C130.256 187.227 130.901 187.047 131.562 186.998C132.223 186.949 132.887 187.031 133.517 187.239V187.239L95.1738 304.356Z" fill="#545454"/>
<path d="M102.039 310.329C101.375 312.393 100.111 314.212 98.4085 315.558C96.7059 316.904 94.6411 317.715 92.4759 317.888C90.3106 318.062 88.1425 317.59 86.2464 316.533C84.3503 315.476 82.8116 313.88 81.8254 311.95C80.8392 310.019 80.4499 307.839 80.7069 305.688C80.9639 303.536 81.8556 301.509 83.269 299.863C84.6823 298.218 86.5537 297.028 88.6457 296.444C90.7377 295.861 92.9563 295.911 95.02 296.587C97.7719 297.489 100.055 299.44 101.37 302.015C102.685 304.589 102.925 307.578 102.039 310.329Z" fill="#00243F"/>
<path d="M97.4996 308.842C97.119 309.996 96.404 311.012 95.4449 311.762C94.4858 312.511 93.3256 312.96 92.1109 313.052C90.8961 313.144 89.6813 312.875 88.6198 312.278C87.5583 311.682 86.6977 310.785 86.1468 309.701C85.5959 308.617 85.3793 307.395 85.5243 306.188C85.6694 304.982 86.1697 303.845 86.962 302.922C87.7543 301.998 88.803 301.33 89.9758 301.001C91.1486 300.672 92.3928 300.697 93.5513 301.073C95.1055 301.584 96.3937 302.688 97.1337 304.144C97.8737 305.6 98.0053 307.289 97.4996 308.842V308.842Z" fill="#CFCFCF"/>
<path d="M149.42 191.616L147.227 197.962L143.87 196.867C143.618 196.783 143.409 196.601 143.29 196.364C143.171 196.126 143.151 195.851 143.234 195.598L144.682 191.222C144.722 191.095 144.787 190.977 144.872 190.876C144.958 190.774 145.063 190.69 145.181 190.629C145.299 190.568 145.429 190.531 145.561 190.52C145.694 190.509 145.828 190.524 145.954 190.565L149.42 191.616Z" fill="#00243F"/>
<path d="M186.841 78.9413L187.28 84.237L178.681 83.296C178.443 82.3155 178.376 81.3013 178.484 80.2981C178.791 79.5322 179.866 76.9062 180.458 76.95C181.05 76.9938 186.841 78.9413 186.841 78.9413Z" fill="#4D6679"/>
<path d="M161.002 79.4447C164.753 76.95 165.235 78.7663 165.235 78.7663L177.848 84.6965L183.485 91.8084L185.372 98.3733L189.518 108.111L174.36 121.569L169.447 110.102L157.36 101.699V100.934L154.268 99.73L156.198 92.5087C156.198 84.3902 157.251 82.0268 161.002 79.5103" fill="#FFCCB4"/>
<path d="M157.317 109.315C157.449 112.181 159.291 112.641 165.543 112.619C173.067 112.619 173.637 110.628 173.571 104.544C173.571 102.597 173.571 94.0185 173.703 92.4211C173.834 90.8237 173.703 89.2043 176.993 89.2919C179.472 89.2919 180.174 90.2985 180.196 92.3554V95.3315C180.196 96.9071 181.621 101.196 184.583 99.9488C186.491 97.7605 187.346 95.7692 187.346 86.8191C187.397 85.4471 187.242 84.0751 186.886 82.7489C186.387 80.9673 185.335 79.3891 183.881 78.2411C181.139 76.0528 176.993 75.3525 171.86 75.3525C162.274 75.3525 159.818 77.3439 158.699 81.5672H165.565C166.12 81.536 166.676 81.6278 167.191 81.8358C167.707 82.0439 168.17 82.3632 168.548 82.7708C169.226 83.6432 169.561 84.7326 169.491 85.8344V97.6292C169.497 98.1538 169.398 98.6744 169.199 99.1602C169.001 99.6461 168.707 100.087 168.335 100.458C167.963 100.829 167.521 101.123 167.034 101.321C166.547 101.519 166.025 101.618 165.499 101.612H157.361C157.361 101.612 157.076 104.282 158.238 104.938C157.361 106.01 157.207 106.82 157.317 109.315Z" fill="#00243F"/>
<path d="M160.058 93.0337H160.892C161.043 93.0337 161.188 92.9738 161.295 92.8671C161.402 92.7604 161.462 92.6156 161.462 92.4648V91.6332C161.462 91.4823 161.402 91.3376 161.295 91.2309C161.188 91.1242 161.043 91.0643 160.892 91.0643H160.058C159.981 91.0613 159.905 91.0739 159.833 91.1011C159.761 91.1284 159.696 91.1698 159.641 91.223C159.585 91.2761 159.541 91.3398 159.511 91.4103C159.481 91.4808 159.466 91.5566 159.466 91.6332V92.4648C159.471 92.6176 159.536 92.7623 159.647 92.8685C159.757 92.9746 159.905 93.0338 160.058 93.0337" fill="#00243F"/>
<path d="M189.452 107.805L173.088 121.131C172.393 121.696 171.888 122.46 171.641 123.319L169.645 131.022L190.768 110.89L189.452 107.805Z" fill="#00B2D9"/>
<path d="M166.42 144.021L168.262 196.211L206.89 193.169L206.715 183.76L206.408 169.886L206.122 162.884L205.859 144.393V143.802L205.618 133.079C205.552 129.675 204.295 126.4 202.064 123.823L190.768 110.759L173.856 125.355C171.196 127.635 169.131 130.524 167.836 133.775C166.54 137.026 166.055 140.541 166.42 144.021V144.021Z" fill="#00243F"/>
<path d="M156.505 185.445L149.925 189.646L146.591 197.896C146.448 198.241 146.416 198.622 146.499 198.986C146.581 199.35 146.774 199.68 147.051 199.931L149.683 202.316C149.973 202.588 150.342 202.759 150.737 202.807C151.132 202.854 151.531 202.774 151.877 202.579L159.094 198.728L162.56 191.091" fill="#FFCCB4"/>
<path d="M156.505 185.445L162.559 191.068L192.303 177.545C193.512 176.719 194.426 175.531 194.914 174.153L203.227 151.11L188.794 146.209L181.577 167.851L156.505 185.445Z" fill="#FFCCB4"/>
<path d="M183.398 84.9372V81.3484C183.392 81.0779 183.444 80.8092 183.551 80.5606C183.72 80.1112 184.018 79.7217 184.409 79.4413C184.799 79.1609 185.264 79.0021 185.745 78.9851H186.754C186.637 77.9752 186.424 76.9786 186.118 76.009C185.753 74.9855 185.172 74.0517 184.416 73.2705C183.659 72.4892 182.744 71.8784 181.731 71.4793C178.493 70.3493 175.066 69.8587 171.641 70.035C168.208 69.8592 164.774 70.3497 161.528 71.4793C160.523 71.8481 159.61 72.4305 158.852 73.1862C158.095 73.9419 157.511 74.8528 157.141 75.8558C156.464 78.7988 156.118 81.8081 156.11 84.8278L183.398 84.9372Z" fill="#00B2D9"/>
<path d="M145.954 84.9376H156.922V81.8302H148.345C146.59 81.8302 145.954 83.3182 145.954 84.9376Z" fill="#00B2D9"/>
<path d="M187.346 84.9154L183.397 84.9372V82.0487H187.105L187.346 84.9154Z" fill="#4D6679"/>
</g>
<defs>
<clipPath id="clip0_3008_1734">
<rect width="504" height="336" fill="white"/>
</clipPath>
</defs>
</svg>
