<svg width="48" height="48" viewBox="0 0 48 48" fill="none" xmlns="http://www.w3.org/2000/svg">
<rect width="48" height="48" fill="white"/>
<path d="M4 36C4 35.4477 4.44772 35 5 35H43C43.5523 35 44 35.4477 44 36V37C44 37.5523 43.5523 38 43 38H5C4.44771 38 4 37.5523 4 37V36Z" fill="#EDEDED"/>
<path d="M7 35H9V38H7V35Z" fill="#CFCFCF"/>
<path d="M11 35H13V38H11V35Z" fill="#CFCFCF"/>
<path d="M15 35H17V38H15V35Z" fill="#CFCFCF"/>
<path d="M19 35H21V38H19V35Z" fill="#CFCFCF"/>
<path d="M23 35H25V38H23V35Z" fill="#CFCFCF"/>
<path d="M27 35H29V38H27V35Z" fill="#CFCFCF"/>
<path d="M31 35H33V38H31V35Z" fill="#CFCFCF"/>
<path d="M35 35H37V38H35V35Z" fill="#CFCFCF"/>
<path d="M39 35H41V38H39V35Z" fill="#CFCFCF"/>
<path d="M5 18.5987V35H43C43 31.2491 40.2883 28.048 36.5884 27.4314L32.3159 26.7193C29.5824 26.2637 27.1945 24.6127 25.8029 22.2162L19.4852 11.3357C19.2146 10.8696 18.6233 10.7018 18.1482 10.9563L5.52778 17.7173C5.20282 17.8913 5 18.2301 5 18.5987Z" fill="#4CC6BC"/>
<mask id="mask0_1083_258" style="mask-type:alpha" maskUnits="userSpaceOnUse" x="5" y="10" width="38" height="25">
<path d="M5 18.5987V35H43C43 31.2491 40.2883 28.048 36.5884 27.4314L32.3159 26.7193C29.5824 26.2637 27.1945 24.6127 25.8029 22.2162L19.4852 11.3357C19.2146 10.8696 18.6233 10.7018 18.1482 10.9563L5.52778 17.7173C5.20282 17.8913 5 18.2301 5 18.5987Z" fill="#4CC6BC"/>
</mask>
<g mask="url(#mask0_1083_258)">
<path d="M35 27H43V35H35V27Z" fill="#EDEDED"/>
<path d="M5 16H7V35H5V16Z" fill="white"/>
<path d="M5 16H7V35H5V16Z" fill="#4DB5AB"/>
<path d="M33 25H35V35H33V25Z" fill="#545454"/>
<path d="M22.3301 14L23.3301 15.7321L19 18.2321L18 16.5L22.3301 14Z" fill="#F7F7F7"/>
<path d="M24.3301 17.4641L25.3301 19.1961L21 21.6961L20 19.9641L24.3301 17.4641Z" fill="#F7F7F7"/>
<path d="M26.3301 20.9282L27.3301 22.6602L23 25.1602L22 23.4282L26.3301 20.9282Z" fill="#F7F7F7"/>
<path d="M18 24C18 26.2091 16.2091 28 14 28C11.7909 28 10 26.2091 10 24C10 21.7909 11.7909 20 14 20C16.2091 20 18 21.7909 18 24Z" fill="#F7F7F7"/>
<path d="M16 24C16 25.1046 15.1046 26 14 26C12.8954 26 12 25.1046 12 24C12 22.8954 12.8954 22 14 22C15.1046 22 16 22.8954 16 24Z" fill="white"/>
<path d="M16 24C16 25.1046 15.1046 26 14 26C12.8954 26 12 25.1046 12 24C12 22.8954 12.8954 22 14 22C15.1046 22 16 22.8954 16 24Z" fill="#FA381C" fill-opacity="0.75"/>
</g>
</svg>
