<svg width="44" height="44" viewBox="0 0 44 44" fill="none" xmlns="http://www.w3.org/2000/svg">
<rect width="44" height="44" rx="4" fill="white"/>
<rect y="7" width="37" height="37" rx="18.5" fill="white"/>
<rect y="7" width="37" height="37" rx="18.5" fill="#B5E0F5" fill-opacity="0.3"/>
<path fill-rule="evenodd" clip-rule="evenodd" d="M18.4997 44.0002C14.6492 44.0002 11.0112 42.8767 7.78906 40.8805L9.78786 33.4756C10.2887 31.6202 11.6949 30.3687 13.2787 30.3687H23.7205C25.3043 30.3687 26.7104 31.6202 27.2113 33.4756L29.2101 40.8806C25.988 42.8767 22.3501 44.0002 18.4997 44.0002Z" fill="#42B0D5"/>
<path fill-rule="evenodd" clip-rule="evenodd" d="M18.4997 44.0002C14.6492 44.0002 11.0112 42.8767 7.78906 40.8805L9.78786 33.4756C10.2887 31.6202 11.6949 30.3687 13.2787 30.3687H23.7205C25.3043 30.3687 26.7104 31.6202 27.2113 33.4756L29.2101 40.8806C25.988 42.8767 22.3501 44.0002 18.4997 44.0002Z" fill="#42B0D5"/>
<path fill-rule="evenodd" clip-rule="evenodd" d="M16.066 16.7368C14.7217 16.7368 13.6318 17.8993 13.6318 19.3333V25.8245C13.6318 27.2585 14.7217 28.421 16.066 28.421H20.9345C22.2788 28.421 23.3687 27.2585 23.3687 25.8245V19.3333C23.3687 17.8993 22.2788 16.7368 20.9345 16.7368H16.066Z" fill="#42B0D5"/>
<path d="M21.8462 0C20.8266 0 20 0.814027 20 1.81818V8.09091V11.7273C20 12.7314 20.8266 13.5455 21.8462 13.5455H26.4615V17.1818V18.5004C26.4615 18.7765 26.6854 19 26.9615 19H28.7984C29.3463 19 29.8659 18.7603 30.2167 18.3458L34.7692 13.5455H42.1538C43.1734 13.5455 44 12.7314 44 11.7273V1.81818C44 0.814029 43.1734 0 42.1538 0H21.8462Z" fill="#EDEDED"/>
<circle cx="27" cy="7" r="1" fill="#878787"/>
<circle cx="32" cy="7" r="1" fill="#878787"/>
<circle cx="37" cy="7" r="1" fill="#878787"/>
</svg>
