<svg width="48" height="48" viewBox="0 0 48 48" fill="none" xmlns="http://www.w3.org/2000/svg">
<rect width="48" height="48" fill="white"/>
<path d="M45 41C45 42.6569 43.6569 44 42 44L6 44C4.34314 44 3 42.6569 3 41L3 16L45 16L45 41Z" fill="#0073AB"/>
<path d="M10.6202 21H7V24.8728C7 25.5995 7.26375 26.3014 7.74227 26.8483L10.5 30L7.74227 33.1517C7.26375 33.6986 7 34.4005 7 35.1272V39H10.6202C11.496 39 12.328 38.6173 12.898 37.9524L17.2778 32.8426C17.7438 32.2989 18 31.6064 18 30.8902V29.1098C18 28.3936 17.7438 27.7011 17.2778 27.1574L12.898 22.0476C12.328 21.3827 11.496 21 10.6202 21Z" fill="#B5E0F5"/>
<path d="M18.1105 21.953L12.8068 27.6355C12.2884 28.191 12 28.9226 12 29.6825V30.7574C12 31.553 12.3161 32.3161 12.8787 32.8787L18.1213 38.1213C18.6839 38.6839 19.447 39 20.2426 39H33.7574C34.553 39 35.3161 38.6839 35.8787 38.1213L41.1213 32.8787C41.6839 32.3161 42 31.553 42 30.7574V29.6825C42 28.9226 41.7116 28.191 41.1932 27.6355L35.8895 21.953C35.3221 21.3451 34.5279 21 33.6963 21H20.3037C19.4721 21 18.6779 21.3451 18.1105 21.953Z" fill="#F7F7F7"/>
<path d="M33.6963 21H30V39H33.7574C34.553 39 35.3161 38.6839 35.8787 38.1213L41.1213 32.8787C41.6839 32.3161 42 31.553 42 30.7574V29.6825C42 28.9226 41.7116 28.191 41.1932 27.6355L35.8895 21.953C35.3221 21.3451 34.5279 21 33.6963 21Z" fill="#B5E0F5"/>
<path d="M38 29C38 29.5523 37.5523 30 37 30C36.4477 30 36 29.5523 36 29C36 28.4477 36.4477 28 37 28C37.5523 28 38 28.4477 38 29Z" fill="#0073AB"/>
<path d="M20.2012 25.3415L17.2474 28.7172C17.0879 28.8995 17 29.1335 17 29.3757V30.6243C17 30.8665 17.0879 31.1005 17.2474 31.2828L20.2012 34.6585C20.3911 34.8755 20.6654 35 20.9538 35H26V25H20.9538C20.6654 25 20.3911 25.1245 20.2012 25.3415Z" fill="#B5E0F5"/>
<path d="M1 11C1 10.4477 1.44772 10 2 10H46C46.5523 10 47 10.4477 47 11V15C47 15.5523 46.5523 16 46 16H2C1.44772 16 1 15.5523 1 15V11Z" fill="#0073AB"/>
<path d="M3 8C3 6.34315 4.34315 5 6 5H42C43.6569 5 45 6.34315 45 8V10H3V8Z" fill="#B5E0F5"/>
<path d="M3 16H45V18H3V16Z" fill="#005487"/>
</svg>
