<svg width="48" height="48" viewBox="0 0 48 48" fill="none" xmlns="http://www.w3.org/2000/svg">
<rect width="48" height="48" fill="white"/>
<path d="M2 36H46V38C46 39.6569 44.6569 41 43 41H5C3.34315 41 2 39.6569 2 38V36Z" fill="#CFCFCF"/>
<path d="M19 36H29V36.5C29 37.3284 28.3284 38 27.5 38H20.5C19.6716 38 19 37.3284 19 36.5V36Z" fill="#878787"/>
<path d="M5 12H43V36H5V12Z" fill="#545454"/>
<path d="M5 11C5 9.34315 6.34315 8 8 8H40C41.6569 8 43 9.34315 43 11V12H5V11Z" fill="#EDEDED"/>
<path d="M37 17.5V30.5C37 31.3284 36.3284 32 35.5 32H12.5C11.6716 32 11 31.3284 11 30.5V17.5C11 16.6716 11.6716 16 12.5 16H35.5C36.3284 16 37 16.6716 37 17.5Z" fill="#EDEDED"/>
<path fill-rule="evenodd" clip-rule="evenodd" d="M17 27V21H19V27H17Z" fill="#545454"/>
<path fill-rule="evenodd" clip-rule="evenodd" d="M23 27V21H25V27H23Z" fill="#545454"/>
<path fill-rule="evenodd" clip-rule="evenodd" d="M29 27V21H31V27H29Z" fill="#545454"/>
</svg>
